<?xml version="1.0" encoding="utf-8" standalone="no"?>
<!DOCTYPE svg PUBLIC "-//W3C//DTD SVG 1.1//EN"
  "http://www.w3.org/Graphics/SVG/1.1/DTD/svg11.dtd">
<!-- Created with matplotlib (https://matplotlib.org/) -->
<svg height="288pt" version="1.1" viewBox="0 0 432 288" width="432pt" xmlns="http://www.w3.org/2000/svg" xmlns:xlink="http://www.w3.org/1999/xlink">
 <metadata>
  <rdf:RDF xmlns:cc="http://creativecommons.org/ns#" xmlns:dc="http://purl.org/dc/elements/1.1/" xmlns:rdf="http://www.w3.org/1999/02/22-rdf-syntax-ns#">
   <cc:Work>
    <dc:type rdf:resource="http://purl.org/dc/dcmitype/StillImage"/>
    <dc:date>2022-04-25T08:37:14.659493</dc:date>
    <dc:format>image/svg+xml</dc:format>
    <dc:creator>
     <cc:Agent>
      <dc:title>Matplotlib v3.3.4, https://matplotlib.org/</dc:title>
     </cc:Agent>
    </dc:creator>
   </cc:Work>
  </rdf:RDF>
 </metadata>
 <defs>
  <style type="text/css">*{stroke-linecap:butt;stroke-linejoin:round;}</style>
 </defs>
 <g id="figure_1">
  <g id="patch_1">
   <path d="M 0 288 
L 432 288 
L 432 0 
L 0 0 
z
" style="fill:none;"/>
  </g>
  <g id="axes_1">
   <g id="patch_2">
    <path d="M 44.225 246.821875 
L 337.8384 246.821875 
L 337.8384 14.599219 
L 44.225 14.599219 
z
" style="fill:#ffffff;"/>
   </g>
   <g id="PathCollection_1">
    <path clip-path="url(#pf819e7d5b4)" d="M 63.640628 223.599609 
L 61.486288 200.377344 
L 58.112317 177.155078 
L 53.955857 153.932813 
L 49.693889 130.710547 
L 46.003768 107.488281 
L 44.225 92.714896 
L 44.225 107.488281 
L 44.225 130.710547 
L 44.225 153.932813 
L 44.225 177.155078 
L 44.225 200.377344 
L 44.225 223.599609 
L 44.225 246.821875 
L 64.375994 246.821875 
z
" style="fill:#48186a;"/>
   </g>
   <g id="PathCollection_2">
    <path clip-path="url(#pf819e7d5b4)" d="M 73.58634 246.821875 
L 99.680637 246.821875 
L 98.754143 223.599609 
L 96.03399 200.377344 
L 91.775104 177.155078 
L 86.583919 153.932813 
L 81.409237 130.710547 
L 77.120712 107.488281 
L 73.979119 84.266016 
L 73.58634 79.855527 
L 72.053385 61.04375 
L 70.999255 37.821484 
L 70.663127 14.599219 
L 44.225 14.599219 
L 44.225 37.821484 
L 44.225 61.04375 
L 44.225 84.266016 
L 44.225 92.714896 
L 46.003768 107.488281 
L 49.693889 130.710547 
L 53.955857 153.932813 
L 58.112317 177.155078 
L 61.486288 200.377344 
L 63.640628 223.599609 
L 64.375994 246.821875 
z
" style="fill:#424086;"/>
   </g>
   <g id="PathCollection_3">
    <path clip-path="url(#pf819e7d5b4)" d="M 102.94768 246.821875 
L 132.30902 246.821875 
L 144.18839 246.821875 
L 142.660139 223.599609 
L 138.155781 200.377344 
L 132.30902 181.148525 
L 131.308451 177.155078 
L 124.038025 153.932813 
L 117.00747 130.710547 
L 111.631695 107.488281 
L 107.954623 84.266016 
L 105.646354 61.04375 
L 104.395619 37.821484 
L 104.001521 14.599219 
L 102.94768 14.599219 
L 73.58634 14.599219 
L 70.663127 14.599219 
L 70.999255 37.821484 
L 72.053385 61.04375 
L 73.58634 79.855527 
L 73.979119 84.266016 
L 77.120712 107.488281 
L 81.409237 130.710547 
L 86.583919 153.932813 
L 91.775104 177.155078 
L 96.03399 200.377344 
L 98.754143 223.599609 
L 99.680637 246.821875 
z
" style="fill:#33638d;"/>
   </g>
   <g id="PathCollection_4">
    <path clip-path="url(#pf819e7d5b4)" d="M 161.67036 246.821875 
L 191.0317 246.821875 
L 206.103905 246.821875 
L 203.1333 223.599609 
L 194.229675 200.377344 
L 191.0317 195.399827 
L 182.188027 177.155078 
L 168.536535 153.932813 
L 161.67036 141.20259 
L 157.057477 130.710547 
L 149.918029 107.488281 
L 145.527365 84.266016 
L 142.962826 61.04375 
L 141.633198 37.821484 
L 141.222923 14.599219 
L 132.30902 14.599219 
L 104.001521 14.599219 
L 104.395619 37.821484 
L 105.646354 61.04375 
L 107.954623 84.266016 
L 111.631695 107.488281 
L 117.00747 130.710547 
L 124.038025 153.932813 
L 131.308451 177.155078 
L 132.30902 181.148525 
L 138.155781 200.377344 
L 142.660139 223.599609 
L 144.18839 246.821875 
z
" style="fill:#26828e;"/>
   </g>
   <g id="PathCollection_5">
    <path clip-path="url(#pf819e7d5b4)" d="M 220.39304 246.821875 
L 249.75438 246.821875 
L 279.11572 246.821875 
L 308.47706 246.821875 
L 337.8384 246.821875 
L 337.8384 223.599609 
L 337.8384 203.154524 
L 323.409653 200.377344 
L 308.47706 198.964072 
L 279.11572 189.497329 
L 259.547591 177.155078 
L 249.75438 172.942083 
L 224.448477 153.932813 
L 220.39304 150.765435 
L 202.520216 130.710547 
L 192.177606 107.488281 
L 191.0317 102.658267 
L 186.960121 84.266016 
L 184.226156 61.04375 
L 182.889042 37.821484 
L 182.487741 14.599219 
L 161.67036 14.599219 
L 141.222923 14.599219 
L 141.633198 37.821484 
L 142.962826 61.04375 
L 145.527365 84.266016 
L 149.918029 107.488281 
L 157.057477 130.710547 
L 161.67036 141.20259 
L 168.536535 153.932813 
L 182.188027 177.155078 
L 191.0317 195.399827 
L 194.229675 200.377344 
L 203.1333 223.599609 
L 206.103905 246.821875 
z
" style="fill:#1fa088;"/>
   </g>
   <g id="PathCollection_6">
    <path clip-path="url(#pf819e7d5b4)" d="M 337.8384 203.154524 
L 337.8384 200.377344 
L 337.8384 177.155078 
L 337.8384 155.857286 
L 321.76643 153.932813 
L 308.47706 153.052094 
L 279.11572 145.996054 
L 251.651445 130.710547 
L 249.75438 127.373661 
L 238.710362 107.488281 
L 233.050088 84.266016 
L 230.329544 61.04375 
L 229.074476 37.821484 
L 228.708203 14.599219 
L 220.39304 14.599219 
L 191.0317 14.599219 
L 182.487741 14.599219 
L 182.889042 37.821484 
L 184.226156 61.04375 
L 186.960121 84.266016 
L 191.0317 102.658267 
L 192.177606 107.488281 
L 202.520216 130.710547 
L 220.39304 150.765435 
L 224.448477 153.932813 
L 249.75438 172.942083 
L 259.547591 177.155078 
L 279.11572 189.497329 
L 308.47706 198.964072 
L 323.409653 200.377344 
z
" style="fill:#3fbc73;"/>
   </g>
   <g id="PathCollection_7">
    <path clip-path="url(#pf819e7d5b4)" d="M 337.8384 155.857286 
L 337.8384 153.932813 
L 337.8384 142.668472 
L 308.47706 134.688501 
L 298.772516 130.710547 
L 287.65077 107.488281 
L 283.329718 84.266016 
L 281.42864 61.04375 
L 280.601088 37.821484 
L 280.366118 14.599219 
L 279.11572 14.599219 
L 249.75438 14.599219 
L 228.708203 14.599219 
L 229.074476 37.821484 
L 230.329544 61.04375 
L 233.050088 84.266016 
L 238.710362 107.488281 
L 249.75438 127.373661 
L 251.651445 130.710547 
L 279.11572 145.996054 
L 308.47706 153.052094 
L 321.76643 153.932813 
z
" style="fill:#84d44b;"/>
   </g>
   <g id="PathCollection_8">
    <path clip-path="url(#pf819e7d5b4)" d="M 308.47706 134.688501 
L 337.8384 142.668472 
L 337.8384 130.710547 
L 337.8384 107.488281 
L 337.8384 84.266016 
L 337.8384 61.04375 
L 337.8384 37.821484 
L 337.8384 14.599219 
L 308.47706 14.599219 
L 280.366118 14.599219 
L 280.601088 37.821484 
L 281.42864 61.04375 
L 283.329718 84.266016 
L 287.65077 107.488281 
L 298.772516 130.710547 
z
" style="fill:#d8e219;"/>
   </g>
   <g id="matplotlib.axis_1">
    <g id="xtick_1">
     <g id="line2d_1">
      <defs>
       <path d="M 0 0 
L 0 3.5 
" id="mbc9da648db" style="stroke:#000000;stroke-width:0.8;"/>
      </defs>
      <g>
       <use style="stroke:#000000;stroke-width:0.8;" x="44.225" xlink:href="#mbc9da648db" y="246.821875"/>
      </g>
     </g>
     <g id="text_1">
      <!-- 0 -->
      <g transform="translate(41.04375 261.420313)scale(0.1 -0.1)">
       <defs>
        <path d="M 31.78125 66.40625 
Q 24.171875 66.40625 20.328125 58.90625 
Q 16.5 51.421875 16.5 36.375 
Q 16.5 21.390625 20.328125 13.890625 
Q 24.171875 6.390625 31.78125 6.390625 
Q 39.453125 6.390625 43.28125 13.890625 
Q 47.125 21.390625 47.125 36.375 
Q 47.125 51.421875 43.28125 58.90625 
Q 39.453125 66.40625 31.78125 66.40625 
z
M 31.78125 74.21875 
Q 44.046875 74.21875 50.515625 64.515625 
Q 56.984375 54.828125 56.984375 36.375 
Q 56.984375 17.96875 50.515625 8.265625 
Q 44.046875 -1.421875 31.78125 -1.421875 
Q 19.53125 -1.421875 13.0625 8.265625 
Q 6.59375 17.96875 6.59375 36.375 
Q 6.59375 54.828125 13.0625 64.515625 
Q 19.53125 74.21875 31.78125 74.21875 
z
" id="DejaVuSans-48"/>
       </defs>
       <use xlink:href="#DejaVuSans-48"/>
      </g>
     </g>
    </g>
    <g id="xtick_2">
     <g id="line2d_2">
      <g>
       <use style="stroke:#000000;stroke-width:0.8;" x="102.94768" xlink:href="#mbc9da648db" y="246.821875"/>
      </g>
     </g>
     <g id="text_2">
      <!-- 2 -->
      <g transform="translate(99.76643 261.420313)scale(0.1 -0.1)">
       <defs>
        <path d="M 19.1875 8.296875 
L 53.609375 8.296875 
L 53.609375 0 
L 7.328125 0 
L 7.328125 8.296875 
Q 12.9375 14.109375 22.625 23.890625 
Q 32.328125 33.6875 34.8125 36.53125 
Q 39.546875 41.84375 41.421875 45.53125 
Q 43.3125 49.21875 43.3125 52.78125 
Q 43.3125 58.59375 39.234375 62.25 
Q 35.15625 65.921875 28.609375 65.921875 
Q 23.96875 65.921875 18.8125 64.3125 
Q 13.671875 62.703125 7.8125 59.421875 
L 7.8125 69.390625 
Q 13.765625 71.78125 18.9375 73 
Q 24.125 74.21875 28.421875 74.21875 
Q 39.75 74.21875 46.484375 68.546875 
Q 53.21875 62.890625 53.21875 53.421875 
Q 53.21875 48.921875 51.53125 44.890625 
Q 49.859375 40.875 45.40625 35.40625 
Q 44.1875 33.984375 37.640625 27.21875 
Q 31.109375 20.453125 19.1875 8.296875 
z
" id="DejaVuSans-50"/>
       </defs>
       <use xlink:href="#DejaVuSans-50"/>
      </g>
     </g>
    </g>
    <g id="xtick_3">
     <g id="line2d_3">
      <g>
       <use style="stroke:#000000;stroke-width:0.8;" x="161.67036" xlink:href="#mbc9da648db" y="246.821875"/>
      </g>
     </g>
     <g id="text_3">
      <!-- 4 -->
      <g transform="translate(158.48911 261.420313)scale(0.1 -0.1)">
       <defs>
        <path d="M 37.796875 64.3125 
L 12.890625 25.390625 
L 37.796875 25.390625 
z
M 35.203125 72.90625 
L 47.609375 72.90625 
L 47.609375 25.390625 
L 58.015625 25.390625 
L 58.015625 17.1875 
L 47.609375 17.1875 
L 47.609375 0 
L 37.796875 0 
L 37.796875 17.1875 
L 4.890625 17.1875 
L 4.890625 26.703125 
z
" id="DejaVuSans-52"/>
       </defs>
       <use xlink:href="#DejaVuSans-52"/>
      </g>
     </g>
    </g>
    <g id="xtick_4">
     <g id="line2d_4">
      <g>
       <use style="stroke:#000000;stroke-width:0.8;" x="220.39304" xlink:href="#mbc9da648db" y="246.821875"/>
      </g>
     </g>
     <g id="text_4">
      <!-- 6 -->
      <g transform="translate(217.21179 261.420313)scale(0.1 -0.1)">
       <defs>
        <path d="M 33.015625 40.375 
Q 26.375 40.375 22.484375 35.828125 
Q 18.609375 31.296875 18.609375 23.390625 
Q 18.609375 15.53125 22.484375 10.953125 
Q 26.375 6.390625 33.015625 6.390625 
Q 39.65625 6.390625 43.53125 10.953125 
Q 47.40625 15.53125 47.40625 23.390625 
Q 47.40625 31.296875 43.53125 35.828125 
Q 39.65625 40.375 33.015625 40.375 
z
M 52.59375 71.296875 
L 52.59375 62.3125 
Q 48.875 64.0625 45.09375 64.984375 
Q 41.3125 65.921875 37.59375 65.921875 
Q 27.828125 65.921875 22.671875 59.328125 
Q 17.53125 52.734375 16.796875 39.40625 
Q 19.671875 43.65625 24.015625 45.921875 
Q 28.375 48.1875 33.59375 48.1875 
Q 44.578125 48.1875 50.953125 41.515625 
Q 57.328125 34.859375 57.328125 23.390625 
Q 57.328125 12.15625 50.6875 5.359375 
Q 44.046875 -1.421875 33.015625 -1.421875 
Q 20.359375 -1.421875 13.671875 8.265625 
Q 6.984375 17.96875 6.984375 36.375 
Q 6.984375 53.65625 15.1875 63.9375 
Q 23.390625 74.21875 37.203125 74.21875 
Q 40.921875 74.21875 44.703125 73.484375 
Q 48.484375 72.75 52.59375 71.296875 
z
" id="DejaVuSans-54"/>
       </defs>
       <use xlink:href="#DejaVuSans-54"/>
      </g>
     </g>
    </g>
    <g id="xtick_5">
     <g id="line2d_5">
      <g>
       <use style="stroke:#000000;stroke-width:0.8;" x="279.11572" xlink:href="#mbc9da648db" y="246.821875"/>
      </g>
     </g>
     <g id="text_5">
      <!-- 8 -->
      <g transform="translate(275.93447 261.420313)scale(0.1 -0.1)">
       <defs>
        <path d="M 31.78125 34.625 
Q 24.75 34.625 20.71875 30.859375 
Q 16.703125 27.09375 16.703125 20.515625 
Q 16.703125 13.921875 20.71875 10.15625 
Q 24.75 6.390625 31.78125 6.390625 
Q 38.8125 6.390625 42.859375 10.171875 
Q 46.921875 13.96875 46.921875 20.515625 
Q 46.921875 27.09375 42.890625 30.859375 
Q 38.875 34.625 31.78125 34.625 
z
M 21.921875 38.8125 
Q 15.578125 40.375 12.03125 44.71875 
Q 8.5 49.078125 8.5 55.328125 
Q 8.5 64.0625 14.71875 69.140625 
Q 20.953125 74.21875 31.78125 74.21875 
Q 42.671875 74.21875 48.875 69.140625 
Q 55.078125 64.0625 55.078125 55.328125 
Q 55.078125 49.078125 51.53125 44.71875 
Q 48 40.375 41.703125 38.8125 
Q 48.828125 37.15625 52.796875 32.3125 
Q 56.78125 27.484375 56.78125 20.515625 
Q 56.78125 9.90625 50.3125 4.234375 
Q 43.84375 -1.421875 31.78125 -1.421875 
Q 19.734375 -1.421875 13.25 4.234375 
Q 6.78125 9.90625 6.78125 20.515625 
Q 6.78125 27.484375 10.78125 32.3125 
Q 14.796875 37.15625 21.921875 38.8125 
z
M 18.3125 54.390625 
Q 18.3125 48.734375 21.84375 45.5625 
Q 25.390625 42.390625 31.78125 42.390625 
Q 38.140625 42.390625 41.71875 45.5625 
Q 45.3125 48.734375 45.3125 54.390625 
Q 45.3125 60.0625 41.71875 63.234375 
Q 38.140625 66.40625 31.78125 66.40625 
Q 25.390625 66.40625 21.84375 63.234375 
Q 18.3125 60.0625 18.3125 54.390625 
z
" id="DejaVuSans-56"/>
       </defs>
       <use xlink:href="#DejaVuSans-56"/>
      </g>
     </g>
    </g>
    <g id="xtick_6">
     <g id="line2d_6">
      <g>
       <use style="stroke:#000000;stroke-width:0.8;" x="337.8384" xlink:href="#mbc9da648db" y="246.821875"/>
      </g>
     </g>
     <g id="text_6">
      <!-- 10 -->
      <g transform="translate(331.4759 261.420313)scale(0.1 -0.1)">
       <defs>
        <path d="M 12.40625 8.296875 
L 28.515625 8.296875 
L 28.515625 63.921875 
L 10.984375 60.40625 
L 10.984375 69.390625 
L 28.421875 72.90625 
L 38.28125 72.90625 
L 38.28125 8.296875 
L 54.390625 8.296875 
L 54.390625 0 
L 12.40625 0 
z
" id="DejaVuSans-49"/>
       </defs>
       <use xlink:href="#DejaVuSans-49"/>
       <use x="63.623047" xlink:href="#DejaVuSans-48"/>
      </g>
     </g>
    </g>
    <g id="text_7">
     <!-- $\xi$ index -->
     <g transform="translate(172.8817 275.1)scale(0.1 -0.1)">
      <defs>
       <path d="M 31.5 6.203125 
Q 37.9375 6.15625 41.0625 2.484375 
Q 44.4375 -1.375 43.3125 -7.234375 
Q 42.1875 -12.84375 37.84375 -16.75 
Q 33.109375 -21 25.140625 -21 
Q 25.875 -17.328125 26.5625 -13.625 
Q 29.890625 -13.875 32.375 -11.71875 
Q 34.28125 -10.015625 34.625 -8.203125 
Q 35.109375 -5.609375 33.984375 -3.46875 
Q 32.8125 -1.421875 30.03125 -1.421875 
Q -0.390625 -1.421875 3.765625 19.921875 
Q 6.59375 34.578125 23.6875 38.875 
Q 10.359375 40.625 12.84375 53.328125 
Q 14.703125 62.9375 26.21875 66.9375 
L 16.0625 66.9375 
L 17.828125 75.984375 
L 56.34375 75.984375 
L 54.59375 66.9375 
Q 23.875 66.9375 21.09375 52.734375 
Q 19.28125 43.40625 45.015625 42.96875 
L 43.40625 34.671875 
Q 15.765625 35.75 12.796875 19.921875 
Q 10.296875 6.6875 31.5 6.203125 
z
" id="DejaVuSans-Oblique-958"/>
       <path id="DejaVuSans-32"/>
       <path d="M 9.421875 54.6875 
L 18.40625 54.6875 
L 18.40625 0 
L 9.421875 0 
z
M 9.421875 75.984375 
L 18.40625 75.984375 
L 18.40625 64.59375 
L 9.421875 64.59375 
z
" id="DejaVuSans-105"/>
       <path d="M 54.890625 33.015625 
L 54.890625 0 
L 45.90625 0 
L 45.90625 32.71875 
Q 45.90625 40.484375 42.875 44.328125 
Q 39.84375 48.1875 33.796875 48.1875 
Q 26.515625 48.1875 22.3125 43.546875 
Q 18.109375 38.921875 18.109375 30.90625 
L 18.109375 0 
L 9.078125 0 
L 9.078125 54.6875 
L 18.109375 54.6875 
L 18.109375 46.1875 
Q 21.34375 51.125 25.703125 53.5625 
Q 30.078125 56 35.796875 56 
Q 45.21875 56 50.046875 50.171875 
Q 54.890625 44.34375 54.890625 33.015625 
z
" id="DejaVuSans-110"/>
       <path d="M 45.40625 46.390625 
L 45.40625 75.984375 
L 54.390625 75.984375 
L 54.390625 0 
L 45.40625 0 
L 45.40625 8.203125 
Q 42.578125 3.328125 38.25 0.953125 
Q 33.9375 -1.421875 27.875 -1.421875 
Q 17.96875 -1.421875 11.734375 6.484375 
Q 5.515625 14.40625 5.515625 27.296875 
Q 5.515625 40.1875 11.734375 48.09375 
Q 17.96875 56 27.875 56 
Q 33.9375 56 38.25 53.625 
Q 42.578125 51.265625 45.40625 46.390625 
z
M 14.796875 27.296875 
Q 14.796875 17.390625 18.875 11.75 
Q 22.953125 6.109375 30.078125 6.109375 
Q 37.203125 6.109375 41.296875 11.75 
Q 45.40625 17.390625 45.40625 27.296875 
Q 45.40625 37.203125 41.296875 42.84375 
Q 37.203125 48.484375 30.078125 48.484375 
Q 22.953125 48.484375 18.875 42.84375 
Q 14.796875 37.203125 14.796875 27.296875 
z
" id="DejaVuSans-100"/>
       <path d="M 56.203125 29.59375 
L 56.203125 25.203125 
L 14.890625 25.203125 
Q 15.484375 15.921875 20.484375 11.0625 
Q 25.484375 6.203125 34.421875 6.203125 
Q 39.59375 6.203125 44.453125 7.46875 
Q 49.3125 8.734375 54.109375 11.28125 
L 54.109375 2.78125 
Q 49.265625 0.734375 44.1875 -0.34375 
Q 39.109375 -1.421875 33.890625 -1.421875 
Q 20.796875 -1.421875 13.15625 6.1875 
Q 5.515625 13.8125 5.515625 26.8125 
Q 5.515625 40.234375 12.765625 48.109375 
Q 20.015625 56 32.328125 56 
Q 43.359375 56 49.78125 48.890625 
Q 56.203125 41.796875 56.203125 29.59375 
z
M 47.21875 32.234375 
Q 47.125 39.59375 43.09375 43.984375 
Q 39.0625 48.390625 32.421875 48.390625 
Q 24.90625 48.390625 20.390625 44.140625 
Q 15.875 39.890625 15.1875 32.171875 
z
" id="DejaVuSans-101"/>
       <path d="M 54.890625 54.6875 
L 35.109375 28.078125 
L 55.90625 0 
L 45.3125 0 
L 29.390625 21.484375 
L 13.484375 0 
L 2.875 0 
L 24.125 28.609375 
L 4.6875 54.6875 
L 15.28125 54.6875 
L 29.78125 35.203125 
L 44.28125 54.6875 
z
" id="DejaVuSans-120"/>
      </defs>
      <use transform="translate(0 0.015625)" xlink:href="#DejaVuSans-Oblique-958"/>
      <use transform="translate(55.761719 0.015625)" xlink:href="#DejaVuSans-32"/>
      <use transform="translate(87.548828 0.015625)" xlink:href="#DejaVuSans-105"/>
      <use transform="translate(115.332031 0.015625)" xlink:href="#DejaVuSans-110"/>
      <use transform="translate(178.710938 0.015625)" xlink:href="#DejaVuSans-100"/>
      <use transform="translate(242.1875 0.015625)" xlink:href="#DejaVuSans-101"/>
      <use transform="translate(303.710938 0.015625)" xlink:href="#DejaVuSans-120"/>
     </g>
    </g>
   </g>
   <g id="matplotlib.axis_2">
    <g id="ytick_1">
     <g id="line2d_7">
      <defs>
       <path d="M 0 0 
L -3.5 0 
" id="mfb7664f2ff" style="stroke:#000000;stroke-width:0.8;"/>
      </defs>
      <g>
       <use style="stroke:#000000;stroke-width:0.8;" x="44.225" xlink:href="#mfb7664f2ff" y="246.821875"/>
      </g>
     </g>
     <g id="text_8">
      <!-- 0 -->
      <g transform="translate(30.8625 250.621094)scale(0.1 -0.1)">
       <use xlink:href="#DejaVuSans-48"/>
      </g>
     </g>
    </g>
    <g id="ytick_2">
     <g id="line2d_8">
      <g>
       <use style="stroke:#000000;stroke-width:0.8;" x="44.225" xlink:href="#mfb7664f2ff" y="200.377344"/>
      </g>
     </g>
     <g id="text_9">
      <!-- 2 -->
      <g transform="translate(30.8625 204.176563)scale(0.1 -0.1)">
       <use xlink:href="#DejaVuSans-50"/>
      </g>
     </g>
    </g>
    <g id="ytick_3">
     <g id="line2d_9">
      <g>
       <use style="stroke:#000000;stroke-width:0.8;" x="44.225" xlink:href="#mfb7664f2ff" y="153.932813"/>
      </g>
     </g>
     <g id="text_10">
      <!-- 4 -->
      <g transform="translate(30.8625 157.732031)scale(0.1 -0.1)">
       <use xlink:href="#DejaVuSans-52"/>
      </g>
     </g>
    </g>
    <g id="ytick_4">
     <g id="line2d_10">
      <g>
       <use style="stroke:#000000;stroke-width:0.8;" x="44.225" xlink:href="#mfb7664f2ff" y="107.488281"/>
      </g>
     </g>
     <g id="text_11">
      <!-- 6 -->
      <g transform="translate(30.8625 111.2875)scale(0.1 -0.1)">
       <use xlink:href="#DejaVuSans-54"/>
      </g>
     </g>
    </g>
    <g id="ytick_5">
     <g id="line2d_11">
      <g>
       <use style="stroke:#000000;stroke-width:0.8;" x="44.225" xlink:href="#mfb7664f2ff" y="61.04375"/>
      </g>
     </g>
     <g id="text_12">
      <!-- 8 -->
      <g transform="translate(30.8625 64.842969)scale(0.1 -0.1)">
       <use xlink:href="#DejaVuSans-56"/>
      </g>
     </g>
    </g>
    <g id="ytick_6">
     <g id="line2d_12">
      <g>
       <use style="stroke:#000000;stroke-width:0.8;" x="44.225" xlink:href="#mfb7664f2ff" y="14.599219"/>
      </g>
     </g>
     <g id="text_13">
      <!-- 10 -->
      <g transform="translate(24.5 18.398438)scale(0.1 -0.1)">
       <use xlink:href="#DejaVuSans-49"/>
       <use x="63.623047" xlink:href="#DejaVuSans-48"/>
      </g>
     </g>
    </g>
    <g id="text_14">
     <!-- $\eta$ index -->
     <g transform="translate(18.4 149.260547)rotate(-90)scale(0.1 -0.1)">
      <defs>
       <path d="M 57.859375 33.015625 
L 47.40625 -20.796875 
L 38.421875 -20.796875 
L 48.828125 32.71875 
Q 50.34375 40.484375 48.046875 44.34375 
Q 45.796875 48.1875 39.75 48.1875 
Q 32.46875 48.1875 27.34375 43.5625 
Q 22.265625 38.921875 20.703125 30.90625 
L 14.703125 0 
L 5.671875 0 
L 16.3125 54.6875 
L 25.34375 54.6875 
L 23.6875 46.1875 
Q 27.828125 51.125 32.71875 53.5625 
Q 37.546875 56 43.265625 56 
Q 52.6875 56 56.390625 50.203125 
Q 60.0625 44.34375 57.859375 33.015625 
z
" id="DejaVuSans-Oblique-951"/>
      </defs>
      <use transform="translate(0 0.015625)" xlink:href="#DejaVuSans-Oblique-951"/>
      <use transform="translate(63.378906 0.015625)" xlink:href="#DejaVuSans-32"/>
      <use transform="translate(95.166016 0.015625)" xlink:href="#DejaVuSans-105"/>
      <use transform="translate(122.949219 0.015625)" xlink:href="#DejaVuSans-110"/>
      <use transform="translate(186.328125 0.015625)" xlink:href="#DejaVuSans-100"/>
      <use transform="translate(249.804688 0.015625)" xlink:href="#DejaVuSans-101"/>
      <use transform="translate(311.328125 0.015625)" xlink:href="#DejaVuSans-120"/>
     </g>
    </g>
   </g>
   <g id="patch_3">
    <path d="M 44.225 246.821875 
L 44.225 14.599219 
" style="fill:none;stroke:#000000;stroke-linecap:square;stroke-linejoin:miter;stroke-width:0.8;"/>
   </g>
   <g id="patch_4">
    <path d="M 337.8384 246.821875 
L 337.8384 14.599219 
" style="fill:none;stroke:#000000;stroke-linecap:square;stroke-linejoin:miter;stroke-width:0.8;"/>
   </g>
   <g id="patch_5">
    <path d="M 44.225 246.821875 
L 337.8384 246.821875 
" style="fill:none;stroke:#000000;stroke-linecap:square;stroke-linejoin:miter;stroke-width:0.8;"/>
   </g>
   <g id="patch_6">
    <path d="M 44.225 14.599219 
L 337.8384 14.599219 
" style="fill:none;stroke:#000000;stroke-linecap:square;stroke-linejoin:miter;stroke-width:0.8;"/>
   </g>
  </g>
  <g id="axes_2">
   <g id="patch_7">
    <path clip-path="url(#p9168cd5d25)" d="M 356.189237 246.821875 
L 356.189237 217.794043 
L 356.189237 43.627051 
L 356.189237 14.599219 
L 367.80037 14.599219 
L 367.80037 43.627051 
L 367.80037 217.794043 
L 367.80037 246.821875 
z
" style="fill:#ffffff;stroke:#ffffff;stroke-linejoin:miter;stroke-width:0.01;"/>
   </g>
   <g id="QuadMesh_1">
    <path clip-path="url(#p9168cd5d25)" d="M 356.189237 246.821875 
L 367.80037 246.821875 
L 367.80037 217.794043 
L 356.189237 217.794043 
L 356.189237 246.821875 
" style="fill:#48186a;"/>
    <path clip-path="url(#p9168cd5d25)" d="M 356.189237 217.794043 
L 367.80037 217.794043 
L 367.80037 188.766211 
L 356.189237 188.766211 
L 356.189237 217.794043 
" style="fill:#424086;"/>
    <path clip-path="url(#p9168cd5d25)" d="M 356.189237 188.766211 
L 367.80037 188.766211 
L 367.80037 159.738379 
L 356.189237 159.738379 
L 356.189237 188.766211 
" style="fill:#33638d;"/>
    <path clip-path="url(#p9168cd5d25)" d="M 356.189237 159.738379 
L 367.80037 159.738379 
L 367.80037 130.710547 
L 356.189237 130.710547 
L 356.189237 159.738379 
" style="fill:#26828e;"/>
    <path clip-path="url(#p9168cd5d25)" d="M 356.189237 130.710547 
L 367.80037 130.710547 
L 367.80037 101.682715 
L 356.189237 101.682715 
L 356.189237 130.710547 
" style="fill:#1fa088;"/>
    <path clip-path="url(#p9168cd5d25)" d="M 356.189237 101.682715 
L 367.80037 101.682715 
L 367.80037 72.654883 
L 356.189237 72.654883 
L 356.189237 101.682715 
" style="fill:#3fbc73;"/>
    <path clip-path="url(#p9168cd5d25)" d="M 356.189237 72.654883 
L 367.80037 72.654883 
L 367.80037 43.627051 
L 356.189237 43.627051 
L 356.189237 72.654883 
" style="fill:#84d44b;"/>
    <path clip-path="url(#p9168cd5d25)" d="M 356.189237 43.627051 
L 367.80037 43.627051 
L 367.80037 14.599219 
L 356.189237 14.599219 
L 356.189237 43.627051 
" style="fill:#d8e219;"/>
   </g>
   <g id="matplotlib.axis_3"/>
   <g id="matplotlib.axis_4">
    <g id="ytick_7">
     <g id="line2d_13">
      <defs>
       <path d="M 0 0 
L 3.5 0 
" id="m41d34e2477" style="stroke:#000000;stroke-width:0.8;"/>
      </defs>
      <g>
       <use style="stroke:#000000;stroke-width:0.8;" x="367.80037" xlink:href="#m41d34e2477" y="246.821875"/>
      </g>
     </g>
     <g id="text_15">
      <!-- 588.0 -->
      <g transform="translate(374.80037 250.621094)scale(0.1 -0.1)">
       <defs>
        <path d="M 10.796875 72.90625 
L 49.515625 72.90625 
L 49.515625 64.59375 
L 19.828125 64.59375 
L 19.828125 46.734375 
Q 21.96875 47.46875 24.109375 47.828125 
Q 26.265625 48.1875 28.421875 48.1875 
Q 40.625 48.1875 47.75 41.5 
Q 54.890625 34.8125 54.890625 23.390625 
Q 54.890625 11.625 47.5625 5.09375 
Q 40.234375 -1.421875 26.90625 -1.421875 
Q 22.3125 -1.421875 17.546875 -0.640625 
Q 12.796875 0.140625 7.71875 1.703125 
L 7.71875 11.625 
Q 12.109375 9.234375 16.796875 8.0625 
Q 21.484375 6.890625 26.703125 6.890625 
Q 35.15625 6.890625 40.078125 11.328125 
Q 45.015625 15.765625 45.015625 23.390625 
Q 45.015625 31 40.078125 35.4375 
Q 35.15625 39.890625 26.703125 39.890625 
Q 22.75 39.890625 18.8125 39.015625 
Q 14.890625 38.140625 10.796875 36.28125 
z
" id="DejaVuSans-53"/>
        <path d="M 10.6875 12.40625 
L 21 12.40625 
L 21 0 
L 10.6875 0 
z
" id="DejaVuSans-46"/>
       </defs>
       <use xlink:href="#DejaVuSans-53"/>
       <use x="63.623047" xlink:href="#DejaVuSans-56"/>
       <use x="127.246094" xlink:href="#DejaVuSans-56"/>
       <use x="190.869141" xlink:href="#DejaVuSans-46"/>
       <use x="222.65625" xlink:href="#DejaVuSans-48"/>
      </g>
     </g>
    </g>
    <g id="ytick_8">
     <g id="line2d_14">
      <g>
       <use style="stroke:#000000;stroke-width:0.8;" x="367.80037" xlink:href="#m41d34e2477" y="217.794043"/>
      </g>
     </g>
     <g id="text_16">
      <!-- 589.5 -->
      <g transform="translate(374.80037 221.593262)scale(0.1 -0.1)">
       <defs>
        <path d="M 10.984375 1.515625 
L 10.984375 10.5 
Q 14.703125 8.734375 18.5 7.8125 
Q 22.3125 6.890625 25.984375 6.890625 
Q 35.75 6.890625 40.890625 13.453125 
Q 46.046875 20.015625 46.78125 33.40625 
Q 43.953125 29.203125 39.59375 26.953125 
Q 35.25 24.703125 29.984375 24.703125 
Q 19.046875 24.703125 12.671875 31.3125 
Q 6.296875 37.9375 6.296875 49.421875 
Q 6.296875 60.640625 12.9375 67.421875 
Q 19.578125 74.21875 30.609375 74.21875 
Q 43.265625 74.21875 49.921875 64.515625 
Q 56.59375 54.828125 56.59375 36.375 
Q 56.59375 19.140625 48.40625 8.859375 
Q 40.234375 -1.421875 26.421875 -1.421875 
Q 22.703125 -1.421875 18.890625 -0.6875 
Q 15.09375 0.046875 10.984375 1.515625 
z
M 30.609375 32.421875 
Q 37.25 32.421875 41.125 36.953125 
Q 45.015625 41.5 45.015625 49.421875 
Q 45.015625 57.28125 41.125 61.84375 
Q 37.25 66.40625 30.609375 66.40625 
Q 23.96875 66.40625 20.09375 61.84375 
Q 16.21875 57.28125 16.21875 49.421875 
Q 16.21875 41.5 20.09375 36.953125 
Q 23.96875 32.421875 30.609375 32.421875 
z
" id="DejaVuSans-57"/>
       </defs>
       <use xlink:href="#DejaVuSans-53"/>
       <use x="63.623047" xlink:href="#DejaVuSans-56"/>
       <use x="127.246094" xlink:href="#DejaVuSans-57"/>
       <use x="190.869141" xlink:href="#DejaVuSans-46"/>
       <use x="222.65625" xlink:href="#DejaVuSans-53"/>
      </g>
     </g>
    </g>
    <g id="ytick_9">
     <g id="line2d_15">
      <g>
       <use style="stroke:#000000;stroke-width:0.8;" x="367.80037" xlink:href="#m41d34e2477" y="188.766211"/>
      </g>
     </g>
     <g id="text_17">
      <!-- 591.0 -->
      <g transform="translate(374.80037 192.56543)scale(0.1 -0.1)">
       <use xlink:href="#DejaVuSans-53"/>
       <use x="63.623047" xlink:href="#DejaVuSans-57"/>
       <use x="127.246094" xlink:href="#DejaVuSans-49"/>
       <use x="190.869141" xlink:href="#DejaVuSans-46"/>
       <use x="222.65625" xlink:href="#DejaVuSans-48"/>
      </g>
     </g>
    </g>
    <g id="ytick_10">
     <g id="line2d_16">
      <g>
       <use style="stroke:#000000;stroke-width:0.8;" x="367.80037" xlink:href="#m41d34e2477" y="159.738379"/>
      </g>
     </g>
     <g id="text_18">
      <!-- 592.5 -->
      <g transform="translate(374.80037 163.537598)scale(0.1 -0.1)">
       <use xlink:href="#DejaVuSans-53"/>
       <use x="63.623047" xlink:href="#DejaVuSans-57"/>
       <use x="127.246094" xlink:href="#DejaVuSans-50"/>
       <use x="190.869141" xlink:href="#DejaVuSans-46"/>
       <use x="222.65625" xlink:href="#DejaVuSans-53"/>
      </g>
     </g>
    </g>
    <g id="ytick_11">
     <g id="line2d_17">
      <g>
       <use style="stroke:#000000;stroke-width:0.8;" x="367.80037" xlink:href="#m41d34e2477" y="130.710547"/>
      </g>
     </g>
     <g id="text_19">
      <!-- 594.0 -->
      <g transform="translate(374.80037 134.509766)scale(0.1 -0.1)">
       <use xlink:href="#DejaVuSans-53"/>
       <use x="63.623047" xlink:href="#DejaVuSans-57"/>
       <use x="127.246094" xlink:href="#DejaVuSans-52"/>
       <use x="190.869141" xlink:href="#DejaVuSans-46"/>
       <use x="222.65625" xlink:href="#DejaVuSans-48"/>
      </g>
     </g>
    </g>
    <g id="ytick_12">
     <g id="line2d_18">
      <g>
       <use style="stroke:#000000;stroke-width:0.8;" x="367.80037" xlink:href="#m41d34e2477" y="101.682715"/>
      </g>
     </g>
     <g id="text_20">
      <!-- 595.5 -->
      <g transform="translate(374.80037 105.481934)scale(0.1 -0.1)">
       <use xlink:href="#DejaVuSans-53"/>
       <use x="63.623047" xlink:href="#DejaVuSans-57"/>
       <use x="127.246094" xlink:href="#DejaVuSans-53"/>
       <use x="190.869141" xlink:href="#DejaVuSans-46"/>
       <use x="222.65625" xlink:href="#DejaVuSans-53"/>
      </g>
     </g>
    </g>
    <g id="ytick_13">
     <g id="line2d_19">
      <g>
       <use style="stroke:#000000;stroke-width:0.8;" x="367.80037" xlink:href="#m41d34e2477" y="72.654883"/>
      </g>
     </g>
     <g id="text_21">
      <!-- 597.0 -->
      <g transform="translate(374.80037 76.454102)scale(0.1 -0.1)">
       <defs>
        <path d="M 8.203125 72.90625 
L 55.078125 72.90625 
L 55.078125 68.703125 
L 28.609375 0 
L 18.3125 0 
L 43.21875 64.59375 
L 8.203125 64.59375 
z
" id="DejaVuSans-55"/>
       </defs>
       <use xlink:href="#DejaVuSans-53"/>
       <use x="63.623047" xlink:href="#DejaVuSans-57"/>
       <use x="127.246094" xlink:href="#DejaVuSans-55"/>
       <use x="190.869141" xlink:href="#DejaVuSans-46"/>
       <use x="222.65625" xlink:href="#DejaVuSans-48"/>
      </g>
     </g>
    </g>
    <g id="ytick_14">
     <g id="line2d_20">
      <g>
       <use style="stroke:#000000;stroke-width:0.8;" x="367.80037" xlink:href="#m41d34e2477" y="43.627051"/>
      </g>
     </g>
     <g id="text_22">
      <!-- 598.5 -->
      <g transform="translate(374.80037 47.42627)scale(0.1 -0.1)">
       <use xlink:href="#DejaVuSans-53"/>
       <use x="63.623047" xlink:href="#DejaVuSans-57"/>
       <use x="127.246094" xlink:href="#DejaVuSans-56"/>
       <use x="190.869141" xlink:href="#DejaVuSans-46"/>
       <use x="222.65625" xlink:href="#DejaVuSans-53"/>
      </g>
     </g>
    </g>
    <g id="ytick_15">
     <g id="line2d_21">
      <g>
       <use style="stroke:#000000;stroke-width:0.8;" x="367.80037" xlink:href="#m41d34e2477" y="14.599219"/>
      </g>
     </g>
     <g id="text_23">
      <!-- 600.0 -->
      <g transform="translate(374.80037 18.398438)scale(0.1 -0.1)">
       <use xlink:href="#DejaVuSans-54"/>
       <use x="63.623047" xlink:href="#DejaVuSans-48"/>
       <use x="127.246094" xlink:href="#DejaVuSans-48"/>
       <use x="190.869141" xlink:href="#DejaVuSans-46"/>
       <use x="222.65625" xlink:href="#DejaVuSans-48"/>
      </g>
     </g>
    </g>
    <g id="text_24">
     <!-- Temperature (K) -->
     <g transform="translate(415.026933 171.149609)rotate(-90)scale(0.1 -0.1)">
      <defs>
       <path d="M -0.296875 72.90625 
L 61.375 72.90625 
L 61.375 64.59375 
L 35.5 64.59375 
L 35.5 0 
L 25.59375 0 
L 25.59375 64.59375 
L -0.296875 64.59375 
z
" id="DejaVuSans-84"/>
       <path d="M 52 44.1875 
Q 55.375 50.25 60.0625 53.125 
Q 64.75 56 71.09375 56 
Q 79.640625 56 84.28125 50.015625 
Q 88.921875 44.046875 88.921875 33.015625 
L 88.921875 0 
L 79.890625 0 
L 79.890625 32.71875 
Q 79.890625 40.578125 77.09375 44.375 
Q 74.3125 48.1875 68.609375 48.1875 
Q 61.625 48.1875 57.5625 43.546875 
Q 53.515625 38.921875 53.515625 30.90625 
L 53.515625 0 
L 44.484375 0 
L 44.484375 32.71875 
Q 44.484375 40.625 41.703125 44.40625 
Q 38.921875 48.1875 33.109375 48.1875 
Q 26.21875 48.1875 22.15625 43.53125 
Q 18.109375 38.875 18.109375 30.90625 
L 18.109375 0 
L 9.078125 0 
L 9.078125 54.6875 
L 18.109375 54.6875 
L 18.109375 46.1875 
Q 21.1875 51.21875 25.484375 53.609375 
Q 29.78125 56 35.6875 56 
Q 41.65625 56 45.828125 52.96875 
Q 50 49.953125 52 44.1875 
z
" id="DejaVuSans-109"/>
       <path d="M 18.109375 8.203125 
L 18.109375 -20.796875 
L 9.078125 -20.796875 
L 9.078125 54.6875 
L 18.109375 54.6875 
L 18.109375 46.390625 
Q 20.953125 51.265625 25.265625 53.625 
Q 29.59375 56 35.59375 56 
Q 45.5625 56 51.78125 48.09375 
Q 58.015625 40.1875 58.015625 27.296875 
Q 58.015625 14.40625 51.78125 6.484375 
Q 45.5625 -1.421875 35.59375 -1.421875 
Q 29.59375 -1.421875 25.265625 0.953125 
Q 20.953125 3.328125 18.109375 8.203125 
z
M 48.6875 27.296875 
Q 48.6875 37.203125 44.609375 42.84375 
Q 40.53125 48.484375 33.40625 48.484375 
Q 26.265625 48.484375 22.1875 42.84375 
Q 18.109375 37.203125 18.109375 27.296875 
Q 18.109375 17.390625 22.1875 11.75 
Q 26.265625 6.109375 33.40625 6.109375 
Q 40.53125 6.109375 44.609375 11.75 
Q 48.6875 17.390625 48.6875 27.296875 
z
" id="DejaVuSans-112"/>
       <path d="M 41.109375 46.296875 
Q 39.59375 47.171875 37.8125 47.578125 
Q 36.03125 48 33.890625 48 
Q 26.265625 48 22.1875 43.046875 
Q 18.109375 38.09375 18.109375 28.8125 
L 18.109375 0 
L 9.078125 0 
L 9.078125 54.6875 
L 18.109375 54.6875 
L 18.109375 46.1875 
Q 20.953125 51.171875 25.484375 53.578125 
Q 30.03125 56 36.53125 56 
Q 37.453125 56 38.578125 55.875 
Q 39.703125 55.765625 41.0625 55.515625 
z
" id="DejaVuSans-114"/>
       <path d="M 34.28125 27.484375 
Q 23.390625 27.484375 19.1875 25 
Q 14.984375 22.515625 14.984375 16.5 
Q 14.984375 11.71875 18.140625 8.90625 
Q 21.296875 6.109375 26.703125 6.109375 
Q 34.1875 6.109375 38.703125 11.40625 
Q 43.21875 16.703125 43.21875 25.484375 
L 43.21875 27.484375 
z
M 52.203125 31.203125 
L 52.203125 0 
L 43.21875 0 
L 43.21875 8.296875 
Q 40.140625 3.328125 35.546875 0.953125 
Q 30.953125 -1.421875 24.3125 -1.421875 
Q 15.921875 -1.421875 10.953125 3.296875 
Q 6 8.015625 6 15.921875 
Q 6 25.140625 12.171875 29.828125 
Q 18.359375 34.515625 30.609375 34.515625 
L 43.21875 34.515625 
L 43.21875 35.40625 
Q 43.21875 41.609375 39.140625 45 
Q 35.0625 48.390625 27.6875 48.390625 
Q 23 48.390625 18.546875 47.265625 
Q 14.109375 46.140625 10.015625 43.890625 
L 10.015625 52.203125 
Q 14.9375 54.109375 19.578125 55.046875 
Q 24.21875 56 28.609375 56 
Q 40.484375 56 46.34375 49.84375 
Q 52.203125 43.703125 52.203125 31.203125 
z
" id="DejaVuSans-97"/>
       <path d="M 18.3125 70.21875 
L 18.3125 54.6875 
L 36.8125 54.6875 
L 36.8125 47.703125 
L 18.3125 47.703125 
L 18.3125 18.015625 
Q 18.3125 11.328125 20.140625 9.421875 
Q 21.96875 7.515625 27.59375 7.515625 
L 36.8125 7.515625 
L 36.8125 0 
L 27.59375 0 
Q 17.1875 0 13.234375 3.875 
Q 9.28125 7.765625 9.28125 18.015625 
L 9.28125 47.703125 
L 2.6875 47.703125 
L 2.6875 54.6875 
L 9.28125 54.6875 
L 9.28125 70.21875 
z
" id="DejaVuSans-116"/>
       <path d="M 8.5 21.578125 
L 8.5 54.6875 
L 17.484375 54.6875 
L 17.484375 21.921875 
Q 17.484375 14.15625 20.5 10.265625 
Q 23.53125 6.390625 29.59375 6.390625 
Q 36.859375 6.390625 41.078125 11.03125 
Q 45.3125 15.671875 45.3125 23.6875 
L 45.3125 54.6875 
L 54.296875 54.6875 
L 54.296875 0 
L 45.3125 0 
L 45.3125 8.40625 
Q 42.046875 3.421875 37.71875 1 
Q 33.40625 -1.421875 27.6875 -1.421875 
Q 18.265625 -1.421875 13.375 4.4375 
Q 8.5 10.296875 8.5 21.578125 
z
M 31.109375 56 
z
" id="DejaVuSans-117"/>
       <path d="M 31 75.875 
Q 24.46875 64.65625 21.28125 53.65625 
Q 18.109375 42.671875 18.109375 31.390625 
Q 18.109375 20.125 21.3125 9.0625 
Q 24.515625 -2 31 -13.1875 
L 23.1875 -13.1875 
Q 15.875 -1.703125 12.234375 9.375 
Q 8.59375 20.453125 8.59375 31.390625 
Q 8.59375 42.28125 12.203125 53.3125 
Q 15.828125 64.359375 23.1875 75.875 
z
" id="DejaVuSans-40"/>
       <path d="M 9.8125 72.90625 
L 19.671875 72.90625 
L 19.671875 42.09375 
L 52.390625 72.90625 
L 65.09375 72.90625 
L 28.90625 38.921875 
L 67.671875 0 
L 54.6875 0 
L 19.671875 35.109375 
L 19.671875 0 
L 9.8125 0 
z
" id="DejaVuSans-75"/>
       <path d="M 8.015625 75.875 
L 15.828125 75.875 
Q 23.140625 64.359375 26.78125 53.3125 
Q 30.421875 42.28125 30.421875 31.390625 
Q 30.421875 20.453125 26.78125 9.375 
Q 23.140625 -1.703125 15.828125 -13.1875 
L 8.015625 -13.1875 
Q 14.5 -2 17.703125 9.0625 
Q 20.90625 20.125 20.90625 31.390625 
Q 20.90625 42.671875 17.703125 53.65625 
Q 14.5 64.65625 8.015625 75.875 
z
" id="DejaVuSans-41"/>
      </defs>
      <use xlink:href="#DejaVuSans-84"/>
      <use x="44.083984" xlink:href="#DejaVuSans-101"/>
      <use x="105.607422" xlink:href="#DejaVuSans-109"/>
      <use x="203.019531" xlink:href="#DejaVuSans-112"/>
      <use x="266.496094" xlink:href="#DejaVuSans-101"/>
      <use x="328.019531" xlink:href="#DejaVuSans-114"/>
      <use x="369.132812" xlink:href="#DejaVuSans-97"/>
      <use x="430.412109" xlink:href="#DejaVuSans-116"/>
      <use x="469.621094" xlink:href="#DejaVuSans-117"/>
      <use x="533" xlink:href="#DejaVuSans-114"/>
      <use x="571.863281" xlink:href="#DejaVuSans-101"/>
      <use x="633.386719" xlink:href="#DejaVuSans-32"/>
      <use x="665.173828" xlink:href="#DejaVuSans-40"/>
      <use x="704.1875" xlink:href="#DejaVuSans-75"/>
      <use x="769.763672" xlink:href="#DejaVuSans-41"/>
     </g>
    </g>
   </g>
   <g id="patch_8">
    <path d="M 356.189237 246.821875 
L 356.189237 217.794043 
L 356.189237 43.627051 
L 356.189237 14.599219 
L 367.80037 14.599219 
L 367.80037 43.627051 
L 367.80037 217.794043 
L 367.80037 246.821875 
z
" style="fill:none;stroke:#000000;stroke-linejoin:miter;stroke-width:0.8;"/>
   </g>
  </g>
 </g>
 <defs>
  <clipPath id="pf819e7d5b4">
   <rect height="232.222656" width="293.6134" x="44.225" y="14.599219"/>
  </clipPath>
  <clipPath id="p9168cd5d25">
   <rect height="232.222656" width="11.611133" x="356.189237" y="14.599219"/>
  </clipPath>
 </defs>
</svg>
