<?xml version="1.0" encoding="utf-8" standalone="no"?>
<!DOCTYPE svg PUBLIC "-//W3C//DTD SVG 1.1//EN"
  "http://www.w3.org/Graphics/SVG/1.1/DTD/svg11.dtd">
<!-- Created with matplotlib (https://matplotlib.org/) -->
<svg height="288pt" version="1.1" viewBox="0 0 432 288" width="432pt" xmlns="http://www.w3.org/2000/svg" xmlns:xlink="http://www.w3.org/1999/xlink">
 <metadata>
  <rdf:RDF xmlns:cc="http://creativecommons.org/ns#" xmlns:dc="http://purl.org/dc/elements/1.1/" xmlns:rdf="http://www.w3.org/1999/02/22-rdf-syntax-ns#">
   <cc:Work>
    <dc:type rdf:resource="http://purl.org/dc/dcmitype/StillImage"/>
    <dc:date>2022-04-03T20:16:22.601894</dc:date>
    <dc:format>image/svg+xml</dc:format>
    <dc:creator>
     <cc:Agent>
      <dc:title>Matplotlib v3.3.4, https://matplotlib.org/</dc:title>
     </cc:Agent>
    </dc:creator>
   </cc:Work>
  </rdf:RDF>
 </metadata>
 <defs>
  <style type="text/css">*{stroke-linecap:butt;stroke-linejoin:round;}</style>
 </defs>
 <g id="figure_1">
  <g id="patch_1">
   <path d="M 0 288 
L 432 288 
L 432 0 
L 0 0 
z
" style="fill:none;"/>
  </g>
  <g id="axes_1">
   <g id="patch_2">
    <path d="M 54 252 
L 321.84 252 
L 321.84 34.56 
L 54 34.56 
z
" style="fill:#ffffff;"/>
   </g>
   <g id="PathCollection_1">
    <path clip-path="url(#p2f69c05912)" d="M 80.784 252 
L 93.050203 252 
L 89.195518 230.256 
L 80.784 213.080034 
L 78.907749 208.512 
L 65.76325 186.768 
L 54 169.437352 
L 54 186.768 
L 54 208.512 
L 54 230.256 
L 54 252 
z
" style="fill:#481b6d;"/>
   </g>
   <g id="PathCollection_2">
    <path clip-path="url(#p2f69c05912)" d="M 107.568 252 
L 134.352 252 
L 161.136 252 
L 187.176436 252 
L 177.61174 230.256 
L 161.136 216.279348 
L 154.239573 208.512 
L 134.352 192.498581 
L 128.834529 186.768 
L 107.568 166.276187 
L 106.494906 165.024 
L 88.883745 143.28 
L 80.784 130.505032 
L 75.510066 121.536 
L 65.946272 99.792 
L 59.570826 78.048 
L 55.954396 56.304 
L 54.785791 34.56 
L 54 34.56 
L 54 56.304 
L 54 78.048 
L 54 99.792 
L 54 121.536 
L 54 143.28 
L 54 165.024 
L 54 169.437352 
L 65.76325 186.768 
L 78.907749 208.512 
L 80.784 213.080034 
L 89.195518 230.256 
L 93.050203 252 
z
" style="fill:#3f4788;"/>
   </g>
   <g id="PathCollection_3">
    <path clip-path="url(#p2f69c05912)" d="M 187.92 252 
L 214.704 252 
L 241.488 252 
L 268.272 252 
L 295.056 252 
L 321.84 252 
L 321.84 230.256 
L 321.84 208.512 
L 321.84 204.320333 
L 295.056 203.483435 
L 268.272 200.647727 
L 241.488 195.156355 
L 216.761627 186.768 
L 214.704 186.203056 
L 187.92 175.388749 
L 170.489744 165.024 
L 161.136 158.660613 
L 143.097618 143.28 
L 134.352 132.530746 
L 126.093174 121.536 
L 114.852775 99.792 
L 107.599164 78.048 
L 107.568 77.882441 
L 103.612741 56.304 
L 102.330695 34.56 
L 80.784 34.56 
L 54.785791 34.56 
L 55.954396 56.304 
L 59.570826 78.048 
L 65.946272 99.792 
L 75.510066 121.536 
L 80.784 130.505032 
L 88.883745 143.28 
L 106.494906 165.024 
L 107.568 166.276187 
L 128.834529 186.768 
L 134.352 192.498581 
L 154.239573 208.512 
L 161.136 216.279348 
L 177.61174 230.256 
L 187.176436 252 
z
" style="fill:#2e6e8e;"/>
   </g>
   <g id="PathCollection_4">
    <path clip-path="url(#p2f69c05912)" d="M 241.488 195.156355 
L 268.272 200.647727 
L 295.056 203.483435 
L 321.84 204.320333 
L 321.84 186.768 
L 321.84 176.200806 
L 295.056 174.733577 
L 268.272 170.611788 
L 247.31858 165.024 
L 241.488 163.514533 
L 214.704 152.817183 
L 198.252327 143.28 
L 187.92 132.671008 
L 177.581993 121.536 
L 165.270224 99.792 
L 161.136 87.878436 
L 157.749811 78.048 
L 153.673324 56.304 
L 152.373526 34.56 
L 134.352 34.56 
L 107.568 34.56 
L 102.330695 34.56 
L 103.612741 56.304 
L 107.568 77.882441 
L 107.599164 78.048 
L 114.852775 99.792 
L 126.093174 121.536 
L 134.352 132.530746 
L 143.097618 143.28 
L 161.136 158.660613 
L 170.489744 165.024 
L 187.92 175.388749 
L 214.704 186.203056 
L 216.761627 186.768 
z
" style="fill:#21918c;"/>
   </g>
   <g id="PathCollection_5">
    <path clip-path="url(#p2f69c05912)" d="M 268.272 170.611788 
L 295.056 174.733577 
L 321.84 176.200806 
L 321.84 165.024 
L 321.84 160.981774 
L 295.056 157.777391 
L 268.272 150.932592 
L 249.079386 143.28 
L 241.488 135.031098 
L 228.02245 121.536 
L 216.53617 99.792 
L 214.704 93.753349 
L 209.836816 78.048 
L 206.291101 56.304 
L 205.172537 34.56 
L 187.92 34.56 
L 161.136 34.56 
L 152.373526 34.56 
L 153.673324 56.304 
L 157.749811 78.048 
L 161.136 87.878436 
L 165.270224 99.792 
L 177.581993 121.536 
L 187.92 132.671008 
L 198.252327 143.28 
L 214.704 152.817183 
L 241.488 163.514533 
L 247.31858 165.024 
z
" style="fill:#2db27d;"/>
   </g>
   <g id="PathCollection_6">
    <path clip-path="url(#p2f69c05912)" d="M 268.272 150.932592 
L 295.056 157.777391 
L 321.84 160.981774 
L 321.84 152.130887 
L 295.056 144.809609 
L 290.518007 143.28 
L 275.951471 121.536 
L 268.396088 99.792 
L 268.272 99.121408 
L 264.190188 78.048 
L 262.010524 56.304 
L 261.329532 34.56 
L 241.488 34.56 
L 214.704 34.56 
L 205.172537 34.56 
L 206.291101 56.304 
L 209.836816 78.048 
L 214.704 93.753349 
L 216.53617 99.792 
L 228.02245 121.536 
L 241.488 135.031098 
L 249.079386 143.28 
z
" style="fill:#73d056;"/>
   </g>
   <g id="PathCollection_7">
    <path clip-path="url(#p2f69c05912)" d="M 295.056 144.809609 
L 321.84 152.130887 
L 321.84 143.28 
L 321.84 121.536 
L 321.84 99.792 
L 321.84 78.048 
L 321.84 56.304 
L 321.84 34.56 
L 295.056 34.56 
L 268.272 34.56 
L 261.329532 34.56 
L 262.010524 56.304 
L 264.190188 78.048 
L 268.272 99.121408 
L 268.396088 99.792 
L 275.951471 121.536 
L 290.518007 143.28 
z
" style="fill:#d0e11c;"/>
   </g>
   <g id="matplotlib.axis_1">
    <g id="xtick_1">
     <g id="line2d_1">
      <defs>
       <path d="M 0 0 
L 0 3.5 
" id="m16262d10a9" style="stroke:#000000;stroke-width:0.8;"/>
      </defs>
      <g>
       <use style="stroke:#000000;stroke-width:0.8;" x="54" xlink:href="#m16262d10a9" y="252"/>
      </g>
     </g>
     <g id="text_1">
      <!-- 0 -->
      <g transform="translate(49.864375 268.877969)scale(0.13 -0.13)">
       <defs>
        <path d="M 31.78125 66.40625 
Q 24.171875 66.40625 20.328125 58.90625 
Q 16.5 51.421875 16.5 36.375 
Q 16.5 21.390625 20.328125 13.890625 
Q 24.171875 6.390625 31.78125 6.390625 
Q 39.453125 6.390625 43.28125 13.890625 
Q 47.125 21.390625 47.125 36.375 
Q 47.125 51.421875 43.28125 58.90625 
Q 39.453125 66.40625 31.78125 66.40625 
z
M 31.78125 74.21875 
Q 44.046875 74.21875 50.515625 64.515625 
Q 56.984375 54.828125 56.984375 36.375 
Q 56.984375 17.96875 50.515625 8.265625 
Q 44.046875 -1.421875 31.78125 -1.421875 
Q 19.53125 -1.421875 13.0625 8.265625 
Q 6.59375 17.96875 6.59375 36.375 
Q 6.59375 54.828125 13.0625 64.515625 
Q 19.53125 74.21875 31.78125 74.21875 
z
" id="DejaVuSans-48"/>
       </defs>
       <use xlink:href="#DejaVuSans-48"/>
      </g>
     </g>
    </g>
    <g id="xtick_2">
     <g id="line2d_2">
      <g>
       <use style="stroke:#000000;stroke-width:0.8;" x="107.568" xlink:href="#m16262d10a9" y="252"/>
      </g>
     </g>
     <g id="text_2">
      <!-- 2 -->
      <g transform="translate(103.432375 268.877969)scale(0.13 -0.13)">
       <defs>
        <path d="M 19.1875 8.296875 
L 53.609375 8.296875 
L 53.609375 0 
L 7.328125 0 
L 7.328125 8.296875 
Q 12.9375 14.109375 22.625 23.890625 
Q 32.328125 33.6875 34.8125 36.53125 
Q 39.546875 41.84375 41.421875 45.53125 
Q 43.3125 49.21875 43.3125 52.78125 
Q 43.3125 58.59375 39.234375 62.25 
Q 35.15625 65.921875 28.609375 65.921875 
Q 23.96875 65.921875 18.8125 64.3125 
Q 13.671875 62.703125 7.8125 59.421875 
L 7.8125 69.390625 
Q 13.765625 71.78125 18.9375 73 
Q 24.125 74.21875 28.421875 74.21875 
Q 39.75 74.21875 46.484375 68.546875 
Q 53.21875 62.890625 53.21875 53.421875 
Q 53.21875 48.921875 51.53125 44.890625 
Q 49.859375 40.875 45.40625 35.40625 
Q 44.1875 33.984375 37.640625 27.21875 
Q 31.109375 20.453125 19.1875 8.296875 
z
" id="DejaVuSans-50"/>
       </defs>
       <use xlink:href="#DejaVuSans-50"/>
      </g>
     </g>
    </g>
    <g id="xtick_3">
     <g id="line2d_3">
      <g>
       <use style="stroke:#000000;stroke-width:0.8;" x="161.136" xlink:href="#m16262d10a9" y="252"/>
      </g>
     </g>
     <g id="text_3">
      <!-- 4 -->
      <g transform="translate(157.000375 268.877969)scale(0.13 -0.13)">
       <defs>
        <path d="M 37.796875 64.3125 
L 12.890625 25.390625 
L 37.796875 25.390625 
z
M 35.203125 72.90625 
L 47.609375 72.90625 
L 47.609375 25.390625 
L 58.015625 25.390625 
L 58.015625 17.1875 
L 47.609375 17.1875 
L 47.609375 0 
L 37.796875 0 
L 37.796875 17.1875 
L 4.890625 17.1875 
L 4.890625 26.703125 
z
" id="DejaVuSans-52"/>
       </defs>
       <use xlink:href="#DejaVuSans-52"/>
      </g>
     </g>
    </g>
    <g id="xtick_4">
     <g id="line2d_4">
      <g>
       <use style="stroke:#000000;stroke-width:0.8;" x="214.704" xlink:href="#m16262d10a9" y="252"/>
      </g>
     </g>
     <g id="text_4">
      <!-- 6 -->
      <g transform="translate(210.568375 268.877969)scale(0.13 -0.13)">
       <defs>
        <path d="M 33.015625 40.375 
Q 26.375 40.375 22.484375 35.828125 
Q 18.609375 31.296875 18.609375 23.390625 
Q 18.609375 15.53125 22.484375 10.953125 
Q 26.375 6.390625 33.015625 6.390625 
Q 39.65625 6.390625 43.53125 10.953125 
Q 47.40625 15.53125 47.40625 23.390625 
Q 47.40625 31.296875 43.53125 35.828125 
Q 39.65625 40.375 33.015625 40.375 
z
M 52.59375 71.296875 
L 52.59375 62.3125 
Q 48.875 64.0625 45.09375 64.984375 
Q 41.3125 65.921875 37.59375 65.921875 
Q 27.828125 65.921875 22.671875 59.328125 
Q 17.53125 52.734375 16.796875 39.40625 
Q 19.671875 43.65625 24.015625 45.921875 
Q 28.375 48.1875 33.59375 48.1875 
Q 44.578125 48.1875 50.953125 41.515625 
Q 57.328125 34.859375 57.328125 23.390625 
Q 57.328125 12.15625 50.6875 5.359375 
Q 44.046875 -1.421875 33.015625 -1.421875 
Q 20.359375 -1.421875 13.671875 8.265625 
Q 6.984375 17.96875 6.984375 36.375 
Q 6.984375 53.65625 15.1875 63.9375 
Q 23.390625 74.21875 37.203125 74.21875 
Q 40.921875 74.21875 44.703125 73.484375 
Q 48.484375 72.75 52.59375 71.296875 
z
" id="DejaVuSans-54"/>
       </defs>
       <use xlink:href="#DejaVuSans-54"/>
      </g>
     </g>
    </g>
    <g id="xtick_5">
     <g id="line2d_5">
      <g>
       <use style="stroke:#000000;stroke-width:0.8;" x="268.272" xlink:href="#m16262d10a9" y="252"/>
      </g>
     </g>
     <g id="text_5">
      <!-- 8 -->
      <g transform="translate(264.136375 268.877969)scale(0.13 -0.13)">
       <defs>
        <path d="M 31.78125 34.625 
Q 24.75 34.625 20.71875 30.859375 
Q 16.703125 27.09375 16.703125 20.515625 
Q 16.703125 13.921875 20.71875 10.15625 
Q 24.75 6.390625 31.78125 6.390625 
Q 38.8125 6.390625 42.859375 10.171875 
Q 46.921875 13.96875 46.921875 20.515625 
Q 46.921875 27.09375 42.890625 30.859375 
Q 38.875 34.625 31.78125 34.625 
z
M 21.921875 38.8125 
Q 15.578125 40.375 12.03125 44.71875 
Q 8.5 49.078125 8.5 55.328125 
Q 8.5 64.0625 14.71875 69.140625 
Q 20.953125 74.21875 31.78125 74.21875 
Q 42.671875 74.21875 48.875 69.140625 
Q 55.078125 64.0625 55.078125 55.328125 
Q 55.078125 49.078125 51.53125 44.71875 
Q 48 40.375 41.703125 38.8125 
Q 48.828125 37.15625 52.796875 32.3125 
Q 56.78125 27.484375 56.78125 20.515625 
Q 56.78125 9.90625 50.3125 4.234375 
Q 43.84375 -1.421875 31.78125 -1.421875 
Q 19.734375 -1.421875 13.25 4.234375 
Q 6.78125 9.90625 6.78125 20.515625 
Q 6.78125 27.484375 10.78125 32.3125 
Q 14.796875 37.15625 21.921875 38.8125 
z
M 18.3125 54.390625 
Q 18.3125 48.734375 21.84375 45.5625 
Q 25.390625 42.390625 31.78125 42.390625 
Q 38.140625 42.390625 41.71875 45.5625 
Q 45.3125 48.734375 45.3125 54.390625 
Q 45.3125 60.0625 41.71875 63.234375 
Q 38.140625 66.40625 31.78125 66.40625 
Q 25.390625 66.40625 21.84375 63.234375 
Q 18.3125 60.0625 18.3125 54.390625 
z
" id="DejaVuSans-56"/>
       </defs>
       <use xlink:href="#DejaVuSans-56"/>
      </g>
     </g>
    </g>
    <g id="xtick_6">
     <g id="line2d_6">
      <g>
       <use style="stroke:#000000;stroke-width:0.8;" x="321.84" xlink:href="#m16262d10a9" y="252"/>
      </g>
     </g>
     <g id="text_6">
      <!-- 10 -->
      <g transform="translate(313.56875 268.877969)scale(0.13 -0.13)">
       <defs>
        <path d="M 12.40625 8.296875 
L 28.515625 8.296875 
L 28.515625 63.921875 
L 10.984375 60.40625 
L 10.984375 69.390625 
L 28.421875 72.90625 
L 38.28125 72.90625 
L 38.28125 8.296875 
L 54.390625 8.296875 
L 54.390625 0 
L 12.40625 0 
z
" id="DejaVuSans-49"/>
       </defs>
       <use xlink:href="#DejaVuSans-49"/>
       <use x="63.623047" xlink:href="#DejaVuSans-48"/>
      </g>
     </g>
    </g>
   </g>
   <g id="matplotlib.axis_2">
    <g id="ytick_1">
     <g id="line2d_7">
      <defs>
       <path d="M 0 0 
L -3.5 0 
" id="m84bd235c15" style="stroke:#000000;stroke-width:0.8;"/>
      </defs>
      <g>
       <use style="stroke:#000000;stroke-width:0.8;" x="54" xlink:href="#m84bd235c15" y="252"/>
      </g>
     </g>
     <g id="text_7">
      <!-- 0 -->
      <g transform="translate(38.72875 256.938984)scale(0.13 -0.13)">
       <use xlink:href="#DejaVuSans-48"/>
      </g>
     </g>
    </g>
    <g id="ytick_2">
     <g id="line2d_8">
      <g>
       <use style="stroke:#000000;stroke-width:0.8;" x="54" xlink:href="#m84bd235c15" y="208.512"/>
      </g>
     </g>
     <g id="text_8">
      <!-- 2 -->
      <g transform="translate(38.72875 213.450984)scale(0.13 -0.13)">
       <use xlink:href="#DejaVuSans-50"/>
      </g>
     </g>
    </g>
    <g id="ytick_3">
     <g id="line2d_9">
      <g>
       <use style="stroke:#000000;stroke-width:0.8;" x="54" xlink:href="#m84bd235c15" y="165.024"/>
      </g>
     </g>
     <g id="text_9">
      <!-- 4 -->
      <g transform="translate(38.72875 169.962984)scale(0.13 -0.13)">
       <use xlink:href="#DejaVuSans-52"/>
      </g>
     </g>
    </g>
    <g id="ytick_4">
     <g id="line2d_10">
      <g>
       <use style="stroke:#000000;stroke-width:0.8;" x="54" xlink:href="#m84bd235c15" y="121.536"/>
      </g>
     </g>
     <g id="text_10">
      <!-- 6 -->
      <g transform="translate(38.72875 126.474984)scale(0.13 -0.13)">
       <use xlink:href="#DejaVuSans-54"/>
      </g>
     </g>
    </g>
    <g id="ytick_5">
     <g id="line2d_11">
      <g>
       <use style="stroke:#000000;stroke-width:0.8;" x="54" xlink:href="#m84bd235c15" y="78.048"/>
      </g>
     </g>
     <g id="text_11">
      <!-- 8 -->
      <g transform="translate(38.72875 82.986984)scale(0.13 -0.13)">
       <use xlink:href="#DejaVuSans-56"/>
      </g>
     </g>
    </g>
    <g id="ytick_6">
     <g id="line2d_12">
      <g>
       <use style="stroke:#000000;stroke-width:0.8;" x="54" xlink:href="#m84bd235c15" y="34.56"/>
      </g>
     </g>
     <g id="text_12">
      <!-- 10 -->
      <g transform="translate(30.4575 39.498984)scale(0.13 -0.13)">
       <use xlink:href="#DejaVuSans-49"/>
       <use x="63.623047" xlink:href="#DejaVuSans-48"/>
      </g>
     </g>
    </g>
   </g>
   <g id="patch_3">
    <path d="M 54 252 
L 54 34.56 
" style="fill:none;stroke:#000000;stroke-linecap:square;stroke-linejoin:miter;stroke-width:0.8;"/>
   </g>
   <g id="patch_4">
    <path d="M 321.84 252 
L 321.84 34.56 
" style="fill:none;stroke:#000000;stroke-linecap:square;stroke-linejoin:miter;stroke-width:0.8;"/>
   </g>
   <g id="patch_5">
    <path d="M 54 252 
L 321.84 252 
" style="fill:none;stroke:#000000;stroke-linecap:square;stroke-linejoin:miter;stroke-width:0.8;"/>
   </g>
   <g id="patch_6">
    <path d="M 54 34.56 
L 321.84 34.56 
" style="fill:none;stroke:#000000;stroke-linecap:square;stroke-linejoin:miter;stroke-width:0.8;"/>
   </g>
  </g>
  <g id="axes_2">
   <g id="patch_7">
    <path clip-path="url(#pb7b4b08521)" d="M 338.58 252 
L 338.58 220.937143 
L 338.58 65.622857 
L 338.58 34.56 
L 349.452 34.56 
L 349.452 65.622857 
L 349.452 220.937143 
L 349.452 252 
z
" style="fill:#ffffff;stroke:#ffffff;stroke-linejoin:miter;stroke-width:0.01;"/>
   </g>
   <g id="QuadMesh_1">
    <path clip-path="url(#pb7b4b08521)" d="M 338.58 252 
L 349.452 252 
L 349.452 220.937143 
L 338.58 220.937143 
L 338.58 252 
" style="fill:#481b6d;"/>
    <path clip-path="url(#pb7b4b08521)" d="M 338.58 220.937143 
L 349.452 220.937143 
L 349.452 189.874286 
L 338.58 189.874286 
L 338.58 220.937143 
" style="fill:#3f4788;"/>
    <path clip-path="url(#pb7b4b08521)" d="M 338.58 189.874286 
L 349.452 189.874286 
L 349.452 158.811429 
L 338.58 158.811429 
L 338.58 189.874286 
" style="fill:#2e6e8e;"/>
    <path clip-path="url(#pb7b4b08521)" d="M 338.58 158.811429 
L 349.452 158.811429 
L 349.452 127.748571 
L 338.58 127.748571 
L 338.58 158.811429 
" style="fill:#21918c;"/>
    <path clip-path="url(#pb7b4b08521)" d="M 338.58 127.748571 
L 349.452 127.748571 
L 349.452 96.685714 
L 338.58 96.685714 
L 338.58 127.748571 
" style="fill:#2db27d;"/>
    <path clip-path="url(#pb7b4b08521)" d="M 338.58 96.685714 
L 349.452 96.685714 
L 349.452 65.622857 
L 338.58 65.622857 
L 338.58 96.685714 
" style="fill:#73d056;"/>
    <path clip-path="url(#pb7b4b08521)" d="M 338.58 65.622857 
L 349.452 65.622857 
L 349.452 34.56 
L 338.58 34.56 
L 338.58 65.622857 
" style="fill:#d0e11c;"/>
   </g>
   <g id="matplotlib.axis_3"/>
   <g id="matplotlib.axis_4">
    <g id="ytick_7">
     <g id="line2d_13">
      <defs>
       <path d="M 0 0 
L 3.5 0 
" id="m10b40a3e36" style="stroke:#000000;stroke-width:0.8;"/>
      </defs>
      <g>
       <use style="stroke:#000000;stroke-width:0.8;" x="349.452" xlink:href="#m10b40a3e36" y="252"/>
      </g>
     </g>
     <g id="text_13">
      <!-- 160 -->
      <g transform="translate(356.452 256.938984)scale(0.13 -0.13)">
       <use xlink:href="#DejaVuSans-49"/>
       <use x="63.623047" xlink:href="#DejaVuSans-54"/>
       <use x="127.246094" xlink:href="#DejaVuSans-48"/>
      </g>
     </g>
    </g>
    <g id="ytick_8">
     <g id="line2d_14">
      <g>
       <use style="stroke:#000000;stroke-width:0.8;" x="349.452" xlink:href="#m10b40a3e36" y="220.937143"/>
      </g>
     </g>
     <g id="text_14">
      <!-- 180 -->
      <g transform="translate(356.452 225.876127)scale(0.13 -0.13)">
       <use xlink:href="#DejaVuSans-49"/>
       <use x="63.623047" xlink:href="#DejaVuSans-56"/>
       <use x="127.246094" xlink:href="#DejaVuSans-48"/>
      </g>
     </g>
    </g>
    <g id="ytick_9">
     <g id="line2d_15">
      <g>
       <use style="stroke:#000000;stroke-width:0.8;" x="349.452" xlink:href="#m10b40a3e36" y="189.874286"/>
      </g>
     </g>
     <g id="text_15">
      <!-- 200 -->
      <g transform="translate(356.452 194.81327)scale(0.13 -0.13)">
       <use xlink:href="#DejaVuSans-50"/>
       <use x="63.623047" xlink:href="#DejaVuSans-48"/>
       <use x="127.246094" xlink:href="#DejaVuSans-48"/>
      </g>
     </g>
    </g>
    <g id="ytick_10">
     <g id="line2d_16">
      <g>
       <use style="stroke:#000000;stroke-width:0.8;" x="349.452" xlink:href="#m10b40a3e36" y="158.811429"/>
      </g>
     </g>
     <g id="text_16">
      <!-- 220 -->
      <g transform="translate(356.452 163.750413)scale(0.13 -0.13)">
       <use xlink:href="#DejaVuSans-50"/>
       <use x="63.623047" xlink:href="#DejaVuSans-50"/>
       <use x="127.246094" xlink:href="#DejaVuSans-48"/>
      </g>
     </g>
    </g>
    <g id="ytick_11">
     <g id="line2d_17">
      <g>
       <use style="stroke:#000000;stroke-width:0.8;" x="349.452" xlink:href="#m10b40a3e36" y="127.748571"/>
      </g>
     </g>
     <g id="text_17">
      <!-- 240 -->
      <g transform="translate(356.452 132.687556)scale(0.13 -0.13)">
       <use xlink:href="#DejaVuSans-50"/>
       <use x="63.623047" xlink:href="#DejaVuSans-52"/>
       <use x="127.246094" xlink:href="#DejaVuSans-48"/>
      </g>
     </g>
    </g>
    <g id="ytick_12">
     <g id="line2d_18">
      <g>
       <use style="stroke:#000000;stroke-width:0.8;" x="349.452" xlink:href="#m10b40a3e36" y="96.685714"/>
      </g>
     </g>
     <g id="text_18">
      <!-- 260 -->
      <g transform="translate(356.452 101.624699)scale(0.13 -0.13)">
       <use xlink:href="#DejaVuSans-50"/>
       <use x="63.623047" xlink:href="#DejaVuSans-54"/>
       <use x="127.246094" xlink:href="#DejaVuSans-48"/>
      </g>
     </g>
    </g>
    <g id="ytick_13">
     <g id="line2d_19">
      <g>
       <use style="stroke:#000000;stroke-width:0.8;" x="349.452" xlink:href="#m10b40a3e36" y="65.622857"/>
      </g>
     </g>
     <g id="text_19">
      <!-- 280 -->
      <g transform="translate(356.452 70.561842)scale(0.13 -0.13)">
       <use xlink:href="#DejaVuSans-50"/>
       <use x="63.623047" xlink:href="#DejaVuSans-56"/>
       <use x="127.246094" xlink:href="#DejaVuSans-48"/>
      </g>
     </g>
    </g>
    <g id="ytick_14">
     <g id="line2d_20">
      <g>
       <use style="stroke:#000000;stroke-width:0.8;" x="349.452" xlink:href="#m10b40a3e36" y="34.56"/>
      </g>
     </g>
     <g id="text_20">
      <!-- 300 -->
      <g transform="translate(356.452 39.498984)scale(0.13 -0.13)">
       <defs>
        <path d="M 40.578125 39.3125 
Q 47.65625 37.796875 51.625 33 
Q 55.609375 28.21875 55.609375 21.1875 
Q 55.609375 10.40625 48.1875 4.484375 
Q 40.765625 -1.421875 27.09375 -1.421875 
Q 22.515625 -1.421875 17.65625 -0.515625 
Q 12.796875 0.390625 7.625 2.203125 
L 7.625 11.71875 
Q 11.71875 9.328125 16.59375 8.109375 
Q 21.484375 6.890625 26.8125 6.890625 
Q 36.078125 6.890625 40.9375 10.546875 
Q 45.796875 14.203125 45.796875 21.1875 
Q 45.796875 27.640625 41.28125 31.265625 
Q 36.765625 34.90625 28.71875 34.90625 
L 20.21875 34.90625 
L 20.21875 43.015625 
L 29.109375 43.015625 
Q 36.375 43.015625 40.234375 45.921875 
Q 44.09375 48.828125 44.09375 54.296875 
Q 44.09375 59.90625 40.109375 62.90625 
Q 36.140625 65.921875 28.71875 65.921875 
Q 24.65625 65.921875 20.015625 65.03125 
Q 15.375 64.15625 9.8125 62.3125 
L 9.8125 71.09375 
Q 15.4375 72.65625 20.34375 73.4375 
Q 25.25 74.21875 29.59375 74.21875 
Q 40.828125 74.21875 47.359375 69.109375 
Q 53.90625 64.015625 53.90625 55.328125 
Q 53.90625 49.265625 50.4375 45.09375 
Q 46.96875 40.921875 40.578125 39.3125 
z
" id="DejaVuSans-51"/>
       </defs>
       <use xlink:href="#DejaVuSans-51"/>
       <use x="63.623047" xlink:href="#DejaVuSans-48"/>
       <use x="127.246094" xlink:href="#DejaVuSans-48"/>
      </g>
     </g>
    </g>
   </g>
   <g id="patch_8">
    <path d="M 338.58 252 
L 338.58 220.937143 
L 338.58 65.622857 
L 338.58 34.56 
L 349.452 34.56 
L 349.452 65.622857 
L 349.452 220.937143 
L 349.452 252 
z
" style="fill:none;stroke:#000000;stroke-linejoin:miter;stroke-width:0.8;"/>
   </g>
  </g>
 </g>
 <defs>
  <clipPath id="p2f69c05912">
   <rect height="217.44" width="267.84" x="54" y="34.56"/>
  </clipPath>
  <clipPath id="pb7b4b08521">
   <rect height="217.44" width="10.872" x="338.58" y="34.56"/>
  </clipPath>
 </defs>
</svg>
