<?xml version="1.0" encoding="utf-8" standalone="no"?>
<!DOCTYPE svg PUBLIC "-//W3C//DTD SVG 1.1//EN"
  "http://www.w3.org/Graphics/SVG/1.1/DTD/svg11.dtd">
<!-- Created with matplotlib (https://matplotlib.org/) -->
<svg height="216pt" version="1.1" viewBox="0 0 432 216" width="432pt" xmlns="http://www.w3.org/2000/svg" xmlns:xlink="http://www.w3.org/1999/xlink">
 <metadata>
  <rdf:RDF xmlns:cc="http://creativecommons.org/ns#" xmlns:dc="http://purl.org/dc/elements/1.1/" xmlns:rdf="http://www.w3.org/1999/02/22-rdf-syntax-ns#">
   <cc:Work>
    <dc:type rdf:resource="http://purl.org/dc/dcmitype/StillImage"/>
    <dc:date>2022-03-16T10:38:03.173979</dc:date>
    <dc:format>image/svg+xml</dc:format>
    <dc:creator>
     <cc:Agent>
      <dc:title>Matplotlib v3.3.4, https://matplotlib.org/</dc:title>
     </cc:Agent>
    </dc:creator>
   </cc:Work>
  </rdf:RDF>
 </metadata>
 <defs>
  <style type="text/css">*{stroke-linecap:butt;stroke-linejoin:round;}</style>
 </defs>
 <g id="figure_1">
  <g id="patch_1">
   <path d="M 0 216 
L 432 216 
L 432 0 
L 0 0 
z
" style="fill:#ffffff;"/>
  </g>
  <g id="axes_1">
   <g id="patch_2">
    <path d="M 59.865781 165.932969 
L 372.134219 165.932969 
L 372.134219 18.692578 
L 59.865781 18.692578 
z
" style="fill:#ffffff;"/>
   </g>
   <g id="matplotlib.axis_1">
    <g id="xtick_1">
     <g id="text_1">
      <!-- 0 -->
      <g style="fill:#262626;" transform="translate(70.387368 182.238125)scale(0.13 -0.13)">
       <defs>
        <path d="M 4.15625 35.296875 
Q 4.15625 48 6.765625 55.734375 
Q 9.375 63.484375 14.515625 67.671875 
Q 19.671875 71.875 27.484375 71.875 
Q 33.25 71.875 37.59375 69.546875 
Q 41.9375 67.234375 44.765625 62.859375 
Q 47.609375 58.5 49.21875 52.21875 
Q 50.828125 45.953125 50.828125 35.296875 
Q 50.828125 22.703125 48.234375 14.96875 
Q 45.65625 7.234375 40.5 3 
Q 35.359375 -1.21875 27.484375 -1.21875 
Q 17.140625 -1.21875 11.234375 6.203125 
Q 4.15625 15.140625 4.15625 35.296875 
z
M 13.1875 35.296875 
Q 13.1875 17.671875 17.3125 11.828125 
Q 21.4375 6 27.484375 6 
Q 33.546875 6 37.671875 11.859375 
Q 41.796875 17.71875 41.796875 35.296875 
Q 41.796875 52.984375 37.671875 58.78125 
Q 33.546875 64.59375 27.390625 64.59375 
Q 21.34375 64.59375 17.71875 59.46875 
Q 13.1875 52.9375 13.1875 35.296875 
z
" id="ArialMT-48"/>
       </defs>
       <use xlink:href="#ArialMT-48"/>
      </g>
     </g>
    </g>
    <g id="xtick_2">
     <g id="text_2">
      <!-- 50 -->
      <g style="fill:#262626;" transform="translate(129.468113 182.238125)scale(0.13 -0.13)">
       <defs>
        <path d="M 4.15625 18.75 
L 13.375 19.53125 
Q 14.40625 12.796875 18.140625 9.390625 
Q 21.875 6 27.15625 6 
Q 33.5 6 37.890625 10.78125 
Q 42.28125 15.578125 42.28125 23.484375 
Q 42.28125 31 38.0625 35.34375 
Q 33.84375 39.703125 27 39.703125 
Q 22.75 39.703125 19.328125 37.765625 
Q 15.921875 35.84375 13.96875 32.765625 
L 5.71875 33.84375 
L 12.640625 70.609375 
L 48.25 70.609375 
L 48.25 62.203125 
L 19.671875 62.203125 
L 15.828125 42.96875 
Q 22.265625 47.46875 29.34375 47.46875 
Q 38.71875 47.46875 45.15625 40.96875 
Q 51.609375 34.46875 51.609375 24.265625 
Q 51.609375 14.546875 45.953125 7.46875 
Q 39.0625 -1.21875 27.15625 -1.21875 
Q 17.390625 -1.21875 11.203125 4.25 
Q 5.03125 9.71875 4.15625 18.75 
z
" id="ArialMT-53"/>
       </defs>
       <use xlink:href="#ArialMT-53"/>
       <use x="55.615234" xlink:href="#ArialMT-48"/>
      </g>
     </g>
    </g>
    <g id="xtick_3">
     <g id="text_3">
      <!-- 100 -->
      <g style="fill:#262626;" transform="translate(188.548858 182.238125)scale(0.13 -0.13)">
       <defs>
        <path d="M 37.25 0 
L 28.46875 0 
L 28.46875 56 
Q 25.296875 52.984375 20.140625 49.953125 
Q 14.984375 46.921875 10.890625 45.40625 
L 10.890625 53.90625 
Q 18.265625 57.375 23.78125 62.296875 
Q 29.296875 67.234375 31.59375 71.875 
L 37.25 71.875 
z
" id="ArialMT-49"/>
       </defs>
       <use xlink:href="#ArialMT-49"/>
       <use x="55.615234" xlink:href="#ArialMT-48"/>
       <use x="111.230469" xlink:href="#ArialMT-48"/>
      </g>
     </g>
    </g>
    <g id="xtick_4">
     <g id="text_4">
      <!-- 150 -->
      <g style="fill:#262626;" transform="translate(251.244212 182.238125)scale(0.13 -0.13)">
       <use xlink:href="#ArialMT-49"/>
       <use x="55.615234" xlink:href="#ArialMT-53"/>
       <use x="111.230469" xlink:href="#ArialMT-48"/>
      </g>
     </g>
    </g>
    <g id="xtick_5">
     <g id="text_5">
      <!-- 200 -->
      <g style="fill:#262626;" transform="translate(313.939566 182.238125)scale(0.13 -0.13)">
       <defs>
        <path d="M 50.34375 8.453125 
L 50.34375 0 
L 3.03125 0 
Q 2.9375 3.171875 4.046875 6.109375 
Q 5.859375 10.9375 9.828125 15.625 
Q 13.8125 20.3125 21.34375 26.46875 
Q 33.015625 36.03125 37.109375 41.625 
Q 41.21875 47.21875 41.21875 52.203125 
Q 41.21875 57.421875 37.46875 61 
Q 33.734375 64.59375 27.734375 64.59375 
Q 21.390625 64.59375 17.578125 60.78125 
Q 13.765625 56.984375 13.71875 50.25 
L 4.6875 51.171875 
Q 5.609375 61.28125 11.65625 66.578125 
Q 17.71875 71.875 27.9375 71.875 
Q 38.234375 71.875 44.234375 66.15625 
Q 50.25 60.453125 50.25 52 
Q 50.25 47.703125 48.484375 43.546875 
Q 46.734375 39.40625 42.65625 34.8125 
Q 38.578125 30.21875 29.109375 22.21875 
Q 21.1875 15.578125 18.9375 13.203125 
Q 16.703125 10.84375 15.234375 8.453125 
z
" id="ArialMT-50"/>
       </defs>
       <use xlink:href="#ArialMT-50"/>
       <use x="55.615234" xlink:href="#ArialMT-48"/>
       <use x="111.230469" xlink:href="#ArialMT-48"/>
      </g>
     </g>
    </g>
    <g id="text_6">
     <!-- Elapsed Time (s) -->
     <g style="fill:#262626;" transform="translate(163.484688 199.013438)scale(0.14 -0.14)">
      <defs>
       <path d="M 7.90625 0 
L 7.90625 71.578125 
L 59.671875 71.578125 
L 59.671875 63.140625 
L 17.390625 63.140625 
L 17.390625 41.21875 
L 56.984375 41.21875 
L 56.984375 32.8125 
L 17.390625 32.8125 
L 17.390625 8.453125 
L 61.328125 8.453125 
L 61.328125 0 
z
" id="ArialMT-69"/>
       <path d="M 6.390625 0 
L 6.390625 71.578125 
L 15.1875 71.578125 
L 15.1875 0 
z
" id="ArialMT-108"/>
       <path d="M 40.4375 6.390625 
Q 35.546875 2.25 31.03125 0.53125 
Q 26.515625 -1.171875 21.34375 -1.171875 
Q 12.796875 -1.171875 8.203125 3 
Q 3.609375 7.171875 3.609375 13.671875 
Q 3.609375 17.484375 5.34375 20.625 
Q 7.078125 23.78125 9.890625 25.6875 
Q 12.703125 27.59375 16.21875 28.5625 
Q 18.796875 29.25 24.03125 29.890625 
Q 34.671875 31.15625 39.703125 32.90625 
Q 39.75 34.71875 39.75 35.203125 
Q 39.75 40.578125 37.25 42.78125 
Q 33.890625 45.75 27.25 45.75 
Q 21.046875 45.75 18.09375 43.578125 
Q 15.140625 41.40625 13.71875 35.890625 
L 5.125 37.0625 
Q 6.296875 42.578125 8.984375 45.96875 
Q 11.671875 49.359375 16.75 51.1875 
Q 21.828125 53.03125 28.515625 53.03125 
Q 35.15625 53.03125 39.296875 51.46875 
Q 43.453125 49.90625 45.40625 47.53125 
Q 47.359375 45.171875 48.140625 41.546875 
Q 48.578125 39.3125 48.578125 33.453125 
L 48.578125 21.734375 
Q 48.578125 9.46875 49.140625 6.21875 
Q 49.703125 2.984375 51.375 0 
L 42.1875 0 
Q 40.828125 2.734375 40.4375 6.390625 
z
M 39.703125 26.03125 
Q 34.90625 24.078125 25.34375 22.703125 
Q 19.921875 21.921875 17.671875 20.9375 
Q 15.4375 19.96875 14.203125 18.09375 
Q 12.984375 16.21875 12.984375 13.921875 
Q 12.984375 10.40625 15.640625 8.0625 
Q 18.3125 5.71875 23.4375 5.71875 
Q 28.515625 5.71875 32.46875 7.9375 
Q 36.421875 10.15625 38.28125 14.015625 
Q 39.703125 17 39.703125 22.796875 
z
" id="ArialMT-97"/>
       <path d="M 6.59375 -19.875 
L 6.59375 51.859375 
L 14.59375 51.859375 
L 14.59375 45.125 
Q 17.4375 49.078125 21 51.046875 
Q 24.5625 53.03125 29.640625 53.03125 
Q 36.28125 53.03125 41.359375 49.609375 
Q 46.4375 46.1875 49.015625 39.953125 
Q 51.609375 33.734375 51.609375 26.3125 
Q 51.609375 18.359375 48.75 11.984375 
Q 45.90625 5.609375 40.453125 2.21875 
Q 35.015625 -1.171875 29 -1.171875 
Q 24.609375 -1.171875 21.109375 0.6875 
Q 17.625 2.546875 15.375 5.375 
L 15.375 -19.875 
z
M 14.546875 25.640625 
Q 14.546875 15.625 18.59375 10.84375 
Q 22.65625 6.0625 28.421875 6.0625 
Q 34.28125 6.0625 38.453125 11.015625 
Q 42.625 15.96875 42.625 26.375 
Q 42.625 36.28125 38.546875 41.203125 
Q 34.46875 46.140625 28.8125 46.140625 
Q 23.1875 46.140625 18.859375 40.890625 
Q 14.546875 35.640625 14.546875 25.640625 
z
" id="ArialMT-112"/>
       <path d="M 3.078125 15.484375 
L 11.765625 16.84375 
Q 12.5 11.625 15.84375 8.84375 
Q 19.1875 6.0625 25.203125 6.0625 
Q 31.25 6.0625 34.171875 8.515625 
Q 37.109375 10.984375 37.109375 14.3125 
Q 37.109375 17.28125 34.515625 19 
Q 32.71875 20.171875 25.53125 21.96875 
Q 15.875 24.421875 12.140625 26.203125 
Q 8.40625 27.984375 6.46875 31.125 
Q 4.546875 34.28125 4.546875 38.09375 
Q 4.546875 41.546875 6.125 44.5 
Q 7.71875 47.46875 10.453125 49.421875 
Q 12.5 50.921875 16.03125 51.96875 
Q 19.578125 53.03125 23.640625 53.03125 
Q 29.734375 53.03125 34.34375 51.265625 
Q 38.96875 49.515625 41.15625 46.5 
Q 43.359375 43.5 44.1875 38.484375 
L 35.59375 37.3125 
Q 35.015625 41.3125 32.203125 43.546875 
Q 29.390625 45.796875 24.265625 45.796875 
Q 18.21875 45.796875 15.625 43.796875 
Q 13.03125 41.796875 13.03125 39.109375 
Q 13.03125 37.40625 14.109375 36.03125 
Q 15.1875 34.625 17.484375 33.6875 
Q 18.796875 33.203125 25.25 31.453125 
Q 34.578125 28.953125 38.25 27.359375 
Q 41.9375 25.78125 44.03125 22.75 
Q 46.140625 19.734375 46.140625 15.234375 
Q 46.140625 10.84375 43.578125 6.953125 
Q 41.015625 3.078125 36.171875 0.953125 
Q 31.34375 -1.171875 25.25 -1.171875 
Q 15.140625 -1.171875 9.84375 3.03125 
Q 4.546875 7.234375 3.078125 15.484375 
z
" id="ArialMT-115"/>
       <path d="M 42.09375 16.703125 
L 51.171875 15.578125 
Q 49.03125 7.625 43.21875 3.21875 
Q 37.40625 -1.171875 28.375 -1.171875 
Q 17 -1.171875 10.328125 5.828125 
Q 3.65625 12.84375 3.65625 25.484375 
Q 3.65625 38.578125 10.390625 45.796875 
Q 17.140625 53.03125 27.875 53.03125 
Q 38.28125 53.03125 44.875 45.953125 
Q 51.46875 38.875 51.46875 26.03125 
Q 51.46875 25.25 51.421875 23.6875 
L 12.75 23.6875 
Q 13.234375 15.140625 17.578125 10.59375 
Q 21.921875 6.0625 28.421875 6.0625 
Q 33.25 6.0625 36.671875 8.59375 
Q 40.09375 11.140625 42.09375 16.703125 
z
M 13.234375 30.90625 
L 42.1875 30.90625 
Q 41.609375 37.453125 38.875 40.71875 
Q 34.671875 45.796875 27.984375 45.796875 
Q 21.921875 45.796875 17.796875 41.75 
Q 13.671875 37.703125 13.234375 30.90625 
z
" id="ArialMT-101"/>
       <path d="M 40.234375 0 
L 40.234375 6.546875 
Q 35.296875 -1.171875 25.734375 -1.171875 
Q 19.53125 -1.171875 14.328125 2.25 
Q 9.125 5.671875 6.265625 11.796875 
Q 3.421875 17.921875 3.421875 25.875 
Q 3.421875 33.640625 6 39.96875 
Q 8.59375 46.296875 13.765625 49.65625 
Q 18.953125 53.03125 25.34375 53.03125 
Q 30.03125 53.03125 33.6875 51.046875 
Q 37.359375 49.078125 39.65625 45.90625 
L 39.65625 71.578125 
L 48.390625 71.578125 
L 48.390625 0 
z
M 12.453125 25.875 
Q 12.453125 15.921875 16.640625 10.984375 
Q 20.84375 6.0625 26.5625 6.0625 
Q 32.328125 6.0625 36.34375 10.765625 
Q 40.375 15.484375 40.375 25.140625 
Q 40.375 35.796875 36.265625 40.765625 
Q 32.171875 45.75 26.171875 45.75 
Q 20.3125 45.75 16.375 40.96875 
Q 12.453125 36.1875 12.453125 25.875 
z
" id="ArialMT-100"/>
       <path id="ArialMT-32"/>
       <path d="M 25.921875 0 
L 25.921875 63.140625 
L 2.34375 63.140625 
L 2.34375 71.578125 
L 59.078125 71.578125 
L 59.078125 63.140625 
L 35.40625 63.140625 
L 35.40625 0 
z
" id="ArialMT-84"/>
       <path d="M 6.640625 61.46875 
L 6.640625 71.578125 
L 15.4375 71.578125 
L 15.4375 61.46875 
z
M 6.640625 0 
L 6.640625 51.859375 
L 15.4375 51.859375 
L 15.4375 0 
z
" id="ArialMT-105"/>
       <path d="M 6.59375 0 
L 6.59375 51.859375 
L 14.453125 51.859375 
L 14.453125 44.578125 
Q 16.890625 48.390625 20.9375 50.703125 
Q 25 53.03125 30.171875 53.03125 
Q 35.9375 53.03125 39.625 50.640625 
Q 43.3125 48.25 44.828125 43.953125 
Q 50.984375 53.03125 60.84375 53.03125 
Q 68.5625 53.03125 72.703125 48.75 
Q 76.859375 44.484375 76.859375 35.59375 
L 76.859375 0 
L 68.109375 0 
L 68.109375 32.671875 
Q 68.109375 37.9375 67.25 40.25 
Q 66.40625 42.578125 64.15625 43.984375 
Q 61.921875 45.40625 58.890625 45.40625 
Q 53.421875 45.40625 49.796875 41.765625 
Q 46.1875 38.140625 46.1875 30.125 
L 46.1875 0 
L 37.40625 0 
L 37.40625 33.6875 
Q 37.40625 39.546875 35.25 42.46875 
Q 33.109375 45.40625 28.21875 45.40625 
Q 24.515625 45.40625 21.359375 43.453125 
Q 18.21875 41.5 16.796875 37.734375 
Q 15.375 33.984375 15.375 26.90625 
L 15.375 0 
z
" id="ArialMT-109"/>
       <path d="M 23.390625 -21.046875 
Q 16.109375 -11.859375 11.078125 0.4375 
Q 6.0625 12.75 6.0625 25.921875 
Q 6.0625 37.546875 9.8125 48.1875 
Q 14.203125 60.546875 23.390625 72.796875 
L 29.6875 72.796875 
Q 23.78125 62.640625 21.875 58.296875 
Q 18.890625 51.5625 17.1875 44.234375 
Q 15.09375 35.109375 15.09375 25.875 
Q 15.09375 2.390625 29.6875 -21.046875 
z
" id="ArialMT-40"/>
       <path d="M 12.359375 -21.046875 
L 6.0625 -21.046875 
Q 20.65625 2.390625 20.65625 25.875 
Q 20.65625 35.0625 18.5625 44.09375 
Q 16.890625 51.421875 13.921875 58.15625 
Q 12.015625 62.546875 6.0625 72.796875 
L 12.359375 72.796875 
Q 21.53125 60.546875 25.921875 48.1875 
Q 29.6875 37.546875 29.6875 25.921875 
Q 29.6875 12.75 24.625 0.4375 
Q 19.578125 -11.859375 12.359375 -21.046875 
z
" id="ArialMT-41"/>
      </defs>
      <use xlink:href="#ArialMT-69"/>
      <use x="66.699219" xlink:href="#ArialMT-108"/>
      <use x="88.916016" xlink:href="#ArialMT-97"/>
      <use x="144.53125" xlink:href="#ArialMT-112"/>
      <use x="200.146484" xlink:href="#ArialMT-115"/>
      <use x="250.146484" xlink:href="#ArialMT-101"/>
      <use x="305.761719" xlink:href="#ArialMT-100"/>
      <use x="361.376953" xlink:href="#ArialMT-32"/>
      <use x="387.410156" xlink:href="#ArialMT-84"/>
      <use x="444.744141" xlink:href="#ArialMT-105"/>
      <use x="466.960938" xlink:href="#ArialMT-109"/>
      <use x="550.261719" xlink:href="#ArialMT-101"/>
      <use x="605.876953" xlink:href="#ArialMT-32"/>
      <use x="633.660156" xlink:href="#ArialMT-40"/>
      <use x="666.960938" xlink:href="#ArialMT-115"/>
      <use x="716.960938" xlink:href="#ArialMT-41"/>
     </g>
    </g>
   </g>
   <g id="matplotlib.axis_2">
    <g id="ytick_1">
     <g id="line2d_1">
      <defs>
       <path d="M 0 0 
L -3.5 0 
" id="mc4fb0cf6ba" style="stroke:#262626;stroke-width:0.8;"/>
      </defs>
      <g>
       <use style="fill:#262626;stroke:#262626;stroke-width:0.8;" x="59.865781" xlink:href="#mc4fb0cf6ba" y="165.932969"/>
      </g>
     </g>
     <g id="text_7">
      <!-- 0 -->
      <g style="fill:#262626;" transform="translate(45.636562 170.585547)scale(0.13 -0.13)">
       <use xlink:href="#ArialMT-48"/>
      </g>
     </g>
    </g>
    <g id="ytick_2">
     <g id="line2d_2">
      <g>
       <use style="fill:#262626;stroke:#262626;stroke-width:0.8;" x="59.865781" xlink:href="#mc4fb0cf6ba" y="129.122871"/>
      </g>
     </g>
     <g id="text_8">
      <!-- 50 -->
      <g style="fill:#262626;" transform="translate(38.407344 133.775449)scale(0.13 -0.13)">
       <use xlink:href="#ArialMT-53"/>
       <use x="55.615234" xlink:href="#ArialMT-48"/>
      </g>
     </g>
    </g>
    <g id="ytick_3">
     <g id="line2d_3">
      <g>
       <use style="fill:#262626;stroke:#262626;stroke-width:0.8;" x="59.865781" xlink:href="#mc4fb0cf6ba" y="92.312773"/>
      </g>
     </g>
     <g id="text_9">
      <!-- 100 -->
      <g style="fill:#262626;" transform="translate(31.178125 96.965352)scale(0.13 -0.13)">
       <use xlink:href="#ArialMT-49"/>
       <use x="55.615234" xlink:href="#ArialMT-48"/>
       <use x="111.230469" xlink:href="#ArialMT-48"/>
      </g>
     </g>
    </g>
    <g id="ytick_4">
     <g id="line2d_4">
      <g>
       <use style="fill:#262626;stroke:#262626;stroke-width:0.8;" x="59.865781" xlink:href="#mc4fb0cf6ba" y="55.502676"/>
      </g>
     </g>
     <g id="text_10">
      <!-- 150 -->
      <g style="fill:#262626;" transform="translate(31.178125 60.155254)scale(0.13 -0.13)">
       <use xlink:href="#ArialMT-49"/>
       <use x="55.615234" xlink:href="#ArialMT-53"/>
       <use x="111.230469" xlink:href="#ArialMT-48"/>
      </g>
     </g>
    </g>
    <g id="ytick_5">
     <g id="line2d_5">
      <g>
       <use style="fill:#262626;stroke:#262626;stroke-width:0.8;" x="59.865781" xlink:href="#mc4fb0cf6ba" y="18.692578"/>
      </g>
     </g>
     <g id="text_11">
      <!-- 200 -->
      <g style="fill:#262626;" transform="translate(31.178125 23.345156)scale(0.13 -0.13)">
       <use xlink:href="#ArialMT-50"/>
       <use x="55.615234" xlink:href="#ArialMT-48"/>
       <use x="111.230469" xlink:href="#ArialMT-48"/>
      </g>
     </g>
    </g>
    <g id="text_12">
     <!-- Mass Flow Rate (slm) -->
     <g style="fill:#262626;" transform="translate(24.231562 159.981992)rotate(-90)scale(0.14 -0.14)">
      <defs>
       <path d="M 7.421875 0 
L 7.421875 71.578125 
L 21.6875 71.578125 
L 38.625 20.90625 
Q 40.96875 13.8125 42.046875 10.296875 
Q 43.265625 14.203125 45.84375 21.78125 
L 62.984375 71.578125 
L 75.734375 71.578125 
L 75.734375 0 
L 66.609375 0 
L 66.609375 59.90625 
L 45.796875 0 
L 37.25 0 
L 16.546875 60.9375 
L 16.546875 0 
z
" id="ArialMT-77"/>
       <path d="M 8.203125 0 
L 8.203125 71.578125 
L 56.5 71.578125 
L 56.5 63.140625 
L 17.671875 63.140625 
L 17.671875 40.96875 
L 51.265625 40.96875 
L 51.265625 32.515625 
L 17.671875 32.515625 
L 17.671875 0 
z
" id="ArialMT-70"/>
       <path d="M 3.328125 25.921875 
Q 3.328125 40.328125 11.328125 47.265625 
Q 18.015625 53.03125 27.640625 53.03125 
Q 38.328125 53.03125 45.109375 46.015625 
Q 51.90625 39.015625 51.90625 26.65625 
Q 51.90625 16.65625 48.90625 10.90625 
Q 45.90625 5.171875 40.15625 2 
Q 34.421875 -1.171875 27.640625 -1.171875 
Q 16.75 -1.171875 10.03125 5.8125 
Q 3.328125 12.796875 3.328125 25.921875 
z
M 12.359375 25.921875 
Q 12.359375 15.96875 16.703125 11.015625 
Q 21.046875 6.0625 27.640625 6.0625 
Q 34.1875 6.0625 38.53125 11.03125 
Q 42.875 16.015625 42.875 26.21875 
Q 42.875 35.84375 38.5 40.796875 
Q 34.125 45.75 27.640625 45.75 
Q 21.046875 45.75 16.703125 40.8125 
Q 12.359375 35.890625 12.359375 25.921875 
z
" id="ArialMT-111"/>
       <path d="M 16.15625 0 
L 0.296875 51.859375 
L 9.375 51.859375 
L 17.625 21.921875 
L 20.703125 10.796875 
Q 20.90625 11.625 23.390625 21.484375 
L 31.640625 51.859375 
L 40.671875 51.859375 
L 48.4375 21.78125 
L 51.03125 11.859375 
L 54 21.875 
L 62.890625 51.859375 
L 71.4375 51.859375 
L 55.21875 0 
L 46.09375 0 
L 37.84375 31.0625 
L 35.84375 39.890625 
L 25.34375 0 
z
" id="ArialMT-119"/>
       <path d="M 7.859375 0 
L 7.859375 71.578125 
L 39.59375 71.578125 
Q 49.171875 71.578125 54.140625 69.640625 
Q 59.125 67.71875 62.109375 62.828125 
Q 65.09375 57.953125 65.09375 52.046875 
Q 65.09375 44.4375 60.15625 39.203125 
Q 55.21875 33.984375 44.921875 32.5625 
Q 48.6875 30.765625 50.640625 29 
Q 54.78125 25.203125 58.5 19.484375 
L 70.953125 0 
L 59.03125 0 
L 49.5625 14.890625 
Q 45.40625 21.34375 42.71875 24.75 
Q 40.046875 28.171875 37.921875 29.53125 
Q 35.796875 30.90625 33.59375 31.453125 
Q 31.984375 31.78125 28.328125 31.78125 
L 17.328125 31.78125 
L 17.328125 0 
z
M 17.328125 39.984375 
L 37.703125 39.984375 
Q 44.1875 39.984375 47.84375 41.328125 
Q 51.515625 42.671875 53.421875 45.625 
Q 55.328125 48.578125 55.328125 52.046875 
Q 55.328125 57.125 51.640625 60.390625 
Q 47.953125 63.671875 39.984375 63.671875 
L 17.328125 63.671875 
z
" id="ArialMT-82"/>
       <path d="M 25.78125 7.859375 
L 27.046875 0.09375 
Q 23.34375 -0.6875 20.40625 -0.6875 
Q 15.625 -0.6875 12.984375 0.828125 
Q 10.359375 2.34375 9.28125 4.8125 
Q 8.203125 7.28125 8.203125 15.1875 
L 8.203125 45.015625 
L 1.765625 45.015625 
L 1.765625 51.859375 
L 8.203125 51.859375 
L 8.203125 64.703125 
L 16.9375 69.96875 
L 16.9375 51.859375 
L 25.78125 51.859375 
L 25.78125 45.015625 
L 16.9375 45.015625 
L 16.9375 14.703125 
Q 16.9375 10.9375 17.40625 9.859375 
Q 17.875 8.796875 18.921875 8.15625 
Q 19.96875 7.515625 21.921875 7.515625 
Q 23.390625 7.515625 25.78125 7.859375 
z
" id="ArialMT-116"/>
      </defs>
      <use xlink:href="#ArialMT-77"/>
      <use x="83.300781" xlink:href="#ArialMT-97"/>
      <use x="138.916016" xlink:href="#ArialMT-115"/>
      <use x="188.916016" xlink:href="#ArialMT-115"/>
      <use x="238.916016" xlink:href="#ArialMT-32"/>
      <use x="266.699219" xlink:href="#ArialMT-70"/>
      <use x="327.783203" xlink:href="#ArialMT-108"/>
      <use x="350" xlink:href="#ArialMT-111"/>
      <use x="405.615234" xlink:href="#ArialMT-119"/>
      <use x="477.832031" xlink:href="#ArialMT-32"/>
      <use x="505.615234" xlink:href="#ArialMT-82"/>
      <use x="577.832031" xlink:href="#ArialMT-97"/>
      <use x="633.447266" xlink:href="#ArialMT-116"/>
      <use x="661.230469" xlink:href="#ArialMT-101"/>
      <use x="716.845703" xlink:href="#ArialMT-32"/>
      <use x="744.628906" xlink:href="#ArialMT-40"/>
      <use x="777.929688" xlink:href="#ArialMT-115"/>
      <use x="827.929688" xlink:href="#ArialMT-108"/>
      <use x="850.146484" xlink:href="#ArialMT-109"/>
      <use x="933.447266" xlink:href="#ArialMT-41"/>
     </g>
    </g>
   </g>
   <g id="line2d_6">
    <path clip-path="url(#pdc5ba9e00d)" d="M 74.059801 165.925607 
L 90.977626 165.874073 
L 91.386184 165.476524 
L 91.936241 163.45933 
L 92.346143 163.194297 
L 92.617129 161.942754 
L 92.753978 159.469116 
L 93.025505 152.004028 
L 93.160237 143.780652 
L 93.43367 135.969549 
L 93.843072 131.449269 
L 94.116465 131.589148 
L 94.252763 131.81737 
L 94.527722 131.648044 
L 94.662682 131.419821 
L 94.937042 131.574424 
L 95.07343 131.412459 
L 95.348062 131.508165 
L 96.299675 129.873797 
L 96.712709 129.925331 
L 97.122285 129.424714 
L 97.395336 129.432076 
L 97.532936 129.29956 
L 97.806714 129.292198 
L 98.489119 128.246791 
L 98.625967 128.394031 
L 99.037122 128.578082 
L 99.720054 127.665191 
L 99.856092 128.180533 
L 100.129455 128.033292 
L 100.536517 127.046782 
L 100.671423 127.378072 
L 101.083368 127.054144 
L 101.4934 127.07623 
L 101.901484 126.60506 
L 102.17503 127.083592 
L 102.310953 126.597698 
L 102.723882 125.964565 
L 102.995258 125.935117 
L 103.267464 126.082357 
L 103.402531 126.56825 
L 103.675536 126.413648 
L 104.086418 125.868858 
L 104.496093 126.192787 
L 104.633292 125.817324 
L 105.043045 125.905669 
L 105.314028 125.287259 
L 105.448799 125.559654 
L 105.72223 125.61855 
L 105.859145 125.773152 
L 106.13558 125.500757 
L 106.272672 125.861496 
L 106.956064 124.727745 
L 107.093622 124.941244 
L 107.637954 124.499523 
L 107.775414 125.191553 
L 108.047456 124.808728 
L 108.18505 124.838176 
L 108.455454 124.587867 
L 108.590282 124.771918 
L 108.864689 124.882348 
L 109.001476 124.477437 
L 109.274897 124.330196 
L 109.411318 124.12406 
L 109.684563 124.227128 
L 110.230754 123.46884 
L 110.913407 123.535098 
L 111.049475 123.593994 
L 111.325075 123.39522 
L 111.461526 122.614846 
L 111.869676 122.879879 
L 112.140832 123.049205 
L 112.551077 122.659018 
L 112.959908 122.673742 
L 113.641753 122.239383 
L 113.777832 122.187849 
L 114.051344 121.547353 
L 114.1884 122.114228 
L 114.599487 121.871282 
L 114.872907 121.370665 
L 115.009212 121.7903 
L 115.416296 121.385389 
L 115.688373 120.995202 
L 115.824435 121.304406 
L 116.096217 121.289682 
L 116.23361 120.789065 
L 116.506003 120.722807 
L 116.779567 120.398878 
L 117.32538 120.546118 
L 117.597659 121.179252 
L 117.733446 120.597652 
L 118.142609 120.619739 
L 118.415548 120.303172 
L 118.55373 119.883537 
L 118.828994 119.964519 
L 118.964944 119.832002 
L 119.236012 118.676165 
L 119.371959 119.000094 
L 119.646732 118.786596 
L 119.785195 118.285978 
L 120.05753 118.418495 
L 120.19434 117.792723 
L 120.46707 117.586586 
L 120.603934 117.189037 
L 120.876708 117.277382 
L 121.146378 117.004987 
L 121.285221 116.276147 
L 121.831887 115.95958 
L 122.104852 115.245464 
L 122.37629 115.591479 
L 122.786057 115.274912 
L 122.923474 115.414791 
L 123.19557 115.054052 
L 123.331564 114.362022 
L 123.60535 114.516624 
L 123.742944 114.111713 
L 124.152179 113.706802 
L 124.426309 114.001283 
L 124.839177 113.242995 
L 124.976638 113.235633 
L 125.251238 113.058944 
L 125.386762 112.668757 
L 125.662185 112.86017 
L 125.79793 112.396363 
L 126.071894 112.764464 
L 126.348263 112.035624 
L 126.484339 112.315381 
L 126.619792 112.911704 
L 126.891992 111.910469 
L 127.165739 112.035624 
L 127.301443 111.535006 
L 127.573809 112.234398 
L 127.70992 111.814763 
L 127.982168 111.542368 
L 128.116897 111.733781 
L 128.389258 110.533772 
L 128.525461 110.909235 
L 128.800421 111.188992 
L 128.937543 110.386531 
L 130.034534 109.584071 
L 130.170036 110.496962 
L 130.440855 109.915362 
L 130.713529 108.22946 
L 130.850315 108.671181 
L 131.125316 109.098178 
L 131.261194 108.737439 
L 131.396345 108.038047 
L 131.668296 108.516578 
L 131.941836 107.949703 
L 132.079421 108.207374 
L 132.353479 107.824549 
L 132.489702 107.397551 
L 132.900087 106.617177 
L 133.30936 107.50062 
L 133.581331 107.066261 
L 133.718244 106.123922 
L 134.124383 106.73497 
L 134.808782 105.328824 
L 134.946238 106.168094 
L 135.218199 104.975447 
L 135.355695 105.085877 
L 135.63198 104.673604 
L 135.905664 104.894465 
L 136.04158 104.357037 
L 136.449598 104.305503 
L 137.134013 103.157028 
L 137.270221 103.318993 
L 137.541405 103.414699 
L 137.679274 103.068684 
L 137.953237 103.341079 
L 138.089014 102.722669 
L 138.363675 102.737393 
L 138.50173 102.354568 
L 138.778387 102.14107 
L 138.914812 102.693221 
L 139.188158 102.14107 
L 139.596189 102.192604 
L 139.733134 101.345971 
L 140.007246 101.103025 
L 140.144744 100.676028 
L 140.41597 100.418357 
L 140.688871 100.992594 
L 140.825303 100.322651 
L 141.096212 100.06498 
L 141.231232 99.343502 
L 141.501919 98.872333 
L 141.638196 99.777861 
L 141.911705 99.534915 
L 142.048435 98.334905 
L 142.322206 97.974166 
L 142.457444 98.055149 
L 142.732168 98.739816 
L 142.869424 98.158217 
L 143.146464 97.775392 
L 143.278938 98.114045 
L 143.552506 97.871098 
L 143.691236 97.966804 
L 143.96223 97.753306 
L 144.099394 97.348395 
L 144.37525 97.819564 
L 144.511676 97.716496 
L 144.787806 96.840415 
L 144.923806 96.818329 
L 145.195891 96.325074 
L 145.468338 97.98889 
L 145.605596 96.096851 
L 146.019411 96.671089 
L 146.296992 95.956973 
L 146.435214 96.052679 
L 146.706498 96.464952 
L 146.843781 95.927525 
L 147.122062 95.743475 
L 147.255438 95.294391 
L 147.664597 94.911566 
L 147.938781 94.720154 
L 148.350486 93.615851 
L 148.485482 93.181492 
L 148.758939 93.277198 
L 148.895001 93.895608 
L 149.167356 93.063699 
L 149.303363 94.256347 
L 149.711688 92.077189 
L 149.984007 92.710322 
L 150.254702 92.320135 
L 150.666856 92.44529 
L 150.801975 92.047741 
L 151.079635 92.180257 
L 151.217762 91.944672 
L 151.491437 92.283325 
L 151.906571 90.236684 
L 152.041831 89.912755 
L 152.321453 88.315197 
L 152.45805 90.082082 
L 152.733079 88.8379 
L 152.871016 89.117657 
L 153.145247 88.845262 
L 153.280542 88.506609 
L 153.557166 88.712746 
L 153.69538 87.932372 
L 154.11168 87.365496 
L 154.385057 88.131146 
L 154.525492 87.004757 
L 154.798073 86.879603 
L 154.935019 87.277152 
L 155.213901 87.100464 
L 155.351761 85.259959 
L 155.762965 87.15936 
L 156.043484 85.576526 
L 156.182535 86.069781 
L 156.456507 86.555674 
L 156.593771 85.70168 
L 156.870884 86.872241 
L 157.008955 85.399837 
L 157.280358 86.069781 
L 157.552561 85.642784 
L 157.68835 85.208425 
L 157.960777 85.237873 
L 158.098068 85.377751 
L 158.51023 84.847686 
L 158.782627 84.715169 
L 159.33169 83.242765 
L 159.605559 83.47835 
L 159.743455 84.192466 
L 160.017662 83.912709 
L 160.161352 84.479585 
L 160.569209 82.042756 
L 160.980773 83.117611 
L 161.254173 82.145824 
L 161.660846 82.182635 
L 161.798736 83.043991 
L 162.071395 83.228041 
L 162.34393 81.932326 
L 162.480463 82.072204 
L 162.891377 81.093056 
L 163.164811 81.387536 
L 163.301927 81.976498 
L 163.578646 82.160549 
L 163.715659 81.166676 
L 163.991097 81.785086 
L 164.126495 80.769127 
L 164.39967 81.505329 
L 164.534893 80.253785 
L 164.809042 80.34213 
L 165.08442 78.928622 
L 165.223333 79.583842 
L 165.495403 80.158079 
L 165.631258 79.120034 
L 165.904316 79.819426 
L 166.041921 79.311447 
L 166.314467 79.753168 
L 166.45094 78.972794 
L 166.729102 79.907771 
L 166.865297 79.164207 
L 167.138202 78.494263 
L 167.274174 78.663589 
L 167.548517 78.641503 
L 167.686474 77.581372 
L 167.959068 77.632906 
L 168.096517 77.301616 
L 168.369736 77.35315 
L 168.506331 76.955601 
L 168.781531 76.565414 
L 169.056425 77.625544 
L 169.604701 77.124927 
L 169.879064 74.827977 
L 170.288886 77.654993 
L 170.42893 75.851298 
L 170.703902 76.418173 
L 170.840373 76.329829 
L 171.117696 74.805891 
L 171.25533 74.879511 
L 171.528435 75.16663 
L 171.66443 73.870915 
L 172.075002 75.063562 
L 172.350083 74.651289 
L 172.487448 75.20344 
L 172.76109 74.113861 
L 173.037033 74.533496 
L 173.172702 72.987472 
L 173.582917 72.86968 
L 173.993184 73.200971 
L 174.268908 71.397276 
L 174.405641 72.295442 
L 174.67903 71.861083 
L 174.815036 72.737164 
L 175.090074 70.624264 
L 175.226384 72.008324 
L 175.499827 70.705246 
L 175.774736 71.610775 
L 175.911392 71.102795 
L 176.185025 70.521196 
L 176.322236 69.91751 
L 176.59469 69.924872 
L 176.732441 70.653712 
L 177.00721 70.116285 
L 177.145402 69.203394 
L 177.420237 68.842655 
L 177.557527 69.578857 
L 177.83324 69.328548 
L 178.248506 66.906444 
L 178.659066 67.738352 
L 178.93424 66.840186 
L 179.070821 67.664732 
L 179.347023 66.921168 
L 179.484519 65.448764 
L 179.759568 66.663497 
L 179.894825 67.937127 
L 180.167614 66.111346 
L 180.441431 67.046322 
L 180.580932 66.074536 
L 180.854728 66.486809 
L 180.993751 64.962871 
L 181.268241 65.654901 
L 181.405151 65.43404 
L 181.679314 64.035256 
L 181.817248 64.948147 
L 182.091207 64.153049 
L 182.224504 65.058577 
L 182.499325 64.432805 
L 182.770858 65.529746 
L 182.910854 65.411954 
L 183.184077 64.072067 
L 183.320298 64.550598 
L 183.729923 62.997212 
L 184.003835 64.572684 
L 184.140816 63.350589 
L 184.41284 64.403357 
L 184.552051 63.416847 
L 184.825002 63.968998 
L 185.098233 63.004574 
L 185.236269 63.762862 
L 185.508983 63.144452 
L 185.645747 64.248755 
L 185.919151 61.937081 
L 186.05629 63.276968 
L 186.331821 62.857333 
L 186.46845 60.773882 
L 186.746724 59.986146 
L 187.018251 60.707624 
L 187.429582 59.117427 
L 187.565173 60.589831 
L 187.840348 59.264668 
L 187.978565 61.362843 
L 188.389348 58.896567 
L 188.662964 61.502722 
L 188.800173 59.41927 
L 189.072871 57.497783 
L 189.209625 58.845033 
L 189.485252 59.353012 
L 189.896492 56.665875 
L 190.171866 57.004528 
L 190.307194 58.874481 
L 190.584641 55.782433 
L 190.722693 56.967718 
L 190.994211 58.064659 
L 191.131542 55.119851 
L 191.40385 57.674472 
L 191.541379 56.562807 
L 191.816752 56.28305 
L 192.092136 56.813115 
L 192.231313 56.614341 
L 192.644043 54.994696 
L 192.917081 55.870777 
L 193.053761 53.529655 
L 193.328398 54.354201 
L 193.464088 55.392245 
L 193.735464 55.303901 
L 194.008663 53.779963 
L 194.14497 55.907587 
L 194.555882 54.155426 
L 194.967678 55.833967 
L 195.378479 52.440076 
L 195.649959 52.60204 
L 195.784443 51.902648 
L 196.058239 51.394669 
L 196.334172 52.219215 
L 196.743733 52.300197 
L 197.152991 54.405735 
L 197.291179 48.788514 
L 197.564182 50.032695 
L 197.701389 51.630254 
L 198.114139 50.062143 
L 198.390519 49.782387 
L 198.52996 51.372583 
L 198.806364 50.45233 
L 199.082087 50.26828 
L 199.219464 49.178701 
L 199.490649 49.64987 
L 199.627556 50.790983 
L 199.901084 50.032695 
L 200.038682 48.611825 
L 200.310781 49.752939 
L 200.447588 46.800769 
L 200.721233 49.64987 
L 200.857429 47.080525 
L 201.132172 49.46582 
L 201.81781 44.319768 
L 201.954666 45.151676 
L 202.227908 44.584801 
L 202.639886 46.049843 
L 202.776392 46.138187 
L 203.051439 46.705062 
L 203.325242 43.178655 
L 203.459882 43.355344 
L 203.734558 44.562715 
L 204.14468 42.037542 
L 204.281366 42.111162 
L 204.555333 41.279254 
L 204.968207 42.663314 
L 205.378505 40.837533 
L 205.654542 40.366364 
L 205.790342 40.712379 
L 206.066217 40.101331 
L 206.201422 39.497645 
L 206.473481 40.108693 
L 206.609605 38.724633 
L 206.881308 39.873108 
L 207.29034 40.285381 
L 207.563003 38.658375 
L 207.699953 39.88047 
L 207.974157 39.762678 
L 208.110781 40.992135 
L 208.793357 37.922173 
L 208.929785 38.466963 
L 209.480437 38.827702 
L 209.6169 37.046093 
L 209.889341 38.805615 
L 210.027434 38.540583 
L 210.300792 36.994559 
L 210.438233 37.642416 
L 210.713204 35.83136 
L 210.986822 38.106224 
L 211.121647 37.112351 
L 211.396386 36.574924 
L 211.533737 36.810508 
L 211.808696 35.897618 
L 211.945765 36.869404 
L 212.221562 35.154054 
L 212.359414 37.701313 
L 212.635362 34.63135 
L 212.908477 35.558965 
L 213.046524 33.733184 
L 213.319566 33.666926 
L 213.728642 37.679226 
L 213.865165 35.963876 
L 214.138332 35.28657 
L 214.276623 33.711098 
L 214.550606 34.196991 
L 214.821518 35.073072 
L 214.958176 33.468151 
L 215.231345 33.90251 
L 215.368188 33.57122 
L 215.642073 33.593306 
L 215.781523 31.907403 
L 216.053957 33.814166 
L 216.464724 31.163839 
L 216.740602 31.252183 
L 216.878625 30.412913 
L 217.150732 30.405551 
L 217.289528 31.068133 
L 217.56233 29.154008 
L 217.69744 29.897572 
L 217.969948 29.566281 
L 218.105375 28.152773 
L 218.382267 31.090219 
L 218.654822 29.176094 
L 218.792873 30.633774 
L 219.207081 27.534364 
L 219.480148 30.022726 
L 219.617366 28.182221 
L 220.034711 27.195711 
L 220.308738 31.988385 
L 220.58217 31.465682 
L 220.72155 29.220266 
L 220.996871 29.102474 
L 221.136222 24.655814 
L 221.412855 26.820248 
L 221.549337 26.430061 
L 221.824677 24.353971 
L 221.962433 30.700032 
L 222.37136 25.104897 
L 222.643406 27.755224 
L 222.917694 24.847226 
L 223.054669 27.961361 
L 223.32808 28.366272 
L 223.741009 24.876675 
L 223.877852 26.415337 
L 224.151755 24.670538 
L 224.287025 28.476702 
L 224.56139 26.312268 
L 224.835111 29.89021 
L 224.972781 27.917189 
L 225.249448 28.807993 
L 225.387533 30.538068 
L 225.661649 27.755224 
L 225.799481 24.994467 
L 226.071604 29.301248 
L 226.486329 23.190772 
L 226.895386 28.933147 
L 227.308672 24.214093 
L 227.582754 26.761352 
L 227.721476 26.13558 
L 227.994602 27.865654 
L 228.131236 24.773606 
L 228.402831 25.649687 
L 228.678088 25.185879 
L 228.814378 24.53066 
L 229.091021 21.68892 
L 229.227355 22.513466 
L 229.499435 23.242306 
L 229.635624 24.295075 
L 229.909396 25.40674 
L 230.047364 19.009145 
L 230.321504 23.286478 
L 230.459074 21.335543 
L 230.733411 20.025104 
L 231.007281 23.264392 
L 231.14552 16.123233 
L 231.420649 18.464356 
L 231.559418 15.578444 
L 231.833977 18.464356 
L 231.97129 15.276601 
L 232.245674 15.585806 
L 232.384548 14.746536 
L 232.655844 13.870455 
L 232.928861 13.421372 
L 233.065224 14.893776 
L 233.337117 13.841007 
L 233.474874 16.520782 
L 233.750987 15.78458 
L 233.888341 18.037358 
L 234.166653 8.761214 
L 234.581758 11.448351 
L 234.720304 15.858201 
L 234.997468 9.306003 
L 235.274368 15.924459 
L 235.412135 8.415199 
L 235.688314 12.317069 
L 235.825752 8.12808 
L 236.101117 8.157528 
L 236.24156 6.780831 
L 236.514989 6.456902 
L 236.651803 8.89373 
L 236.927574 5.507201 
L 237.20345 10.24098 
L 237.482136 4.439708 
L 237.75837 11.198042 
L 238.035055 3.593076 
L 238.171922 6.140335 
L 238.452935 7.561205 
L 238.59132 0.788147 
L 238.863089 3.173441 
L 239.001305 11.654487 
L 239.68287 1.597969 
L 239.957746 0.228633 
L 240.09777 6.655676 
L 240.36432 -1 
M 240.378174 -1 
L 240.505454 0.552562 
L 240.644327 -1 
M 240.875996 -1 
L 240.916916 -0.360328 
L 240.993812 -1 
M 241.227021 -1 
L 241.328924 3.68142 
L 241.603489 1.472814 
L 241.876749 0.250719 
L 242.013589 0.191823 
L 242.288496 2.451963 
L 242.382225 -1 
M 242.614603 -1 
L 242.835462 1.251954 
L 242.952546 -1 
M 243.377023 -1 
L 243.519068 2.120672 
L 243.63714 -1 
M 244.032221 -1 
L 244.207364 3.953815 
L 244.268669 -1 
M 277.108257 -1 
L 277.229894 1.31085 
L 277.368371 -0.993462 
L 277.644198 -0.286708 
L 277.682558 -1 
M 277.959813 -1 
L 278.058361 0.037221 
L 278.12666 -1 
M 279.011728 -1 
L 279.293822 1.752571 
L 279.569509 -0.124744 
L 279.705852 -0.095296 
L 279.977863 0.589372 
L 280.114976 2.525583 
L 280.362479 -1 
M 280.531345 -1 
L 280.662023 -0.654809 
L 280.797266 3.158717 
L 281.071489 3.364853 
L 281.484047 5.529287 
L 281.622357 2.606565 
L 282.034982 4.277744 
L 282.3084 4.344002 
L 282.583487 3.53418 
L 282.722139 2.606565 
L 282.86216 5.131738 
L 283.136924 6.022543 
L 283.408346 3.188165 
L 283.544819 6.545246 
L 283.956302 10.491288 
L 284.229513 8.150166 
L 284.365149 8.694956 
L 284.640285 8.304769 
L 284.91368 9.872879 
L 285.050492 9.556312 
L 285.325564 12.258173 
L 285.464634 7.745255 
L 285.740397 9.674104 
L 285.877113 12.552654 
L 286.148469 9.968585 
L 286.423627 12.7956 
L 286.560016 11.73547 
L 286.832427 11.88271 
L 286.969233 12.206639 
L 287.242139 14.245918 
L 287.376356 11.544057 
L 287.650334 12.221363 
L 287.785556 15.121999 
L 288.060079 15.497462 
L 288.333446 15.468014 
L 288.470249 14.753898 
L 288.744976 14.753898 
L 288.881439 15.909735 
L 289.154664 14.665553 
L 289.290514 15.872925 
L 289.562677 19.414056 
L 289.700231 17.949014 
L 289.972254 19.877863 
L 290.246889 19.016507 
L 290.383041 16.380904 
L 290.656806 18.243495 
L 290.794402 24.685262 
L 291.06698 19.612831 
L 291.202639 19.472952 
L 291.479967 21.902419 
L 291.618779 21.018976 
L 291.892167 18.088893 
L 292.164792 21.880333 
L 292.301438 18.861905 
L 292.573791 20.717133 
L 292.708917 18.825094 
L 292.983286 25.134345 
L 293.119555 21.939229 
L 293.391492 20.201792 
L 293.664771 24.177283 
L 293.801521 21.151493 
L 294.075605 18.000548 
L 294.212172 26.297544 
L 294.48429 21.747816 
L 294.896205 25.207965 
L 295.032202 21.571128 
L 295.310736 22.542914 
L 295.448656 26.488957 
L 295.721376 27.85093 
L 295.99468 26.798162 
L 296.130494 25.428826 
L 296.406322 30.03745 
L 296.547229 26.349078 
L 296.817349 26.054598 
L 296.957168 29.301248 
L 297.230772 28.138049 
L 297.366878 26.724541 
L 297.912204 30.479171 
L 298.047789 30.133156 
L 298.460677 27.541726 
L 298.732396 28.785907 
L 298.869602 30.736842 
L 299.143684 32.408021 
L 299.280804 30.589602 
L 299.828799 29.949106 
L 299.967824 32.408021 
L 300.242867 33.777356 
L 300.376848 30.324569 
L 300.650978 32.37121 
L 300.7861 31.414148 
L 301.06027 31.583474 
L 301.19814 32.87919 
L 301.470447 32.07673 
L 301.743154 34.881659 
L 301.879734 33.630116 
L 302.15179 33.350359 
L 302.288024 35.419086 
L 302.562431 35.21295 
L 302.698655 34.160181 
L 302.97599 33.306187 
L 303.385793 34.690247 
L 303.658644 37.922173 
L 303.795648 35.500069 
L 304.071409 36.692716 
L 304.20683 35.956514 
L 304.478708 33.615392 
L 304.616908 35.750377 
L 304.889354 35.028899 
L 305.165937 39.092734 
L 305.30391 36.67063 
L 305.439425 36.604372 
L 305.713552 38.997028 
L 305.988731 38.172482 
L 306.124458 38.437515 
L 306.396084 37.281677 
L 306.535242 42.368833 
L 306.810034 39.401939 
L 307.219786 44.467009 
L 307.631586 40.999497 
L 307.905765 41.433856 
L 308.043543 44.717317 
L 308.314266 43.716083 
L 308.450946 42.64859 
L 308.723101 42.854726 
L 308.996706 42.560245 
L 309.13226 43.392154 
L 309.407702 43.156569 
L 309.546236 42.876812 
L 309.818136 43.465774 
L 309.956881 46.336961 
L 310.233071 47.654763 
L 310.370471 46.498926 
L 310.645269 48.994651 
L 310.780411 47.566419 
L 311.053598 48.597101 
L 311.326324 48.560291 
L 311.463263 47.919796 
L 311.73612 48.332069 
L 311.873351 50.525951 
L 312.147693 50.143126 
L 312.285261 50.827793 
L 312.559433 51.350497 
L 312.696036 50.629019 
L 312.972666 51.829028 
L 313.108084 51.549271 
L 313.383787 50.356624 
L 313.658457 50.15785 
L 313.79729 50.312452 
L 314.073877 49.833921 
L 314.208015 53.132105 
L 314.482905 52.4548 
L 314.892315 55.605744 
L 315.03101 54.177512 
L 315.30505 53.176278 
L 315.441609 55.392245 
L 315.716707 54.957886 
L 315.989271 56.680599 
L 316.266325 55.164023 
L 316.544464 56.872011 
L 316.8246 55.031507 
L 316.962686 56.908822 
L 317.23804 57.402077 
L 317.375118 55.900225 
L 317.789093 58.977549 
L 318.065133 58.926015 
L 318.201042 59.699027 
L 318.614489 60.91376 
L 318.886037 59.949336 
L 319.160362 60.597193 
L 319.29897 62.135855 
L 319.577804 59.824181 
L 319.714599 62.032787 
L 320.403267 62.356716 
L 320.539366 62.908867 
L 320.815403 63.218072 
L 320.951601 64.859803 
L 321.224622 64.896613 
L 321.359295 64.469616 
L 322.044413 67.355527 
L 322.323353 67.267183 
L 322.458875 68.599709 
L 322.734779 68.555536 
L 322.87272 68.334676 
L 323.147213 70.263525 
L 323.285582 68.835293 
L 323.556534 70.580092 
L 323.692752 70.315059 
L 324.103744 72.03041 
L 324.378316 70.484386 
L 324.789422 73.200971 
L 325.062636 73.642692 
L 325.197775 73.59852 
L 325.471034 72.648819 
L 325.610304 74.187481 
L 325.883071 74.268464 
L 326.020233 74.430428 
L 326.292618 73.841466 
L 326.428887 76.07952 
L 326.704217 76.5875 
L 326.974873 76.653758 
L 327.113295 77.618182 
L 327.386338 76.918791 
L 327.796086 78.133524 
L 327.934764 78.288126 
L 328.212551 79.583842 
L 328.349773 78.81083 
L 328.623539 78.737209 
L 328.760679 79.164207 
L 329.034408 79.267275 
L 329.170518 80.52618 
L 329.444444 80.202251 
L 329.579434 80.680783 
L 329.85555 80.791213 
L 329.99354 80.430474 
L 330.26918 80.666059 
L 330.403481 80.540904 
L 330.678459 82.241531 
L 330.950081 82.580184 
L 331.776575 85.134804 
L 331.915204 86.850155 
L 332.189162 86.003523 
L 332.330812 87.939734 
L 332.603193 87.048929 
L 332.739401 87.100464 
L 333.149618 88.175318 
L 333.422511 88.808452 
L 333.558604 90.037909 
L 333.971298 90.619509 
L 334.244186 89.905393 
L 334.38264 90.803559 
L 334.654646 90.229322 
L 334.929636 89.964289 
L 335.065283 91.355711 
L 335.342993 91.893138 
L 335.890441 94.491931 
L 336.163435 95.191323 
L 336.30291 96.104213 
L 336.576549 95.934887 
L 336.71479 97.436739 
L 336.989311 97.260051 
L 337.126269 98.563128 
L 337.400085 98.541042 
L 337.534916 98.791351 
L 337.806907 99.983998 
L 337.945665 101.382781 
L 338.356322 101.095663 
L 338.630016 101.294437 
L 338.765097 102.074811 
L 339.038499 102.811013 
L 339.176033 104.423296 
L 339.447979 103.96685 
L 339.586706 105.3141 
L 339.861771 105.998768 
L 339.998334 106.720246 
L 340.274732 107.316569 
L 340.415454 108.612285 
L 340.686529 108.531302 
L 341.09907 109.348487 
L 341.512019 112.197588 
L 341.784956 112.676119 
L 341.922004 113.802508 
L 342.197978 114.089627 
L 342.336861 114.980432 
L 342.746361 115.260188 
L 343.022588 115.841788 
L 343.158999 115.841788 
L 343.430998 115.539945 
L 343.977782 117.130141 
L 344.253243 116.865109 
L 344.388211 118.079842 
L 344.660496 118.197634 
L 344.798841 119.147335 
L 345.073019 119.625866 
L 345.891942 122.335089 
L 346.027114 122.254107 
L 346.574038 123.130187 
L 346.711144 123.645529 
L 346.985291 124.146146 
L 347.537485 126.627146 
L 347.812161 126.170701 
L 347.949177 126.641871 
L 348.221996 126.553526 
L 349.042926 128.048016 
L 349.177975 128.740046 
L 349.449878 128.990355 
L 350.001277 130.956014 
L 350.68337 133.039465 
L 350.821969 133.628427 
L 351.094589 134.15113 
L 351.230888 135.005125 
L 351.504118 134.821074 
L 351.643124 135.093469 
L 351.918348 135.277519 
L 352.60444 138.038277 
L 353.151724 144.450596 
L 353.426274 145.437106 
L 353.564894 146.659202 
L 353.970468 148.676395 
L 354.654235 150.119351 
L 354.792358 152.416301 
L 355.611564 158.489967 
L 355.886464 158.821258 
L 356.158417 159.756234 
L 356.294259 161.729256 
L 356.705964 164.710874 
L 357.802583 165.233577 
L 357.940199 165.285111 
L 357.940199 165.285111 
" style="fill:none;stroke:#1f77b4;stroke-linecap:round;stroke-width:1.5;"/>
   </g>
   <g id="patch_3">
    <path d="M 59.865781 165.932969 
L 59.865781 18.692578 
" style="fill:none;stroke:#262626;stroke-linecap:square;stroke-linejoin:miter;stroke-width:0.8;"/>
   </g>
   <g id="patch_4">
    <path d="M 372.134219 165.932969 
L 372.134219 18.692578 
" style="fill:none;stroke:#262626;stroke-linecap:square;stroke-linejoin:miter;stroke-width:0.8;"/>
   </g>
   <g id="patch_5">
    <path d="M 59.865781 165.932969 
L 372.134219 165.932969 
" style="fill:none;stroke:#262626;stroke-linecap:square;stroke-linejoin:miter;stroke-width:0.8;"/>
   </g>
   <g id="patch_6">
    <path d="M 59.865781 18.692578 
L 372.134219 18.692578 
" style="fill:none;stroke:#262626;stroke-linecap:square;stroke-linejoin:miter;stroke-width:0.8;"/>
   </g>
   <g id="text_13">
    <!-- Mass Flow -->
    <g style="fill:#1f77b4;" transform="translate(136.697331 55.502676)scale(0.13 -0.13)">
     <use xlink:href="#ArialMT-77"/>
     <use x="83.300781" xlink:href="#ArialMT-97"/>
     <use x="138.916016" xlink:href="#ArialMT-115"/>
     <use x="188.916016" xlink:href="#ArialMT-115"/>
     <use x="238.916016" xlink:href="#ArialMT-32"/>
     <use x="266.699219" xlink:href="#ArialMT-70"/>
     <use x="327.783203" xlink:href="#ArialMT-108"/>
     <use x="350" xlink:href="#ArialMT-111"/>
     <use x="405.615234" xlink:href="#ArialMT-119"/>
    </g>
   </g>
  </g>
  <g id="axes_2">
   <g id="matplotlib.axis_3">
    <g id="ytick_6">
     <g id="line2d_7">
      <defs>
       <path d="M 0 0 
L 3.5 0 
" id="m7dedceeba0" style="stroke:#262626;stroke-width:0.8;"/>
      </defs>
      <g>
       <use style="fill:#262626;stroke:#262626;stroke-width:0.8;" x="372.134219" xlink:href="#m7dedceeba0" y="165.932969"/>
      </g>
     </g>
     <g id="text_14">
      <!-- 0 -->
      <g style="fill:#262626;" transform="translate(379.134219 170.585547)scale(0.13 -0.13)">
       <use xlink:href="#ArialMT-48"/>
      </g>
     </g>
    </g>
    <g id="ytick_7">
     <g id="line2d_8">
      <g>
       <use style="fill:#262626;stroke:#262626;stroke-width:0.8;" x="372.134219" xlink:href="#m7dedceeba0" y="136.484891"/>
      </g>
     </g>
     <g id="text_15">
      <!-- 20 -->
      <g style="fill:#262626;" transform="translate(379.134219 141.137469)scale(0.13 -0.13)">
       <use xlink:href="#ArialMT-50"/>
       <use x="55.615234" xlink:href="#ArialMT-48"/>
      </g>
     </g>
    </g>
    <g id="ytick_8">
     <g id="line2d_9">
      <g>
       <use style="fill:#262626;stroke:#262626;stroke-width:0.8;" x="372.134219" xlink:href="#m7dedceeba0" y="107.036812"/>
      </g>
     </g>
     <g id="text_16">
      <!-- 40 -->
      <g style="fill:#262626;" transform="translate(379.134219 111.689391)scale(0.13 -0.13)">
       <defs>
        <path d="M 32.328125 0 
L 32.328125 17.140625 
L 1.265625 17.140625 
L 1.265625 25.203125 
L 33.9375 71.578125 
L 41.109375 71.578125 
L 41.109375 25.203125 
L 50.78125 25.203125 
L 50.78125 17.140625 
L 41.109375 17.140625 
L 41.109375 0 
z
M 32.328125 25.203125 
L 32.328125 57.46875 
L 9.90625 25.203125 
z
" id="ArialMT-52"/>
       </defs>
       <use xlink:href="#ArialMT-52"/>
       <use x="55.615234" xlink:href="#ArialMT-48"/>
      </g>
     </g>
    </g>
    <g id="ytick_9">
     <g id="line2d_10">
      <g>
       <use style="fill:#262626;stroke:#262626;stroke-width:0.8;" x="372.134219" xlink:href="#m7dedceeba0" y="77.588734"/>
      </g>
     </g>
     <g id="text_17">
      <!-- 60 -->
      <g style="fill:#262626;" transform="translate(379.134219 82.241312)scale(0.13 -0.13)">
       <defs>
        <path d="M 49.75 54.046875 
L 41.015625 53.375 
Q 39.84375 58.546875 37.703125 60.890625 
Q 34.125 64.65625 28.90625 64.65625 
Q 24.703125 64.65625 21.53125 62.3125 
Q 17.390625 59.28125 14.984375 53.46875 
Q 12.59375 47.65625 12.5 36.921875 
Q 15.671875 41.75 20.265625 44.09375 
Q 24.859375 46.4375 29.890625 46.4375 
Q 38.671875 46.4375 44.84375 39.96875 
Q 51.03125 33.5 51.03125 23.25 
Q 51.03125 16.5 48.125 10.71875 
Q 45.21875 4.9375 40.140625 1.859375 
Q 35.0625 -1.21875 28.609375 -1.21875 
Q 17.625 -1.21875 10.6875 6.859375 
Q 3.765625 14.9375 3.765625 33.5 
Q 3.765625 54.25 11.421875 63.671875 
Q 18.109375 71.875 29.4375 71.875 
Q 37.890625 71.875 43.28125 67.140625 
Q 48.6875 62.40625 49.75 54.046875 
z
M 13.875 23.1875 
Q 13.875 18.65625 15.796875 14.5 
Q 17.71875 10.359375 21.1875 8.171875 
Q 24.65625 6 28.46875 6 
Q 34.03125 6 38.03125 10.484375 
Q 42.046875 14.984375 42.046875 22.703125 
Q 42.046875 30.125 38.078125 34.390625 
Q 34.125 38.671875 28.125 38.671875 
Q 22.171875 38.671875 18.015625 34.390625 
Q 13.875 30.125 13.875 23.1875 
z
" id="ArialMT-54"/>
       </defs>
       <use xlink:href="#ArialMT-54"/>
       <use x="55.615234" xlink:href="#ArialMT-48"/>
      </g>
     </g>
    </g>
    <g id="ytick_10">
     <g id="line2d_11">
      <g>
       <use style="fill:#262626;stroke:#262626;stroke-width:0.8;" x="372.134219" xlink:href="#m7dedceeba0" y="48.140656"/>
      </g>
     </g>
     <g id="text_18">
      <!-- 80 -->
      <g style="fill:#262626;" transform="translate(379.134219 52.793234)scale(0.13 -0.13)">
       <defs>
        <path d="M 17.671875 38.8125 
Q 12.203125 40.828125 9.5625 44.53125 
Q 6.9375 48.25 6.9375 53.421875 
Q 6.9375 61.234375 12.546875 66.546875 
Q 18.171875 71.875 27.484375 71.875 
Q 36.859375 71.875 42.578125 66.421875 
Q 48.296875 60.984375 48.296875 53.171875 
Q 48.296875 48.1875 45.671875 44.5 
Q 43.0625 40.828125 37.75 38.8125 
Q 44.34375 36.671875 47.78125 31.875 
Q 51.21875 27.09375 51.21875 20.453125 
Q 51.21875 11.28125 44.71875 5.03125 
Q 38.234375 -1.21875 27.640625 -1.21875 
Q 17.046875 -1.21875 10.546875 5.046875 
Q 4.046875 11.328125 4.046875 20.703125 
Q 4.046875 27.6875 7.59375 32.390625 
Q 11.140625 37.109375 17.671875 38.8125 
z
M 15.921875 53.71875 
Q 15.921875 48.640625 19.1875 45.40625 
Q 22.46875 42.1875 27.6875 42.1875 
Q 32.765625 42.1875 36.015625 45.375 
Q 39.265625 48.578125 39.265625 53.21875 
Q 39.265625 58.0625 35.90625 61.359375 
Q 32.5625 64.65625 27.59375 64.65625 
Q 22.5625 64.65625 19.234375 61.421875 
Q 15.921875 58.203125 15.921875 53.71875 
z
M 13.09375 20.65625 
Q 13.09375 16.890625 14.875 13.375 
Q 16.65625 9.859375 20.171875 7.921875 
Q 23.6875 6 27.734375 6 
Q 34.03125 6 38.125 10.046875 
Q 42.234375 14.109375 42.234375 20.359375 
Q 42.234375 26.703125 38.015625 30.859375 
Q 33.796875 35.015625 27.4375 35.015625 
Q 21.234375 35.015625 17.15625 30.90625 
Q 13.09375 26.8125 13.09375 20.65625 
z
" id="ArialMT-56"/>
       </defs>
       <use xlink:href="#ArialMT-56"/>
       <use x="55.615234" xlink:href="#ArialMT-48"/>
      </g>
     </g>
    </g>
    <g id="ytick_11">
     <g id="line2d_12">
      <g>
       <use style="fill:#262626;stroke:#262626;stroke-width:0.8;" x="372.134219" xlink:href="#m7dedceeba0" y="18.692578"/>
      </g>
     </g>
     <g id="text_19">
      <!-- 100 -->
      <g style="fill:#262626;" transform="translate(379.134219 23.345156)scale(0.13 -0.13)">
       <use xlink:href="#ArialMT-49"/>
       <use x="55.615234" xlink:href="#ArialMT-48"/>
       <use x="111.230469" xlink:href="#ArialMT-48"/>
      </g>
     </g>
    </g>
    <g id="text_20">
     <!-- Valve Position (% open) -->
     <g style="fill:#262626;" transform="translate(415.013437 166.499648)rotate(-90)scale(0.14 -0.14)">
      <defs>
       <path d="M 28.171875 0 
L 0.4375 71.578125 
L 10.6875 71.578125 
L 29.296875 19.578125 
Q 31.546875 13.328125 33.0625 7.859375 
Q 34.71875 13.71875 36.921875 19.578125 
L 56.25 71.578125 
L 65.921875 71.578125 
L 37.890625 0 
z
" id="ArialMT-86"/>
       <path d="M 21 0 
L 1.265625 51.859375 
L 10.546875 51.859375 
L 21.6875 20.796875 
Q 23.484375 15.765625 25 10.359375 
Q 26.171875 14.453125 28.265625 20.21875 
L 39.796875 51.859375 
L 48.828125 51.859375 
L 29.203125 0 
z
" id="ArialMT-118"/>
       <path d="M 7.71875 0 
L 7.71875 71.578125 
L 34.71875 71.578125 
Q 41.84375 71.578125 45.609375 70.90625 
Q 50.875 70.015625 54.4375 67.546875 
Q 58.015625 65.09375 60.1875 60.640625 
Q 62.359375 56.203125 62.359375 50.875 
Q 62.359375 41.75 56.546875 35.421875 
Q 50.734375 29.109375 35.546875 29.109375 
L 17.1875 29.109375 
L 17.1875 0 
z
M 17.1875 37.546875 
L 35.6875 37.546875 
Q 44.875 37.546875 48.734375 40.96875 
Q 52.59375 44.390625 52.59375 50.59375 
Q 52.59375 55.078125 50.3125 58.265625 
Q 48.046875 61.46875 44.34375 62.5 
Q 41.9375 63.140625 35.5 63.140625 
L 17.1875 63.140625 
z
" id="ArialMT-80"/>
       <path d="M 6.59375 0 
L 6.59375 51.859375 
L 14.5 51.859375 
L 14.5 44.484375 
Q 20.21875 53.03125 31 53.03125 
Q 35.6875 53.03125 39.625 51.34375 
Q 43.5625 49.65625 45.515625 46.921875 
Q 47.46875 44.1875 48.25 40.4375 
Q 48.734375 37.984375 48.734375 31.890625 
L 48.734375 0 
L 39.9375 0 
L 39.9375 31.546875 
Q 39.9375 36.921875 38.90625 39.578125 
Q 37.890625 42.234375 35.28125 43.8125 
Q 32.671875 45.40625 29.15625 45.40625 
Q 23.53125 45.40625 19.453125 41.84375 
Q 15.375 38.28125 15.375 28.328125 
L 15.375 0 
z
" id="ArialMT-110"/>
       <path d="M 5.8125 54.390625 
Q 5.8125 62.0625 9.671875 67.421875 
Q 13.53125 72.796875 20.84375 72.796875 
Q 27.59375 72.796875 32 67.984375 
Q 36.421875 63.1875 36.421875 53.859375 
Q 36.421875 44.78125 31.953125 39.875 
Q 27.484375 34.96875 20.953125 34.96875 
Q 14.453125 34.96875 10.125 39.796875 
Q 5.8125 44.625 5.8125 54.390625 
z
M 21.09375 66.75 
Q 17.828125 66.75 15.65625 63.90625 
Q 13.484375 61.078125 13.484375 53.515625 
Q 13.484375 46.625 15.671875 43.8125 
Q 17.875 41.015625 21.09375 41.015625 
Q 24.421875 41.015625 26.59375 43.84375 
Q 28.765625 46.6875 28.765625 54.203125 
Q 28.765625 61.140625 26.5625 63.9375 
Q 24.359375 66.75 21.09375 66.75 
z
M 21.140625 -2.640625 
L 60.296875 72.796875 
L 67.4375 72.796875 
L 28.421875 -2.640625 
z
M 52.09375 16.796875 
Q 52.09375 24.515625 55.953125 29.859375 
Q 59.8125 35.203125 67.1875 35.203125 
Q 73.921875 35.203125 78.34375 30.390625 
Q 82.765625 25.59375 82.765625 16.265625 
Q 82.765625 7.171875 78.296875 2.265625 
Q 73.828125 -2.640625 67.234375 -2.640625 
Q 60.75 -2.640625 56.421875 2.21875 
Q 52.09375 7.078125 52.09375 16.796875 
z
M 67.4375 29.15625 
Q 64.109375 29.15625 61.9375 26.3125 
Q 59.765625 23.484375 59.765625 15.921875 
Q 59.765625 9.078125 61.953125 6.25 
Q 64.15625 3.421875 67.390625 3.421875 
Q 70.75 3.421875 72.921875 6.25 
Q 75.09375 9.078125 75.09375 16.609375 
Q 75.09375 23.53125 72.890625 26.34375 
Q 70.703125 29.15625 67.4375 29.15625 
z
" id="ArialMT-37"/>
      </defs>
      <use xlink:href="#ArialMT-86"/>
      <use x="59.324219" xlink:href="#ArialMT-97"/>
      <use x="114.939453" xlink:href="#ArialMT-108"/>
      <use x="137.15625" xlink:href="#ArialMT-118"/>
      <use x="187.15625" xlink:href="#ArialMT-101"/>
      <use x="242.771484" xlink:href="#ArialMT-32"/>
      <use x="270.554688" xlink:href="#ArialMT-80"/>
      <use x="337.253906" xlink:href="#ArialMT-111"/>
      <use x="392.869141" xlink:href="#ArialMT-115"/>
      <use x="442.869141" xlink:href="#ArialMT-105"/>
      <use x="465.085938" xlink:href="#ArialMT-116"/>
      <use x="492.869141" xlink:href="#ArialMT-105"/>
      <use x="515.085938" xlink:href="#ArialMT-111"/>
      <use x="570.701172" xlink:href="#ArialMT-110"/>
      <use x="626.316406" xlink:href="#ArialMT-32"/>
      <use x="654.099609" xlink:href="#ArialMT-40"/>
      <use x="687.400391" xlink:href="#ArialMT-37"/>
      <use x="776.316406" xlink:href="#ArialMT-32"/>
      <use x="804.099609" xlink:href="#ArialMT-111"/>
      <use x="859.714844" xlink:href="#ArialMT-112"/>
      <use x="915.330078" xlink:href="#ArialMT-101"/>
      <use x="970.945312" xlink:href="#ArialMT-110"/>
      <use x="1026.560547" xlink:href="#ArialMT-41"/>
     </g>
    </g>
   </g>
   <g id="line2d_13">
    <path clip-path="url(#pdc5ba9e00d)" d="M 74.059801 18.692578 
L 357.940199 18.692578 
L 357.940199 18.692578 
" style="fill:none;stroke:#ff7f0e;stroke-linecap:round;stroke-width:1.5;"/>
   </g>
   <g id="patch_7">
    <path d="M 59.865781 165.932969 
L 59.865781 18.692578 
" style="fill:none;stroke:#262626;stroke-linecap:square;stroke-linejoin:miter;stroke-width:0.8;"/>
   </g>
   <g id="patch_8">
    <path d="M 372.134219 165.932969 
L 372.134219 18.692578 
" style="fill:none;stroke:#262626;stroke-linecap:square;stroke-linejoin:miter;stroke-width:0.8;"/>
   </g>
   <g id="patch_9">
    <path d="M 59.865781 165.932969 
L 372.134219 165.932969 
" style="fill:none;stroke:#262626;stroke-linecap:square;stroke-linejoin:miter;stroke-width:0.8;"/>
   </g>
   <g id="patch_10">
    <path d="M 59.865781 18.692578 
L 372.134219 18.692578 
" style="fill:none;stroke:#262626;stroke-linecap:square;stroke-linejoin:miter;stroke-width:0.8;"/>
   </g>
   <g id="text_21">
    <!-- Valve Position -->
    <g style="fill:#ff7f0e;" transform="translate(199.392686 107.036812)scale(0.13 -0.13)">
     <use xlink:href="#ArialMT-86"/>
     <use x="59.324219" xlink:href="#ArialMT-97"/>
     <use x="114.939453" xlink:href="#ArialMT-108"/>
     <use x="137.15625" xlink:href="#ArialMT-118"/>
     <use x="187.15625" xlink:href="#ArialMT-101"/>
     <use x="242.771484" xlink:href="#ArialMT-32"/>
     <use x="270.554688" xlink:href="#ArialMT-80"/>
     <use x="337.253906" xlink:href="#ArialMT-111"/>
     <use x="392.869141" xlink:href="#ArialMT-115"/>
     <use x="442.869141" xlink:href="#ArialMT-105"/>
     <use x="465.085938" xlink:href="#ArialMT-116"/>
     <use x="492.869141" xlink:href="#ArialMT-105"/>
     <use x="515.085938" xlink:href="#ArialMT-111"/>
     <use x="570.701172" xlink:href="#ArialMT-110"/>
    </g>
   </g>
  </g>
 </g>
 <defs>
  <clipPath id="pdc5ba9e00d">
   <rect height="147.240391" width="312.268438" x="59.865781" y="18.692578"/>
  </clipPath>
 </defs>
</svg>
