<?xml version="1.0" encoding="utf-8" standalone="no"?>
<!DOCTYPE svg PUBLIC "-//W3C//DTD SVG 1.1//EN"
  "http://www.w3.org/Graphics/SVG/1.1/DTD/svg11.dtd">
<!-- Created with matplotlib (https://matplotlib.org/) -->
<svg height="216pt" version="1.1" viewBox="0 0 432 216" width="432pt" xmlns="http://www.w3.org/2000/svg" xmlns:xlink="http://www.w3.org/1999/xlink">
 <metadata>
  <rdf:RDF xmlns:cc="http://creativecommons.org/ns#" xmlns:dc="http://purl.org/dc/elements/1.1/" xmlns:rdf="http://www.w3.org/1999/02/22-rdf-syntax-ns#">
   <cc:Work>
    <dc:type rdf:resource="http://purl.org/dc/dcmitype/StillImage"/>
    <dc:date>2022-03-12T17:38:16.247127</dc:date>
    <dc:format>image/svg+xml</dc:format>
    <dc:creator>
     <cc:Agent>
      <dc:title>Matplotlib v3.3.4, https://matplotlib.org/</dc:title>
     </cc:Agent>
    </dc:creator>
   </cc:Work>
  </rdf:RDF>
 </metadata>
 <defs>
  <style type="text/css">*{stroke-linecap:butt;stroke-linejoin:round;}</style>
 </defs>
 <g id="figure_1">
  <g id="patch_1">
   <path d="M 0 216 
L 432 216 
L 432 0 
L 0 0 
z
" style="fill:#ffffff;"/>
  </g>
  <g id="axes_1">
   <g id="patch_2">
    <path d="M 59.865781 165.932969 
L 372.134219 165.932969 
L 372.134219 18.692578 
L 59.865781 18.692578 
z
" style="fill:#ffffff;"/>
   </g>
   <g id="matplotlib.axis_1">
    <g id="xtick_1">
     <g id="text_1">
      <!-- 0 -->
      <g style="fill:#262626;" transform="translate(70.302449 182.238125)scale(0.13 -0.13)">
       <defs>
        <path d="M 4.15625 35.296875 
Q 4.15625 48 6.765625 55.734375 
Q 9.375 63.484375 14.515625 67.671875 
Q 19.671875 71.875 27.484375 71.875 
Q 33.25 71.875 37.59375 69.546875 
Q 41.9375 67.234375 44.765625 62.859375 
Q 47.609375 58.5 49.21875 52.21875 
Q 50.828125 45.953125 50.828125 35.296875 
Q 50.828125 22.703125 48.234375 14.96875 
Q 45.65625 7.234375 40.5 3 
Q 35.359375 -1.21875 27.484375 -1.21875 
Q 17.140625 -1.21875 11.234375 6.203125 
Q 4.15625 15.140625 4.15625 35.296875 
z
M 13.1875 35.296875 
Q 13.1875 17.671875 17.3125 11.828125 
Q 21.4375 6 27.484375 6 
Q 33.546875 6 37.671875 11.859375 
Q 41.796875 17.71875 41.796875 35.296875 
Q 41.796875 52.984375 37.671875 58.78125 
Q 33.546875 64.59375 27.390625 64.59375 
Q 21.34375 64.59375 17.71875 59.46875 
Q 13.1875 52.9375 13.1875 35.296875 
z
" id="ArialMT-48"/>
       </defs>
       <use xlink:href="#ArialMT-48"/>
      </g>
     </g>
    </g>
    <g id="xtick_2">
     <g id="text_2">
      <!-- 25 -->
      <g style="fill:#262626;" transform="translate(114.034868 182.238125)scale(0.13 -0.13)">
       <defs>
        <path d="M 50.34375 8.453125 
L 50.34375 0 
L 3.03125 0 
Q 2.9375 3.171875 4.046875 6.109375 
Q 5.859375 10.9375 9.828125 15.625 
Q 13.8125 20.3125 21.34375 26.46875 
Q 33.015625 36.03125 37.109375 41.625 
Q 41.21875 47.21875 41.21875 52.203125 
Q 41.21875 57.421875 37.46875 61 
Q 33.734375 64.59375 27.734375 64.59375 
Q 21.390625 64.59375 17.578125 60.78125 
Q 13.765625 56.984375 13.71875 50.25 
L 4.6875 51.171875 
Q 5.609375 61.28125 11.65625 66.578125 
Q 17.71875 71.875 27.9375 71.875 
Q 38.234375 71.875 44.234375 66.15625 
Q 50.25 60.453125 50.25 52 
Q 50.25 47.703125 48.484375 43.546875 
Q 46.734375 39.40625 42.65625 34.8125 
Q 38.578125 30.21875 29.109375 22.21875 
Q 21.1875 15.578125 18.9375 13.203125 
Q 16.703125 10.84375 15.234375 8.453125 
z
" id="ArialMT-50"/>
        <path d="M 4.15625 18.75 
L 13.375 19.53125 
Q 14.40625 12.796875 18.140625 9.390625 
Q 21.875 6 27.15625 6 
Q 33.5 6 37.890625 10.78125 
Q 42.28125 15.578125 42.28125 23.484375 
Q 42.28125 31 38.0625 35.34375 
Q 33.84375 39.703125 27 39.703125 
Q 22.75 39.703125 19.328125 37.765625 
Q 15.921875 35.84375 13.96875 32.765625 
L 5.71875 33.84375 
L 12.640625 70.609375 
L 48.25 70.609375 
L 48.25 62.203125 
L 19.671875 62.203125 
L 15.828125 42.96875 
Q 22.265625 47.46875 29.34375 47.46875 
Q 38.71875 47.46875 45.15625 40.96875 
Q 51.609375 34.46875 51.609375 24.265625 
Q 51.609375 14.546875 45.953125 7.46875 
Q 39.0625 -1.21875 27.15625 -1.21875 
Q 17.390625 -1.21875 11.203125 4.25 
Q 5.03125 9.71875 4.15625 18.75 
z
" id="ArialMT-53"/>
       </defs>
       <use xlink:href="#ArialMT-50"/>
       <use x="55.615234" xlink:href="#ArialMT-53"/>
      </g>
     </g>
    </g>
    <g id="xtick_3">
     <g id="text_3">
      <!-- 50 -->
      <g style="fill:#262626;" transform="translate(161.381897 182.238125)scale(0.13 -0.13)">
       <use xlink:href="#ArialMT-53"/>
       <use x="55.615234" xlink:href="#ArialMT-48"/>
      </g>
     </g>
    </g>
    <g id="xtick_4">
     <g id="text_4">
      <!-- 75 -->
      <g style="fill:#262626;" transform="translate(208.728925 182.238125)scale(0.13 -0.13)">
       <defs>
        <path d="M 4.734375 62.203125 
L 4.734375 70.65625 
L 51.078125 70.65625 
L 51.078125 63.8125 
Q 44.234375 56.546875 37.515625 44.484375 
Q 30.8125 32.421875 27.15625 19.671875 
Q 24.515625 10.6875 23.78125 0 
L 14.75 0 
Q 14.890625 8.453125 18.0625 20.40625 
Q 21.234375 32.375 27.171875 43.484375 
Q 33.109375 54.59375 39.796875 62.203125 
z
" id="ArialMT-55"/>
       </defs>
       <use xlink:href="#ArialMT-55"/>
       <use x="55.615234" xlink:href="#ArialMT-53"/>
      </g>
     </g>
    </g>
    <g id="xtick_5">
     <g id="text_5">
      <!-- 100 -->
      <g style="fill:#262626;" transform="translate(252.461344 182.238125)scale(0.13 -0.13)">
       <defs>
        <path d="M 37.25 0 
L 28.46875 0 
L 28.46875 56 
Q 25.296875 52.984375 20.140625 49.953125 
Q 14.984375 46.921875 10.890625 45.40625 
L 10.890625 53.90625 
Q 18.265625 57.375 23.78125 62.296875 
Q 29.296875 67.234375 31.59375 71.875 
L 37.25 71.875 
z
" id="ArialMT-49"/>
       </defs>
       <use xlink:href="#ArialMT-49"/>
       <use x="55.615234" xlink:href="#ArialMT-48"/>
       <use x="111.230469" xlink:href="#ArialMT-48"/>
      </g>
     </g>
    </g>
    <g id="xtick_6">
     <g id="text_6">
      <!-- 125 -->
      <g style="fill:#262626;" transform="translate(299.808372 182.238125)scale(0.13 -0.13)">
       <use xlink:href="#ArialMT-49"/>
       <use x="55.615234" xlink:href="#ArialMT-50"/>
       <use x="111.230469" xlink:href="#ArialMT-53"/>
      </g>
     </g>
    </g>
    <g id="xtick_7">
     <g id="text_7">
      <!-- 150 -->
      <g style="fill:#262626;" transform="translate(347.155401 182.238125)scale(0.13 -0.13)">
       <use xlink:href="#ArialMT-49"/>
       <use x="55.615234" xlink:href="#ArialMT-53"/>
       <use x="111.230469" xlink:href="#ArialMT-48"/>
      </g>
     </g>
    </g>
    <g id="text_8">
     <!-- Elapsed Time (s) -->
     <g style="fill:#262626;" transform="translate(163.484688 199.013438)scale(0.14 -0.14)">
      <defs>
       <path d="M 7.90625 0 
L 7.90625 71.578125 
L 59.671875 71.578125 
L 59.671875 63.140625 
L 17.390625 63.140625 
L 17.390625 41.21875 
L 56.984375 41.21875 
L 56.984375 32.8125 
L 17.390625 32.8125 
L 17.390625 8.453125 
L 61.328125 8.453125 
L 61.328125 0 
z
" id="ArialMT-69"/>
       <path d="M 6.390625 0 
L 6.390625 71.578125 
L 15.1875 71.578125 
L 15.1875 0 
z
" id="ArialMT-108"/>
       <path d="M 40.4375 6.390625 
Q 35.546875 2.25 31.03125 0.53125 
Q 26.515625 -1.171875 21.34375 -1.171875 
Q 12.796875 -1.171875 8.203125 3 
Q 3.609375 7.171875 3.609375 13.671875 
Q 3.609375 17.484375 5.34375 20.625 
Q 7.078125 23.78125 9.890625 25.6875 
Q 12.703125 27.59375 16.21875 28.5625 
Q 18.796875 29.25 24.03125 29.890625 
Q 34.671875 31.15625 39.703125 32.90625 
Q 39.75 34.71875 39.75 35.203125 
Q 39.75 40.578125 37.25 42.78125 
Q 33.890625 45.75 27.25 45.75 
Q 21.046875 45.75 18.09375 43.578125 
Q 15.140625 41.40625 13.71875 35.890625 
L 5.125 37.0625 
Q 6.296875 42.578125 8.984375 45.96875 
Q 11.671875 49.359375 16.75 51.1875 
Q 21.828125 53.03125 28.515625 53.03125 
Q 35.15625 53.03125 39.296875 51.46875 
Q 43.453125 49.90625 45.40625 47.53125 
Q 47.359375 45.171875 48.140625 41.546875 
Q 48.578125 39.3125 48.578125 33.453125 
L 48.578125 21.734375 
Q 48.578125 9.46875 49.140625 6.21875 
Q 49.703125 2.984375 51.375 0 
L 42.1875 0 
Q 40.828125 2.734375 40.4375 6.390625 
z
M 39.703125 26.03125 
Q 34.90625 24.078125 25.34375 22.703125 
Q 19.921875 21.921875 17.671875 20.9375 
Q 15.4375 19.96875 14.203125 18.09375 
Q 12.984375 16.21875 12.984375 13.921875 
Q 12.984375 10.40625 15.640625 8.0625 
Q 18.3125 5.71875 23.4375 5.71875 
Q 28.515625 5.71875 32.46875 7.9375 
Q 36.421875 10.15625 38.28125 14.015625 
Q 39.703125 17 39.703125 22.796875 
z
" id="ArialMT-97"/>
       <path d="M 6.59375 -19.875 
L 6.59375 51.859375 
L 14.59375 51.859375 
L 14.59375 45.125 
Q 17.4375 49.078125 21 51.046875 
Q 24.5625 53.03125 29.640625 53.03125 
Q 36.28125 53.03125 41.359375 49.609375 
Q 46.4375 46.1875 49.015625 39.953125 
Q 51.609375 33.734375 51.609375 26.3125 
Q 51.609375 18.359375 48.75 11.984375 
Q 45.90625 5.609375 40.453125 2.21875 
Q 35.015625 -1.171875 29 -1.171875 
Q 24.609375 -1.171875 21.109375 0.6875 
Q 17.625 2.546875 15.375 5.375 
L 15.375 -19.875 
z
M 14.546875 25.640625 
Q 14.546875 15.625 18.59375 10.84375 
Q 22.65625 6.0625 28.421875 6.0625 
Q 34.28125 6.0625 38.453125 11.015625 
Q 42.625 15.96875 42.625 26.375 
Q 42.625 36.28125 38.546875 41.203125 
Q 34.46875 46.140625 28.8125 46.140625 
Q 23.1875 46.140625 18.859375 40.890625 
Q 14.546875 35.640625 14.546875 25.640625 
z
" id="ArialMT-112"/>
       <path d="M 3.078125 15.484375 
L 11.765625 16.84375 
Q 12.5 11.625 15.84375 8.84375 
Q 19.1875 6.0625 25.203125 6.0625 
Q 31.25 6.0625 34.171875 8.515625 
Q 37.109375 10.984375 37.109375 14.3125 
Q 37.109375 17.28125 34.515625 19 
Q 32.71875 20.171875 25.53125 21.96875 
Q 15.875 24.421875 12.140625 26.203125 
Q 8.40625 27.984375 6.46875 31.125 
Q 4.546875 34.28125 4.546875 38.09375 
Q 4.546875 41.546875 6.125 44.5 
Q 7.71875 47.46875 10.453125 49.421875 
Q 12.5 50.921875 16.03125 51.96875 
Q 19.578125 53.03125 23.640625 53.03125 
Q 29.734375 53.03125 34.34375 51.265625 
Q 38.96875 49.515625 41.15625 46.5 
Q 43.359375 43.5 44.1875 38.484375 
L 35.59375 37.3125 
Q 35.015625 41.3125 32.203125 43.546875 
Q 29.390625 45.796875 24.265625 45.796875 
Q 18.21875 45.796875 15.625 43.796875 
Q 13.03125 41.796875 13.03125 39.109375 
Q 13.03125 37.40625 14.109375 36.03125 
Q 15.1875 34.625 17.484375 33.6875 
Q 18.796875 33.203125 25.25 31.453125 
Q 34.578125 28.953125 38.25 27.359375 
Q 41.9375 25.78125 44.03125 22.75 
Q 46.140625 19.734375 46.140625 15.234375 
Q 46.140625 10.84375 43.578125 6.953125 
Q 41.015625 3.078125 36.171875 0.953125 
Q 31.34375 -1.171875 25.25 -1.171875 
Q 15.140625 -1.171875 9.84375 3.03125 
Q 4.546875 7.234375 3.078125 15.484375 
z
" id="ArialMT-115"/>
       <path d="M 42.09375 16.703125 
L 51.171875 15.578125 
Q 49.03125 7.625 43.21875 3.21875 
Q 37.40625 -1.171875 28.375 -1.171875 
Q 17 -1.171875 10.328125 5.828125 
Q 3.65625 12.84375 3.65625 25.484375 
Q 3.65625 38.578125 10.390625 45.796875 
Q 17.140625 53.03125 27.875 53.03125 
Q 38.28125 53.03125 44.875 45.953125 
Q 51.46875 38.875 51.46875 26.03125 
Q 51.46875 25.25 51.421875 23.6875 
L 12.75 23.6875 
Q 13.234375 15.140625 17.578125 10.59375 
Q 21.921875 6.0625 28.421875 6.0625 
Q 33.25 6.0625 36.671875 8.59375 
Q 40.09375 11.140625 42.09375 16.703125 
z
M 13.234375 30.90625 
L 42.1875 30.90625 
Q 41.609375 37.453125 38.875 40.71875 
Q 34.671875 45.796875 27.984375 45.796875 
Q 21.921875 45.796875 17.796875 41.75 
Q 13.671875 37.703125 13.234375 30.90625 
z
" id="ArialMT-101"/>
       <path d="M 40.234375 0 
L 40.234375 6.546875 
Q 35.296875 -1.171875 25.734375 -1.171875 
Q 19.53125 -1.171875 14.328125 2.25 
Q 9.125 5.671875 6.265625 11.796875 
Q 3.421875 17.921875 3.421875 25.875 
Q 3.421875 33.640625 6 39.96875 
Q 8.59375 46.296875 13.765625 49.65625 
Q 18.953125 53.03125 25.34375 53.03125 
Q 30.03125 53.03125 33.6875 51.046875 
Q 37.359375 49.078125 39.65625 45.90625 
L 39.65625 71.578125 
L 48.390625 71.578125 
L 48.390625 0 
z
M 12.453125 25.875 
Q 12.453125 15.921875 16.640625 10.984375 
Q 20.84375 6.0625 26.5625 6.0625 
Q 32.328125 6.0625 36.34375 10.765625 
Q 40.375 15.484375 40.375 25.140625 
Q 40.375 35.796875 36.265625 40.765625 
Q 32.171875 45.75 26.171875 45.75 
Q 20.3125 45.75 16.375 40.96875 
Q 12.453125 36.1875 12.453125 25.875 
z
" id="ArialMT-100"/>
       <path id="ArialMT-32"/>
       <path d="M 25.921875 0 
L 25.921875 63.140625 
L 2.34375 63.140625 
L 2.34375 71.578125 
L 59.078125 71.578125 
L 59.078125 63.140625 
L 35.40625 63.140625 
L 35.40625 0 
z
" id="ArialMT-84"/>
       <path d="M 6.640625 61.46875 
L 6.640625 71.578125 
L 15.4375 71.578125 
L 15.4375 61.46875 
z
M 6.640625 0 
L 6.640625 51.859375 
L 15.4375 51.859375 
L 15.4375 0 
z
" id="ArialMT-105"/>
       <path d="M 6.59375 0 
L 6.59375 51.859375 
L 14.453125 51.859375 
L 14.453125 44.578125 
Q 16.890625 48.390625 20.9375 50.703125 
Q 25 53.03125 30.171875 53.03125 
Q 35.9375 53.03125 39.625 50.640625 
Q 43.3125 48.25 44.828125 43.953125 
Q 50.984375 53.03125 60.84375 53.03125 
Q 68.5625 53.03125 72.703125 48.75 
Q 76.859375 44.484375 76.859375 35.59375 
L 76.859375 0 
L 68.109375 0 
L 68.109375 32.671875 
Q 68.109375 37.9375 67.25 40.25 
Q 66.40625 42.578125 64.15625 43.984375 
Q 61.921875 45.40625 58.890625 45.40625 
Q 53.421875 45.40625 49.796875 41.765625 
Q 46.1875 38.140625 46.1875 30.125 
L 46.1875 0 
L 37.40625 0 
L 37.40625 33.6875 
Q 37.40625 39.546875 35.25 42.46875 
Q 33.109375 45.40625 28.21875 45.40625 
Q 24.515625 45.40625 21.359375 43.453125 
Q 18.21875 41.5 16.796875 37.734375 
Q 15.375 33.984375 15.375 26.90625 
L 15.375 0 
z
" id="ArialMT-109"/>
       <path d="M 23.390625 -21.046875 
Q 16.109375 -11.859375 11.078125 0.4375 
Q 6.0625 12.75 6.0625 25.921875 
Q 6.0625 37.546875 9.8125 48.1875 
Q 14.203125 60.546875 23.390625 72.796875 
L 29.6875 72.796875 
Q 23.78125 62.640625 21.875 58.296875 
Q 18.890625 51.5625 17.1875 44.234375 
Q 15.09375 35.109375 15.09375 25.875 
Q 15.09375 2.390625 29.6875 -21.046875 
z
" id="ArialMT-40"/>
       <path d="M 12.359375 -21.046875 
L 6.0625 -21.046875 
Q 20.65625 2.390625 20.65625 25.875 
Q 20.65625 35.0625 18.5625 44.09375 
Q 16.890625 51.421875 13.921875 58.15625 
Q 12.015625 62.546875 6.0625 72.796875 
L 12.359375 72.796875 
Q 21.53125 60.546875 25.921875 48.1875 
Q 29.6875 37.546875 29.6875 25.921875 
Q 29.6875 12.75 24.625 0.4375 
Q 19.578125 -11.859375 12.359375 -21.046875 
z
" id="ArialMT-41"/>
      </defs>
      <use xlink:href="#ArialMT-69"/>
      <use x="66.699219" xlink:href="#ArialMT-108"/>
      <use x="88.916016" xlink:href="#ArialMT-97"/>
      <use x="144.53125" xlink:href="#ArialMT-112"/>
      <use x="200.146484" xlink:href="#ArialMT-115"/>
      <use x="250.146484" xlink:href="#ArialMT-101"/>
      <use x="305.761719" xlink:href="#ArialMT-100"/>
      <use x="361.376953" xlink:href="#ArialMT-32"/>
      <use x="387.410156" xlink:href="#ArialMT-84"/>
      <use x="444.744141" xlink:href="#ArialMT-105"/>
      <use x="466.960938" xlink:href="#ArialMT-109"/>
      <use x="550.261719" xlink:href="#ArialMT-101"/>
      <use x="605.876953" xlink:href="#ArialMT-32"/>
      <use x="633.660156" xlink:href="#ArialMT-40"/>
      <use x="666.960938" xlink:href="#ArialMT-115"/>
      <use x="716.960938" xlink:href="#ArialMT-41"/>
     </g>
    </g>
   </g>
   <g id="matplotlib.axis_2">
    <g id="ytick_1">
     <g id="line2d_1">
      <defs>
       <path d="M 0 0 
L -3.5 0 
" id="ma00241cd67" style="stroke:#262626;stroke-width:0.8;"/>
      </defs>
      <g>
       <use style="fill:#262626;stroke:#262626;stroke-width:0.8;" x="59.865781" xlink:href="#ma00241cd67" y="165.932969"/>
      </g>
     </g>
     <g id="text_9">
      <!-- 0 -->
      <g style="fill:#262626;" transform="translate(45.636562 170.585547)scale(0.13 -0.13)">
       <use xlink:href="#ArialMT-48"/>
      </g>
     </g>
    </g>
    <g id="ytick_2">
     <g id="line2d_2">
      <g>
       <use style="fill:#262626;stroke:#262626;stroke-width:0.8;" x="59.865781" xlink:href="#ma00241cd67" y="129.122871"/>
      </g>
     </g>
     <g id="text_10">
      <!-- 50 -->
      <g style="fill:#262626;" transform="translate(38.407344 133.775449)scale(0.13 -0.13)">
       <use xlink:href="#ArialMT-53"/>
       <use x="55.615234" xlink:href="#ArialMT-48"/>
      </g>
     </g>
    </g>
    <g id="ytick_3">
     <g id="line2d_3">
      <g>
       <use style="fill:#262626;stroke:#262626;stroke-width:0.8;" x="59.865781" xlink:href="#ma00241cd67" y="92.312773"/>
      </g>
     </g>
     <g id="text_11">
      <!-- 100 -->
      <g style="fill:#262626;" transform="translate(31.178125 96.965352)scale(0.13 -0.13)">
       <use xlink:href="#ArialMT-49"/>
       <use x="55.615234" xlink:href="#ArialMT-48"/>
       <use x="111.230469" xlink:href="#ArialMT-48"/>
      </g>
     </g>
    </g>
    <g id="ytick_4">
     <g id="line2d_4">
      <g>
       <use style="fill:#262626;stroke:#262626;stroke-width:0.8;" x="59.865781" xlink:href="#ma00241cd67" y="55.502676"/>
      </g>
     </g>
     <g id="text_12">
      <!-- 150 -->
      <g style="fill:#262626;" transform="translate(31.178125 60.155254)scale(0.13 -0.13)">
       <use xlink:href="#ArialMT-49"/>
       <use x="55.615234" xlink:href="#ArialMT-53"/>
       <use x="111.230469" xlink:href="#ArialMT-48"/>
      </g>
     </g>
    </g>
    <g id="ytick_5">
     <g id="line2d_5">
      <g>
       <use style="fill:#262626;stroke:#262626;stroke-width:0.8;" x="59.865781" xlink:href="#ma00241cd67" y="18.692578"/>
      </g>
     </g>
     <g id="text_13">
      <!-- 200 -->
      <g style="fill:#262626;" transform="translate(31.178125 23.345156)scale(0.13 -0.13)">
       <use xlink:href="#ArialMT-50"/>
       <use x="55.615234" xlink:href="#ArialMT-48"/>
       <use x="111.230469" xlink:href="#ArialMT-48"/>
      </g>
     </g>
    </g>
    <g id="text_14">
     <!-- Mass Flow Rate (slm) -->
     <g style="fill:#262626;" transform="translate(24.231562 159.981992)rotate(-90)scale(0.14 -0.14)">
      <defs>
       <path d="M 7.421875 0 
L 7.421875 71.578125 
L 21.6875 71.578125 
L 38.625 20.90625 
Q 40.96875 13.8125 42.046875 10.296875 
Q 43.265625 14.203125 45.84375 21.78125 
L 62.984375 71.578125 
L 75.734375 71.578125 
L 75.734375 0 
L 66.609375 0 
L 66.609375 59.90625 
L 45.796875 0 
L 37.25 0 
L 16.546875 60.9375 
L 16.546875 0 
z
" id="ArialMT-77"/>
       <path d="M 8.203125 0 
L 8.203125 71.578125 
L 56.5 71.578125 
L 56.5 63.140625 
L 17.671875 63.140625 
L 17.671875 40.96875 
L 51.265625 40.96875 
L 51.265625 32.515625 
L 17.671875 32.515625 
L 17.671875 0 
z
" id="ArialMT-70"/>
       <path d="M 3.328125 25.921875 
Q 3.328125 40.328125 11.328125 47.265625 
Q 18.015625 53.03125 27.640625 53.03125 
Q 38.328125 53.03125 45.109375 46.015625 
Q 51.90625 39.015625 51.90625 26.65625 
Q 51.90625 16.65625 48.90625 10.90625 
Q 45.90625 5.171875 40.15625 2 
Q 34.421875 -1.171875 27.640625 -1.171875 
Q 16.75 -1.171875 10.03125 5.8125 
Q 3.328125 12.796875 3.328125 25.921875 
z
M 12.359375 25.921875 
Q 12.359375 15.96875 16.703125 11.015625 
Q 21.046875 6.0625 27.640625 6.0625 
Q 34.1875 6.0625 38.53125 11.03125 
Q 42.875 16.015625 42.875 26.21875 
Q 42.875 35.84375 38.5 40.796875 
Q 34.125 45.75 27.640625 45.75 
Q 21.046875 45.75 16.703125 40.8125 
Q 12.359375 35.890625 12.359375 25.921875 
z
" id="ArialMT-111"/>
       <path d="M 16.15625 0 
L 0.296875 51.859375 
L 9.375 51.859375 
L 17.625 21.921875 
L 20.703125 10.796875 
Q 20.90625 11.625 23.390625 21.484375 
L 31.640625 51.859375 
L 40.671875 51.859375 
L 48.4375 21.78125 
L 51.03125 11.859375 
L 54 21.875 
L 62.890625 51.859375 
L 71.4375 51.859375 
L 55.21875 0 
L 46.09375 0 
L 37.84375 31.0625 
L 35.84375 39.890625 
L 25.34375 0 
z
" id="ArialMT-119"/>
       <path d="M 7.859375 0 
L 7.859375 71.578125 
L 39.59375 71.578125 
Q 49.171875 71.578125 54.140625 69.640625 
Q 59.125 67.71875 62.109375 62.828125 
Q 65.09375 57.953125 65.09375 52.046875 
Q 65.09375 44.4375 60.15625 39.203125 
Q 55.21875 33.984375 44.921875 32.5625 
Q 48.6875 30.765625 50.640625 29 
Q 54.78125 25.203125 58.5 19.484375 
L 70.953125 0 
L 59.03125 0 
L 49.5625 14.890625 
Q 45.40625 21.34375 42.71875 24.75 
Q 40.046875 28.171875 37.921875 29.53125 
Q 35.796875 30.90625 33.59375 31.453125 
Q 31.984375 31.78125 28.328125 31.78125 
L 17.328125 31.78125 
L 17.328125 0 
z
M 17.328125 39.984375 
L 37.703125 39.984375 
Q 44.1875 39.984375 47.84375 41.328125 
Q 51.515625 42.671875 53.421875 45.625 
Q 55.328125 48.578125 55.328125 52.046875 
Q 55.328125 57.125 51.640625 60.390625 
Q 47.953125 63.671875 39.984375 63.671875 
L 17.328125 63.671875 
z
" id="ArialMT-82"/>
       <path d="M 25.78125 7.859375 
L 27.046875 0.09375 
Q 23.34375 -0.6875 20.40625 -0.6875 
Q 15.625 -0.6875 12.984375 0.828125 
Q 10.359375 2.34375 9.28125 4.8125 
Q 8.203125 7.28125 8.203125 15.1875 
L 8.203125 45.015625 
L 1.765625 45.015625 
L 1.765625 51.859375 
L 8.203125 51.859375 
L 8.203125 64.703125 
L 16.9375 69.96875 
L 16.9375 51.859375 
L 25.78125 51.859375 
L 25.78125 45.015625 
L 16.9375 45.015625 
L 16.9375 14.703125 
Q 16.9375 10.9375 17.40625 9.859375 
Q 17.875 8.796875 18.921875 8.15625 
Q 19.96875 7.515625 21.921875 7.515625 
Q 23.390625 7.515625 25.78125 7.859375 
z
" id="ArialMT-116"/>
      </defs>
      <use xlink:href="#ArialMT-77"/>
      <use x="83.300781" xlink:href="#ArialMT-97"/>
      <use x="138.916016" xlink:href="#ArialMT-115"/>
      <use x="188.916016" xlink:href="#ArialMT-115"/>
      <use x="238.916016" xlink:href="#ArialMT-32"/>
      <use x="266.699219" xlink:href="#ArialMT-70"/>
      <use x="327.783203" xlink:href="#ArialMT-108"/>
      <use x="350" xlink:href="#ArialMT-111"/>
      <use x="405.615234" xlink:href="#ArialMT-119"/>
      <use x="477.832031" xlink:href="#ArialMT-32"/>
      <use x="505.615234" xlink:href="#ArialMT-82"/>
      <use x="577.832031" xlink:href="#ArialMT-97"/>
      <use x="633.447266" xlink:href="#ArialMT-116"/>
      <use x="661.230469" xlink:href="#ArialMT-101"/>
      <use x="716.845703" xlink:href="#ArialMT-32"/>
      <use x="744.628906" xlink:href="#ArialMT-40"/>
      <use x="777.929688" xlink:href="#ArialMT-115"/>
      <use x="827.929688" xlink:href="#ArialMT-108"/>
      <use x="850.146484" xlink:href="#ArialMT-109"/>
      <use x="933.447266" xlink:href="#ArialMT-41"/>
     </g>
    </g>
   </g>
   <g id="line2d_6">
    <path clip-path="url(#p8a2753e0ef)" d="M 74.059801 165.940331 
L 77.160307 165.947693 
L 138.582576 165.947693 
L 138.997139 164.254428 
L 139.203973 162.355027 
L 139.808684 158.011436 
L 140.189753 150.538986 
L 140.594075 133.944994 
L 140.785016 121.333854 
L 141.16748 121.216062 
L 141.548942 102.634325 
L 141.746472 85.274683 
L 142.52365 83.596142 
L 142.714313 79.738444 
L 143.096242 56.106361 
L 143.307337 55.510038 
L 143.695558 55.060955 
L 144.105094 59.728475 
L 144.723007 51.954182 
L 144.926627 52.683022 
L 145.324184 52.690384 
L 145.712712 46.727148 
L 145.928307 45.939412 
L 146.342694 47.073163 
L 146.557211 46.381134 
L 146.961729 48.611825 
L 147.167304 47.264576 
L 147.787307 45.136952 
L 148.200095 45.011798 
L 148.610062 49.789749 
L 148.818042 42.133248 
L 149.229317 41.963922 
L 149.436153 43.119759 
L 149.853217 42.111162 
L 150.061905 42.214231 
L 150.47807 43.34062 
L 150.684989 40.903791 
L 151.099928 44.614249 
L 151.304311 42.920984 
L 151.718234 40.594586 
L 152.131381 39.541817 
L 152.338732 38.341808 
L 152.751562 39.556541 
L 152.958938 39.73323 
L 153.370378 37.936897 
L 153.57708 38.253464 
L 153.991353 39.968815 
L 154.196479 37.878001 
L 154.607825 39.217889 
L 155.016583 38.106224 
L 155.224652 39.0412 
L 155.639579 39.100096 
L 155.841161 39.747954 
L 156.252276 37.922173 
L 156.458295 39.608076 
L 156.871401 39.019114 
L 157.079204 37.598244 
L 157.485788 36.700078 
L 157.899574 36.950387 
L 158.113971 37.215419 
L 159.346707 35.985962 
L 159.760151 38.246102 
L 160.172449 37.156523 
L 160.377558 36.957749 
L 160.793569 39.990901 
L 161.00093 37.627692 
L 161.416762 38.731995 
L 161.621 37.716037 
L 162.034609 37.605606 
L 162.238947 38.290274 
L 162.649442 38.430152 
L 163.062471 38.253464 
L 163.269265 36.751612 
L 163.683516 38.96758 
L 163.889754 38.437515 
L 164.301148 36.884128 
L 164.50813 37.266953 
L 164.925516 36.243633 
L 165.134392 38.268188 
L 165.756304 36.906214 
L 166.167369 39.033838 
L 166.584222 38.032603 
L 166.790618 37.870639 
L 167.201691 36.567562 
L 167.409284 37.163885 
L 168.027654 36.059582 
L 168.443073 36.920938 
L 168.648435 36.008048 
L 169.065818 38.474325 
L 169.475948 39.549179 
L 169.682237 36.839956 
L 170.096497 39.939366 
L 170.306322 35.154054 
L 170.71733 37.193333 
L 170.925245 35.890256 
L 171.33757 38.945494 
L 171.54369 38.430152 
L 171.958624 38.503773 
L 172.366708 39.998263 
L 172.573202 38.216654 
L 173.197597 38.85715 
L 173.61186 37.701313 
L 173.820211 35.816636 
L 174.231146 38.658375 
L 174.440685 36.258357 
L 174.85576 39.990901 
L 175.060974 38.304998 
L 175.472637 36.700078 
L 175.889568 35.713567 
L 176.096938 37.082903 
L 176.510897 35.794549 
L 176.718829 35.919704 
L 177.130748 36.736888 
L 177.33652 37.863277 
L 177.747164 34.623988 
L 178.159794 36.516027 
L 178.366004 39.055924 
L 178.77904 36.081668 
L 178.985075 37.156523 
L 179.399902 36.920938 
L 179.608977 35.963876 
L 180.017924 35.875532 
L 180.225855 35.610499 
L 180.642291 35.927066 
L 180.853422 38.827702 
L 181.263397 35.095158 
L 181.675376 34.808039 
L 181.883829 37.590882 
L 182.295469 36.273081 
L 182.50157 38.783529 
L 182.914602 35.470621 
L 183.12553 35.882894 
L 183.53603 38.194568 
L 183.741075 36.89149 
L 184.154108 35.124606 
L 184.565441 36.582286 
L 184.773326 36.700078 
L 185.154878 35.131968 
L 185.361801 35.794549 
L 186.393766 35.441173 
L 187.016893 37.318488 
L 187.431306 37.163885 
L 187.641526 35.036261 
L 188.05354 38.34917 
L 188.261866 36.81787 
L 188.679076 34.785953 
L 188.888044 36.05222 
L 189.306991 35.993324 
L 189.72357 34.763867 
L 189.93209 35.301294 
L 190.346961 37.936897 
L 190.556249 35.080434 
L 190.972162 35.205588 
L 191.595496 36.935663 
L 191.805933 35.544241 
L 192.224464 38.680461 
L 192.449867 35.713567 
L 192.852807 36.722164 
L 193.061799 35.271846 
L 193.474468 35.021537 
L 193.897208 35.765101 
L 194.101879 35.080434 
L 194.517143 34.174905 
L 194.721682 34.616626 
L 195.133549 36.228909 
L 195.343768 38.054689 
L 195.756372 35.293932 
L 195.964571 35.419086 
L 196.380608 35.36019 
L 196.586994 35.198226 
L 197.006072 36.133202 
L 197.422299 35.220312 
L 197.624331 33.990855 
L 198.035707 35.006813 
L 198.24295 36.442407 
L 198.861275 35.279208 
L 199.276264 35.743015 
L 199.482724 36.74425 
L 199.89673 36.700078 
L 200.309925 34.381042 
L 200.51684 34.550368 
L 200.930787 35.816636 
L 201.137576 33.593306 
L 201.550573 34.609264 
L 201.756744 36.228909 
L 202.171059 36.05222 
L 202.379336 35.190864 
L 202.790842 34.057113 
L 203.203667 34.535644 
L 203.408609 34.307422 
L 203.822199 35.639947 
L 204.027909 34.55773 
L 204.439293 33.431341 
L 204.646049 34.970003 
L 205.057553 34.623988 
L 205.468005 35.963876 
L 205.675617 34.800677 
L 206.087239 34.63135 
L 206.293891 36.16265 
L 206.709537 34.462024 
L 206.917614 35.389638 
L 207.32868 33.298825 
L 207.536117 35.779825 
L 207.944073 35.13933 
L 208.357898 34.270611 
L 208.561799 34.587178 
L 208.972346 36.420321 
L 209.178024 33.821528 
L 209.589764 35.669395 
L 209.798702 35.94179 
L 210.210785 33.527047 
L 210.624623 34.344232 
L 210.828719 33.541772 
L 211.245935 34.712333 
L 211.865938 33.64484 
L 212.073934 35.080434 
L 212.489039 32.503727 
L 212.696993 35.404362 
L 213.109482 35.433811 
L 213.315263 34.307422 
L 213.731216 35.095158 
L 214.141018 35.146692 
L 214.346393 35.32338 
L 214.758934 35.448535 
L 214.967331 33.652202 
L 215.378153 35.146692 
L 215.99472 34.535644 
L 216.201062 35.890256 
L 217.01762 33.843614 
L 217.225811 35.639947 
L 217.638398 35.271846 
L 217.844727 33.284101 
L 218.257469 35.875532 
L 218.464023 36.044858 
L 218.872751 34.358956 
L 219.286613 34.108647 
L 219.495326 36.479217 
L 220.111811 34.270611 
L 220.52721 35.095158 
L 220.731657 34.903745 
L 221.140842 35.470621 
L 221.34711 34.123371 
L 221.759799 34.329508 
L 222.179182 35.345466 
L 222.384291 35.117244 
L 222.797126 36.383511 
L 223.001802 35.271846 
L 223.623202 34.138095 
L 224.037386 35.890256 
L 224.240758 35.043624 
L 224.654182 34.049751 
L 225.068608 33.946683 
L 225.685124 35.544241 
L 225.891134 34.565092 
L 226.298346 35.566327 
L 226.501657 35.470621 
L 226.914392 35.581051 
L 227.119983 33.799442 
L 227.532408 34.992089 
L 227.946822 35.183502 
L 228.155677 34.800677 
L 228.566648 34.727057 
L 228.772893 33.350359 
L 229.186122 34.388404 
L 229.39074 35.485345 
L 229.802629 34.395766 
L 230.008007 34.925831 
L 230.420568 34.918469 
L 230.832 35.743015 
L 231.037562 33.983493 
L 231.454047 35.985962 
L 231.658473 34.719695 
L 232.073143 36.074306 
L 232.279814 35.934428 
L 232.690784 35.897618 
L 233.10471 34.697609 
L 233.727117 36.965111 
L 233.935309 36.78106 
L 234.348047 35.83136 
L 234.556904 37.156523 
L 235.172302 36.390873 
L 235.583227 36.906214 
L 235.787565 34.925831 
L 236.201784 36.766336 
L 236.820896 34.587178 
L 237.440999 36.773698 
L 237.854368 35.448535 
L 238.061058 35.338104 
L 238.472247 36.376149 
L 238.679434 36.479217 
L 239.091252 37.502538 
L 239.504969 37.524624 
L 239.712368 34.962641 
L 240.130364 36.471855 
L 240.338582 35.713567 
L 240.752421 35.9786 
L 240.959996 37.259591 
L 241.382783 37.200695 
L 241.581893 37.841191 
L 242.000479 37.281677 
L 242.206604 37.774933 
L 242.62032 37.576158 
L 242.82933 37.929535 
L 243.244648 38.187206 
L 243.656289 39.026476 
L 243.861432 38.113586 
L 244.275087 39.718506 
L 244.482844 38.304998 
L 244.889843 36.758974 
L 245.09519 38.378618 
L 245.508116 37.443642 
L 245.919347 37.266953 
L 246.127669 37.32585 
L 246.544195 38.356532 
L 247.160118 37.701313 
L 247.36845 37.281677 
L 247.782647 37.451004 
L 247.988711 38.430152 
L 248.399156 37.406832 
L 248.817049 37.554072 
L 249.020699 37.443642 
L 249.432369 36.663268 
L 249.63918 37.458366 
L 250.054789 37.642416 
L 250.263849 36.972473 
L 250.678491 37.495176 
L 250.888355 37.944259 
L 251.302953 38.290274 
L 251.92355 37.752847 
L 252.128543 37.995793 
L 252.544465 37.524624 
L 252.961049 38.525859 
L 253.166698 37.907449 
L 253.579112 37.119713 
L 253.785207 37.163885 
L 254.199321 36.965111 
L 254.613838 37.863277 
L 254.822062 37.738123 
L 255.026127 38.466963 
L 255.441283 37.082903 
L 255.854615 38.098862 
L 256.060052 37.36266 
L 256.47273 37.171247 
L 256.67839 37.266953 
L 257.091533 36.906214 
L 257.504485 38.356532 
L 257.710305 37.936897 
L 258.123407 38.754081 
L 258.331971 38.408066 
L 258.743711 38.0915 
L 258.947592 36.751612 
L 259.562506 37.855915 
L 259.975586 39.615438 
L 260.596453 37.43628 
L 261.218249 38.062052 
L 261.631397 39.232613 
L 261.83732 37.289039 
L 262.256199 36.869404 
L 262.461349 37.841191 
L 262.879554 37.679226 
L 263.085776 37.36266 
L 263.502191 37.605606 
L 263.921043 36.582286 
L 264.131202 37.318488 
L 264.545356 38.179844 
L 264.75176 37.296401 
L 265.164517 38.209292 
L 265.37231 37.708675 
L 265.785771 38.039965 
L 265.990434 37.090265 
L 266.39992 38.584755 
L 267.429436 36.795784 
L 268.052658 38.997028 
L 268.259556 36.677992 
L 268.670934 37.922173 
L 268.876633 38.076776 
L 269.293215 37.090265 
L 269.704717 38.408066 
L 269.909268 36.832594 
L 270.306994 37.414194 
L 270.499338 39.122182 
L 270.883284 36.773698 
L 271.300043 38.098862 
L 271.510263 38.120948 
L 271.923073 37.428918 
L 272.130416 38.157758 
L 272.537738 36.965111 
L 272.748865 37.193333 
L 273.161859 37.39947 
L 273.371922 37.929535 
L 273.780644 37.090265 
L 274.193821 37.804381 
L 274.400712 38.651013 
L 274.812374 37.878001 
L 275.015466 37.745485 
L 275.436297 37.642416 
L 275.635486 38.032603 
L 276.462934 38.606841 
L 276.672424 38.916046 
L 277.085002 38.452239 
L 277.292368 37.215419 
L 277.704141 37.885363 
L 277.909631 36.501303 
L 278.530054 37.230143 
L 278.942541 37.406832 
L 279.150232 37.988431 
L 279.566278 37.922173 
L 279.980804 36.832594 
L 280.183974 38.430152 
L 281.217754 37.053455 
L 281.42547 37.804381 
L 282.461194 37.649778 
L 282.869733 37.127075 
L 283.073316 37.951621 
L 283.486945 37.5099 
L 283.692098 39.048562 
L 284.103319 37.104989 
L 284.308657 37.922173 
L 284.720715 38.584755 
L 285.13524 38.187206 
L 285.338946 36.979835 
L 285.749877 39.18844 
L 285.955728 39.11482 
L 286.363953 37.458366 
L 286.567978 38.570031 
L 286.98101 38.025241 
L 287.188898 36.464493 
L 287.601545 37.671864 
L 288.220635 37.723399 
L 288.633826 37.855915 
L 288.839156 38.849788 
L 289.254553 38.997028 
L 289.458045 37.36266 
L 289.870115 38.503773 
L 290.075877 37.046093 
L 290.491821 38.084138 
L 290.90235 37.244867 
L 291.109837 38.297636 
L 291.730487 37.811743 
L 292.141702 36.795784 
L 292.349097 38.754081 
L 292.768901 38.054689 
L 292.981113 38.371256 
L 293.399567 37.001921 
L 293.611724 37.068179 
L 294.435315 38.798253 
L 294.645438 38.062052 
L 295.056321 38.474325 
L 295.262265 37.892725 
L 295.674082 38.16512 
L 295.883478 37.716037 
L 296.294085 37.333212 
L 296.501381 37.487814 
L 296.912427 36.943025 
L 297.321272 38.658375 
L 297.530877 37.333212 
L 297.944072 37.892725 
L 298.149286 38.680461 
L 298.562655 37.892725 
L 298.769626 37.141799 
L 299.180884 37.47309 
L 299.386109 36.692716 
L 299.795651 36.567562 
L 300.209991 37.318488 
L 300.417852 38.38598 
L 300.825442 37.54671 
L 301.032476 38.533221 
L 301.441532 38.378618 
L 301.646524 36.957749 
L 302.061443 36.280443 
L 302.476044 38.27555 
L 302.681484 38.260826 
L 303.090633 37.789657 
L 303.299674 37.075541 
L 303.71122 37.502538 
L 303.918444 39.372491 
L 304.327855 36.619096 
L 304.534984 39.173716 
L 304.947304 36.979835 
L 305.36295 37.480452 
L 305.573237 37.458366 
L 305.995964 37.038731 
L 306.202689 38.584755 
L 306.612342 36.641182 
L 306.818152 38.025241 
L 307.230191 38.150396 
L 307.438024 36.486579 
L 307.855317 37.951621 
L 308.267727 38.334446 
L 308.477952 37.451004 
L 308.890751 37.47309 
L 309.099934 37.208057 
L 309.514173 37.178609 
L 309.721969 38.282912 
L 310.132931 37.355298 
L 310.339715 38.098862 
L 310.752958 39.048562 
L 310.958512 37.738123 
L 311.371671 38.871874 
L 311.781805 36.655906 
L 311.987806 38.31236 
L 312.406642 37.635054 
L 312.614542 38.16512 
L 313.026301 36.346701 
L 313.233244 38.599479 
L 313.642953 38.157758 
L 313.853181 37.531986 
L 314.272486 38.098862 
L 314.690282 37.252229 
L 314.902584 38.224016 
L 315.52328 36.766336 
L 316.150918 38.297636 
L 316.561814 38.606841 
L 316.768182 37.031369 
L 317.396565 37.009283 
L 317.808415 39.07801 
L 318.224662 35.882894 
L 318.431878 37.767571 
L 318.853572 37.679226 
L 319.059837 39.91728 
L 319.679981 37.414194 
L 320.096377 37.406832 
L 320.304891 38.120948 
L 320.718412 38.731995 
L 320.928297 37.554072 
L 321.342445 38.511135 
L 321.550078 37.392108 
L 321.968454 38.400704 
L 322.176225 37.554072 
L 322.59155 37.693951 
L 323.007282 38.246102 
L 323.210462 37.215419 
L 323.621526 36.795784 
L 323.831093 38.776167 
L 324.246284 37.730761 
L 324.451542 36.773698 
L 324.864467 37.252229 
L 325.070046 38.135672 
L 325.481201 36.943025 
L 325.889246 36.184737 
L 326.095648 38.0915 
L 326.505175 36.722164 
L 326.712811 38.319722 
L 327.129053 37.826467 
L 327.542064 38.378618 
L 327.745748 37.406832 
L 328.163624 37.679226 
L 328.369229 36.773698 
L 328.781974 38.054689 
L 328.990973 36.869404 
L 329.405939 37.612968 
L 329.61302 36.994559 
L 330.024935 38.835064 
L 330.229579 38.812978 
L 330.640073 38.916046 
L 331.053735 36.70744 
L 331.262107 37.193333 
L 331.675203 38.754081 
L 331.884498 38.319722 
L 332.299799 38.047327 
L 332.507687 36.81787 
L 332.921296 38.408066 
L 333.127707 36.501303 
L 333.540737 37.878001 
L 333.953942 38.069414 
L 334.159984 36.869404 
L 334.573577 37.266953 
L 334.776137 38.054689 
L 335.189663 36.957749 
L 335.396105 37.65714 
L 335.809137 37.009283 
L 336.017324 38.106224 
L 336.434274 37.892725 
L 337.054258 38.776167 
L 337.465723 37.230143 
L 337.672492 38.290274 
L 338.082432 36.795784 
L 338.288064 36.552838 
L 338.701412 37.082903 
L 338.907994 36.994559 
L 339.317985 38.224016 
L 339.737015 37.259591 
L 339.94041 38.812978 
L 340.352086 37.340574 
L 340.560764 37.480452 
L 340.973606 38.224016 
L 341.179458 39.107458 
L 341.592831 38.776167 
L 341.798978 37.384746 
L 342.212663 36.530751 
L 342.62995 38.408066 
L 342.834852 36.655906 
L 343.251044 36.493941 
L 343.460476 38.253464 
L 343.876696 38.614203 
L 344.082457 36.523389 
L 344.491334 37.090265 
L 344.69894 38.334446 
L 345.116382 38.466963 
L 345.525803 38.356532 
L 345.732624 37.664502 
L 345.940517 38.923408 
L 346.356732 36.979835 
L 346.768289 37.090265 
L 346.974522 37.605606 
L 347.389222 36.766336 
L 348.013195 38.135672 
L 348.216917 37.119713 
L 348.630566 37.841191 
L 349.045648 36.111116 
L 349.252863 37.185971 
L 349.666784 38.16512 
L 349.873663 36.920938 
L 350.283998 38.606841 
L 350.491926 37.068179 
L 350.907912 37.200695 
L 351.115188 37.863277 
L 351.534041 37.502538 
L 351.746282 38.282912 
L 352.163349 37.973707 
L 352.58025 37.43628 
L 353.208008 38.23874 
L 353.408635 39.990901 
L 353.818008 37.421556 
L 354.02394 37.524624 
L 354.43645 37.922173 
L 354.643443 38.562669 
L 355.058314 36.545475 
L 355.469997 37.554072 
L 355.677606 38.938132 
L 356.087027 36.626458 
L 356.292234 37.524624 
L 356.704859 38.709909 
L 356.911524 37.090265 
L 357.324361 36.957749 
L 357.530845 37.185971 
L 357.940199 38.916046 
L 357.940199 38.916046 
" style="fill:none;stroke:#1f77b4;stroke-linecap:round;stroke-width:1.5;"/>
   </g>
   <g id="patch_3">
    <path d="M 59.865781 165.932969 
L 59.865781 18.692578 
" style="fill:none;stroke:#262626;stroke-linecap:square;stroke-linejoin:miter;stroke-width:0.8;"/>
   </g>
   <g id="patch_4">
    <path d="M 372.134219 165.932969 
L 372.134219 18.692578 
" style="fill:none;stroke:#262626;stroke-linecap:square;stroke-linejoin:miter;stroke-width:0.8;"/>
   </g>
   <g id="patch_5">
    <path d="M 59.865781 165.932969 
L 372.134219 165.932969 
" style="fill:none;stroke:#262626;stroke-linecap:square;stroke-linejoin:miter;stroke-width:0.8;"/>
   </g>
   <g id="patch_6">
    <path d="M 59.865781 18.692578 
L 372.134219 18.692578 
" style="fill:none;stroke:#262626;stroke-linecap:square;stroke-linejoin:miter;stroke-width:0.8;"/>
   </g>
   <g id="text_15">
    <!-- Mass Flow -->
    <g style="fill:#1f77b4;" transform="translate(168.611115 55.502676)scale(0.13 -0.13)">
     <use xlink:href="#ArialMT-77"/>
     <use x="83.300781" xlink:href="#ArialMT-97"/>
     <use x="138.916016" xlink:href="#ArialMT-115"/>
     <use x="188.916016" xlink:href="#ArialMT-115"/>
     <use x="238.916016" xlink:href="#ArialMT-32"/>
     <use x="266.699219" xlink:href="#ArialMT-70"/>
     <use x="327.783203" xlink:href="#ArialMT-108"/>
     <use x="350" xlink:href="#ArialMT-111"/>
     <use x="405.615234" xlink:href="#ArialMT-119"/>
    </g>
   </g>
  </g>
  <g id="axes_2">
   <g id="matplotlib.axis_3">
    <g id="ytick_6">
     <g id="line2d_7">
      <defs>
       <path d="M 0 0 
L 3.5 0 
" id="mf9347aa9e9" style="stroke:#262626;stroke-width:0.8;"/>
      </defs>
      <g>
       <use style="fill:#262626;stroke:#262626;stroke-width:0.8;" x="372.134219" xlink:href="#mf9347aa9e9" y="165.932969"/>
      </g>
     </g>
     <g id="text_16">
      <!-- 0 -->
      <g style="fill:#262626;" transform="translate(379.134219 170.585547)scale(0.13 -0.13)">
       <use xlink:href="#ArialMT-48"/>
      </g>
     </g>
    </g>
    <g id="ytick_7">
     <g id="line2d_8">
      <g>
       <use style="fill:#262626;stroke:#262626;stroke-width:0.8;" x="372.134219" xlink:href="#mf9347aa9e9" y="136.484891"/>
      </g>
     </g>
     <g id="text_17">
      <!-- 20 -->
      <g style="fill:#262626;" transform="translate(379.134219 141.137469)scale(0.13 -0.13)">
       <use xlink:href="#ArialMT-50"/>
       <use x="55.615234" xlink:href="#ArialMT-48"/>
      </g>
     </g>
    </g>
    <g id="ytick_8">
     <g id="line2d_9">
      <g>
       <use style="fill:#262626;stroke:#262626;stroke-width:0.8;" x="372.134219" xlink:href="#mf9347aa9e9" y="107.036812"/>
      </g>
     </g>
     <g id="text_18">
      <!-- 40 -->
      <g style="fill:#262626;" transform="translate(379.134219 111.689391)scale(0.13 -0.13)">
       <defs>
        <path d="M 32.328125 0 
L 32.328125 17.140625 
L 1.265625 17.140625 
L 1.265625 25.203125 
L 33.9375 71.578125 
L 41.109375 71.578125 
L 41.109375 25.203125 
L 50.78125 25.203125 
L 50.78125 17.140625 
L 41.109375 17.140625 
L 41.109375 0 
z
M 32.328125 25.203125 
L 32.328125 57.46875 
L 9.90625 25.203125 
z
" id="ArialMT-52"/>
       </defs>
       <use xlink:href="#ArialMT-52"/>
       <use x="55.615234" xlink:href="#ArialMT-48"/>
      </g>
     </g>
    </g>
    <g id="ytick_9">
     <g id="line2d_10">
      <g>
       <use style="fill:#262626;stroke:#262626;stroke-width:0.8;" x="372.134219" xlink:href="#mf9347aa9e9" y="77.588734"/>
      </g>
     </g>
     <g id="text_19">
      <!-- 60 -->
      <g style="fill:#262626;" transform="translate(379.134219 82.241312)scale(0.13 -0.13)">
       <defs>
        <path d="M 49.75 54.046875 
L 41.015625 53.375 
Q 39.84375 58.546875 37.703125 60.890625 
Q 34.125 64.65625 28.90625 64.65625 
Q 24.703125 64.65625 21.53125 62.3125 
Q 17.390625 59.28125 14.984375 53.46875 
Q 12.59375 47.65625 12.5 36.921875 
Q 15.671875 41.75 20.265625 44.09375 
Q 24.859375 46.4375 29.890625 46.4375 
Q 38.671875 46.4375 44.84375 39.96875 
Q 51.03125 33.5 51.03125 23.25 
Q 51.03125 16.5 48.125 10.71875 
Q 45.21875 4.9375 40.140625 1.859375 
Q 35.0625 -1.21875 28.609375 -1.21875 
Q 17.625 -1.21875 10.6875 6.859375 
Q 3.765625 14.9375 3.765625 33.5 
Q 3.765625 54.25 11.421875 63.671875 
Q 18.109375 71.875 29.4375 71.875 
Q 37.890625 71.875 43.28125 67.140625 
Q 48.6875 62.40625 49.75 54.046875 
z
M 13.875 23.1875 
Q 13.875 18.65625 15.796875 14.5 
Q 17.71875 10.359375 21.1875 8.171875 
Q 24.65625 6 28.46875 6 
Q 34.03125 6 38.03125 10.484375 
Q 42.046875 14.984375 42.046875 22.703125 
Q 42.046875 30.125 38.078125 34.390625 
Q 34.125 38.671875 28.125 38.671875 
Q 22.171875 38.671875 18.015625 34.390625 
Q 13.875 30.125 13.875 23.1875 
z
" id="ArialMT-54"/>
       </defs>
       <use xlink:href="#ArialMT-54"/>
       <use x="55.615234" xlink:href="#ArialMT-48"/>
      </g>
     </g>
    </g>
    <g id="ytick_10">
     <g id="line2d_11">
      <g>
       <use style="fill:#262626;stroke:#262626;stroke-width:0.8;" x="372.134219" xlink:href="#mf9347aa9e9" y="48.140656"/>
      </g>
     </g>
     <g id="text_20">
      <!-- 80 -->
      <g style="fill:#262626;" transform="translate(379.134219 52.793234)scale(0.13 -0.13)">
       <defs>
        <path d="M 17.671875 38.8125 
Q 12.203125 40.828125 9.5625 44.53125 
Q 6.9375 48.25 6.9375 53.421875 
Q 6.9375 61.234375 12.546875 66.546875 
Q 18.171875 71.875 27.484375 71.875 
Q 36.859375 71.875 42.578125 66.421875 
Q 48.296875 60.984375 48.296875 53.171875 
Q 48.296875 48.1875 45.671875 44.5 
Q 43.0625 40.828125 37.75 38.8125 
Q 44.34375 36.671875 47.78125 31.875 
Q 51.21875 27.09375 51.21875 20.453125 
Q 51.21875 11.28125 44.71875 5.03125 
Q 38.234375 -1.21875 27.640625 -1.21875 
Q 17.046875 -1.21875 10.546875 5.046875 
Q 4.046875 11.328125 4.046875 20.703125 
Q 4.046875 27.6875 7.59375 32.390625 
Q 11.140625 37.109375 17.671875 38.8125 
z
M 15.921875 53.71875 
Q 15.921875 48.640625 19.1875 45.40625 
Q 22.46875 42.1875 27.6875 42.1875 
Q 32.765625 42.1875 36.015625 45.375 
Q 39.265625 48.578125 39.265625 53.21875 
Q 39.265625 58.0625 35.90625 61.359375 
Q 32.5625 64.65625 27.59375 64.65625 
Q 22.5625 64.65625 19.234375 61.421875 
Q 15.921875 58.203125 15.921875 53.71875 
z
M 13.09375 20.65625 
Q 13.09375 16.890625 14.875 13.375 
Q 16.65625 9.859375 20.171875 7.921875 
Q 23.6875 6 27.734375 6 
Q 34.03125 6 38.125 10.046875 
Q 42.234375 14.109375 42.234375 20.359375 
Q 42.234375 26.703125 38.015625 30.859375 
Q 33.796875 35.015625 27.4375 35.015625 
Q 21.234375 35.015625 17.15625 30.90625 
Q 13.09375 26.8125 13.09375 20.65625 
z
" id="ArialMT-56"/>
       </defs>
       <use xlink:href="#ArialMT-56"/>
       <use x="55.615234" xlink:href="#ArialMT-48"/>
      </g>
     </g>
    </g>
    <g id="ytick_11">
     <g id="line2d_12">
      <g>
       <use style="fill:#262626;stroke:#262626;stroke-width:0.8;" x="372.134219" xlink:href="#mf9347aa9e9" y="18.692578"/>
      </g>
     </g>
     <g id="text_21">
      <!-- 100 -->
      <g style="fill:#262626;" transform="translate(379.134219 23.345156)scale(0.13 -0.13)">
       <use xlink:href="#ArialMT-49"/>
       <use x="55.615234" xlink:href="#ArialMT-48"/>
       <use x="111.230469" xlink:href="#ArialMT-48"/>
      </g>
     </g>
    </g>
    <g id="text_22">
     <!-- Valve Position (% open) -->
     <g style="fill:#262626;" transform="translate(415.013437 166.499648)rotate(-90)scale(0.14 -0.14)">
      <defs>
       <path d="M 28.171875 0 
L 0.4375 71.578125 
L 10.6875 71.578125 
L 29.296875 19.578125 
Q 31.546875 13.328125 33.0625 7.859375 
Q 34.71875 13.71875 36.921875 19.578125 
L 56.25 71.578125 
L 65.921875 71.578125 
L 37.890625 0 
z
" id="ArialMT-86"/>
       <path d="M 21 0 
L 1.265625 51.859375 
L 10.546875 51.859375 
L 21.6875 20.796875 
Q 23.484375 15.765625 25 10.359375 
Q 26.171875 14.453125 28.265625 20.21875 
L 39.796875 51.859375 
L 48.828125 51.859375 
L 29.203125 0 
z
" id="ArialMT-118"/>
       <path d="M 7.71875 0 
L 7.71875 71.578125 
L 34.71875 71.578125 
Q 41.84375 71.578125 45.609375 70.90625 
Q 50.875 70.015625 54.4375 67.546875 
Q 58.015625 65.09375 60.1875 60.640625 
Q 62.359375 56.203125 62.359375 50.875 
Q 62.359375 41.75 56.546875 35.421875 
Q 50.734375 29.109375 35.546875 29.109375 
L 17.1875 29.109375 
L 17.1875 0 
z
M 17.1875 37.546875 
L 35.6875 37.546875 
Q 44.875 37.546875 48.734375 40.96875 
Q 52.59375 44.390625 52.59375 50.59375 
Q 52.59375 55.078125 50.3125 58.265625 
Q 48.046875 61.46875 44.34375 62.5 
Q 41.9375 63.140625 35.5 63.140625 
L 17.1875 63.140625 
z
" id="ArialMT-80"/>
       <path d="M 6.59375 0 
L 6.59375 51.859375 
L 14.5 51.859375 
L 14.5 44.484375 
Q 20.21875 53.03125 31 53.03125 
Q 35.6875 53.03125 39.625 51.34375 
Q 43.5625 49.65625 45.515625 46.921875 
Q 47.46875 44.1875 48.25 40.4375 
Q 48.734375 37.984375 48.734375 31.890625 
L 48.734375 0 
L 39.9375 0 
L 39.9375 31.546875 
Q 39.9375 36.921875 38.90625 39.578125 
Q 37.890625 42.234375 35.28125 43.8125 
Q 32.671875 45.40625 29.15625 45.40625 
Q 23.53125 45.40625 19.453125 41.84375 
Q 15.375 38.28125 15.375 28.328125 
L 15.375 0 
z
" id="ArialMT-110"/>
       <path d="M 5.8125 54.390625 
Q 5.8125 62.0625 9.671875 67.421875 
Q 13.53125 72.796875 20.84375 72.796875 
Q 27.59375 72.796875 32 67.984375 
Q 36.421875 63.1875 36.421875 53.859375 
Q 36.421875 44.78125 31.953125 39.875 
Q 27.484375 34.96875 20.953125 34.96875 
Q 14.453125 34.96875 10.125 39.796875 
Q 5.8125 44.625 5.8125 54.390625 
z
M 21.09375 66.75 
Q 17.828125 66.75 15.65625 63.90625 
Q 13.484375 61.078125 13.484375 53.515625 
Q 13.484375 46.625 15.671875 43.8125 
Q 17.875 41.015625 21.09375 41.015625 
Q 24.421875 41.015625 26.59375 43.84375 
Q 28.765625 46.6875 28.765625 54.203125 
Q 28.765625 61.140625 26.5625 63.9375 
Q 24.359375 66.75 21.09375 66.75 
z
M 21.140625 -2.640625 
L 60.296875 72.796875 
L 67.4375 72.796875 
L 28.421875 -2.640625 
z
M 52.09375 16.796875 
Q 52.09375 24.515625 55.953125 29.859375 
Q 59.8125 35.203125 67.1875 35.203125 
Q 73.921875 35.203125 78.34375 30.390625 
Q 82.765625 25.59375 82.765625 16.265625 
Q 82.765625 7.171875 78.296875 2.265625 
Q 73.828125 -2.640625 67.234375 -2.640625 
Q 60.75 -2.640625 56.421875 2.21875 
Q 52.09375 7.078125 52.09375 16.796875 
z
M 67.4375 29.15625 
Q 64.109375 29.15625 61.9375 26.3125 
Q 59.765625 23.484375 59.765625 15.921875 
Q 59.765625 9.078125 61.953125 6.25 
Q 64.15625 3.421875 67.390625 3.421875 
Q 70.75 3.421875 72.921875 6.25 
Q 75.09375 9.078125 75.09375 16.609375 
Q 75.09375 23.53125 72.890625 26.34375 
Q 70.703125 29.15625 67.4375 29.15625 
z
" id="ArialMT-37"/>
      </defs>
      <use xlink:href="#ArialMT-86"/>
      <use x="59.324219" xlink:href="#ArialMT-97"/>
      <use x="114.939453" xlink:href="#ArialMT-108"/>
      <use x="137.15625" xlink:href="#ArialMT-118"/>
      <use x="187.15625" xlink:href="#ArialMT-101"/>
      <use x="242.771484" xlink:href="#ArialMT-32"/>
      <use x="270.554688" xlink:href="#ArialMT-80"/>
      <use x="337.253906" xlink:href="#ArialMT-111"/>
      <use x="392.869141" xlink:href="#ArialMT-115"/>
      <use x="442.869141" xlink:href="#ArialMT-105"/>
      <use x="465.085938" xlink:href="#ArialMT-116"/>
      <use x="492.869141" xlink:href="#ArialMT-105"/>
      <use x="515.085938" xlink:href="#ArialMT-111"/>
      <use x="570.701172" xlink:href="#ArialMT-110"/>
      <use x="626.316406" xlink:href="#ArialMT-32"/>
      <use x="654.099609" xlink:href="#ArialMT-40"/>
      <use x="687.400391" xlink:href="#ArialMT-37"/>
      <use x="776.316406" xlink:href="#ArialMT-32"/>
      <use x="804.099609" xlink:href="#ArialMT-111"/>
      <use x="859.714844" xlink:href="#ArialMT-112"/>
      <use x="915.330078" xlink:href="#ArialMT-101"/>
      <use x="970.945312" xlink:href="#ArialMT-110"/>
      <use x="1026.560547" xlink:href="#ArialMT-41"/>
     </g>
    </g>
   </g>
   <g id="line2d_13">
    <path clip-path="url(#p8a2753e0ef)" d="M 74.059801 165.932969 
L 130.843248 165.932969 
L 136.069701 144.664912 
L 141.746472 120.942849 
L 143.307337 114.807833 
L 144.310872 112.926428 
L 145.324184 111.126823 
L 147.58008 107.527614 
L 151.718234 100.983596 
L 152.338732 100.492795 
L 152.751562 100.492795 
L 153.370378 100.001994 
L 153.991353 100.001994 
L 154.196479 99.838393 
L 154.607825 99.838393 
L 155.016583 99.511193 
L 155.224652 99.511193 
L 156.252276 98.69319 
L 156.458295 98.69319 
L 157.079204 98.202389 
L 160.793569 98.202389 
L 161.00093 98.038789 
L 163.683516 98.038789 
L 163.889754 97.875188 
L 166.167369 97.875188 
L 166.584222 97.547987 
L 169.475948 97.547987 
L 169.682237 97.384387 
L 170.096497 97.384387 
L 170.306322 97.220786 
L 170.71733 97.547987 
L 171.33757 97.547987 
L 171.54369 97.384387 
L 172.366708 97.384387 
L 172.573202 97.220786 
L 174.85576 97.220786 
L 175.060974 97.057186 
L 177.747164 97.057186 
L 178.159794 97.384387 
L 178.366004 97.384387 
L 178.77904 97.057186 
L 181.263397 97.057186 
L 181.883829 97.547987 
L 184.154108 97.547987 
L 184.565441 97.875188 
L 185.154878 97.875188 
L 185.361801 98.038789 
L 187.641526 98.038789 
L 188.05354 98.365989 
L 188.679076 98.365989 
L 188.888044 98.52959 
L 189.72357 98.52959 
L 189.93209 98.69319 
L 190.556249 98.69319 
L 191.182491 99.183992 
L 193.474468 99.183992 
L 193.897208 99.511193 
L 194.101879 99.511193 
L 195.133549 100.329195 
L 196.586994 100.329195 
L 197.006072 100.656396 
L 197.422299 100.656396 
L 198.24295 101.310797 
L 200.309925 101.310797 
L 200.930787 101.801599 
L 201.137576 101.801599 
L 201.756744 102.2924 
L 202.379336 102.2924 
L 203.822199 103.437603 
L 204.027909 103.437603 
L 205.468005 104.582806 
L 205.675617 104.582806 
L 206.293891 105.073607 
L 206.709537 105.073607 
L 206.917614 105.237208 
L 207.32868 105.237208 
L 207.536117 105.564409 
L 207.944073 105.564409 
L 208.972346 106.382411 
L 209.178024 106.382411 
L 209.589764 106.709612 
L 210.210785 106.709612 
L 212.489039 108.509216 
L 212.696993 108.836417 
L 213.315263 108.836417 
L 214.346393 109.654419 
L 214.967331 109.654419 
L 216.201062 110.636022 
L 216.60982 110.636022 
L 217.225811 111.126823 
L 217.844727 111.126823 
L 218.257469 111.781225 
L 218.872751 111.781225 
L 219.495326 112.272026 
L 219.906232 112.272026 
L 221.140842 113.253629 
L 221.34711 113.253629 
L 222.179182 113.908031 
L 222.384291 113.908031 
L 222.797126 114.235232 
L 223.416243 114.235232 
L 224.037386 114.726033 
L 224.240758 114.726033 
L 225.685124 115.871236 
L 225.891134 115.871236 
L 226.298346 116.198437 
L 227.119983 116.198437 
L 228.772893 117.50724 
L 229.39074 118.325242 
L 229.802629 118.325242 
L 230.832 119.143245 
L 231.037562 119.143245 
L 231.454047 119.470445 
L 231.658473 119.470445 
L 232.073143 119.797646 
L 233.10471 119.797646 
L 233.312437 119.961247 
L 235.787565 119.961247 
L 236.201784 120.288448 
L 236.820896 120.288448 
L 237.231481 120.615649 
L 239.712368 120.615649 
L 240.130364 120.942849 
L 243.656289 120.942849 
L 243.861432 120.779249 
L 244.275087 120.779249 
L 244.482844 120.615649 
L 259.975586 120.615649 
L 260.388238 120.288448 
L 261.631397 120.288448 
L 261.83732 120.124847 
L 268.052658 120.124847 
L 268.259556 119.961247 
L 270.499338 119.961247 
L 270.883284 119.634046 
L 283.692098 119.634046 
L 284.103319 119.306845 
L 285.749877 119.306845 
L 286.363953 118.816044 
L 289.254553 118.816044 
L 289.458045 118.652443 
L 303.918444 118.652443 
L 304.327855 118.325242 
L 304.534984 118.325242 
L 304.947304 117.998042 
L 310.752958 117.998042 
L 310.958512 117.834441 
L 317.808415 117.834441 
L 318.224662 117.50724 
L 319.059837 117.50724 
L 319.473018 117.180039 
L 341.179458 117.180039 
L 341.592831 116.852839 
L 353.408635 116.852839 
L 353.818008 116.525638 
L 357.940199 116.525638 
L 357.940199 116.525638 
" style="fill:none;stroke:#ff7f0e;stroke-linecap:round;stroke-width:1.5;"/>
   </g>
   <g id="patch_7">
    <path d="M 59.865781 165.932969 
L 59.865781 18.692578 
" style="fill:none;stroke:#262626;stroke-linecap:square;stroke-linejoin:miter;stroke-width:0.8;"/>
   </g>
   <g id="patch_8">
    <path d="M 372.134219 165.932969 
L 372.134219 18.692578 
" style="fill:none;stroke:#262626;stroke-linecap:square;stroke-linejoin:miter;stroke-width:0.8;"/>
   </g>
   <g id="patch_9">
    <path d="M 59.865781 165.932969 
L 372.134219 165.932969 
" style="fill:none;stroke:#262626;stroke-linecap:square;stroke-linejoin:miter;stroke-width:0.8;"/>
   </g>
   <g id="patch_10">
    <path d="M 59.865781 18.692578 
L 372.134219 18.692578 
" style="fill:none;stroke:#262626;stroke-linecap:square;stroke-linejoin:miter;stroke-width:0.8;"/>
   </g>
   <g id="text_23">
    <!-- Valve Position -->
    <g style="fill:#ff7f0e;" transform="translate(263.305172 107.036812)scale(0.13 -0.13)">
     <use xlink:href="#ArialMT-86"/>
     <use x="59.324219" xlink:href="#ArialMT-97"/>
     <use x="114.939453" xlink:href="#ArialMT-108"/>
     <use x="137.15625" xlink:href="#ArialMT-118"/>
     <use x="187.15625" xlink:href="#ArialMT-101"/>
     <use x="242.771484" xlink:href="#ArialMT-32"/>
     <use x="270.554688" xlink:href="#ArialMT-80"/>
     <use x="337.253906" xlink:href="#ArialMT-111"/>
     <use x="392.869141" xlink:href="#ArialMT-115"/>
     <use x="442.869141" xlink:href="#ArialMT-105"/>
     <use x="465.085938" xlink:href="#ArialMT-116"/>
     <use x="492.869141" xlink:href="#ArialMT-105"/>
     <use x="515.085938" xlink:href="#ArialMT-111"/>
     <use x="570.701172" xlink:href="#ArialMT-110"/>
    </g>
   </g>
  </g>
 </g>
 <defs>
  <clipPath id="p8a2753e0ef">
   <rect height="147.240391" width="312.268438" x="59.865781" y="18.692578"/>
  </clipPath>
 </defs>
</svg>
