<?xml version="1.0" encoding="utf-8" standalone="no"?>
<!DOCTYPE svg PUBLIC "-//W3C//DTD SVG 1.1//EN"
  "http://www.w3.org/Graphics/SVG/1.1/DTD/svg11.dtd">
<!-- Created with matplotlib (https://matplotlib.org/) -->
<svg height="216pt" version="1.1" viewBox="0 0 432 216" width="432pt" xmlns="http://www.w3.org/2000/svg" xmlns:xlink="http://www.w3.org/1999/xlink">
 <metadata>
  <rdf:RDF xmlns:cc="http://creativecommons.org/ns#" xmlns:dc="http://purl.org/dc/elements/1.1/" xmlns:rdf="http://www.w3.org/1999/02/22-rdf-syntax-ns#">
   <cc:Work>
    <dc:type rdf:resource="http://purl.org/dc/dcmitype/StillImage"/>
    <dc:date>2022-03-12T11:24:32.186962</dc:date>
    <dc:format>image/svg+xml</dc:format>
    <dc:creator>
     <cc:Agent>
      <dc:title>Matplotlib v3.3.4, https://matplotlib.org/</dc:title>
     </cc:Agent>
    </dc:creator>
   </cc:Work>
  </rdf:RDF>
 </metadata>
 <defs>
  <style type="text/css">*{stroke-linecap:butt;stroke-linejoin:round;}</style>
 </defs>
 <g id="figure_1">
  <g id="patch_1">
   <path d="M 0 216 
L 432 216 
L 432 0 
L 0 0 
z
" style="fill:#ffffff;"/>
  </g>
  <g id="axes_1">
   <g id="patch_2">
    <path d="M 59.865781 165.932969 
L 372.134219 165.932969 
L 372.134219 14.04 
L 59.865781 14.04 
z
" style="fill:#ffffff;"/>
   </g>
   <g id="matplotlib.axis_1">
    <g id="xtick_1">
     <g id="text_1">
      <!-- 0 -->
      <g style="fill:#262626;" transform="translate(70.445192 182.238125)scale(0.13 -0.13)">
       <defs>
        <path d="M 4.15625 35.296875 
Q 4.15625 48 6.765625 55.734375 
Q 9.375 63.484375 14.515625 67.671875 
Q 19.671875 71.875 27.484375 71.875 
Q 33.25 71.875 37.59375 69.546875 
Q 41.9375 67.234375 44.765625 62.859375 
Q 47.609375 58.5 49.21875 52.21875 
Q 50.828125 45.953125 50.828125 35.296875 
Q 50.828125 22.703125 48.234375 14.96875 
Q 45.65625 7.234375 40.5 3 
Q 35.359375 -1.21875 27.484375 -1.21875 
Q 17.140625 -1.21875 11.234375 6.203125 
Q 4.15625 15.140625 4.15625 35.296875 
z
M 13.1875 35.296875 
Q 13.1875 17.671875 17.3125 11.828125 
Q 21.4375 6 27.484375 6 
Q 33.546875 6 37.671875 11.859375 
Q 41.796875 17.71875 41.796875 35.296875 
Q 41.796875 52.984375 37.671875 58.78125 
Q 33.546875 64.59375 27.390625 64.59375 
Q 21.34375 64.59375 17.71875 59.46875 
Q 13.1875 52.9375 13.1875 35.296875 
z
" id="ArialMT-48"/>
       </defs>
       <use xlink:href="#ArialMT-48"/>
      </g>
     </g>
    </g>
    <g id="xtick_2">
     <g id="text_2">
      <!-- 50 -->
      <g style="fill:#262626;" transform="translate(114.049156 182.238125)scale(0.13 -0.13)">
       <defs>
        <path d="M 4.15625 18.75 
L 13.375 19.53125 
Q 14.40625 12.796875 18.140625 9.390625 
Q 21.875 6 27.15625 6 
Q 33.5 6 37.890625 10.78125 
Q 42.28125 15.578125 42.28125 23.484375 
Q 42.28125 31 38.0625 35.34375 
Q 33.84375 39.703125 27 39.703125 
Q 22.75 39.703125 19.328125 37.765625 
Q 15.921875 35.84375 13.96875 32.765625 
L 5.71875 33.84375 
L 12.640625 70.609375 
L 48.25 70.609375 
L 48.25 62.203125 
L 19.671875 62.203125 
L 15.828125 42.96875 
Q 22.265625 47.46875 29.34375 47.46875 
Q 38.71875 47.46875 45.15625 40.96875 
Q 51.609375 34.46875 51.609375 24.265625 
Q 51.609375 14.546875 45.953125 7.46875 
Q 39.0625 -1.21875 27.15625 -1.21875 
Q 17.390625 -1.21875 11.203125 4.25 
Q 5.03125 9.71875 4.15625 18.75 
z
" id="ArialMT-53"/>
       </defs>
       <use xlink:href="#ArialMT-53"/>
       <use x="55.615234" xlink:href="#ArialMT-48"/>
      </g>
     </g>
    </g>
    <g id="xtick_3">
     <g id="text_3">
      <!-- 100 -->
      <g style="fill:#262626;" transform="translate(157.653121 182.238125)scale(0.13 -0.13)">
       <defs>
        <path d="M 37.25 0 
L 28.46875 0 
L 28.46875 56 
Q 25.296875 52.984375 20.140625 49.953125 
Q 14.984375 46.921875 10.890625 45.40625 
L 10.890625 53.90625 
Q 18.265625 57.375 23.78125 62.296875 
Q 29.296875 67.234375 31.59375 71.875 
L 37.25 71.875 
z
" id="ArialMT-49"/>
       </defs>
       <use xlink:href="#ArialMT-49"/>
       <use x="55.615234" xlink:href="#ArialMT-48"/>
       <use x="111.230469" xlink:href="#ArialMT-48"/>
      </g>
     </g>
    </g>
    <g id="xtick_4">
     <g id="text_4">
      <!-- 150 -->
      <g style="fill:#262626;" transform="translate(204.871695 182.238125)scale(0.13 -0.13)">
       <use xlink:href="#ArialMT-49"/>
       <use x="55.615234" xlink:href="#ArialMT-53"/>
       <use x="111.230469" xlink:href="#ArialMT-48"/>
      </g>
     </g>
    </g>
    <g id="xtick_5">
     <g id="text_5">
      <!-- 200 -->
      <g style="fill:#262626;" transform="translate(252.090269 182.238125)scale(0.13 -0.13)">
       <defs>
        <path d="M 50.34375 8.453125 
L 50.34375 0 
L 3.03125 0 
Q 2.9375 3.171875 4.046875 6.109375 
Q 5.859375 10.9375 9.828125 15.625 
Q 13.8125 20.3125 21.34375 26.46875 
Q 33.015625 36.03125 37.109375 41.625 
Q 41.21875 47.21875 41.21875 52.203125 
Q 41.21875 57.421875 37.46875 61 
Q 33.734375 64.59375 27.734375 64.59375 
Q 21.390625 64.59375 17.578125 60.78125 
Q 13.765625 56.984375 13.71875 50.25 
L 4.6875 51.171875 
Q 5.609375 61.28125 11.65625 66.578125 
Q 17.71875 71.875 27.9375 71.875 
Q 38.234375 71.875 44.234375 66.15625 
Q 50.25 60.453125 50.25 52 
Q 50.25 47.703125 48.484375 43.546875 
Q 46.734375 39.40625 42.65625 34.8125 
Q 38.578125 30.21875 29.109375 22.21875 
Q 21.1875 15.578125 18.9375 13.203125 
Q 16.703125 10.84375 15.234375 8.453125 
z
" id="ArialMT-50"/>
       </defs>
       <use xlink:href="#ArialMT-50"/>
       <use x="55.615234" xlink:href="#ArialMT-48"/>
       <use x="111.230469" xlink:href="#ArialMT-48"/>
      </g>
     </g>
    </g>
    <g id="xtick_6">
     <g id="text_6">
      <!-- 250 -->
      <g style="fill:#262626;" transform="translate(299.308843 182.238125)scale(0.13 -0.13)">
       <use xlink:href="#ArialMT-50"/>
       <use x="55.615234" xlink:href="#ArialMT-53"/>
       <use x="111.230469" xlink:href="#ArialMT-48"/>
      </g>
     </g>
    </g>
    <g id="xtick_7">
     <g id="text_7">
      <!-- 300 -->
      <g style="fill:#262626;" transform="translate(346.527417 182.238125)scale(0.13 -0.13)">
       <defs>
        <path d="M 4.203125 18.890625 
L 12.984375 20.0625 
Q 14.5 12.59375 18.140625 9.296875 
Q 21.78125 6 27 6 
Q 33.203125 6 37.46875 10.296875 
Q 41.75 14.59375 41.75 20.953125 
Q 41.75 27 37.796875 30.921875 
Q 33.84375 34.859375 27.734375 34.859375 
Q 25.25 34.859375 21.53125 33.890625 
L 22.515625 41.609375 
Q 23.390625 41.5 23.921875 41.5 
Q 29.546875 41.5 34.03125 44.421875 
Q 38.53125 47.359375 38.53125 53.46875 
Q 38.53125 58.296875 35.25 61.46875 
Q 31.984375 64.65625 26.8125 64.65625 
Q 21.6875 64.65625 18.265625 61.421875 
Q 14.84375 58.203125 13.875 51.765625 
L 5.078125 53.328125 
Q 6.6875 62.15625 12.390625 67.015625 
Q 18.109375 71.875 26.609375 71.875 
Q 32.46875 71.875 37.390625 69.359375 
Q 42.328125 66.84375 44.9375 62.5 
Q 47.5625 58.15625 47.5625 53.265625 
Q 47.5625 48.640625 45.0625 44.828125 
Q 42.578125 41.015625 37.703125 38.765625 
Q 44.046875 37.3125 47.5625 32.6875 
Q 51.078125 28.078125 51.078125 21.140625 
Q 51.078125 11.765625 44.234375 5.25 
Q 37.40625 -1.265625 26.953125 -1.265625 
Q 17.53125 -1.265625 11.296875 4.34375 
Q 5.078125 9.96875 4.203125 18.890625 
z
" id="ArialMT-51"/>
       </defs>
       <use xlink:href="#ArialMT-51"/>
       <use x="55.615234" xlink:href="#ArialMT-48"/>
       <use x="111.230469" xlink:href="#ArialMT-48"/>
      </g>
     </g>
    </g>
    <g id="text_8">
     <!-- Elapsed Time (s) -->
     <g style="fill:#262626;" transform="translate(163.484688 199.013438)scale(0.14 -0.14)">
      <defs>
       <path d="M 7.90625 0 
L 7.90625 71.578125 
L 59.671875 71.578125 
L 59.671875 63.140625 
L 17.390625 63.140625 
L 17.390625 41.21875 
L 56.984375 41.21875 
L 56.984375 32.8125 
L 17.390625 32.8125 
L 17.390625 8.453125 
L 61.328125 8.453125 
L 61.328125 0 
z
" id="ArialMT-69"/>
       <path d="M 6.390625 0 
L 6.390625 71.578125 
L 15.1875 71.578125 
L 15.1875 0 
z
" id="ArialMT-108"/>
       <path d="M 40.4375 6.390625 
Q 35.546875 2.25 31.03125 0.53125 
Q 26.515625 -1.171875 21.34375 -1.171875 
Q 12.796875 -1.171875 8.203125 3 
Q 3.609375 7.171875 3.609375 13.671875 
Q 3.609375 17.484375 5.34375 20.625 
Q 7.078125 23.78125 9.890625 25.6875 
Q 12.703125 27.59375 16.21875 28.5625 
Q 18.796875 29.25 24.03125 29.890625 
Q 34.671875 31.15625 39.703125 32.90625 
Q 39.75 34.71875 39.75 35.203125 
Q 39.75 40.578125 37.25 42.78125 
Q 33.890625 45.75 27.25 45.75 
Q 21.046875 45.75 18.09375 43.578125 
Q 15.140625 41.40625 13.71875 35.890625 
L 5.125 37.0625 
Q 6.296875 42.578125 8.984375 45.96875 
Q 11.671875 49.359375 16.75 51.1875 
Q 21.828125 53.03125 28.515625 53.03125 
Q 35.15625 53.03125 39.296875 51.46875 
Q 43.453125 49.90625 45.40625 47.53125 
Q 47.359375 45.171875 48.140625 41.546875 
Q 48.578125 39.3125 48.578125 33.453125 
L 48.578125 21.734375 
Q 48.578125 9.46875 49.140625 6.21875 
Q 49.703125 2.984375 51.375 0 
L 42.1875 0 
Q 40.828125 2.734375 40.4375 6.390625 
z
M 39.703125 26.03125 
Q 34.90625 24.078125 25.34375 22.703125 
Q 19.921875 21.921875 17.671875 20.9375 
Q 15.4375 19.96875 14.203125 18.09375 
Q 12.984375 16.21875 12.984375 13.921875 
Q 12.984375 10.40625 15.640625 8.0625 
Q 18.3125 5.71875 23.4375 5.71875 
Q 28.515625 5.71875 32.46875 7.9375 
Q 36.421875 10.15625 38.28125 14.015625 
Q 39.703125 17 39.703125 22.796875 
z
" id="ArialMT-97"/>
       <path d="M 6.59375 -19.875 
L 6.59375 51.859375 
L 14.59375 51.859375 
L 14.59375 45.125 
Q 17.4375 49.078125 21 51.046875 
Q 24.5625 53.03125 29.640625 53.03125 
Q 36.28125 53.03125 41.359375 49.609375 
Q 46.4375 46.1875 49.015625 39.953125 
Q 51.609375 33.734375 51.609375 26.3125 
Q 51.609375 18.359375 48.75 11.984375 
Q 45.90625 5.609375 40.453125 2.21875 
Q 35.015625 -1.171875 29 -1.171875 
Q 24.609375 -1.171875 21.109375 0.6875 
Q 17.625 2.546875 15.375 5.375 
L 15.375 -19.875 
z
M 14.546875 25.640625 
Q 14.546875 15.625 18.59375 10.84375 
Q 22.65625 6.0625 28.421875 6.0625 
Q 34.28125 6.0625 38.453125 11.015625 
Q 42.625 15.96875 42.625 26.375 
Q 42.625 36.28125 38.546875 41.203125 
Q 34.46875 46.140625 28.8125 46.140625 
Q 23.1875 46.140625 18.859375 40.890625 
Q 14.546875 35.640625 14.546875 25.640625 
z
" id="ArialMT-112"/>
       <path d="M 3.078125 15.484375 
L 11.765625 16.84375 
Q 12.5 11.625 15.84375 8.84375 
Q 19.1875 6.0625 25.203125 6.0625 
Q 31.25 6.0625 34.171875 8.515625 
Q 37.109375 10.984375 37.109375 14.3125 
Q 37.109375 17.28125 34.515625 19 
Q 32.71875 20.171875 25.53125 21.96875 
Q 15.875 24.421875 12.140625 26.203125 
Q 8.40625 27.984375 6.46875 31.125 
Q 4.546875 34.28125 4.546875 38.09375 
Q 4.546875 41.546875 6.125 44.5 
Q 7.71875 47.46875 10.453125 49.421875 
Q 12.5 50.921875 16.03125 51.96875 
Q 19.578125 53.03125 23.640625 53.03125 
Q 29.734375 53.03125 34.34375 51.265625 
Q 38.96875 49.515625 41.15625 46.5 
Q 43.359375 43.5 44.1875 38.484375 
L 35.59375 37.3125 
Q 35.015625 41.3125 32.203125 43.546875 
Q 29.390625 45.796875 24.265625 45.796875 
Q 18.21875 45.796875 15.625 43.796875 
Q 13.03125 41.796875 13.03125 39.109375 
Q 13.03125 37.40625 14.109375 36.03125 
Q 15.1875 34.625 17.484375 33.6875 
Q 18.796875 33.203125 25.25 31.453125 
Q 34.578125 28.953125 38.25 27.359375 
Q 41.9375 25.78125 44.03125 22.75 
Q 46.140625 19.734375 46.140625 15.234375 
Q 46.140625 10.84375 43.578125 6.953125 
Q 41.015625 3.078125 36.171875 0.953125 
Q 31.34375 -1.171875 25.25 -1.171875 
Q 15.140625 -1.171875 9.84375 3.03125 
Q 4.546875 7.234375 3.078125 15.484375 
z
" id="ArialMT-115"/>
       <path d="M 42.09375 16.703125 
L 51.171875 15.578125 
Q 49.03125 7.625 43.21875 3.21875 
Q 37.40625 -1.171875 28.375 -1.171875 
Q 17 -1.171875 10.328125 5.828125 
Q 3.65625 12.84375 3.65625 25.484375 
Q 3.65625 38.578125 10.390625 45.796875 
Q 17.140625 53.03125 27.875 53.03125 
Q 38.28125 53.03125 44.875 45.953125 
Q 51.46875 38.875 51.46875 26.03125 
Q 51.46875 25.25 51.421875 23.6875 
L 12.75 23.6875 
Q 13.234375 15.140625 17.578125 10.59375 
Q 21.921875 6.0625 28.421875 6.0625 
Q 33.25 6.0625 36.671875 8.59375 
Q 40.09375 11.140625 42.09375 16.703125 
z
M 13.234375 30.90625 
L 42.1875 30.90625 
Q 41.609375 37.453125 38.875 40.71875 
Q 34.671875 45.796875 27.984375 45.796875 
Q 21.921875 45.796875 17.796875 41.75 
Q 13.671875 37.703125 13.234375 30.90625 
z
" id="ArialMT-101"/>
       <path d="M 40.234375 0 
L 40.234375 6.546875 
Q 35.296875 -1.171875 25.734375 -1.171875 
Q 19.53125 -1.171875 14.328125 2.25 
Q 9.125 5.671875 6.265625 11.796875 
Q 3.421875 17.921875 3.421875 25.875 
Q 3.421875 33.640625 6 39.96875 
Q 8.59375 46.296875 13.765625 49.65625 
Q 18.953125 53.03125 25.34375 53.03125 
Q 30.03125 53.03125 33.6875 51.046875 
Q 37.359375 49.078125 39.65625 45.90625 
L 39.65625 71.578125 
L 48.390625 71.578125 
L 48.390625 0 
z
M 12.453125 25.875 
Q 12.453125 15.921875 16.640625 10.984375 
Q 20.84375 6.0625 26.5625 6.0625 
Q 32.328125 6.0625 36.34375 10.765625 
Q 40.375 15.484375 40.375 25.140625 
Q 40.375 35.796875 36.265625 40.765625 
Q 32.171875 45.75 26.171875 45.75 
Q 20.3125 45.75 16.375 40.96875 
Q 12.453125 36.1875 12.453125 25.875 
z
" id="ArialMT-100"/>
       <path id="ArialMT-32"/>
       <path d="M 25.921875 0 
L 25.921875 63.140625 
L 2.34375 63.140625 
L 2.34375 71.578125 
L 59.078125 71.578125 
L 59.078125 63.140625 
L 35.40625 63.140625 
L 35.40625 0 
z
" id="ArialMT-84"/>
       <path d="M 6.640625 61.46875 
L 6.640625 71.578125 
L 15.4375 71.578125 
L 15.4375 61.46875 
z
M 6.640625 0 
L 6.640625 51.859375 
L 15.4375 51.859375 
L 15.4375 0 
z
" id="ArialMT-105"/>
       <path d="M 6.59375 0 
L 6.59375 51.859375 
L 14.453125 51.859375 
L 14.453125 44.578125 
Q 16.890625 48.390625 20.9375 50.703125 
Q 25 53.03125 30.171875 53.03125 
Q 35.9375 53.03125 39.625 50.640625 
Q 43.3125 48.25 44.828125 43.953125 
Q 50.984375 53.03125 60.84375 53.03125 
Q 68.5625 53.03125 72.703125 48.75 
Q 76.859375 44.484375 76.859375 35.59375 
L 76.859375 0 
L 68.109375 0 
L 68.109375 32.671875 
Q 68.109375 37.9375 67.25 40.25 
Q 66.40625 42.578125 64.15625 43.984375 
Q 61.921875 45.40625 58.890625 45.40625 
Q 53.421875 45.40625 49.796875 41.765625 
Q 46.1875 38.140625 46.1875 30.125 
L 46.1875 0 
L 37.40625 0 
L 37.40625 33.6875 
Q 37.40625 39.546875 35.25 42.46875 
Q 33.109375 45.40625 28.21875 45.40625 
Q 24.515625 45.40625 21.359375 43.453125 
Q 18.21875 41.5 16.796875 37.734375 
Q 15.375 33.984375 15.375 26.90625 
L 15.375 0 
z
" id="ArialMT-109"/>
       <path d="M 23.390625 -21.046875 
Q 16.109375 -11.859375 11.078125 0.4375 
Q 6.0625 12.75 6.0625 25.921875 
Q 6.0625 37.546875 9.8125 48.1875 
Q 14.203125 60.546875 23.390625 72.796875 
L 29.6875 72.796875 
Q 23.78125 62.640625 21.875 58.296875 
Q 18.890625 51.5625 17.1875 44.234375 
Q 15.09375 35.109375 15.09375 25.875 
Q 15.09375 2.390625 29.6875 -21.046875 
z
" id="ArialMT-40"/>
       <path d="M 12.359375 -21.046875 
L 6.0625 -21.046875 
Q 20.65625 2.390625 20.65625 25.875 
Q 20.65625 35.0625 18.5625 44.09375 
Q 16.890625 51.421875 13.921875 58.15625 
Q 12.015625 62.546875 6.0625 72.796875 
L 12.359375 72.796875 
Q 21.53125 60.546875 25.921875 48.1875 
Q 29.6875 37.546875 29.6875 25.921875 
Q 29.6875 12.75 24.625 0.4375 
Q 19.578125 -11.859375 12.359375 -21.046875 
z
" id="ArialMT-41"/>
      </defs>
      <use xlink:href="#ArialMT-69"/>
      <use x="66.699219" xlink:href="#ArialMT-108"/>
      <use x="88.916016" xlink:href="#ArialMT-97"/>
      <use x="144.53125" xlink:href="#ArialMT-112"/>
      <use x="200.146484" xlink:href="#ArialMT-115"/>
      <use x="250.146484" xlink:href="#ArialMT-101"/>
      <use x="305.761719" xlink:href="#ArialMT-100"/>
      <use x="361.376953" xlink:href="#ArialMT-32"/>
      <use x="387.410156" xlink:href="#ArialMT-84"/>
      <use x="444.744141" xlink:href="#ArialMT-105"/>
      <use x="466.960938" xlink:href="#ArialMT-109"/>
      <use x="550.261719" xlink:href="#ArialMT-101"/>
      <use x="605.876953" xlink:href="#ArialMT-32"/>
      <use x="633.660156" xlink:href="#ArialMT-40"/>
      <use x="666.960938" xlink:href="#ArialMT-115"/>
      <use x="716.960938" xlink:href="#ArialMT-41"/>
     </g>
    </g>
   </g>
   <g id="matplotlib.axis_2">
    <g id="ytick_1">
     <g id="line2d_1">
      <defs>
       <path d="M 0 0 
L -3.5 0 
" id="m1aa21f8b14" style="stroke:#262626;stroke-width:0.8;"/>
      </defs>
      <g>
       <use style="fill:#262626;stroke:#262626;stroke-width:0.8;" x="59.865781" xlink:href="#m1aa21f8b14" y="125.668118"/>
      </g>
     </g>
     <g id="text_9">
      <!-- 100 -->
      <g style="fill:#262626;" transform="translate(31.178125 130.320696)scale(0.13 -0.13)">
       <use xlink:href="#ArialMT-49"/>
       <use x="55.615234" xlink:href="#ArialMT-48"/>
       <use x="111.230469" xlink:href="#ArialMT-48"/>
      </g>
     </g>
    </g>
    <g id="ytick_2">
     <g id="line2d_2">
      <g>
       <use style="fill:#262626;stroke:#262626;stroke-width:0.8;" x="59.865781" xlink:href="#m1aa21f8b14" y="74.090157"/>
      </g>
     </g>
     <g id="text_10">
      <!-- 150 -->
      <g style="fill:#262626;" transform="translate(31.178125 78.742735)scale(0.13 -0.13)">
       <use xlink:href="#ArialMT-49"/>
       <use x="55.615234" xlink:href="#ArialMT-53"/>
       <use x="111.230469" xlink:href="#ArialMT-48"/>
      </g>
     </g>
    </g>
    <g id="ytick_3">
     <g id="line2d_3">
      <g>
       <use style="fill:#262626;stroke:#262626;stroke-width:0.8;" x="59.865781" xlink:href="#m1aa21f8b14" y="22.512196"/>
      </g>
     </g>
     <g id="text_11">
      <!-- 200 -->
      <g style="fill:#262626;" transform="translate(31.178125 27.164774)scale(0.13 -0.13)">
       <use xlink:href="#ArialMT-50"/>
       <use x="55.615234" xlink:href="#ArialMT-48"/>
       <use x="111.230469" xlink:href="#ArialMT-48"/>
      </g>
     </g>
    </g>
    <g id="text_12">
     <!-- Mass Flow Rate (slm) -->
     <g style="fill:#262626;" transform="translate(24.231562 157.655703)rotate(-90)scale(0.14 -0.14)">
      <defs>
       <path d="M 7.421875 0 
L 7.421875 71.578125 
L 21.6875 71.578125 
L 38.625 20.90625 
Q 40.96875 13.8125 42.046875 10.296875 
Q 43.265625 14.203125 45.84375 21.78125 
L 62.984375 71.578125 
L 75.734375 71.578125 
L 75.734375 0 
L 66.609375 0 
L 66.609375 59.90625 
L 45.796875 0 
L 37.25 0 
L 16.546875 60.9375 
L 16.546875 0 
z
" id="ArialMT-77"/>
       <path d="M 8.203125 0 
L 8.203125 71.578125 
L 56.5 71.578125 
L 56.5 63.140625 
L 17.671875 63.140625 
L 17.671875 40.96875 
L 51.265625 40.96875 
L 51.265625 32.515625 
L 17.671875 32.515625 
L 17.671875 0 
z
" id="ArialMT-70"/>
       <path d="M 3.328125 25.921875 
Q 3.328125 40.328125 11.328125 47.265625 
Q 18.015625 53.03125 27.640625 53.03125 
Q 38.328125 53.03125 45.109375 46.015625 
Q 51.90625 39.015625 51.90625 26.65625 
Q 51.90625 16.65625 48.90625 10.90625 
Q 45.90625 5.171875 40.15625 2 
Q 34.421875 -1.171875 27.640625 -1.171875 
Q 16.75 -1.171875 10.03125 5.8125 
Q 3.328125 12.796875 3.328125 25.921875 
z
M 12.359375 25.921875 
Q 12.359375 15.96875 16.703125 11.015625 
Q 21.046875 6.0625 27.640625 6.0625 
Q 34.1875 6.0625 38.53125 11.03125 
Q 42.875 16.015625 42.875 26.21875 
Q 42.875 35.84375 38.5 40.796875 
Q 34.125 45.75 27.640625 45.75 
Q 21.046875 45.75 16.703125 40.8125 
Q 12.359375 35.890625 12.359375 25.921875 
z
" id="ArialMT-111"/>
       <path d="M 16.15625 0 
L 0.296875 51.859375 
L 9.375 51.859375 
L 17.625 21.921875 
L 20.703125 10.796875 
Q 20.90625 11.625 23.390625 21.484375 
L 31.640625 51.859375 
L 40.671875 51.859375 
L 48.4375 21.78125 
L 51.03125 11.859375 
L 54 21.875 
L 62.890625 51.859375 
L 71.4375 51.859375 
L 55.21875 0 
L 46.09375 0 
L 37.84375 31.0625 
L 35.84375 39.890625 
L 25.34375 0 
z
" id="ArialMT-119"/>
       <path d="M 7.859375 0 
L 7.859375 71.578125 
L 39.59375 71.578125 
Q 49.171875 71.578125 54.140625 69.640625 
Q 59.125 67.71875 62.109375 62.828125 
Q 65.09375 57.953125 65.09375 52.046875 
Q 65.09375 44.4375 60.15625 39.203125 
Q 55.21875 33.984375 44.921875 32.5625 
Q 48.6875 30.765625 50.640625 29 
Q 54.78125 25.203125 58.5 19.484375 
L 70.953125 0 
L 59.03125 0 
L 49.5625 14.890625 
Q 45.40625 21.34375 42.71875 24.75 
Q 40.046875 28.171875 37.921875 29.53125 
Q 35.796875 30.90625 33.59375 31.453125 
Q 31.984375 31.78125 28.328125 31.78125 
L 17.328125 31.78125 
L 17.328125 0 
z
M 17.328125 39.984375 
L 37.703125 39.984375 
Q 44.1875 39.984375 47.84375 41.328125 
Q 51.515625 42.671875 53.421875 45.625 
Q 55.328125 48.578125 55.328125 52.046875 
Q 55.328125 57.125 51.640625 60.390625 
Q 47.953125 63.671875 39.984375 63.671875 
L 17.328125 63.671875 
z
" id="ArialMT-82"/>
       <path d="M 25.78125 7.859375 
L 27.046875 0.09375 
Q 23.34375 -0.6875 20.40625 -0.6875 
Q 15.625 -0.6875 12.984375 0.828125 
Q 10.359375 2.34375 9.28125 4.8125 
Q 8.203125 7.28125 8.203125 15.1875 
L 8.203125 45.015625 
L 1.765625 45.015625 
L 1.765625 51.859375 
L 8.203125 51.859375 
L 8.203125 64.703125 
L 16.9375 69.96875 
L 16.9375 51.859375 
L 25.78125 51.859375 
L 25.78125 45.015625 
L 16.9375 45.015625 
L 16.9375 14.703125 
Q 16.9375 10.9375 17.40625 9.859375 
Q 17.875 8.796875 18.921875 8.15625 
Q 19.96875 7.515625 21.921875 7.515625 
Q 23.390625 7.515625 25.78125 7.859375 
z
" id="ArialMT-116"/>
      </defs>
      <use xlink:href="#ArialMT-77"/>
      <use x="83.300781" xlink:href="#ArialMT-97"/>
      <use x="138.916016" xlink:href="#ArialMT-115"/>
      <use x="188.916016" xlink:href="#ArialMT-115"/>
      <use x="238.916016" xlink:href="#ArialMT-32"/>
      <use x="266.699219" xlink:href="#ArialMT-70"/>
      <use x="327.783203" xlink:href="#ArialMT-108"/>
      <use x="350" xlink:href="#ArialMT-111"/>
      <use x="405.615234" xlink:href="#ArialMT-119"/>
      <use x="477.832031" xlink:href="#ArialMT-32"/>
      <use x="505.615234" xlink:href="#ArialMT-82"/>
      <use x="577.832031" xlink:href="#ArialMT-97"/>
      <use x="633.447266" xlink:href="#ArialMT-116"/>
      <use x="661.230469" xlink:href="#ArialMT-101"/>
      <use x="716.845703" xlink:href="#ArialMT-32"/>
      <use x="744.628906" xlink:href="#ArialMT-40"/>
      <use x="777.929688" xlink:href="#ArialMT-115"/>
      <use x="827.929688" xlink:href="#ArialMT-108"/>
      <use x="850.146484" xlink:href="#ArialMT-109"/>
      <use x="933.447266" xlink:href="#ArialMT-41"/>
     </g>
    </g>
   </g>
   <g id="line2d_4">
    <path clip-path="url(#p36b642b615)" d="M 74.059801 157.151305 
L 74.121366 155.583335 
L 74.532792 155.66586 
L 74.634676 155.387339 
L 74.94226 155.830909 
L 75.149055 156.078484 
L 75.250492 156.903731 
L 75.556725 155.077871 
L 75.763952 156.707735 
L 75.865113 155.366708 
L 76.173707 156.62521 
L 76.378566 154.696194 
L 76.688927 156.253849 
L 76.895499 156.852153 
L 76.997675 155.562704 
L 77.202396 156.315742 
L 77.304929 155.954696 
L 77.509161 156.594263 
L 77.817458 155.160396 
L 77.921025 155.903118 
L 78.126181 156.326058 
L 78.228649 155.820594 
L 78.538052 155.769016 
L 78.741469 157.130674 
L 78.845492 155.40797 
L 79.05159 155.459548 
L 79.258181 156.037221 
L 79.360978 157.099727 
L 79.668459 155.944381 
L 79.875282 156.006274 
L 79.978946 156.676788 
L 80.184892 156.594263 
L 80.288103 155.799963 
L 80.49207 156.594263 
L 80.595799 156.119746 
L 80.801826 156.594263 
L 81.108935 157.924975 
L 81.211805 155.727753 
L 81.41681 155.552388 
L 81.621788 155.696807 
L 81.723797 156.140377 
L 81.826976 157.202883 
L 82.035414 156.986256 
L 82.23874 157.14099 
L 82.342267 157.017202 
L 82.547632 157.502035 
L 82.650147 156.759313 
L 82.855686 156.676788 
L 82.95801 156.996571 
L 83.265589 155.944381 
L 83.779021 158.151918 
L 83.8807 156.10943 
L 84.085571 156.810891 
L 84.292681 157.017202 
L 84.396179 156.36732 
L 84.600984 155.985643 
L 84.704579 157.49172 
L 84.908593 157.646454 
L 85.012064 156.387951 
L 85.216178 156.181639 
L 85.317684 156.243533 
L 85.524581 155.851541 
L 85.627129 157.06878 
L 85.935069 156.491107 
L 86.139921 156.738681 
L 86.447163 155.851541 
L 86.651861 157.460773 
L 86.754729 155.872172 
L 86.858071 157.58456 
L 87.266113 156.357005 
L 87.367616 156.429214 
L 87.575546 158.409807 
L 87.678985 157.367933 
L 87.991365 156.078484 
L 88.201379 155.985643 
L 88.305218 156.986256 
L 88.617106 156.284795 
L 88.825025 156.852153 
L 88.927455 157.863081 
L 89.240014 156.449845 
L 89.446984 156.130061 
L 89.551246 156.656157 
L 89.759973 155.92375 
L 89.862565 159.028743 
L 90.172362 156.078484 
L 90.380609 156.583948 
L 90.585502 157.966237 
L 90.687943 157.182252 
L 90.894381 157.976552 
L 90.998309 155.696807 
L 91.201779 155.872172 
L 91.509365 157.883712 
L 91.823808 156.130061 
L 91.925905 156.97594 
L 92.132131 156.924362 
L 92.234536 155.593651 
L 92.54368 157.450457 
L 92.750616 157.759925 
L 92.852495 156.986256 
L 93.058417 156.645841 
L 93.366984 155.428601 
L 93.674136 151.343627 
L 93.879336 151.40552 
L 93.982984 149.22893 
L 94.290188 125.224547 
L 94.600457 120.355588 
L 94.805824 120.48969 
L 95.112305 119.210557 
L 95.317232 120.386535 
L 95.625201 118.03458 
L 95.728316 119.870755 
L 95.935312 118.529728 
L 96.037738 120.273063 
L 96.243774 118.189313 
L 96.345719 107.347626 
L 96.55151 103.685591 
L 96.654977 105.58366 
L 96.859579 104.397367 
L 96.961695 104.789359 
L 97.167175 102.623085 
L 97.372104 102.674663 
L 97.474035 103.654644 
L 97.577183 101.993834 
L 97.783244 102.963499 
L 97.987914 101.870047 
L 98.090148 103.768116 
L 98.295524 102.695294 
L 98.398134 101.302689 
L 98.603603 103.984743 
L 98.705664 103.891903 
L 98.910582 102.210461 
L 99.013491 102.788134 
L 99.21925 102.54056 
L 99.424199 103.634013 
L 99.52621 102.530244 
L 99.836494 102.963499 
L 100.040886 102.169199 
L 100.144504 103.438017 
L 100.350536 102.303301 
L 100.453078 103.582435 
L 100.659974 102.994446 
L 100.762764 102.117621 
L 101.073021 101.653419 
L 101.276962 103.087286 
L 101.482203 102.385826 
L 101.585457 100.198921 
L 101.790449 102.28267 
L 101.892864 100.683753 
L 102.096948 102.994446 
L 102.200363 101.313005 
L 102.406543 102.055727 
L 102.508762 101.436792 
L 102.714805 101.777206 
L 103.024291 103.706222 
L 103.126565 101.973202 
L 103.333782 101.343951 
L 103.436038 102.623085 
L 103.642181 102.365195 
L 103.847914 101.529632 
L 103.950626 101.797837 
L 104.157276 101.921625 
L 104.261246 102.70561 
L 104.467116 101.900993 
L 104.57153 103.345176 
L 104.775376 102.344564 
L 104.878049 103.964112 
L 105.28805 101.67405 
L 105.493818 102.860343 
L 105.698569 102.437404 
L 105.903945 101.034484 
L 106.007399 102.478667 
L 106.21322 101.766891 
L 106.314842 103.541173 
L 107.035368 100.085449 
L 107.138641 102.241408 
L 107.343825 103.046024 
L 107.650256 101.601841 
L 107.75309 102.684978 
L 107.956676 103.180127 
L 108.265455 101.117008 
L 108.367822 102.922237 
L 108.779782 100.188605 
L 108.880468 102.922237 
L 109.08638 100.921012 
L 109.190865 101.343951 
L 109.395756 103.530857 
L 109.498275 102.200146 
L 109.70288 102.911921 
L 109.805193 102.715925 
L 110.009896 101.529632 
L 110.11161 102.303301 
L 110.318529 101.694682 
L 110.529275 102.055727 
L 110.632656 102.571507 
L 110.835562 101.983518 
L 110.937649 100.167974 
L 111.143279 102.169199 
L 111.246668 101.364583 
L 111.452667 102.262039 
L 111.761058 100.260814 
L 111.8644 102.695294 
L 112.069875 101.653419 
L 112.37894 59.638012 
L 112.688389 61.928074 
L 112.894015 62.175648 
L 112.998424 60.762412 
L 113.202822 62.856477 
L 113.306604 61.298822 
L 113.513236 61.25756 
L 113.615801 62.21691 
L 113.822493 62.144701 
L 114.027696 62.351013 
L 114.131855 62.247857 
L 114.338562 61.309138 
L 114.442117 63.69204 
L 114.648397 63.485728 
L 114.750989 62.691427 
L 114.955009 62.361328 
L 115.058214 62.608903 
L 115.26307 63.475412 
L 115.366016 61.484503 
L 115.572042 61.721762 
L 115.674542 61.092511 
L 116.086203 62.959633 
L 116.189589 60.844936 
L 116.498385 60.587047 
L 116.703325 62.423222 
L 116.80688 61.917758 
L 117.011602 65.930523 
L 117.11416 61.25756 
L 117.319054 61.845549 
L 117.523177 62.815215 
L 117.830336 61.082195 
L 117.934362 63.712671 
L 118.140372 61.711446 
L 118.242814 63.145313 
L 118.449828 61.814602 
L 118.552872 64.434763 
L 118.758942 62.38196 
L 118.86213 62.856477 
L 119.066526 62.701743 
L 119.276199 64.55855 
L 119.378208 64.114979 
L 119.685769 60.844936 
L 119.890522 60.793358 
L 120.197106 63.021526 
L 120.299469 61.309138 
L 120.503659 61.628921 
L 120.708503 61.133773 
L 120.811749 62.897739 
L 121.01577 60.514837 
L 121.117307 63.465097 
L 121.321879 61.401978 
L 121.425518 63.042158 
L 121.629952 64.13561 
L 121.731708 62.247857 
L 121.937699 62.289119 
L 122.247124 62.547009 
L 122.452179 60.927461 
L 122.555677 61.732077 
L 122.863467 62.485116 
L 123.06916 63.134998 
L 123.17185 61.835233 
L 123.378737 61.77334 
L 123.583193 61.948705 
L 123.68572 63.52699 
L 123.892045 63.207207 
L 123.994966 61.340085 
L 124.201561 62.701743 
L 124.305825 62.38196 
L 124.508361 60.071267 
L 124.816506 62.278804 
L 124.918178 64.991805 
L 125.123013 63.640462 
L 125.432428 61.123457 
L 125.738054 62.629534 
L 125.943988 59.627697 
L 126.046262 62.03123 
L 126.3569 60.927461 
L 126.561881 60.793358 
L 126.664364 63.17626 
L 126.870217 60.968724 
L 127.074367 60.917146 
L 127.17684 64.249082 
L 127.38294 61.3504 
L 127.48635 61.680499 
L 127.691599 60.246632 
L 127.793952 61.401978 
L 127.999841 60.855252 
L 128.102713 61.247245 
L 128.308241 61.236929 
L 128.513766 61.907442 
L 128.61562 60.64894 
L 128.922856 62.392275 
L 129.128749 59.710221 
L 129.232454 60.844936 
L 129.436635 61.082195 
L 129.539735 60.617993 
L 129.744484 62.206595 
L 129.848004 61.567028 
L 130.053732 61.86618 
L 130.259472 61.42261 
L 130.362159 61.732077 
L 130.567809 60.948092 
L 130.877484 61.95902 
L 131.185761 47.702872 
L 131.288557 47.960762 
L 131.495559 49.208948 
L 131.699405 48.765378 
L 131.80136 52.097314 
L 132.006838 47.568769 
L 132.109476 48.311492 
L 132.316025 47.269617 
L 132.420434 49.239895 
L 132.627048 46.836362 
L 132.730167 48.466226 
L 132.937233 48.497173 
L 133.039807 49.41526 
L 133.450757 47.806028 
L 133.554937 46.134902 
L 133.761083 47.011727 
L 133.862662 42.79265 
L 134.06925 46.155533 
L 134.170968 44.71135 
L 134.378931 44.52567 
L 134.58409 45.567544 
L 134.995973 43.535373 
L 135.202209 46.846678 
L 135.304387 45.515966 
L 135.508596 45.650069 
L 135.611748 46.640366 
L 135.817013 46.619735 
L 135.921361 45.423126 
L 136.127409 44.824822 
L 136.332292 46.877625 
L 136.435618 45.258077 
L 136.640977 44.113046 
L 136.744216 45.866697 
L 136.95118 45.877012 
L 137.052731 46.011115 
L 137.258678 44.814506 
L 137.568187 45.877012 
L 137.773024 44.608194 
L 137.874672 46.155533 
L 138.185154 42.679179 
L 138.391059 45.196183 
L 138.494237 42.503814 
L 138.804809 46.681628 
L 139.011875 45.536598 
L 139.216394 45.371548 
L 139.320167 43.49411 
L 139.526107 48.002024 
L 139.628363 44.639141 
L 139.833836 45.949221 
L 139.937348 44.958924 
L 140.14214 47.114883 
L 140.34605 45.010502 
L 140.449812 45.258077 
L 140.654638 43.164011 
L 140.756487 47.527507 
L 141.064757 42.968015 
L 141.271581 45.350917 
L 141.580291 45.072396 
L 141.785951 44.546301 
L 141.887697 46.392792 
L 142.401272 43.700422 
L 142.504475 45.330286 
L 142.708708 43.071171 
L 142.913722 45.185867 
L 143.017057 44.226517 
L 143.220915 44.566932 
L 143.323634 43.545688 
L 143.528733 44.143993 
L 143.631624 45.412811 
L 143.839555 45.237445 
L 144.044876 43.473479 
L 144.1484 44.051152 
L 144.35375 45.866697 
L 144.457038 45.608807 
L 144.663623 46.176164 
L 144.971495 42.09119 
L 145.075347 44.391567 
L 145.280762 42.668863 
L 145.383526 44.391567 
L 145.588473 43.102118 
L 145.793852 45.732594 
L 145.897408 44.793875 
L 146.103816 45.526282 
L 146.206014 46.609419 
L 146.411013 41.637304 
L 146.716966 44.927978 
L 146.820378 45.660385 
L 147.025187 45.815119 
L 147.230379 43.576635 
L 147.334799 44.164624 
L 147.538695 41.864247 
L 147.6403 44.659772 
L 147.844357 44.339989 
L 147.947737 42.844228 
L 148.157575 43.473479 
L 148.357494 45.31997 
L 148.461307 43.473479 
L 148.767806 46.516579 
L 148.972046 45.526282 
L 149.07318 42.153083 
L 149.279323 42.710125 
L 149.3838 44.639141 
L 149.591288 45.268392 
L 149.801859 45.247761 
L 149.905738 44.948609 
L 150.220215 37.944322 
L 150.429546 37.903059 
L 150.534664 41.121524 
L 150.741156 38.026847 
L 150.84579 40.296277 
L 151.157397 38.521995 
L 151.364267 40.554167 
L 151.469092 38.140318 
L 151.678364 40.409748 
L 151.986939 39.336927 
L 152.297407 37.015918 
L 152.502762 37.232546 
L 152.604912 36.479508 
L 152.917067 38.542626 
L 153.122693 38.006215 
L 153.226111 39.264718 
L 153.43004 37.799903 
L 153.640116 40.647007 
L 153.949724 37.531698 
L 154.052485 37.820535 
L 154.258882 37.9959 
L 154.361935 36.273196 
L 154.672359 38.831463 
L 155.084403 36.42793 
L 155.185925 39.553554 
L 155.39199 36.479508 
L 155.494033 39.388505 
L 155.701191 38.7902 
L 155.803779 39.440083 
L 156.008646 38.305368 
L 156.111753 35.241637 
L 156.520885 39.017143 
L 156.623718 35.829625 
L 156.829694 36.912763 
L 156.931289 38.759254 
L 157.135806 38.006215 
L 157.238436 38.934619 
L 157.444571 38.573573 
L 157.548376 38.852094 
L 157.754139 38.748938 
L 157.958742 34.663963 
L 158.061547 38.975881 
L 158.268423 36.376352 
L 158.370244 37.820535 
L 158.576898 37.490436 
L 158.680658 37.872113 
L 158.887451 37.696748 
L 159.196502 34.777435 
L 159.402811 36.324774 
L 159.505258 35.427317 
L 159.712321 34.705226 
L 159.814224 37.067496 
L 160.021217 36.221618 
L 160.125211 37.603907 
L 160.330353 35.200374 
L 160.433764 37.490436 
L 160.639655 38.542626 
L 161.151672 35.571736 
L 161.255652 37.655485 
L 161.46479 37.315071 
L 161.566934 39.192508 
L 161.772362 34.416389 
L 162.079536 36.149409 
L 162.28474 40.234383 
L 162.388516 36.758029 
L 162.594633 34.839329 
L 162.697301 38.666413 
L 163.00502 35.499526 
L 163.212737 36.366036 
L 163.316278 36.324774 
L 163.521245 36.902447 
L 163.727291 35.571736 
L 163.829569 34.158499 
L 164.034779 37.665801 
L 164.138323 34.932169 
L 164.445491 36.180356 
L 164.650849 35.241637 
L 164.753504 39.904284 
L 164.959444 38.542626 
L 165.165898 37.934006 
L 165.26859 36.108146 
L 165.472772 34.612386 
L 165.577159 35.447948 
L 165.88727 36.61361 
L 166.092519 37.799903 
L 166.196065 36.273196 
L 166.402742 35.602682 
L 166.607925 38.460101 
L 166.709412 35.355108 
L 166.916295 32.930944 
L 167.020584 37.768957 
L 167.230573 37.64517 
L 167.332442 34.292602 
L 167.642333 35.860572 
L 167.849764 34.457652 
L 168.158006 36.304143 
L 168.363101 37.789588 
L 168.464707 36.737397 
L 168.669665 36.324774 
L 168.776008 35.509842 
L 168.977177 36.675504 
L 169.079193 36.355721 
L 169.287159 36.623926 
L 169.49248 32.77621 
L 169.595102 35.293215 
L 169.801699 35.664576 
L 169.904934 34.767119 
L 170.110507 37.820535 
L 170.213876 33.601457 
L 170.523305 36.603295 
L 170.729467 34.478283 
L 170.936215 33.570511 
L 171.037541 35.025009 
L 171.244372 32.33264 
L 171.348335 36.716766 
L 171.553296 35.994675 
L 171.657473 36.489823 
L 171.862498 34.457652 
L 171.964901 34.498914 
L 172.171298 35.159112 
L 172.377098 36.242249 
L 172.480135 35.21069 
L 172.684824 34.540176 
L 172.787128 35.839941 
L 172.991635 36.706451 
L 173.094609 34.529861 
L 173.301574 36.531086 
L 173.506357 34.973431 
L 173.608964 36.696135 
L 173.815912 33.426092 
L 173.918407 36.902447 
L 174.229131 32.095381 
L 174.43383 33.261043 
L 174.535087 36.283511 
L 174.739409 34.9528 
L 174.94499 35.11785 
L 175.046912 33.529248 
L 175.253238 36.448561 
L 175.355335 31.063822 
L 175.561172 37.73801 
L 175.664593 32.188221 
L 175.87075 33.044415 
L 175.974344 34.323549 
L 176.183008 34.220393 
L 176.388793 33.487986 
L 176.492641 32.435796 
L 176.698272 34.282287 
L 176.800046 33.859347 
L 177.004267 34.622701 
L 177.106863 37.758641 
L 177.313602 35.21069 
L 177.417772 31.342343 
L 177.622182 34.849644 
L 177.826865 34.746488 
L 177.929412 32.961891 
L 178.134612 36.572348 
L 178.442851 30.826563 
L 178.546161 32.879366 
L 178.751536 34.736173 
L 178.854996 32.095381 
L 179.064843 37.005603 
L 179.268771 32.86905 
L 179.371263 35.447948 
L 179.575767 30.238574 
L 179.67815 34.540176 
L 179.885454 34.323549 
L 180.297086 30.651198 
L 180.504262 33.106309 
L 180.708625 29.743426 
L 180.811767 34.364811 
L 181.119674 31.858122 
L 181.327642 37.552329 
L 181.637787 30.795616 
L 181.740151 31.022559 
L 181.946145 33.849032 
L 182.15067 31.920016 
L 182.253915 36.231933 
L 182.459938 37.696748 
L 182.768329 32.012856 
L 183.078415 37.449173 
L 183.182231 32.611161 
L 183.388186 36.438245 
L 183.696414 30.981297 
L 183.798979 34.674279 
L 184.004552 35.81931 
L 184.208553 39.863022 
L 184.311702 33.157887 
L 184.51727 31.878754 
L 184.62019 36.665188 
L 184.825054 32.16759 
L 185.030979 32.817472 
L 185.133679 31.631179 
L 185.444981 34.333865 
L 185.752456 35.808994 
L 186.061065 31.920016 
L 186.266247 30.609936 
L 186.471818 32.704001 
L 186.574767 32.652423 
L 186.779905 32.704001 
L 186.882658 30.754354 
L 187.085801 33.962503 
L 187.392248 32.342955 
L 187.596543 32.559583 
L 187.699113 34.096606 
L 187.904684 35.159112 
L 188.007585 34.457652 
L 188.213531 29.784688 
L 188.315943 32.580214 
L 188.52297 31.9097 
L 188.626486 34.9528 
L 188.830321 33.591142 
L 189.037048 34.179131 
L 189.140033 35.035325 
L 189.345809 33.487986 
L 189.447438 30.537727 
L 189.653558 34.767119 
L 189.756564 30.85751 
L 189.962641 32.415164 
L 190.066268 35.179743 
L 190.272225 33.302305 
L 190.478183 38.996512 
L 190.580733 30.960666 
L 190.78598 29.722795 
L 190.890242 32.77621 
L 191.095667 30.909088 
L 191.199312 31.105084 
L 191.404019 30.59962 
L 191.506516 34.550492 
L 191.713117 30.795616 
L 191.920428 36.964341 
L 192.023361 27.865988 
L 192.536999 38.542626 
L 192.639558 30.517095 
L 192.845811 30.434571 
L 192.948809 32.363586 
L 193.153185 31.538339 
L 193.361224 28.722182 
L 193.669199 30.76467 
L 193.773329 30.496464 
L 193.979741 33.230096 
L 194.081536 30.063209 
L 194.286207 34.096606 
L 194.59476 30.496464 
L 194.798914 32.838104 
L 194.90088 35.623314 
L 195.105703 29.702164 
L 195.208863 31.713704 
L 195.416933 31.37329 
L 195.52299 31.734335 
L 195.726178 31.445499 
L 196.034502 34.406074 
L 196.240427 30.76467 
L 196.343142 34.014081 
L 196.650437 32.848419 
L 196.856088 29.650586 
L 196.959082 31.218556 
L 197.163081 30.104472 
L 197.3671 32.662739 
L 197.470539 32.126328 
L 197.677232 35.190059 
L 197.780454 34.777435 
L 198.089408 31.837491 
L 198.395492 33.0341 
L 198.602639 35.56142 
L 198.807959 34.591754 
L 198.911368 34.767119 
L 199.115335 32.889682 
L 199.218838 37.407911 
L 199.428218 29.011019 
L 199.532123 31.528023 
L 199.739955 33.29199 
L 199.843324 36.819922 
L 200.048581 32.538951 
L 200.152812 34.684595 
L 200.360082 34.158499 
L 200.570151 37.015918 
L 200.672561 32.538951 
L 200.879187 32.322324 
L 200.982621 31.631179 
L 201.186738 32.879366 
L 201.289181 34.591754 
L 201.495027 34.633017 
L 201.597694 31.610548 
L 201.803512 35.953412 
L 202.316946 31.332027 
L 202.420431 30.713092 
L 202.932535 35.984359 
L 203.241501 31.197924 
L 203.448248 32.157275 
L 203.549645 34.447336 
L 203.756456 30.620251 
L 203.859473 39.264718 
L 204.066366 35.56142 
L 204.373488 37.211915 
L 204.578941 35.922466 
L 204.682217 28.123878 
L 204.989257 33.29199 
L 205.194755 31.084453 
L 205.299262 31.868438 
L 205.506128 30.24889 
L 205.607277 31.765282 
L 205.813706 31.486761 
L 206.019729 30.537727 
L 206.121509 32.26043 
L 206.328705 33.106309 
L 206.431523 34.932169 
L 206.63672 29.299856 
L 206.738111 29.599008 
L 207.046697 39.388505 
L 207.251169 34.416389 
L 207.457487 38.831463 
L 207.766723 29.908475 
L 208.075362 37.304755 
L 208.179077 36.943709 
L 208.385796 31.342343 
L 208.488322 32.054119 
L 208.69688 34.375127 
L 208.898191 28.969757 
L 209.001836 34.973431 
L 209.207876 32.054119 
L 209.310645 36.974656 
L 209.517414 31.992225 
L 209.620807 32.930944 
L 209.826886 36.747713 
L 209.929438 31.981909 
L 210.137045 28.897547 
L 210.342986 32.043803 
L 210.44571 30.919403 
L 210.652543 31.693073 
L 210.753835 31.435183 
L 210.960154 31.517708 
L 211.062546 34.529861 
L 211.268333 37.12939 
L 211.369729 35.458264 
L 211.573079 34.34418 
L 211.779493 31.662126 
L 211.884573 33.560195 
L 212.092079 32.157275 
L 212.196758 37.150021 
L 212.508288 30.682145 
L 212.717114 36.26288 
L 212.820635 35.633629 
L 213.026506 31.166978 
L 213.131287 33.952188 
L 213.336736 34.364811 
L 213.542916 36.788975 
L 213.95679 32.26043 
L 214.47332 38.717991 
L 214.576925 34.282287 
L 214.782073 34.942484 
L 214.992108 32.848419 
L 215.096823 32.86905 
L 215.303889 33.529248 
L 215.612048 36.283511 
L 215.716247 41.069946 
L 216.028034 30.393308 
L 216.336367 33.632404 
L 216.54178 28.856285 
L 216.750087 27.319262 
L 216.854577 33.745876 
L 217.060201 36.108146 
L 217.163333 29.341118 
L 217.470529 34.736173 
L 217.676439 32.559583 
L 217.779315 36.892131 
L 217.987174 32.827788 
L 218.193261 36.902447 
L 218.296657 31.455814 
L 218.50166 36.665188 
L 218.604801 31.878754 
L 218.809984 31.682757 
L 218.913139 34.777435 
L 219.222821 32.899997 
L 219.426539 33.188834 
L 219.634777 38.552942 
L 219.735547 33.271359 
L 219.941457 36.912763 
L 220.043843 28.701551 
L 220.250109 39.997125 
L 220.352855 36.025622 
L 220.661965 29.258593 
L 220.868867 35.91215 
L 221.384327 31.703389 
L 221.486525 34.467967 
L 221.794457 35.633629 
L 222.510744 30.671829 
L 222.612366 32.002541 
L 222.816134 37.562645 
L 222.919676 35.91215 
L 223.12777 39.56387 
L 223.230603 28.42303 
L 223.435261 30.589305 
L 223.639842 28.196087 
L 223.744647 37.511067 
L 224.054946 29.537114 
L 224.265576 32.652423 
L 224.368585 31.424868 
L 224.576632 31.486761 
L 224.680836 36.324774 
L 224.888658 32.714317 
L 224.991891 35.159112 
L 225.197996 30.795616 
L 225.301363 36.830238 
L 225.51141 32.765895 
L 225.710526 35.489211 
L 225.811165 30.991613 
L 226.017186 32.631792 
L 226.119705 27.948513 
L 226.325526 36.376352 
L 226.429541 30.69246 
L 226.63544 31.579601 
L 226.843467 33.147571 
L 226.947589 31.1154 
L 227.151824 31.290765 
L 227.254549 34.674279 
L 227.459941 32.322324 
L 227.563143 32.972206 
L 227.873667 33.436408 
L 228.079799 36.665188 
L 228.18155 36.510454 
L 228.388199 33.230096 
L 228.697461 31.9097 
L 228.903211 36.77866 
L 229.008109 29.475221 
L 229.21286 37.449173 
L 229.522586 29.89816 
L 229.72762 31.569286 
L 229.830953 27.082003 
L 230.036985 32.07475 
L 230.140367 28.866601 
L 230.44881 37.03655 
L 230.655684 32.724632 
L 230.758293 33.90061 
L 230.963643 30.434571 
L 231.170264 30.558358 
L 231.273252 32.724632 
L 231.477733 30.733723 
L 231.580925 34.055344 
L 231.785325 32.714317 
L 231.888475 35.829625 
L 232.095591 38.315683 
L 232.199153 37.005603 
L 232.404677 37.57296 
L 232.508701 33.333252 
L 232.714765 32.796841 
L 232.919207 34.014081 
L 233.023736 26.132969 
L 233.231939 35.458264 
L 233.33357 29.681532 
L 233.538358 35.726469 
L 233.641865 30.279837 
L 233.848672 31.455814 
L 233.952154 36.066884 
L 234.158227 34.849644 
L 234.364374 37.583276 
L 234.466529 36.355721 
L 234.671759 32.229484 
L 234.774305 32.270746 
L 234.981158 34.447336 
L 235.084281 34.137868 
L 235.291244 34.932169 
L 235.395079 32.910313 
L 235.599916 31.631179 
L 235.805079 32.16759 
L 235.907546 33.952188 
L 236.11353 33.921241 
L 236.21775 33.457039 
L 236.423958 31.053506 
L 236.526423 34.880591 
L 236.835814 31.899385 
L 237.040758 34.849644 
L 237.348749 30.774985 
L 237.556371 33.487986 
L 237.658434 30.785301 
L 237.864743 31.507392 
L 237.967286 33.766507 
L 238.1724 33.095993 
L 238.274737 29.73311 
L 238.481564 31.063822 
L 238.689706 37.614223 
L 238.791921 33.168203 
L 238.99787 33.374514 
L 239.102076 33.219781 
L 239.306408 33.704613 
L 239.409844 33.539564 
L 239.617134 34.798066 
L 239.928283 30.186996 
L 240.031883 32.42548 
L 240.237444 32.301693 
L 240.442751 31.579601 
L 240.545306 34.705226 
L 240.753449 28.711867 
L 240.856595 38.284736 
L 241.062989 28.856285 
L 241.165144 33.065047 
L 241.373047 32.363586 
L 241.578393 37.500751 
L 241.681832 31.796229 
L 241.989875 36.830238 
L 242.196837 31.713704 
L 242.504651 38.583888 
L 242.608753 31.796229 
L 243.022487 33.653035 
L 243.125493 31.094769 
L 243.330829 37.108759 
L 243.434352 33.972819 
L 243.641316 31.424868 
L 243.744491 33.859347 
L 244.054405 36.190671 
L 244.261476 35.509842 
L 244.365006 34.560808 
L 244.571057 30.362362 
L 244.777807 34.571123 
L 244.882285 34.261655 
L 245.089125 33.023784 
L 245.19189 25.37993 
L 245.501732 36.211302 
L 245.708992 36.046253 
L 245.810512 35.313846 
L 246.323916 28.546817 
L 246.530867 28.93881 
L 246.837607 34.674279 
L 246.941186 30.620251 
L 247.148164 35.974044 
L 247.251959 33.395146 
L 247.459372 33.230096 
L 247.562688 30.517095 
L 247.767712 38.552942 
L 247.972451 32.693685 
L 248.283074 35.375739 
L 248.387509 33.12694 
L 248.591659 36.231933 
L 248.694987 31.538339 
L 248.901127 32.394533 
L 249.209291 35.736785 
L 249.416209 29.011019 
L 249.519082 31.156662 
L 249.829342 28.031038 
L 250.139975 35.891519 
L 250.345736 33.364199 
L 250.653963 39.21314 
L 250.963221 34.148184 
L 251.167691 33.90061 
L 251.270326 33.178518 
L 251.476845 35.943097 
L 251.579641 34.581439 
L 251.785082 35.489211 
L 251.887983 30.888457 
L 252.093754 31.858122 
L 252.405383 35.974044 
L 252.508301 33.302305 
L 252.715059 36.603295 
L 252.920953 27.835041 
L 253.22986 31.950963 
L 253.333945 32.961891 
L 253.642473 29.299856 
L 253.850356 37.975269 
L 254.054891 33.044415 
L 254.468051 36.799291 
L 254.674623 29.021335 
L 254.777623 29.722795 
L 254.984776 35.736785 
L 255.298108 30.981297 
L 255.402379 30.620251 
L 255.816041 35.004378 
L 255.918873 27.453365 
L 256.127485 28.175456 
L 256.437615 32.68337 
L 256.747323 30.032263 
L 256.851288 34.25134 
L 257.266141 27.051056 
L 257.573645 38.099056 
L 257.676824 30.083841 
L 257.883319 30.671829 
L 258.295047 35.262268 
L 258.706994 29.1967 
L 258.810535 33.38483 
L 259.020753 30.919403 
L 259.124662 34.158499 
L 259.333485 36.665188 
L 259.437495 34.798066 
L 259.748823 32.404849 
L 259.958847 30.207628 
L 260.062137 35.716154 
L 260.375459 29.217331 
L 260.58416 29.660901 
L 260.792246 36.984972 
L 260.895511 29.454589 
L 261.099996 27.597783 
L 261.203848 34.560808 
L 261.411432 34.106921 
L 261.514299 31.239187 
L 261.724627 37.015918 
L 261.82947 32.889682 
L 262.035602 30.228259 
L 262.13819 35.56142 
L 262.346298 28.402399 
L 262.551456 36.8715 
L 262.653958 29.237962 
L 262.866515 34.839329 
L 262.970332 26.318649 
L 263.180147 39.099668 
L 263.283392 27.659676 
L 263.490913 27.092319 
L 263.79871 37.325386 
L 263.908978 30.826563 
L 264.213175 36.087515 
L 264.420735 37.03655 
L 264.732385 28.144509 
L 264.959254 29.011019 
L 265.063621 36.139093 
L 265.272235 34.055344 
L 265.376101 29.54743 
L 265.585248 39.65671 
L 265.688107 33.013469 
L 265.894871 33.890294 
L 265.998942 32.724632 
L 266.205962 28.701551 
L 266.308969 39.14093 
L 266.51589 34.395758 
L 266.618811 34.571123 
L 266.825061 32.239799 
L 267.032984 32.126328 
L 267.136226 30.331415 
L 267.342993 28.990388 
L 267.445193 30.85751 
L 267.653027 28.227034 
L 267.757855 35.406686 
L 267.969222 27.546205 
L 268.282189 31.125715 
L 268.387788 30.372677 
L 268.59223 35.489211 
L 268.800503 37.634854 
L 268.904905 33.250727 
L 269.115551 35.623314 
L 269.215356 30.207628 
L 269.424021 30.063209 
L 269.526365 30.609936 
L 269.733804 31.032875 
L 270.044349 33.333252 
L 270.357332 28.649973 
L 270.562149 30.682145 
L 270.66593 33.73556 
L 270.874162 32.920628 
L 270.976202 30.021947 
L 271.18346 32.373902 
L 271.495631 27.855673 
L 271.599635 32.879366 
L 271.908385 34.643332 
L 272.115582 30.661514 
L 272.323412 31.600233 
L 272.42738 30.609936 
L 272.633778 29.774373 
L 272.742034 31.30108 
L 272.947959 28.608711 
L 273.047682 31.589917 
L 273.25557 26.442436 
L 273.359572 34.241024 
L 273.671109 28.227034 
L 273.879406 28.196087 
L 274.08938 27.752517 
L 274.193282 32.755579 
L 274.399639 32.600845 
L 274.502956 33.364199 
L 274.816106 26.947901 
L 275.021834 37.490436 
L 275.127607 33.622089 
L 275.334841 32.033487 
L 275.437239 28.340505 
L 275.751014 34.333865 
L 275.955558 29.28954 
L 276.162572 31.992225 
L 276.267401 31.012244 
L 276.47524 31.579601 
L 276.578498 34.158499 
L 276.786563 29.516483 
L 276.889886 34.210077 
L 277.099213 27.298631 
L 277.202667 34.60207 
L 277.413084 34.375127 
L 277.516021 26.906638 
L 277.726471 30.475833 
L 277.831533 35.81931 
L 278.037524 32.342955 
L 278.248345 32.33264 
L 278.352244 31.37329 
L 278.557474 35.582051 
L 278.661964 34.467967 
L 278.869024 27.443049 
L 278.972483 28.536502 
L 279.179635 33.570511 
L 279.28332 28.453977 
L 279.490864 34.725857 
L 279.593372 33.261043 
L 280.007928 30.362362 
L 280.112781 29.052281 
L 280.42589 33.673667 
L 280.637402 33.457039 
L 280.742261 28.433346 
L 280.951188 26.287703 
L 281.054737 31.383605 
L 281.260461 32.755579 
L 281.364009 30.919403 
L 281.571539 35.860572 
L 281.778015 35.004378 
L 281.881541 33.622089 
L 282.088906 35.293215 
L 282.192576 31.105084 
L 282.396573 31.662126 
L 282.50017 31.37329 
L 282.707076 29.722795 
L 283.015788 40.997737 
L 283.119043 27.566836 
L 283.324076 33.302305 
L 283.426645 31.445499 
L 283.634157 38.047478 
L 283.840263 36.788975 
L 283.944512 30.836879 
L 284.151659 36.809607 
L 284.254315 29.165753 
L 284.4608 28.340505 
L 284.565016 35.664576 
L 284.769406 34.519545 
L 285.079077 30.723407 
L 285.285799 33.075362 
L 285.388655 37.356333 
L 285.593459 31.37329 
L 285.696911 37.315071 
L 285.903904 36.407299 
L 286.007452 31.30108 
L 286.216962 32.116012 
L 286.418294 36.242249 
L 286.521646 30.434571 
L 286.726014 33.776823 
L 286.829247 32.281062 
L 287.034439 27.381155 
L 287.1373 32.085065 
L 287.343129 34.271971 
L 287.447202 28.980072 
L 287.651237 29.062597 
L 287.858317 31.362974 
L 287.962319 29.54743 
L 288.166542 33.044415 
L 288.270252 28.93881 
L 288.477006 36.366036 
L 288.580858 34.973431 
L 288.787453 34.571123 
L 288.890699 31.136031 
L 289.098154 30.279837 
L 289.203008 37.242862 
L 289.411942 28.361137 
L 289.616855 30.548042 
L 289.720304 33.044415 
L 289.929757 33.611773 
L 290.034828 33.54988 
L 290.239961 36.706451 
L 290.343173 36.324774 
L 290.859842 31.528023 
L 291.067665 35.313846 
L 291.17217 29.918791 
L 291.378156 33.663351 
L 291.482164 30.537727 
L 291.68798 31.961278 
L 291.790919 31.507392 
L 291.995921 34.447336 
L 292.098635 30.321099 
L 292.305385 30.774985 
L 292.408825 32.920628 
L 292.615161 29.237962 
L 292.82121 29.887844 
L 292.925347 31.682757 
L 293.131297 30.723407 
L 293.234775 32.270746 
L 293.438951 29.991 
L 293.54215 30.207628 
L 293.748257 27.174844 
L 293.851682 32.312008 
L 294.056905 25.864763 
L 294.262679 30.063209 
L 294.36644 29.186384 
L 294.675531 35.808994 
L 294.880872 30.537727 
L 294.983114 33.353883 
L 295.394162 27.783463 
L 295.498585 31.218556 
L 295.70606 31.146347 
L 295.809193 31.404236 
L 296.014921 25.771923 
L 296.323318 35.004378 
L 296.427228 30.444886 
L 296.633526 26.886007 
L 296.737072 34.426705 
L 296.942331 31.796229 
L 297.149046 31.847807 
L 297.458665 35.81931 
L 297.561745 27.247053 
L 297.871363 35.190059 
L 298.077007 29.000703 
L 298.385902 36.035937 
L 298.694921 32.373902 
L 298.902189 26.576539 
L 299.005795 31.631179 
L 299.213884 30.878141 
L 299.316254 33.343568 
L 299.521184 29.784688 
L 299.623681 34.746488 
L 299.828615 30.568673 
L 300.035358 29.12449 
L 300.138691 36.108146 
L 300.345141 36.345405 
L 300.44804 30.228259 
L 300.653949 32.68337 
L 300.756936 32.270746 
L 300.963681 37.046865 
L 301.06644 32.466742 
L 301.270124 31.775598 
L 301.476741 29.970369 
L 301.579093 33.663351 
L 301.891897 31.734335 
L 302.098999 27.525574 
L 302.202475 36.097831 
L 302.408724 35.540789 
L 302.511554 28.794392 
L 302.717908 33.157887 
L 302.821183 32.487374 
L 303.029219 33.983134 
L 303.235376 26.999478 
L 303.541952 34.375127 
L 303.644554 30.331415 
L 303.849568 28.000091 
L 303.951964 29.1967 
L 304.159739 26.937585 
L 304.263026 31.981909 
L 304.468708 32.157275 
L 304.780661 29.052281 
L 304.987562 28.557133 
L 305.298214 35.375739 
L 305.40207 26.514646 
L 305.713391 29.320487 
L 305.921353 28.577764 
L 306.12819 28.546817 
L 306.440662 37.727694 
L 306.543964 31.362974 
L 306.743406 32.972206 
L 306.838213 29.258593 
L 307.04683 28.433346 
L 307.150801 35.097218 
L 307.356641 36.923078 
L 307.66446 27.185159 
L 307.873841 26.679695 
L 307.977987 25.648136 
L 308.287525 28.577764 
L 308.494086 38.821147 
L 308.597661 28.041353 
L 308.808957 30.723407 
L 308.90823 29.495852 
L 309.113973 36.706451 
L 309.422239 29.867213 
L 309.629036 29.062597 
L 309.732623 31.693073 
L 309.941786 28.845969 
L 310.253653 29.619639 
L 310.356932 28.010407 
L 310.564334 28.949125 
L 310.666199 27.298631 
L 310.874298 35.839941 
L 311.184525 29.712479 
L 311.39244 27.339893 
L 311.496446 31.290765 
L 311.703749 26.174231 
L 311.807358 31.332027 
L 312.014629 30.352046 
L 312.117737 26.483699 
L 312.326094 39.419451 
L 312.431836 31.486761 
L 312.636698 30.021947 
L 312.843141 31.713704 
L 312.946035 31.538339 
L 313.151843 35.736785 
L 313.256255 27.927882 
L 313.462575 26.824113 
L 313.566463 27.154212 
L 313.770925 28.856285 
L 313.874487 32.188221 
L 314.08116 26.937585 
L 314.287679 31.30108 
L 314.390532 27.247053 
L 314.596599 28.763445 
L 314.91039 34.529861 
L 315.013454 30.651198 
L 315.220319 29.537114 
L 315.323531 32.301693 
L 315.633082 27.81441 
L 315.840231 34.612386 
L 316.046035 29.052281 
L 316.150463 31.032875 
L 316.358233 29.815635 
L 316.461873 32.838104 
L 316.668632 29.949738 
L 316.771208 26.927269 
L 316.978337 29.960053 
L 317.082585 28.639658 
L 317.290371 33.673667 
L 317.392956 26.700326 
L 317.60205 28.58808 
L 317.705765 23.956379 
L 317.911708 38.645782 
L 318.431645 26.937585 
L 318.537079 31.930332 
L 318.743049 27.752517 
L 318.846535 30.713092 
L 319.053465 27.546205 
L 319.15641 33.756191 
L 319.365041 26.803482 
L 319.57025 33.818085 
L 319.674576 31.094769 
L 319.881828 29.578377 
L 319.986097 32.342955 
L 320.191898 24.379318 
L 320.296506 25.926657 
L 320.506377 26.359912 
L 320.609916 26.999478 
L 320.817245 25.266459 
L 320.921742 33.116625 
L 321.335795 26.989163 
L 321.438639 32.51832 
L 321.747361 28.020722 
L 321.954175 28.990388 
L 322.055971 30.413939 
L 322.264775 34.942484 
L 322.368668 31.971594 
L 322.575295 31.878754 
L 322.784391 29.54743 
L 322.886426 30.331415 
L 323.199711 33.157887 
L 323.406041 30.104472 
L 323.511241 31.940647 
L 323.718113 30.444886 
L 323.821724 34.179131 
L 324.028307 35.839941 
L 324.13015 32.116012 
L 324.33795 29.433958 
L 324.441029 36.221618 
L 324.956029 24.616577 
L 325.161908 27.72157 
L 325.26512 26.339281 
L 325.47142 27.040741 
L 325.575311 32.652423 
L 325.781771 25.80287 
L 325.988698 27.566836 
L 326.092921 27.092319 
L 326.299205 24.317424 
L 326.403111 30.486149 
L 326.60968 35.747101 
L 326.713926 27.97946 
L 326.920591 28.907863 
L 327.024579 31.992225 
L 327.22981 33.281674 
L 327.333858 29.846582 
L 327.540686 28.505555 
L 327.744842 24.111113 
L 327.952549 29.980685 
L 328.160153 28.897547 
L 328.366951 33.044415 
L 328.468293 29.650586 
L 328.676045 30.723407 
L 328.778218 29.619639 
L 328.985602 35.035325 
L 329.192778 26.215493 
L 329.295901 27.824726 
L 329.502633 25.761607 
L 329.60533 34.932169 
L 329.810213 29.991 
L 329.912973 30.640883 
L 330.120506 26.958216 
L 330.223842 30.713092 
L 330.429929 31.631179 
L 330.738041 25.771923 
L 330.942758 34.313233 
L 331.046773 28.753129 
L 331.253356 34.839329 
L 331.356585 25.37993 
L 331.561187 32.786526 
L 331.664811 29.980685 
L 331.871532 30.537727 
L 332.181119 27.11295 
L 332.284125 20.944226 
L 332.490756 27.659676 
L 332.696925 27.308946 
L 332.800539 27.473996 
L 333.007167 30.434571 
L 333.10938 26.989163 
L 333.316147 25.555296 
L 333.419112 30.785301 
L 333.625084 29.89816 
L 333.832443 30.403624 
L 333.936273 29.310171 
L 334.140456 24.06985 
L 334.24452 36.562032 
L 334.553136 25.441824 
L 334.763893 26.524961 
L 334.864679 25.483086 
L 335.280909 31.868438 
L 335.384263 29.227646 
L 335.591155 27.711254 
L 335.694424 28.031038 
L 335.901432 27.453365 
L 336.00695 24.647523 
L 336.21838 26.679695 
L 336.321841 32.549267 
L 336.532007 26.040128 
L 336.636183 29.960053 
L 336.95066 23.378706 
L 337.161273 31.992225 
L 337.267028 31.858122 
L 337.477318 28.092931 
L 337.582559 28.845969 
L 337.791893 31.259818 
L 338.003359 29.712479 
L 338.107781 32.838104 
L 338.318023 27.731886 
L 338.421574 31.569286 
L 338.632411 24.564999 
L 338.734923 29.299856 
L 338.941618 31.197924 
L 339.046127 25.730661 
L 339.253064 28.0723 
L 339.360451 25.885395 
L 339.564397 28.794392 
L 339.667504 23.904801 
L 339.873344 28.856285 
L 340.083889 28.42303 
L 340.188836 29.743426 
L 340.395436 25.359299 
L 340.500871 30.970981 
L 340.706415 28.701551 
L 340.808824 32.879366 
L 341.014857 30.919403 
L 341.116391 27.72157 
L 341.322371 30.702776 
L 341.425911 34.045028 
L 341.631895 26.958216 
L 341.837868 25.689398 
L 341.94006 30.290152 
L 342.147127 26.380543 
L 342.250576 27.37084 
L 342.458002 26.700326 
L 342.560795 29.227646 
L 342.768539 27.608098 
L 342.871133 28.887232 
L 343.077852 29.217331 
L 343.284044 32.312008 
L 343.388699 31.342343 
L 343.597685 28.288927 
L 343.701738 33.910925 
L 343.910122 27.37084 
L 344.012317 30.15605 
L 344.219433 27.927882 
L 344.322871 28.082616 
L 344.527939 33.611773 
L 344.632148 27.55652 
L 344.838516 24.946676 
L 345.149463 31.043191 
L 345.458418 26.1536 
L 345.769192 27.55652 
L 345.975799 28.278612 
L 346.078904 32.095381 
L 346.284366 28.866601 
L 346.489927 29.619639 
L 346.592348 26.968532 
L 346.800961 30.929719 
L 346.904842 23.770698 
L 347.113297 33.250727 
L 347.422603 23.327128 
L 347.526148 31.435183 
L 347.732469 24.090481 
L 347.837049 29.856898 
L 348.04323 27.587467 
L 348.250622 23.698489 
L 348.354965 30.269521 
L 348.459061 28.722182 
L 348.66671 29.980685 
L 348.873919 29.176068 
L 348.975987 25.28709 
L 349.181933 27.907251 
L 349.285995 26.700326 
L 349.488528 30.24889 
L 349.592025 25.018885 
L 349.798103 36.531086 
L 350.003121 26.06076 
L 350.309997 30.238574 
L 350.414045 25.10141 
L 350.724478 27.174844 
L 350.930229 31.1154 
L 351.033646 27.350209 
L 351.240851 28.897547 
L 351.445702 29.1967 
L 351.548433 22.780401 
L 351.753355 28.020722 
L 351.856796 26.751904 
L 352.063742 26.834429 
L 352.165266 32.095381 
L 352.373424 23.419968 
L 352.476514 28.443661 
L 352.685332 30.228259 
L 352.990421 26.349596 
L 353.301335 29.671217 
L 353.509298 29.671217 
L 353.610991 28.216718 
L 353.818978 27.226421 
L 353.922356 32.064434 
L 354.128841 27.577152 
L 354.333321 30.991613 
L 354.436716 27.009794 
L 354.642048 26.277387 
L 354.745037 27.319262 
L 354.950332 30.682145 
L 355.053523 27.504942 
L 355.260343 27.793779 
L 355.570943 24.410265 
L 355.878812 25.658451 
L 356.08781 26.380543 
L 356.190744 26.349596 
L 356.401617 34.241024 
L 356.500396 29.774373 
L 356.705987 27.030425 
L 356.808899 23.605649 
L 357.013702 23.36839 
L 357.223478 25.328353 
L 357.528301 31.342343 
L 357.634967 24.06985 
L 357.837325 30.496464 
L 357.940199 27.154212 
L 357.940199 27.154212 
" style="fill:none;stroke:#1f77b4;stroke-linecap:round;stroke-width:1.5;"/>
   </g>
   <g id="patch_3">
    <path d="M 59.865781 165.932969 
L 59.865781 14.04 
" style="fill:none;stroke:#262626;stroke-linecap:square;stroke-linejoin:miter;stroke-width:0.8;"/>
   </g>
   <g id="patch_4">
    <path d="M 372.134219 165.932969 
L 372.134219 14.04 
" style="fill:none;stroke:#262626;stroke-linecap:square;stroke-linejoin:miter;stroke-width:0.8;"/>
   </g>
   <g id="patch_5">
    <path d="M 59.865781 165.932969 
L 372.134219 165.932969 
" style="fill:none;stroke:#262626;stroke-linecap:square;stroke-linejoin:miter;stroke-width:0.8;"/>
   </g>
   <g id="patch_6">
    <path d="M 59.865781 14.04 
L 372.134219 14.04 
" style="fill:none;stroke:#262626;stroke-linecap:square;stroke-linejoin:miter;stroke-width:0.8;"/>
   </g>
   <g id="text_13">
    <!-- Mass Flow -->
    <g style="fill:#1f77b4;" transform="translate(74.059801 32.827788)scale(0.13 -0.13)">
     <use xlink:href="#ArialMT-77"/>
     <use x="83.300781" xlink:href="#ArialMT-97"/>
     <use x="138.916016" xlink:href="#ArialMT-115"/>
     <use x="188.916016" xlink:href="#ArialMT-115"/>
     <use x="238.916016" xlink:href="#ArialMT-32"/>
     <use x="266.699219" xlink:href="#ArialMT-70"/>
     <use x="327.783203" xlink:href="#ArialMT-108"/>
     <use x="350" xlink:href="#ArialMT-111"/>
     <use x="405.615234" xlink:href="#ArialMT-119"/>
    </g>
   </g>
  </g>
  <g id="axes_2">
   <g id="matplotlib.axis_3">
    <g id="ytick_4">
     <g id="line2d_5">
      <defs>
       <path d="M 0 0 
L 3.5 0 
" id="m6bfcaed244" style="stroke:#262626;stroke-width:0.8;"/>
      </defs>
      <g>
       <use style="fill:#262626;stroke:#262626;stroke-width:0.8;" x="372.134219" xlink:href="#m6bfcaed244" y="162.974015"/>
      </g>
     </g>
     <g id="text_14">
      <!-- 20 -->
      <g style="fill:#262626;" transform="translate(379.134219 167.626593)scale(0.13 -0.13)">
       <use xlink:href="#ArialMT-50"/>
       <use x="55.615234" xlink:href="#ArialMT-48"/>
      </g>
     </g>
    </g>
    <g id="ytick_5">
     <g id="line2d_6">
      <g>
       <use style="fill:#262626;stroke:#262626;stroke-width:0.8;" x="372.134219" xlink:href="#m6bfcaed244" y="127.466568"/>
      </g>
     </g>
     <g id="text_15">
      <!-- 40 -->
      <g style="fill:#262626;" transform="translate(379.134219 132.119146)scale(0.13 -0.13)">
       <defs>
        <path d="M 32.328125 0 
L 32.328125 17.140625 
L 1.265625 17.140625 
L 1.265625 25.203125 
L 33.9375 71.578125 
L 41.109375 71.578125 
L 41.109375 25.203125 
L 50.78125 25.203125 
L 50.78125 17.140625 
L 41.109375 17.140625 
L 41.109375 0 
z
M 32.328125 25.203125 
L 32.328125 57.46875 
L 9.90625 25.203125 
z
" id="ArialMT-52"/>
       </defs>
       <use xlink:href="#ArialMT-52"/>
       <use x="55.615234" xlink:href="#ArialMT-48"/>
      </g>
     </g>
    </g>
    <g id="ytick_6">
     <g id="line2d_7">
      <g>
       <use style="fill:#262626;stroke:#262626;stroke-width:0.8;" x="372.134219" xlink:href="#m6bfcaed244" y="91.95912"/>
      </g>
     </g>
     <g id="text_16">
      <!-- 60 -->
      <g style="fill:#262626;" transform="translate(379.134219 96.611698)scale(0.13 -0.13)">
       <defs>
        <path d="M 49.75 54.046875 
L 41.015625 53.375 
Q 39.84375 58.546875 37.703125 60.890625 
Q 34.125 64.65625 28.90625 64.65625 
Q 24.703125 64.65625 21.53125 62.3125 
Q 17.390625 59.28125 14.984375 53.46875 
Q 12.59375 47.65625 12.5 36.921875 
Q 15.671875 41.75 20.265625 44.09375 
Q 24.859375 46.4375 29.890625 46.4375 
Q 38.671875 46.4375 44.84375 39.96875 
Q 51.03125 33.5 51.03125 23.25 
Q 51.03125 16.5 48.125 10.71875 
Q 45.21875 4.9375 40.140625 1.859375 
Q 35.0625 -1.21875 28.609375 -1.21875 
Q 17.625 -1.21875 10.6875 6.859375 
Q 3.765625 14.9375 3.765625 33.5 
Q 3.765625 54.25 11.421875 63.671875 
Q 18.109375 71.875 29.4375 71.875 
Q 37.890625 71.875 43.28125 67.140625 
Q 48.6875 62.40625 49.75 54.046875 
z
M 13.875 23.1875 
Q 13.875 18.65625 15.796875 14.5 
Q 17.71875 10.359375 21.1875 8.171875 
Q 24.65625 6 28.46875 6 
Q 34.03125 6 38.03125 10.484375 
Q 42.046875 14.984375 42.046875 22.703125 
Q 42.046875 30.125 38.078125 34.390625 
Q 34.125 38.671875 28.125 38.671875 
Q 22.171875 38.671875 18.015625 34.390625 
Q 13.875 30.125 13.875 23.1875 
z
" id="ArialMT-54"/>
       </defs>
       <use xlink:href="#ArialMT-54"/>
       <use x="55.615234" xlink:href="#ArialMT-48"/>
      </g>
     </g>
    </g>
    <g id="ytick_7">
     <g id="line2d_8">
      <g>
       <use style="fill:#262626;stroke:#262626;stroke-width:0.8;" x="372.134219" xlink:href="#m6bfcaed244" y="56.451673"/>
      </g>
     </g>
     <g id="text_17">
      <!-- 80 -->
      <g style="fill:#262626;" transform="translate(379.134219 61.104251)scale(0.13 -0.13)">
       <defs>
        <path d="M 17.671875 38.8125 
Q 12.203125 40.828125 9.5625 44.53125 
Q 6.9375 48.25 6.9375 53.421875 
Q 6.9375 61.234375 12.546875 66.546875 
Q 18.171875 71.875 27.484375 71.875 
Q 36.859375 71.875 42.578125 66.421875 
Q 48.296875 60.984375 48.296875 53.171875 
Q 48.296875 48.1875 45.671875 44.5 
Q 43.0625 40.828125 37.75 38.8125 
Q 44.34375 36.671875 47.78125 31.875 
Q 51.21875 27.09375 51.21875 20.453125 
Q 51.21875 11.28125 44.71875 5.03125 
Q 38.234375 -1.21875 27.640625 -1.21875 
Q 17.046875 -1.21875 10.546875 5.046875 
Q 4.046875 11.328125 4.046875 20.703125 
Q 4.046875 27.6875 7.59375 32.390625 
Q 11.140625 37.109375 17.671875 38.8125 
z
M 15.921875 53.71875 
Q 15.921875 48.640625 19.1875 45.40625 
Q 22.46875 42.1875 27.6875 42.1875 
Q 32.765625 42.1875 36.015625 45.375 
Q 39.265625 48.578125 39.265625 53.21875 
Q 39.265625 58.0625 35.90625 61.359375 
Q 32.5625 64.65625 27.59375 64.65625 
Q 22.5625 64.65625 19.234375 61.421875 
Q 15.921875 58.203125 15.921875 53.71875 
z
M 13.09375 20.65625 
Q 13.09375 16.890625 14.875 13.375 
Q 16.65625 9.859375 20.171875 7.921875 
Q 23.6875 6 27.734375 6 
Q 34.03125 6 38.125 10.046875 
Q 42.234375 14.109375 42.234375 20.359375 
Q 42.234375 26.703125 38.015625 30.859375 
Q 33.796875 35.015625 27.4375 35.015625 
Q 21.234375 35.015625 17.15625 30.90625 
Q 13.09375 26.8125 13.09375 20.65625 
z
" id="ArialMT-56"/>
       </defs>
       <use xlink:href="#ArialMT-56"/>
       <use x="55.615234" xlink:href="#ArialMT-48"/>
      </g>
     </g>
    </g>
    <g id="ytick_8">
     <g id="line2d_9">
      <g>
       <use style="fill:#262626;stroke:#262626;stroke-width:0.8;" x="372.134219" xlink:href="#m6bfcaed244" y="20.944226"/>
      </g>
     </g>
     <g id="text_18">
      <!-- 100 -->
      <g style="fill:#262626;" transform="translate(379.134219 25.596804)scale(0.13 -0.13)">
       <use xlink:href="#ArialMT-49"/>
       <use x="55.615234" xlink:href="#ArialMT-48"/>
       <use x="111.230469" xlink:href="#ArialMT-48"/>
      </g>
     </g>
    </g>
    <g id="text_19">
     <!-- Valve Position (% open) -->
     <g style="fill:#262626;" transform="translate(415.013437 164.173359)rotate(-90)scale(0.14 -0.14)">
      <defs>
       <path d="M 28.171875 0 
L 0.4375 71.578125 
L 10.6875 71.578125 
L 29.296875 19.578125 
Q 31.546875 13.328125 33.0625 7.859375 
Q 34.71875 13.71875 36.921875 19.578125 
L 56.25 71.578125 
L 65.921875 71.578125 
L 37.890625 0 
z
" id="ArialMT-86"/>
       <path d="M 21 0 
L 1.265625 51.859375 
L 10.546875 51.859375 
L 21.6875 20.796875 
Q 23.484375 15.765625 25 10.359375 
Q 26.171875 14.453125 28.265625 20.21875 
L 39.796875 51.859375 
L 48.828125 51.859375 
L 29.203125 0 
z
" id="ArialMT-118"/>
       <path d="M 7.71875 0 
L 7.71875 71.578125 
L 34.71875 71.578125 
Q 41.84375 71.578125 45.609375 70.90625 
Q 50.875 70.015625 54.4375 67.546875 
Q 58.015625 65.09375 60.1875 60.640625 
Q 62.359375 56.203125 62.359375 50.875 
Q 62.359375 41.75 56.546875 35.421875 
Q 50.734375 29.109375 35.546875 29.109375 
L 17.1875 29.109375 
L 17.1875 0 
z
M 17.1875 37.546875 
L 35.6875 37.546875 
Q 44.875 37.546875 48.734375 40.96875 
Q 52.59375 44.390625 52.59375 50.59375 
Q 52.59375 55.078125 50.3125 58.265625 
Q 48.046875 61.46875 44.34375 62.5 
Q 41.9375 63.140625 35.5 63.140625 
L 17.1875 63.140625 
z
" id="ArialMT-80"/>
       <path d="M 6.59375 0 
L 6.59375 51.859375 
L 14.5 51.859375 
L 14.5 44.484375 
Q 20.21875 53.03125 31 53.03125 
Q 35.6875 53.03125 39.625 51.34375 
Q 43.5625 49.65625 45.515625 46.921875 
Q 47.46875 44.1875 48.25 40.4375 
Q 48.734375 37.984375 48.734375 31.890625 
L 48.734375 0 
L 39.9375 0 
L 39.9375 31.546875 
Q 39.9375 36.921875 38.90625 39.578125 
Q 37.890625 42.234375 35.28125 43.8125 
Q 32.671875 45.40625 29.15625 45.40625 
Q 23.53125 45.40625 19.453125 41.84375 
Q 15.375 38.28125 15.375 28.328125 
L 15.375 0 
z
" id="ArialMT-110"/>
       <path d="M 5.8125 54.390625 
Q 5.8125 62.0625 9.671875 67.421875 
Q 13.53125 72.796875 20.84375 72.796875 
Q 27.59375 72.796875 32 67.984375 
Q 36.421875 63.1875 36.421875 53.859375 
Q 36.421875 44.78125 31.953125 39.875 
Q 27.484375 34.96875 20.953125 34.96875 
Q 14.453125 34.96875 10.125 39.796875 
Q 5.8125 44.625 5.8125 54.390625 
z
M 21.09375 66.75 
Q 17.828125 66.75 15.65625 63.90625 
Q 13.484375 61.078125 13.484375 53.515625 
Q 13.484375 46.625 15.671875 43.8125 
Q 17.875 41.015625 21.09375 41.015625 
Q 24.421875 41.015625 26.59375 43.84375 
Q 28.765625 46.6875 28.765625 54.203125 
Q 28.765625 61.140625 26.5625 63.9375 
Q 24.359375 66.75 21.09375 66.75 
z
M 21.140625 -2.640625 
L 60.296875 72.796875 
L 67.4375 72.796875 
L 28.421875 -2.640625 
z
M 52.09375 16.796875 
Q 52.09375 24.515625 55.953125 29.859375 
Q 59.8125 35.203125 67.1875 35.203125 
Q 73.921875 35.203125 78.34375 30.390625 
Q 82.765625 25.59375 82.765625 16.265625 
Q 82.765625 7.171875 78.296875 2.265625 
Q 73.828125 -2.640625 67.234375 -2.640625 
Q 60.75 -2.640625 56.421875 2.21875 
Q 52.09375 7.078125 52.09375 16.796875 
z
M 67.4375 29.15625 
Q 64.109375 29.15625 61.9375 26.3125 
Q 59.765625 23.484375 59.765625 15.921875 
Q 59.765625 9.078125 61.953125 6.25 
Q 64.15625 3.421875 67.390625 3.421875 
Q 70.75 3.421875 72.921875 6.25 
Q 75.09375 9.078125 75.09375 16.609375 
Q 75.09375 23.53125 72.890625 26.34375 
Q 70.703125 29.15625 67.4375 29.15625 
z
" id="ArialMT-37"/>
      </defs>
      <use xlink:href="#ArialMT-86"/>
      <use x="59.324219" xlink:href="#ArialMT-97"/>
      <use x="114.939453" xlink:href="#ArialMT-108"/>
      <use x="137.15625" xlink:href="#ArialMT-118"/>
      <use x="187.15625" xlink:href="#ArialMT-101"/>
      <use x="242.771484" xlink:href="#ArialMT-32"/>
      <use x="270.554688" xlink:href="#ArialMT-80"/>
      <use x="337.253906" xlink:href="#ArialMT-111"/>
      <use x="392.869141" xlink:href="#ArialMT-115"/>
      <use x="442.869141" xlink:href="#ArialMT-105"/>
      <use x="465.085938" xlink:href="#ArialMT-116"/>
      <use x="492.869141" xlink:href="#ArialMT-105"/>
      <use x="515.085938" xlink:href="#ArialMT-111"/>
      <use x="570.701172" xlink:href="#ArialMT-110"/>
      <use x="626.316406" xlink:href="#ArialMT-32"/>
      <use x="654.099609" xlink:href="#ArialMT-40"/>
      <use x="687.400391" xlink:href="#ArialMT-37"/>
      <use x="776.316406" xlink:href="#ArialMT-32"/>
      <use x="804.099609" xlink:href="#ArialMT-111"/>
      <use x="859.714844" xlink:href="#ArialMT-112"/>
      <use x="915.330078" xlink:href="#ArialMT-101"/>
      <use x="970.945312" xlink:href="#ArialMT-110"/>
      <use x="1026.560547" xlink:href="#ArialMT-41"/>
     </g>
    </g>
   </g>
   <g id="line2d_10">
    <path clip-path="url(#p36b642b615)" d="M 74.059801 159.028743 
L 92.852495 159.028743 
L 93.058417 149.165563 
L 111.761058 149.165563 
L 111.8644 139.302383 
L 130.671259 139.302383 
L 130.979299 129.439204 
L 149.591288 129.439204 
L 149.905738 119.576024 
L 168.464707 119.576024 
L 168.776008 109.712844 
L 187.392248 109.712844 
L 187.699113 99.849664 
L 206.431523 99.849664 
L 206.738111 89.986484 
L 225.301363 89.986484 
L 225.51141 80.123305 
L 244.365006 80.123305 
L 244.571057 70.260125 
L 263.283392 70.260125 
L 263.59587 60.396945 
L 282.192576 60.396945 
L 282.50017 50.533765 
L 301.06644 50.533765 
L 301.270124 40.670585 
L 319.986097 40.670585 
L 320.296506 30.807406 
L 339.046127 30.807406 
L 339.360451 20.944226 
L 357.940199 20.944226 
L 357.940199 20.944226 
" style="fill:none;stroke:#ff7f0e;stroke-linecap:round;stroke-width:1.5;"/>
   </g>
   <g id="patch_7">
    <path d="M 59.865781 165.932969 
L 59.865781 14.04 
" style="fill:none;stroke:#262626;stroke-linecap:square;stroke-linejoin:miter;stroke-width:0.8;"/>
   </g>
   <g id="patch_8">
    <path d="M 372.134219 165.932969 
L 372.134219 14.04 
" style="fill:none;stroke:#262626;stroke-linecap:square;stroke-linejoin:miter;stroke-width:0.8;"/>
   </g>
   <g id="patch_9">
    <path d="M 59.865781 165.932969 
L 372.134219 165.932969 
" style="fill:none;stroke:#262626;stroke-linecap:square;stroke-linejoin:miter;stroke-width:0.8;"/>
   </g>
   <g id="patch_10">
    <path d="M 59.865781 14.04 
L 372.134219 14.04 
" style="fill:none;stroke:#262626;stroke-linecap:square;stroke-linejoin:miter;stroke-width:0.8;"/>
   </g>
   <g id="text_20">
    <!-- Valve Position -->
    <g style="fill:#ff7f0e;" transform="translate(215.715523 109.712844)scale(0.13 -0.13)">
     <use xlink:href="#ArialMT-86"/>
     <use x="59.324219" xlink:href="#ArialMT-97"/>
     <use x="114.939453" xlink:href="#ArialMT-108"/>
     <use x="137.15625" xlink:href="#ArialMT-118"/>
     <use x="187.15625" xlink:href="#ArialMT-101"/>
     <use x="242.771484" xlink:href="#ArialMT-32"/>
     <use x="270.554688" xlink:href="#ArialMT-80"/>
     <use x="337.253906" xlink:href="#ArialMT-111"/>
     <use x="392.869141" xlink:href="#ArialMT-115"/>
     <use x="442.869141" xlink:href="#ArialMT-105"/>
     <use x="465.085938" xlink:href="#ArialMT-116"/>
     <use x="492.869141" xlink:href="#ArialMT-105"/>
     <use x="515.085938" xlink:href="#ArialMT-111"/>
     <use x="570.701172" xlink:href="#ArialMT-110"/>
    </g>
   </g>
  </g>
 </g>
 <defs>
  <clipPath id="p36b642b615">
   <rect height="151.892969" width="312.268438" x="59.865781" y="14.04"/>
  </clipPath>
 </defs>
</svg>
