<?xml version="1.0" encoding="utf-8" standalone="no"?>
<!DOCTYPE svg PUBLIC "-//W3C//DTD SVG 1.1//EN"
  "http://www.w3.org/Graphics/SVG/1.1/DTD/svg11.dtd">
<!-- Created with matplotlib (https://matplotlib.org/) -->
<svg height="216pt" version="1.1" viewBox="0 0 432 216" width="432pt" xmlns="http://www.w3.org/2000/svg" xmlns:xlink="http://www.w3.org/1999/xlink">
 <metadata>
  <rdf:RDF xmlns:cc="http://creativecommons.org/ns#" xmlns:dc="http://purl.org/dc/elements/1.1/" xmlns:rdf="http://www.w3.org/1999/02/22-rdf-syntax-ns#">
   <cc:Work>
    <dc:type rdf:resource="http://purl.org/dc/dcmitype/StillImage"/>
    <dc:date>2022-03-12T14:09:18.506124</dc:date>
    <dc:format>image/svg+xml</dc:format>
    <dc:creator>
     <cc:Agent>
      <dc:title>Matplotlib v3.3.4, https://matplotlib.org/</dc:title>
     </cc:Agent>
    </dc:creator>
   </cc:Work>
  </rdf:RDF>
 </metadata>
 <defs>
  <style type="text/css">*{stroke-linecap:butt;stroke-linejoin:round;}</style>
 </defs>
 <g id="figure_1">
  <g id="patch_1">
   <path d="M 0 216 
L 432 216 
L 432 0 
L 0 0 
z
" style="fill:#ffffff;"/>
  </g>
  <g id="axes_1">
   <g id="patch_2">
    <path d="M 59.865781 165.932969 
L 372.134219 165.932969 
L 372.134219 18.692578 
L 59.865781 18.692578 
z
" style="fill:#ffffff;"/>
   </g>
   <g id="matplotlib.axis_1">
    <g id="xtick_1">
     <g id="text_1">
      <!-- 0 -->
      <g style="fill:#262626;" transform="translate(70.217452 182.238125)scale(0.13 -0.13)">
       <defs>
        <path d="M 4.15625 35.296875 
Q 4.15625 48 6.765625 55.734375 
Q 9.375 63.484375 14.515625 67.671875 
Q 19.671875 71.875 27.484375 71.875 
Q 33.25 71.875 37.59375 69.546875 
Q 41.9375 67.234375 44.765625 62.859375 
Q 47.609375 58.5 49.21875 52.21875 
Q 50.828125 45.953125 50.828125 35.296875 
Q 50.828125 22.703125 48.234375 14.96875 
Q 45.65625 7.234375 40.5 3 
Q 35.359375 -1.21875 27.484375 -1.21875 
Q 17.140625 -1.21875 11.234375 6.203125 
Q 4.15625 15.140625 4.15625 35.296875 
z
M 13.1875 35.296875 
Q 13.1875 17.671875 17.3125 11.828125 
Q 21.4375 6 27.484375 6 
Q 33.546875 6 37.671875 11.859375 
Q 41.796875 17.71875 41.796875 35.296875 
Q 41.796875 52.984375 37.671875 58.78125 
Q 33.546875 64.59375 27.390625 64.59375 
Q 21.34375 64.59375 17.71875 59.46875 
Q 13.1875 52.9375 13.1875 35.296875 
z
" id="ArialMT-48"/>
       </defs>
       <use xlink:href="#ArialMT-48"/>
      </g>
     </g>
    </g>
    <g id="xtick_2">
     <g id="text_2">
      <!-- 25 -->
      <g style="fill:#262626;" transform="translate(113.950213 182.238125)scale(0.13 -0.13)">
       <defs>
        <path d="M 50.34375 8.453125 
L 50.34375 0 
L 3.03125 0 
Q 2.9375 3.171875 4.046875 6.109375 
Q 5.859375 10.9375 9.828125 15.625 
Q 13.8125 20.3125 21.34375 26.46875 
Q 33.015625 36.03125 37.109375 41.625 
Q 41.21875 47.21875 41.21875 52.203125 
Q 41.21875 57.421875 37.46875 61 
Q 33.734375 64.59375 27.734375 64.59375 
Q 21.390625 64.59375 17.578125 60.78125 
Q 13.765625 56.984375 13.71875 50.25 
L 4.6875 51.171875 
Q 5.609375 61.28125 11.65625 66.578125 
Q 17.71875 71.875 27.9375 71.875 
Q 38.234375 71.875 44.234375 66.15625 
Q 50.25 60.453125 50.25 52 
Q 50.25 47.703125 48.484375 43.546875 
Q 46.734375 39.40625 42.65625 34.8125 
Q 38.578125 30.21875 29.109375 22.21875 
Q 21.1875 15.578125 18.9375 13.203125 
Q 16.703125 10.84375 15.234375 8.453125 
z
" id="ArialMT-50"/>
        <path d="M 4.15625 18.75 
L 13.375 19.53125 
Q 14.40625 12.796875 18.140625 9.390625 
Q 21.875 6 27.15625 6 
Q 33.5 6 37.890625 10.78125 
Q 42.28125 15.578125 42.28125 23.484375 
Q 42.28125 31 38.0625 35.34375 
Q 33.84375 39.703125 27 39.703125 
Q 22.75 39.703125 19.328125 37.765625 
Q 15.921875 35.84375 13.96875 32.765625 
L 5.71875 33.84375 
L 12.640625 70.609375 
L 48.25 70.609375 
L 48.25 62.203125 
L 19.671875 62.203125 
L 15.828125 42.96875 
Q 22.265625 47.46875 29.34375 47.46875 
Q 38.71875 47.46875 45.15625 40.96875 
Q 51.609375 34.46875 51.609375 24.265625 
Q 51.609375 14.546875 45.953125 7.46875 
Q 39.0625 -1.21875 27.15625 -1.21875 
Q 17.390625 -1.21875 11.203125 4.25 
Q 5.03125 9.71875 4.15625 18.75 
z
" id="ArialMT-53"/>
       </defs>
       <use xlink:href="#ArialMT-50"/>
       <use x="55.615234" xlink:href="#ArialMT-53"/>
      </g>
     </g>
    </g>
    <g id="xtick_3">
     <g id="text_3">
      <!-- 50 -->
      <g style="fill:#262626;" transform="translate(161.297582 182.238125)scale(0.13 -0.13)">
       <use xlink:href="#ArialMT-53"/>
       <use x="55.615234" xlink:href="#ArialMT-48"/>
      </g>
     </g>
    </g>
    <g id="xtick_4">
     <g id="text_4">
      <!-- 75 -->
      <g style="fill:#262626;" transform="translate(208.644952 182.238125)scale(0.13 -0.13)">
       <defs>
        <path d="M 4.734375 62.203125 
L 4.734375 70.65625 
L 51.078125 70.65625 
L 51.078125 63.8125 
Q 44.234375 56.546875 37.515625 44.484375 
Q 30.8125 32.421875 27.15625 19.671875 
Q 24.515625 10.6875 23.78125 0 
L 14.75 0 
Q 14.890625 8.453125 18.0625 20.40625 
Q 21.234375 32.375 27.171875 43.484375 
Q 33.109375 54.59375 39.796875 62.203125 
z
" id="ArialMT-55"/>
       </defs>
       <use xlink:href="#ArialMT-55"/>
       <use x="55.615234" xlink:href="#ArialMT-53"/>
      </g>
     </g>
    </g>
    <g id="xtick_5">
     <g id="text_5">
      <!-- 100 -->
      <g style="fill:#262626;" transform="translate(252.377713 182.238125)scale(0.13 -0.13)">
       <defs>
        <path d="M 37.25 0 
L 28.46875 0 
L 28.46875 56 
Q 25.296875 52.984375 20.140625 49.953125 
Q 14.984375 46.921875 10.890625 45.40625 
L 10.890625 53.90625 
Q 18.265625 57.375 23.78125 62.296875 
Q 29.296875 67.234375 31.59375 71.875 
L 37.25 71.875 
z
" id="ArialMT-49"/>
       </defs>
       <use xlink:href="#ArialMT-49"/>
       <use x="55.615234" xlink:href="#ArialMT-48"/>
       <use x="111.230469" xlink:href="#ArialMT-48"/>
      </g>
     </g>
    </g>
    <g id="xtick_6">
     <g id="text_6">
      <!-- 125 -->
      <g style="fill:#262626;" transform="translate(299.725082 182.238125)scale(0.13 -0.13)">
       <use xlink:href="#ArialMT-49"/>
       <use x="55.615234" xlink:href="#ArialMT-50"/>
       <use x="111.230469" xlink:href="#ArialMT-53"/>
      </g>
     </g>
    </g>
    <g id="xtick_7">
     <g id="text_7">
      <!-- 150 -->
      <g style="fill:#262626;" transform="translate(347.072452 182.238125)scale(0.13 -0.13)">
       <use xlink:href="#ArialMT-49"/>
       <use x="55.615234" xlink:href="#ArialMT-53"/>
       <use x="111.230469" xlink:href="#ArialMT-48"/>
      </g>
     </g>
    </g>
    <g id="text_8">
     <!-- Elapsed Time (s) -->
     <g style="fill:#262626;" transform="translate(163.484688 199.013438)scale(0.14 -0.14)">
      <defs>
       <path d="M 7.90625 0 
L 7.90625 71.578125 
L 59.671875 71.578125 
L 59.671875 63.140625 
L 17.390625 63.140625 
L 17.390625 41.21875 
L 56.984375 41.21875 
L 56.984375 32.8125 
L 17.390625 32.8125 
L 17.390625 8.453125 
L 61.328125 8.453125 
L 61.328125 0 
z
" id="ArialMT-69"/>
       <path d="M 6.390625 0 
L 6.390625 71.578125 
L 15.1875 71.578125 
L 15.1875 0 
z
" id="ArialMT-108"/>
       <path d="M 40.4375 6.390625 
Q 35.546875 2.25 31.03125 0.53125 
Q 26.515625 -1.171875 21.34375 -1.171875 
Q 12.796875 -1.171875 8.203125 3 
Q 3.609375 7.171875 3.609375 13.671875 
Q 3.609375 17.484375 5.34375 20.625 
Q 7.078125 23.78125 9.890625 25.6875 
Q 12.703125 27.59375 16.21875 28.5625 
Q 18.796875 29.25 24.03125 29.890625 
Q 34.671875 31.15625 39.703125 32.90625 
Q 39.75 34.71875 39.75 35.203125 
Q 39.75 40.578125 37.25 42.78125 
Q 33.890625 45.75 27.25 45.75 
Q 21.046875 45.75 18.09375 43.578125 
Q 15.140625 41.40625 13.71875 35.890625 
L 5.125 37.0625 
Q 6.296875 42.578125 8.984375 45.96875 
Q 11.671875 49.359375 16.75 51.1875 
Q 21.828125 53.03125 28.515625 53.03125 
Q 35.15625 53.03125 39.296875 51.46875 
Q 43.453125 49.90625 45.40625 47.53125 
Q 47.359375 45.171875 48.140625 41.546875 
Q 48.578125 39.3125 48.578125 33.453125 
L 48.578125 21.734375 
Q 48.578125 9.46875 49.140625 6.21875 
Q 49.703125 2.984375 51.375 0 
L 42.1875 0 
Q 40.828125 2.734375 40.4375 6.390625 
z
M 39.703125 26.03125 
Q 34.90625 24.078125 25.34375 22.703125 
Q 19.921875 21.921875 17.671875 20.9375 
Q 15.4375 19.96875 14.203125 18.09375 
Q 12.984375 16.21875 12.984375 13.921875 
Q 12.984375 10.40625 15.640625 8.0625 
Q 18.3125 5.71875 23.4375 5.71875 
Q 28.515625 5.71875 32.46875 7.9375 
Q 36.421875 10.15625 38.28125 14.015625 
Q 39.703125 17 39.703125 22.796875 
z
" id="ArialMT-97"/>
       <path d="M 6.59375 -19.875 
L 6.59375 51.859375 
L 14.59375 51.859375 
L 14.59375 45.125 
Q 17.4375 49.078125 21 51.046875 
Q 24.5625 53.03125 29.640625 53.03125 
Q 36.28125 53.03125 41.359375 49.609375 
Q 46.4375 46.1875 49.015625 39.953125 
Q 51.609375 33.734375 51.609375 26.3125 
Q 51.609375 18.359375 48.75 11.984375 
Q 45.90625 5.609375 40.453125 2.21875 
Q 35.015625 -1.171875 29 -1.171875 
Q 24.609375 -1.171875 21.109375 0.6875 
Q 17.625 2.546875 15.375 5.375 
L 15.375 -19.875 
z
M 14.546875 25.640625 
Q 14.546875 15.625 18.59375 10.84375 
Q 22.65625 6.0625 28.421875 6.0625 
Q 34.28125 6.0625 38.453125 11.015625 
Q 42.625 15.96875 42.625 26.375 
Q 42.625 36.28125 38.546875 41.203125 
Q 34.46875 46.140625 28.8125 46.140625 
Q 23.1875 46.140625 18.859375 40.890625 
Q 14.546875 35.640625 14.546875 25.640625 
z
" id="ArialMT-112"/>
       <path d="M 3.078125 15.484375 
L 11.765625 16.84375 
Q 12.5 11.625 15.84375 8.84375 
Q 19.1875 6.0625 25.203125 6.0625 
Q 31.25 6.0625 34.171875 8.515625 
Q 37.109375 10.984375 37.109375 14.3125 
Q 37.109375 17.28125 34.515625 19 
Q 32.71875 20.171875 25.53125 21.96875 
Q 15.875 24.421875 12.140625 26.203125 
Q 8.40625 27.984375 6.46875 31.125 
Q 4.546875 34.28125 4.546875 38.09375 
Q 4.546875 41.546875 6.125 44.5 
Q 7.71875 47.46875 10.453125 49.421875 
Q 12.5 50.921875 16.03125 51.96875 
Q 19.578125 53.03125 23.640625 53.03125 
Q 29.734375 53.03125 34.34375 51.265625 
Q 38.96875 49.515625 41.15625 46.5 
Q 43.359375 43.5 44.1875 38.484375 
L 35.59375 37.3125 
Q 35.015625 41.3125 32.203125 43.546875 
Q 29.390625 45.796875 24.265625 45.796875 
Q 18.21875 45.796875 15.625 43.796875 
Q 13.03125 41.796875 13.03125 39.109375 
Q 13.03125 37.40625 14.109375 36.03125 
Q 15.1875 34.625 17.484375 33.6875 
Q 18.796875 33.203125 25.25 31.453125 
Q 34.578125 28.953125 38.25 27.359375 
Q 41.9375 25.78125 44.03125 22.75 
Q 46.140625 19.734375 46.140625 15.234375 
Q 46.140625 10.84375 43.578125 6.953125 
Q 41.015625 3.078125 36.171875 0.953125 
Q 31.34375 -1.171875 25.25 -1.171875 
Q 15.140625 -1.171875 9.84375 3.03125 
Q 4.546875 7.234375 3.078125 15.484375 
z
" id="ArialMT-115"/>
       <path d="M 42.09375 16.703125 
L 51.171875 15.578125 
Q 49.03125 7.625 43.21875 3.21875 
Q 37.40625 -1.171875 28.375 -1.171875 
Q 17 -1.171875 10.328125 5.828125 
Q 3.65625 12.84375 3.65625 25.484375 
Q 3.65625 38.578125 10.390625 45.796875 
Q 17.140625 53.03125 27.875 53.03125 
Q 38.28125 53.03125 44.875 45.953125 
Q 51.46875 38.875 51.46875 26.03125 
Q 51.46875 25.25 51.421875 23.6875 
L 12.75 23.6875 
Q 13.234375 15.140625 17.578125 10.59375 
Q 21.921875 6.0625 28.421875 6.0625 
Q 33.25 6.0625 36.671875 8.59375 
Q 40.09375 11.140625 42.09375 16.703125 
z
M 13.234375 30.90625 
L 42.1875 30.90625 
Q 41.609375 37.453125 38.875 40.71875 
Q 34.671875 45.796875 27.984375 45.796875 
Q 21.921875 45.796875 17.796875 41.75 
Q 13.671875 37.703125 13.234375 30.90625 
z
" id="ArialMT-101"/>
       <path d="M 40.234375 0 
L 40.234375 6.546875 
Q 35.296875 -1.171875 25.734375 -1.171875 
Q 19.53125 -1.171875 14.328125 2.25 
Q 9.125 5.671875 6.265625 11.796875 
Q 3.421875 17.921875 3.421875 25.875 
Q 3.421875 33.640625 6 39.96875 
Q 8.59375 46.296875 13.765625 49.65625 
Q 18.953125 53.03125 25.34375 53.03125 
Q 30.03125 53.03125 33.6875 51.046875 
Q 37.359375 49.078125 39.65625 45.90625 
L 39.65625 71.578125 
L 48.390625 71.578125 
L 48.390625 0 
z
M 12.453125 25.875 
Q 12.453125 15.921875 16.640625 10.984375 
Q 20.84375 6.0625 26.5625 6.0625 
Q 32.328125 6.0625 36.34375 10.765625 
Q 40.375 15.484375 40.375 25.140625 
Q 40.375 35.796875 36.265625 40.765625 
Q 32.171875 45.75 26.171875 45.75 
Q 20.3125 45.75 16.375 40.96875 
Q 12.453125 36.1875 12.453125 25.875 
z
" id="ArialMT-100"/>
       <path id="ArialMT-32"/>
       <path d="M 25.921875 0 
L 25.921875 63.140625 
L 2.34375 63.140625 
L 2.34375 71.578125 
L 59.078125 71.578125 
L 59.078125 63.140625 
L 35.40625 63.140625 
L 35.40625 0 
z
" id="ArialMT-84"/>
       <path d="M 6.640625 61.46875 
L 6.640625 71.578125 
L 15.4375 71.578125 
L 15.4375 61.46875 
z
M 6.640625 0 
L 6.640625 51.859375 
L 15.4375 51.859375 
L 15.4375 0 
z
" id="ArialMT-105"/>
       <path d="M 6.59375 0 
L 6.59375 51.859375 
L 14.453125 51.859375 
L 14.453125 44.578125 
Q 16.890625 48.390625 20.9375 50.703125 
Q 25 53.03125 30.171875 53.03125 
Q 35.9375 53.03125 39.625 50.640625 
Q 43.3125 48.25 44.828125 43.953125 
Q 50.984375 53.03125 60.84375 53.03125 
Q 68.5625 53.03125 72.703125 48.75 
Q 76.859375 44.484375 76.859375 35.59375 
L 76.859375 0 
L 68.109375 0 
L 68.109375 32.671875 
Q 68.109375 37.9375 67.25 40.25 
Q 66.40625 42.578125 64.15625 43.984375 
Q 61.921875 45.40625 58.890625 45.40625 
Q 53.421875 45.40625 49.796875 41.765625 
Q 46.1875 38.140625 46.1875 30.125 
L 46.1875 0 
L 37.40625 0 
L 37.40625 33.6875 
Q 37.40625 39.546875 35.25 42.46875 
Q 33.109375 45.40625 28.21875 45.40625 
Q 24.515625 45.40625 21.359375 43.453125 
Q 18.21875 41.5 16.796875 37.734375 
Q 15.375 33.984375 15.375 26.90625 
L 15.375 0 
z
" id="ArialMT-109"/>
       <path d="M 23.390625 -21.046875 
Q 16.109375 -11.859375 11.078125 0.4375 
Q 6.0625 12.75 6.0625 25.921875 
Q 6.0625 37.546875 9.8125 48.1875 
Q 14.203125 60.546875 23.390625 72.796875 
L 29.6875 72.796875 
Q 23.78125 62.640625 21.875 58.296875 
Q 18.890625 51.5625 17.1875 44.234375 
Q 15.09375 35.109375 15.09375 25.875 
Q 15.09375 2.390625 29.6875 -21.046875 
z
" id="ArialMT-40"/>
       <path d="M 12.359375 -21.046875 
L 6.0625 -21.046875 
Q 20.65625 2.390625 20.65625 25.875 
Q 20.65625 35.0625 18.5625 44.09375 
Q 16.890625 51.421875 13.921875 58.15625 
Q 12.015625 62.546875 6.0625 72.796875 
L 12.359375 72.796875 
Q 21.53125 60.546875 25.921875 48.1875 
Q 29.6875 37.546875 29.6875 25.921875 
Q 29.6875 12.75 24.625 0.4375 
Q 19.578125 -11.859375 12.359375 -21.046875 
z
" id="ArialMT-41"/>
      </defs>
      <use xlink:href="#ArialMT-69"/>
      <use x="66.699219" xlink:href="#ArialMT-108"/>
      <use x="88.916016" xlink:href="#ArialMT-97"/>
      <use x="144.53125" xlink:href="#ArialMT-112"/>
      <use x="200.146484" xlink:href="#ArialMT-115"/>
      <use x="250.146484" xlink:href="#ArialMT-101"/>
      <use x="305.761719" xlink:href="#ArialMT-100"/>
      <use x="361.376953" xlink:href="#ArialMT-32"/>
      <use x="387.410156" xlink:href="#ArialMT-84"/>
      <use x="444.744141" xlink:href="#ArialMT-105"/>
      <use x="466.960938" xlink:href="#ArialMT-109"/>
      <use x="550.261719" xlink:href="#ArialMT-101"/>
      <use x="605.876953" xlink:href="#ArialMT-32"/>
      <use x="633.660156" xlink:href="#ArialMT-40"/>
      <use x="666.960938" xlink:href="#ArialMT-115"/>
      <use x="716.960938" xlink:href="#ArialMT-41"/>
     </g>
    </g>
   </g>
   <g id="matplotlib.axis_2">
    <g id="ytick_1">
     <g id="line2d_1">
      <defs>
       <path d="M 0 0 
L -3.5 0 
" id="ma508fca39e" style="stroke:#262626;stroke-width:0.8;"/>
      </defs>
      <g>
       <use style="fill:#262626;stroke:#262626;stroke-width:0.8;" x="59.865781" xlink:href="#ma508fca39e" y="165.932969"/>
      </g>
     </g>
     <g id="text_9">
      <!-- 0 -->
      <g style="fill:#262626;" transform="translate(45.636562 170.585547)scale(0.13 -0.13)">
       <use xlink:href="#ArialMT-48"/>
      </g>
     </g>
    </g>
    <g id="ytick_2">
     <g id="line2d_2">
      <g>
       <use style="fill:#262626;stroke:#262626;stroke-width:0.8;" x="59.865781" xlink:href="#ma508fca39e" y="129.122871"/>
      </g>
     </g>
     <g id="text_10">
      <!-- 50 -->
      <g style="fill:#262626;" transform="translate(38.407344 133.775449)scale(0.13 -0.13)">
       <use xlink:href="#ArialMT-53"/>
       <use x="55.615234" xlink:href="#ArialMT-48"/>
      </g>
     </g>
    </g>
    <g id="ytick_3">
     <g id="line2d_3">
      <g>
       <use style="fill:#262626;stroke:#262626;stroke-width:0.8;" x="59.865781" xlink:href="#ma508fca39e" y="92.312773"/>
      </g>
     </g>
     <g id="text_11">
      <!-- 100 -->
      <g style="fill:#262626;" transform="translate(31.178125 96.965352)scale(0.13 -0.13)">
       <use xlink:href="#ArialMT-49"/>
       <use x="55.615234" xlink:href="#ArialMT-48"/>
       <use x="111.230469" xlink:href="#ArialMT-48"/>
      </g>
     </g>
    </g>
    <g id="ytick_4">
     <g id="line2d_4">
      <g>
       <use style="fill:#262626;stroke:#262626;stroke-width:0.8;" x="59.865781" xlink:href="#ma508fca39e" y="55.502676"/>
      </g>
     </g>
     <g id="text_12">
      <!-- 150 -->
      <g style="fill:#262626;" transform="translate(31.178125 60.155254)scale(0.13 -0.13)">
       <use xlink:href="#ArialMT-49"/>
       <use x="55.615234" xlink:href="#ArialMT-53"/>
       <use x="111.230469" xlink:href="#ArialMT-48"/>
      </g>
     </g>
    </g>
    <g id="ytick_5">
     <g id="line2d_5">
      <g>
       <use style="fill:#262626;stroke:#262626;stroke-width:0.8;" x="59.865781" xlink:href="#ma508fca39e" y="18.692578"/>
      </g>
     </g>
     <g id="text_13">
      <!-- 200 -->
      <g style="fill:#262626;" transform="translate(31.178125 23.345156)scale(0.13 -0.13)">
       <use xlink:href="#ArialMT-50"/>
       <use x="55.615234" xlink:href="#ArialMT-48"/>
       <use x="111.230469" xlink:href="#ArialMT-48"/>
      </g>
     </g>
    </g>
    <g id="text_14">
     <!-- Mass Flow Rate (slm) -->
     <g style="fill:#262626;" transform="translate(24.231562 159.981992)rotate(-90)scale(0.14 -0.14)">
      <defs>
       <path d="M 7.421875 0 
L 7.421875 71.578125 
L 21.6875 71.578125 
L 38.625 20.90625 
Q 40.96875 13.8125 42.046875 10.296875 
Q 43.265625 14.203125 45.84375 21.78125 
L 62.984375 71.578125 
L 75.734375 71.578125 
L 75.734375 0 
L 66.609375 0 
L 66.609375 59.90625 
L 45.796875 0 
L 37.25 0 
L 16.546875 60.9375 
L 16.546875 0 
z
" id="ArialMT-77"/>
       <path d="M 8.203125 0 
L 8.203125 71.578125 
L 56.5 71.578125 
L 56.5 63.140625 
L 17.671875 63.140625 
L 17.671875 40.96875 
L 51.265625 40.96875 
L 51.265625 32.515625 
L 17.671875 32.515625 
L 17.671875 0 
z
" id="ArialMT-70"/>
       <path d="M 3.328125 25.921875 
Q 3.328125 40.328125 11.328125 47.265625 
Q 18.015625 53.03125 27.640625 53.03125 
Q 38.328125 53.03125 45.109375 46.015625 
Q 51.90625 39.015625 51.90625 26.65625 
Q 51.90625 16.65625 48.90625 10.90625 
Q 45.90625 5.171875 40.15625 2 
Q 34.421875 -1.171875 27.640625 -1.171875 
Q 16.75 -1.171875 10.03125 5.8125 
Q 3.328125 12.796875 3.328125 25.921875 
z
M 12.359375 25.921875 
Q 12.359375 15.96875 16.703125 11.015625 
Q 21.046875 6.0625 27.640625 6.0625 
Q 34.1875 6.0625 38.53125 11.03125 
Q 42.875 16.015625 42.875 26.21875 
Q 42.875 35.84375 38.5 40.796875 
Q 34.125 45.75 27.640625 45.75 
Q 21.046875 45.75 16.703125 40.8125 
Q 12.359375 35.890625 12.359375 25.921875 
z
" id="ArialMT-111"/>
       <path d="M 16.15625 0 
L 0.296875 51.859375 
L 9.375 51.859375 
L 17.625 21.921875 
L 20.703125 10.796875 
Q 20.90625 11.625 23.390625 21.484375 
L 31.640625 51.859375 
L 40.671875 51.859375 
L 48.4375 21.78125 
L 51.03125 11.859375 
L 54 21.875 
L 62.890625 51.859375 
L 71.4375 51.859375 
L 55.21875 0 
L 46.09375 0 
L 37.84375 31.0625 
L 35.84375 39.890625 
L 25.34375 0 
z
" id="ArialMT-119"/>
       <path d="M 7.859375 0 
L 7.859375 71.578125 
L 39.59375 71.578125 
Q 49.171875 71.578125 54.140625 69.640625 
Q 59.125 67.71875 62.109375 62.828125 
Q 65.09375 57.953125 65.09375 52.046875 
Q 65.09375 44.4375 60.15625 39.203125 
Q 55.21875 33.984375 44.921875 32.5625 
Q 48.6875 30.765625 50.640625 29 
Q 54.78125 25.203125 58.5 19.484375 
L 70.953125 0 
L 59.03125 0 
L 49.5625 14.890625 
Q 45.40625 21.34375 42.71875 24.75 
Q 40.046875 28.171875 37.921875 29.53125 
Q 35.796875 30.90625 33.59375 31.453125 
Q 31.984375 31.78125 28.328125 31.78125 
L 17.328125 31.78125 
L 17.328125 0 
z
M 17.328125 39.984375 
L 37.703125 39.984375 
Q 44.1875 39.984375 47.84375 41.328125 
Q 51.515625 42.671875 53.421875 45.625 
Q 55.328125 48.578125 55.328125 52.046875 
Q 55.328125 57.125 51.640625 60.390625 
Q 47.953125 63.671875 39.984375 63.671875 
L 17.328125 63.671875 
z
" id="ArialMT-82"/>
       <path d="M 25.78125 7.859375 
L 27.046875 0.09375 
Q 23.34375 -0.6875 20.40625 -0.6875 
Q 15.625 -0.6875 12.984375 0.828125 
Q 10.359375 2.34375 9.28125 4.8125 
Q 8.203125 7.28125 8.203125 15.1875 
L 8.203125 45.015625 
L 1.765625 45.015625 
L 1.765625 51.859375 
L 8.203125 51.859375 
L 8.203125 64.703125 
L 16.9375 69.96875 
L 16.9375 51.859375 
L 25.78125 51.859375 
L 25.78125 45.015625 
L 16.9375 45.015625 
L 16.9375 14.703125 
Q 16.9375 10.9375 17.40625 9.859375 
Q 17.875 8.796875 18.921875 8.15625 
Q 19.96875 7.515625 21.921875 7.515625 
Q 23.390625 7.515625 25.78125 7.859375 
z
" id="ArialMT-116"/>
      </defs>
      <use xlink:href="#ArialMT-77"/>
      <use x="83.300781" xlink:href="#ArialMT-97"/>
      <use x="138.916016" xlink:href="#ArialMT-115"/>
      <use x="188.916016" xlink:href="#ArialMT-115"/>
      <use x="238.916016" xlink:href="#ArialMT-32"/>
      <use x="266.699219" xlink:href="#ArialMT-70"/>
      <use x="327.783203" xlink:href="#ArialMT-108"/>
      <use x="350" xlink:href="#ArialMT-111"/>
      <use x="405.615234" xlink:href="#ArialMT-119"/>
      <use x="477.832031" xlink:href="#ArialMT-32"/>
      <use x="505.615234" xlink:href="#ArialMT-82"/>
      <use x="577.832031" xlink:href="#ArialMT-97"/>
      <use x="633.447266" xlink:href="#ArialMT-116"/>
      <use x="661.230469" xlink:href="#ArialMT-101"/>
      <use x="716.845703" xlink:href="#ArialMT-32"/>
      <use x="744.628906" xlink:href="#ArialMT-40"/>
      <use x="777.929688" xlink:href="#ArialMT-115"/>
      <use x="827.929688" xlink:href="#ArialMT-108"/>
      <use x="850.146484" xlink:href="#ArialMT-109"/>
      <use x="933.447266" xlink:href="#ArialMT-41"/>
     </g>
    </g>
   </g>
   <g id="line2d_6">
    <path clip-path="url(#pb1a922a164)" d="M 74.059801 165.962417 
L 138.937928 165.947693 
L 139.557675 164.718236 
L 139.975535 157.378302 
L 140.179313 156.244551 
L 140.588789 149.478855 
L 140.793345 130.21245 
L 141.208095 118.29334 
L 141.417528 117.939963 
L 141.828086 93.674747 
L 142.031968 74.386256 
L 142.444799 57.615575 
L 142.653487 59.735837 
L 143.069671 51.225342 
L 143.481173 51.240066 
L 143.688348 52.329645 
L 144.103264 45.05597 
L 144.308928 31.738077 
L 144.717111 32.120902 
L 144.922771 34.388404 
L 145.335097 33.173671 
L 145.545327 30.538068 
L 146.586268 34.035027 
L 147.000855 31.016599 
L 147.209254 32.687777 
L 147.836087 31.56875 
L 148.459936 32.835018 
L 148.877615 29.92702 
L 149.085096 32.886552 
L 149.498494 31.060771 
L 149.708482 33.534409 
L 150.537845 31.414148 
L 150.747298 31.281632 
L 151.163231 34.108647 
L 151.375447 32.569985 
L 151.79533 33.497599 
L 152.00338 32.496365 
L 152.427104 33.57122 
L 152.635442 31.841145 
L 153.054342 32.304952 
L 153.266495 30.574878 
L 153.681992 31.480406 
L 153.889068 31.539302 
L 154.309555 30.574878 
L 154.521627 32.327038 
L 154.943118 30.869358 
L 155.35952 31.914765 
L 155.574701 32.938086 
L 155.980633 31.046047 
L 156.187096 31.752801 
L 156.599353 32.717225 
L 156.805619 34.123371 
L 157.428131 31.715991 
L 157.844336 32.886552 
L 158.254511 31.877955 
L 158.876707 32.511089 
L 159.081843 31.49513 
L 159.502304 33.232567 
L 159.710601 31.104943 
L 160.127448 32.18716 
L 160.333993 31.944213 
L 160.751012 30.76629 
L 160.956332 30.707394 
L 161.372746 30.920893 
L 161.580143 31.178563 
L 162.022977 32.356486 
L 162.437363 50.945586 
L 162.644536 50.135764 
L 162.850912 51.851114 
L 163.265982 51.880562 
L 163.681227 53.382414 
L 163.893297 50.113677 
L 164.312611 57.519869 
L 164.521046 55.267091 
L 164.938273 53.566465 
L 165.148614 56.415566 
L 165.564186 56.224154 
L 165.771386 53.676895 
L 166.395866 55.789795 
L 166.812524 53.94929 
L 167.227284 55.44378 
L 167.437505 56.710047 
L 167.852131 56.28305 
L 168.057493 54.479355 
L 168.472886 54.317391 
L 168.680383 56.768943 
L 169.306619 55.024145 
L 169.719426 54.781198 
L 169.928976 53.264622 
L 170.344645 54.258494 
L 170.554157 53.875669 
L 171.003013 55.767708 
L 171.21324 55.355435 
L 171.63089 53.110019 
L 172.257453 55.620468 
L 172.662745 55.141937 
L 173.082628 57.519869 
L 173.50014 56.489186 
L 173.927012 56.202068 
L 174.131538 51.733322 
L 174.554008 51.961544 
L 174.762705 53.014313 
L 175.178999 53.765239 
L 175.387392 55.053593 
L 175.803937 56.459738 
L 176.011109 55.370159 
L 176.429547 54.928438 
L 176.634862 53.779963 
L 177.048105 57.372629 
L 177.678273 52.579954 
L 177.889004 38.0915 
L 178.300054 39.129544 
L 178.505453 32.179798 
L 178.922887 33.968769 
L 179.343429 34.800677 
L 179.580057 33.166309 
L 179.787932 33.961407 
L 180.201713 31.539302 
L 180.625365 32.400658 
L 180.833777 34.307422 
L 181.247944 33.549134 
L 181.455633 31.789611 
L 181.872493 32.201884 
L 182.081555 34.211715 
L 182.499536 32.201884 
L 182.70961 33.71846 
L 183.13392 31.259545 
L 183.344081 34.292698 
L 183.763873 35.691481 
L 183.966678 32.003109 
L 184.388414 34.550368 
L 184.598426 36.582286 
L 186.063881 31.620284 
L 186.270147 35.581051 
L 186.684133 36.538113 
L 186.891472 32.422745 
L 187.308165 34.005579 
L 187.516614 32.982258 
L 187.927649 33.777356 
L 188.340164 33.151584 
L 188.547166 32.106178 
L 189.16579 35.566327 
L 189.581637 33.75527 
L 189.788662 30.390827 
L 190.205708 32.547899 
L 190.417824 32.835018 
L 190.842056 31.885317 
L 191.052283 32.246056 
L 191.68142 33.82889 
L 192.09461 30.493895 
L 192.509368 33.504961 
L 192.713662 32.22397 
L 193.128945 33.151584 
L 193.335547 32.754035 
L 193.748865 32.569985 
L 193.952357 31.907403 
L 194.36667 32.010471 
L 194.987933 33.549134 
L 195.400466 33.769994 
L 195.607835 32.746673 
L 196.020413 35.765101 
L 196.228714 32.253418 
L 196.642972 33.850976 
L 196.850651 33.328273 
L 197.889844 32.201884 
L 198.097394 31.612922 
L 198.511235 32.709863 
L 198.924107 31.855869 
L 199.131659 32.459555 
L 199.547012 32.142988 
L 199.75801 35.117244 
L 200.176631 37.760209 
L 200.385009 38.098862 
L 200.80345 33.460789 
L 201.013723 34.719695 
L 201.43323 42.928346 
L 201.641746 40.520966 
L 202.056353 41.419132 
L 202.466597 39.858384 
L 202.672052 41.183548 
L 202.880359 38.945494 
L 203.304594 51.755408 
L 203.72126 56.97508 
L 203.929584 54.582423 
L 204.347843 57.276922 
L 204.555702 57.652385 
L 204.968935 56.349308 
L 205.175364 56.187344 
L 205.592392 57.188578 
L 205.799758 56.275688 
L 206.624696 58.167727 
L 206.831662 56.194706 
L 207.245106 56.908822 
L 207.450753 55.561572 
L 207.868939 55.119851 
L 208.492781 57.799626 
L 208.698391 57.424163 
L 209.316766 55.384883 
L 209.728931 55.716174 
L 210.142368 56.724771 
L 210.347825 56.562807 
L 210.760714 57.475697 
L 210.964354 55.598382 
L 211.381123 57.409439 
L 211.586067 54.854818 
L 212.205918 57.335819 
L 212.621828 55.502676 
L 212.834628 56.150533 
L 213.242186 53.632723 
L 213.447022 56.231516 
L 213.858606 56.857287 
L 214.26936 55.988569 
L 214.480654 57.829074 
L 214.88722 55.200833 
L 215.097246 59.478166 
L 215.513097 55.002058 
L 215.719413 56.783667 
L 216.335869 40.697655 
L 216.748908 41.91975 
L 217.163129 19.863139 
L 217.370351 24.295075 
L 217.782197 22.749051 
L 217.988349 25.436188 
L 218.398838 26.165028 
L 219.019432 26.555215 
L 219.226334 26.106132 
L 219.639358 26.363802 
L 220.0507 26.97485 
L 220.254318 23.772372 
L 220.668789 25.966253 
L 220.876418 24.86195 
L 221.494894 24.744158 
L 221.909825 26.334354 
L 222.117683 24.648452 
L 222.526748 27.453381 
L 222.940384 26.783438 
L 223.145162 26.724541 
L 223.554678 24.361333 
L 223.75975 24.479125 
L 224.17202 24.228817 
L 224.377527 24.78833 
L 224.793736 26.97485 
L 225.003697 24.670538 
L 225.41786 25.922081 
L 225.829615 23.117152 
L 226.041732 25.288948 
L 226.667724 27.254607 
L 227.084312 25.649687 
L 227.294564 26.996936 
L 227.709276 26.31963 
L 227.917028 23.728199 
L 228.332922 22.34414 
L 228.542327 26.547853 
L 229.163735 24.155197 
L 229.580901 28.491426 
L 230.006992 26.238648 
L 230.21343 28.962595 
L 230.635763 24.508574 
L 230.844093 24.405505 
L 231.258723 25.855823 
L 231.467025 24.169921 
L 231.887863 24.744158 
L 232.099903 26.407975 
L 232.513816 23.588321 
L 232.720829 28.785907 
L 233.134142 24.839864 
L 233.343444 27.468105 
L 233.758219 26.945402 
L 234.177055 29.522109 
L 234.380684 47.073163 
L 234.791882 48.501395 
L 234.998138 50.584847 
L 235.410588 46.734511 
L 235.61774 49.208149 
L 236.029833 46.830217 
L 236.237648 48.73698 
L 236.651218 48.803238 
L 236.859467 50.422882 
L 237.269099 48.582377 
L 237.682537 45.09278 
L 237.889297 48.611825 
L 238.302084 48.471947 
L 238.506795 48.258449 
L 239.127355 45.96886 
L 239.542503 47.669487 
L 240.159011 47.24249 
L 240.574923 47.028991 
L 240.78184 47.190956 
L 241.194961 48.575015 
L 241.401807 48.832686 
L 241.813964 48.862134 
L 242.431754 46.027757 
L 242.637401 46.454754 
L 243.04825 47.735745 
L 243.457402 49.399562 
L 243.664345 48.096484 
L 244.081217 49.082995 
L 244.287335 46.771321 
L 244.698074 49.598336 
L 244.907776 49.090357 
L 245.324323 45.269469 
L 245.532367 48.788514 
L 245.945626 49.819197 
L 246.156226 46.535736 
L 246.571724 47.419178 
L 246.777393 47.559057 
L 247.19608 47.706297 
L 247.404612 47.38973 
L 247.819591 47.882986 
L 248.233976 47.433902 
L 248.440636 46.51365 
L 248.856552 48.77379 
L 249.063556 47.772555 
L 249.47978 48.575015 
L 249.687908 48.523481 
L 250.097262 46.609356 
L 250.304631 47.647401 
L 250.721591 46.756597 
L 250.926144 45.851068 
L 251.337805 48.891582 
L 251.756261 21.895057 
L 251.964642 27.59326 
L 252.38098 27.688966 
L 252.590145 26.157666 
L 253.004137 25.193241 
L 253.209832 28.807993 
L 253.623702 27.585898 
L 253.830652 27.335589 
L 254.241508 27.998171 
L 254.657166 27.188349 
L 254.862902 25.222689 
L 255.279772 28.623942 
L 255.485683 28.012895 
L 255.897858 27.725776 
L 256.106766 28.54296 
L 256.516749 26.253372 
L 256.721156 28.255841 
L 257.132699 29.043578 
L 257.753446 26.658283 
L 257.960459 28.425168 
L 258.368376 28.071791 
L 258.78416 29.117198 
L 258.990965 27.173625 
L 259.404554 27.939275 
L 259.609587 27.843568 
L 260.018771 27.269331 
L 260.427705 30.096346 
L 260.635376 28.005533 
L 261.045354 25.657049 
L 261.251147 26.430061 
L 261.665288 29.168732 
L 261.874479 26.709817 
L 262.290576 27.909827 
L 262.500595 27.659518 
L 262.911005 29.2718 
L 263.321406 29.603091 
L 263.528084 28.947871 
L 263.94214 29.058302 
L 264.149643 26.599387 
L 264.56002 30.596964 
L 264.770163 27.769948 
L 265.181721 27.063194 
L 265.389741 26.334354 
L 265.804835 27.976085 
L 266.220338 26.967488 
L 266.425971 29.941744 
L 266.837217 26.017788 
L 267.04278 26.945402 
L 267.665199 24.795692 
L 268.075383 26.488957 
L 268.281334 29.610453 
L 268.695436 28.984681 
L 269.313834 49.377476 
L 269.726366 49.458458 
L 269.936584 46.40322 
L 270.348949 50.562761 
L 270.559173 49.517354 
L 270.970083 48.125932 
L 271.174783 50.312452 
L 271.590546 46.977457 
L 271.799038 47.404454 
L 272.426952 45.681742 
L 272.840054 50.224108 
L 273.257039 49.127167 
L 273.88439 46.160273 
L 274.090084 50.363986 
L 274.502901 49.480544 
L 274.715139 50.260918 
L 275.129331 48.994651 
L 275.748285 51.637616 
L 275.958465 46.064567 
L 276.376569 46.528374 
L 276.587732 48.832686 
L 277.000889 48.000778 
L 277.415157 48.103846 
L 277.623485 48.766428 
L 278.247696 51.254791 
L 278.655642 46.948009 
L 278.859977 48.840048 
L 279.274359 47.956606 
L 279.479649 48.95784 
L 279.890582 49.590974 
L 280.09918 48.354155 
L 280.510999 48.251087 
L 280.923573 46.815493 
L 281.131296 49.178701 
L 281.542283 49.296493 
L 281.750537 47.080525 
L 282.161453 49.230235 
L 282.780115 44.584801 
L 282.990031 47.882986 
L 283.402815 48.442499 
L 283.608684 49.112443 
L 284.020947 47.765193 
L 284.433623 47.986054 
L 284.641537 47.109974 
L 285.266293 46.36641 
L 285.677019 47.441264 
L 285.883034 49.370114 
L 286.296973 38.768805 
L 286.504476 24.508574 
L 286.912274 26.003064 
L 287.117746 27.55645 
L 287.526912 26.621473 
L 287.938286 29.544195 
L 288.147827 27.203073 
L 288.561564 27.416571 
L 288.768588 30.87672 
L 289.179694 27.85093 
L 289.385483 29.750331 
L 289.800067 28.3221 
L 290.007655 26.09877 
L 290.417665 30.457085 
L 290.829119 28.219031 
L 291.037046 28.174859 
L 291.45864 29.139284 
L 291.682991 25.995701 
L 292.097343 27.482829 
L 292.307419 27.497553 
L 292.722375 28.115963 
L 292.925868 29.993278 
L 293.33734 26.923316 
L 293.543103 27.674242 
L 293.953936 27.961361 
L 294.365322 27.423933 
L 294.570945 28.366272 
L 294.98685 28.123325 
L 295.192756 28.425168 
L 295.603875 26.643559 
L 295.811539 26.304906 
L 296.225629 26.341716 
L 296.433745 28.064429 
L 296.844847 30.243587 
L 297.05072 26.930678 
L 297.465912 27.688966 
L 297.87654 27.092642 
L 298.082417 29.043578 
L 298.493866 27.806758 
L 298.701518 31.075495 
L 299.116062 28.211669 
L 299.323894 28.763821 
L 299.735373 26.02515 
L 300.147854 32.444831 
L 300.353316 27.747862 
L 300.97397 29.558919 
L 301.598601 26.165028 
L 302.011757 26.982212 
L 302.219227 29.455851 
L 302.633804 28.918423 
L 303.047738 28.874251 
L 303.254218 29.043578 
L 303.873774 49.826559 
L 304.281967 45.755362 
L 304.487407 46.977457 
L 304.899195 47.190956 
L 305.106519 48.516119 
L 305.518313 49.038823 
L 305.927857 46.62408 
L 306.130743 46.631442 
L 306.545508 48.781152 
L 306.753189 48.295259 
L 307.162155 44.916092 
L 307.368153 47.536971 
L 307.778973 45.644932 
L 307.991427 49.509992 
L 308.401795 47.721021 
L 308.610346 48.530843 
L 309.438921 49.811835 
L 309.64487 46.484202 
L 310.058132 45.873154 
L 310.265512 47.514885 
L 310.6775 47.095249 
L 310.884893 49.178701 
L 311.300795 47.963968 
L 311.508358 45.946774 
L 311.920254 47.102611 
L 312.127842 46.800769 
L 312.542531 46.977457 
L 312.952972 46.749235 
L 313.160293 49.730852 
L 313.571241 47.102611 
L 313.775088 47.779917 
L 314.187539 45.01916 
L 314.393374 48.898944 
L 314.805114 47.014267 
L 315.013485 44.754127 
L 315.425151 45.460881 
L 315.62987 47.507523 
L 316.040263 45.659656 
L 316.65688 46.248617 
L 317.069751 49.303855 
L 317.277595 45.976223 
L 317.689199 47.787279 
L 317.896509 47.271938 
L 318.310769 48.869496 
L 318.518057 47.227766 
L 318.934904 48.000778 
L 319.144325 45.887878 
L 319.563019 47.073163 
L 319.980109 45.78481 
L 320.185872 48.243725 
L 320.59735 46.66089 
L 320.80481 34.771229 
L 321.216437 26.614111 
L 321.421925 28.734373 
L 321.834093 25.693859 
L 322.457354 30.574878 
L 322.868709 28.403082 
L 323.077851 28.454616 
L 323.488806 27.298779 
L 323.692521 29.544195 
L 324.109461 31.023961 
L 324.314613 33.850976 
L 324.734074 31.252183 
L 324.932804 28.690201 
L 325.344827 27.924551 
L 325.759623 27.63007 
L 325.966707 28.115963 
L 326.382837 31.016599 
L 326.588317 28.837441 
L 327.20811 27.12209 
L 327.823716 32.790846 
L 328.641516 27.799396 
L 328.851164 29.919658 
L 329.261727 30.758928 
L 329.469409 32.017833 
L 329.882929 28.027619 
L 330.499182 26.893868 
L 330.708879 29.028854 
L 331.119799 28.454616 
L 331.535406 32.393296 
L 331.742207 28.881613 
L 332.157271 30.00064 
L 332.362958 27.342951 
L 332.774174 29.507385 
L 332.989007 29.823952 
L 333.59991 27.291417 
L 334.011552 31.738077 
L 334.42639 27.821482 
L 334.635435 27.092642 
L 335.046536 31.546664 
L 335.253098 28.933147 
L 335.667212 30.552792 
L 335.872848 30.287759 
L 336.283969 29.205542 
L 336.493753 33.166309 
L 336.904051 29.190818 
L 337.523388 27.01166 
L 337.937759 31.590836 
L 338.144149 44.062097 
L 338.766945 42.530797 
L 339.179529 41.559011 
L 339.385521 52.314921 
L 339.797703 50.260918 
L 340.207843 51.284239 
L 340.413986 50.253556 
L 340.827694 50.481778 
L 341.035447 49.524716 
L 341.449906 51.269515 
L 341.654092 47.154146 
L 342.064961 49.878093 
L 342.272254 48.567653 
L 342.681502 49.826559 
L 342.887155 50.062143 
L 343.302469 45.976223 
L 343.713112 52.359093 
L 343.919126 49.892817 
L 344.332485 49.208149 
L 344.541323 52.322283 
L 344.95584 50.41552 
L 345.162471 50.084229 
L 345.57575 49.833921 
L 345.782337 48.243725 
L 346.191666 48.913668 
L 346.399166 49.760301 
L 347.223245 49.311217 
L 347.428832 50.930862 
L 347.837877 49.789749 
L 348.043592 51.387307 
L 348.456617 49.856007 
L 348.662179 50.989758 
L 349.075085 50.45233 
L 349.280149 48.66336 
L 349.693293 51.114912 
L 350.105305 49.42901 
L 350.310977 49.325941 
L 350.518415 50.584847 
L 350.931311 49.951713 
L 351.341454 51.092826 
L 351.546113 50.422882 
L 351.960736 50.577485 
L 352.168474 49.694042 
L 352.579658 51.72596 
L 352.787155 48.405689 
L 353.198384 50.216746 
L 353.617015 50.621657 
L 353.817108 48.862134 
L 354.229894 47.139422 
L 354.436975 47.588505 
L 354.851247 47.38973 
L 355.058255 34.491472 
L 355.473042 26.555215 
L 355.676689 29.301248 
L 356.086161 28.277928 
L 356.498956 33.431341 
L 356.706413 29.610453 
L 357.117512 30.088984 
L 357.321088 30.008002 
L 357.734092 30.287759 
L 357.940199 30.147881 
L 357.940199 30.147881 
" style="fill:none;stroke:#1f77b4;stroke-linecap:round;stroke-width:1.5;"/>
   </g>
   <g id="patch_3">
    <path d="M 59.865781 165.932969 
L 59.865781 18.692578 
" style="fill:none;stroke:#262626;stroke-linecap:square;stroke-linejoin:miter;stroke-width:0.8;"/>
   </g>
   <g id="patch_4">
    <path d="M 372.134219 165.932969 
L 372.134219 18.692578 
" style="fill:none;stroke:#262626;stroke-linecap:square;stroke-linejoin:miter;stroke-width:0.8;"/>
   </g>
   <g id="patch_5">
    <path d="M 59.865781 165.932969 
L 372.134219 165.932969 
" style="fill:none;stroke:#262626;stroke-linecap:square;stroke-linejoin:miter;stroke-width:0.8;"/>
   </g>
   <g id="patch_6">
    <path d="M 59.865781 18.692578 
L 372.134219 18.692578 
" style="fill:none;stroke:#262626;stroke-linecap:square;stroke-linejoin:miter;stroke-width:0.8;"/>
   </g>
   <g id="text_15">
    <!-- Mass Flow -->
    <g style="fill:#1f77b4;" transform="translate(168.526801 70.226715)scale(0.13 -0.13)">
     <use xlink:href="#ArialMT-77"/>
     <use x="83.300781" xlink:href="#ArialMT-97"/>
     <use x="138.916016" xlink:href="#ArialMT-115"/>
     <use x="188.916016" xlink:href="#ArialMT-115"/>
     <use x="238.916016" xlink:href="#ArialMT-32"/>
     <use x="266.699219" xlink:href="#ArialMT-70"/>
     <use x="327.783203" xlink:href="#ArialMT-108"/>
     <use x="350" xlink:href="#ArialMT-111"/>
     <use x="405.615234" xlink:href="#ArialMT-119"/>
    </g>
   </g>
  </g>
  <g id="axes_2">
   <g id="matplotlib.axis_3">
    <g id="ytick_6">
     <g id="line2d_7">
      <defs>
       <path d="M 0 0 
L 3.5 0 
" id="m8426031494" style="stroke:#262626;stroke-width:0.8;"/>
      </defs>
      <g>
       <use style="fill:#262626;stroke:#262626;stroke-width:0.8;" x="372.134219" xlink:href="#m8426031494" y="165.932969"/>
      </g>
     </g>
     <g id="text_16">
      <!-- 0 -->
      <g style="fill:#262626;" transform="translate(379.134219 170.585547)scale(0.13 -0.13)">
       <use xlink:href="#ArialMT-48"/>
      </g>
     </g>
    </g>
    <g id="ytick_7">
     <g id="line2d_8">
      <g>
       <use style="fill:#262626;stroke:#262626;stroke-width:0.8;" x="372.134219" xlink:href="#m8426031494" y="136.484891"/>
      </g>
     </g>
     <g id="text_17">
      <!-- 20 -->
      <g style="fill:#262626;" transform="translate(379.134219 141.137469)scale(0.13 -0.13)">
       <use xlink:href="#ArialMT-50"/>
       <use x="55.615234" xlink:href="#ArialMT-48"/>
      </g>
     </g>
    </g>
    <g id="ytick_8">
     <g id="line2d_9">
      <g>
       <use style="fill:#262626;stroke:#262626;stroke-width:0.8;" x="372.134219" xlink:href="#m8426031494" y="107.036812"/>
      </g>
     </g>
     <g id="text_18">
      <!-- 40 -->
      <g style="fill:#262626;" transform="translate(379.134219 111.689391)scale(0.13 -0.13)">
       <defs>
        <path d="M 32.328125 0 
L 32.328125 17.140625 
L 1.265625 17.140625 
L 1.265625 25.203125 
L 33.9375 71.578125 
L 41.109375 71.578125 
L 41.109375 25.203125 
L 50.78125 25.203125 
L 50.78125 17.140625 
L 41.109375 17.140625 
L 41.109375 0 
z
M 32.328125 25.203125 
L 32.328125 57.46875 
L 9.90625 25.203125 
z
" id="ArialMT-52"/>
       </defs>
       <use xlink:href="#ArialMT-52"/>
       <use x="55.615234" xlink:href="#ArialMT-48"/>
      </g>
     </g>
    </g>
    <g id="ytick_9">
     <g id="line2d_10">
      <g>
       <use style="fill:#262626;stroke:#262626;stroke-width:0.8;" x="372.134219" xlink:href="#m8426031494" y="77.588734"/>
      </g>
     </g>
     <g id="text_19">
      <!-- 60 -->
      <g style="fill:#262626;" transform="translate(379.134219 82.241312)scale(0.13 -0.13)">
       <defs>
        <path d="M 49.75 54.046875 
L 41.015625 53.375 
Q 39.84375 58.546875 37.703125 60.890625 
Q 34.125 64.65625 28.90625 64.65625 
Q 24.703125 64.65625 21.53125 62.3125 
Q 17.390625 59.28125 14.984375 53.46875 
Q 12.59375 47.65625 12.5 36.921875 
Q 15.671875 41.75 20.265625 44.09375 
Q 24.859375 46.4375 29.890625 46.4375 
Q 38.671875 46.4375 44.84375 39.96875 
Q 51.03125 33.5 51.03125 23.25 
Q 51.03125 16.5 48.125 10.71875 
Q 45.21875 4.9375 40.140625 1.859375 
Q 35.0625 -1.21875 28.609375 -1.21875 
Q 17.625 -1.21875 10.6875 6.859375 
Q 3.765625 14.9375 3.765625 33.5 
Q 3.765625 54.25 11.421875 63.671875 
Q 18.109375 71.875 29.4375 71.875 
Q 37.890625 71.875 43.28125 67.140625 
Q 48.6875 62.40625 49.75 54.046875 
z
M 13.875 23.1875 
Q 13.875 18.65625 15.796875 14.5 
Q 17.71875 10.359375 21.1875 8.171875 
Q 24.65625 6 28.46875 6 
Q 34.03125 6 38.03125 10.484375 
Q 42.046875 14.984375 42.046875 22.703125 
Q 42.046875 30.125 38.078125 34.390625 
Q 34.125 38.671875 28.125 38.671875 
Q 22.171875 38.671875 18.015625 34.390625 
Q 13.875 30.125 13.875 23.1875 
z
" id="ArialMT-54"/>
       </defs>
       <use xlink:href="#ArialMT-54"/>
       <use x="55.615234" xlink:href="#ArialMT-48"/>
      </g>
     </g>
    </g>
    <g id="ytick_10">
     <g id="line2d_11">
      <g>
       <use style="fill:#262626;stroke:#262626;stroke-width:0.8;" x="372.134219" xlink:href="#m8426031494" y="48.140656"/>
      </g>
     </g>
     <g id="text_20">
      <!-- 80 -->
      <g style="fill:#262626;" transform="translate(379.134219 52.793234)scale(0.13 -0.13)">
       <defs>
        <path d="M 17.671875 38.8125 
Q 12.203125 40.828125 9.5625 44.53125 
Q 6.9375 48.25 6.9375 53.421875 
Q 6.9375 61.234375 12.546875 66.546875 
Q 18.171875 71.875 27.484375 71.875 
Q 36.859375 71.875 42.578125 66.421875 
Q 48.296875 60.984375 48.296875 53.171875 
Q 48.296875 48.1875 45.671875 44.5 
Q 43.0625 40.828125 37.75 38.8125 
Q 44.34375 36.671875 47.78125 31.875 
Q 51.21875 27.09375 51.21875 20.453125 
Q 51.21875 11.28125 44.71875 5.03125 
Q 38.234375 -1.21875 27.640625 -1.21875 
Q 17.046875 -1.21875 10.546875 5.046875 
Q 4.046875 11.328125 4.046875 20.703125 
Q 4.046875 27.6875 7.59375 32.390625 
Q 11.140625 37.109375 17.671875 38.8125 
z
M 15.921875 53.71875 
Q 15.921875 48.640625 19.1875 45.40625 
Q 22.46875 42.1875 27.6875 42.1875 
Q 32.765625 42.1875 36.015625 45.375 
Q 39.265625 48.578125 39.265625 53.21875 
Q 39.265625 58.0625 35.90625 61.359375 
Q 32.5625 64.65625 27.59375 64.65625 
Q 22.5625 64.65625 19.234375 61.421875 
Q 15.921875 58.203125 15.921875 53.71875 
z
M 13.09375 20.65625 
Q 13.09375 16.890625 14.875 13.375 
Q 16.65625 9.859375 20.171875 7.921875 
Q 23.6875 6 27.734375 6 
Q 34.03125 6 38.125 10.046875 
Q 42.234375 14.109375 42.234375 20.359375 
Q 42.234375 26.703125 38.015625 30.859375 
Q 33.796875 35.015625 27.4375 35.015625 
Q 21.234375 35.015625 17.15625 30.90625 
Q 13.09375 26.8125 13.09375 20.65625 
z
" id="ArialMT-56"/>
       </defs>
       <use xlink:href="#ArialMT-56"/>
       <use x="55.615234" xlink:href="#ArialMT-48"/>
      </g>
     </g>
    </g>
    <g id="ytick_11">
     <g id="line2d_12">
      <g>
       <use style="fill:#262626;stroke:#262626;stroke-width:0.8;" x="372.134219" xlink:href="#m8426031494" y="18.692578"/>
      </g>
     </g>
     <g id="text_21">
      <!-- 100 -->
      <g style="fill:#262626;" transform="translate(379.134219 23.345156)scale(0.13 -0.13)">
       <use xlink:href="#ArialMT-49"/>
       <use x="55.615234" xlink:href="#ArialMT-48"/>
       <use x="111.230469" xlink:href="#ArialMT-48"/>
      </g>
     </g>
    </g>
    <g id="text_22">
     <!-- Valve Position (% open) -->
     <g style="fill:#262626;" transform="translate(415.013437 166.499648)rotate(-90)scale(0.14 -0.14)">
      <defs>
       <path d="M 28.171875 0 
L 0.4375 71.578125 
L 10.6875 71.578125 
L 29.296875 19.578125 
Q 31.546875 13.328125 33.0625 7.859375 
Q 34.71875 13.71875 36.921875 19.578125 
L 56.25 71.578125 
L 65.921875 71.578125 
L 37.890625 0 
z
" id="ArialMT-86"/>
       <path d="M 21 0 
L 1.265625 51.859375 
L 10.546875 51.859375 
L 21.6875 20.796875 
Q 23.484375 15.765625 25 10.359375 
Q 26.171875 14.453125 28.265625 20.21875 
L 39.796875 51.859375 
L 48.828125 51.859375 
L 29.203125 0 
z
" id="ArialMT-118"/>
       <path d="M 7.71875 0 
L 7.71875 71.578125 
L 34.71875 71.578125 
Q 41.84375 71.578125 45.609375 70.90625 
Q 50.875 70.015625 54.4375 67.546875 
Q 58.015625 65.09375 60.1875 60.640625 
Q 62.359375 56.203125 62.359375 50.875 
Q 62.359375 41.75 56.546875 35.421875 
Q 50.734375 29.109375 35.546875 29.109375 
L 17.1875 29.109375 
L 17.1875 0 
z
M 17.1875 37.546875 
L 35.6875 37.546875 
Q 44.875 37.546875 48.734375 40.96875 
Q 52.59375 44.390625 52.59375 50.59375 
Q 52.59375 55.078125 50.3125 58.265625 
Q 48.046875 61.46875 44.34375 62.5 
Q 41.9375 63.140625 35.5 63.140625 
L 17.1875 63.140625 
z
" id="ArialMT-80"/>
       <path d="M 6.59375 0 
L 6.59375 51.859375 
L 14.5 51.859375 
L 14.5 44.484375 
Q 20.21875 53.03125 31 53.03125 
Q 35.6875 53.03125 39.625 51.34375 
Q 43.5625 49.65625 45.515625 46.921875 
Q 47.46875 44.1875 48.25 40.4375 
Q 48.734375 37.984375 48.734375 31.890625 
L 48.734375 0 
L 39.9375 0 
L 39.9375 31.546875 
Q 39.9375 36.921875 38.90625 39.578125 
Q 37.890625 42.234375 35.28125 43.8125 
Q 32.671875 45.40625 29.15625 45.40625 
Q 23.53125 45.40625 19.453125 41.84375 
Q 15.375 38.28125 15.375 28.328125 
L 15.375 0 
z
" id="ArialMT-110"/>
       <path d="M 5.8125 54.390625 
Q 5.8125 62.0625 9.671875 67.421875 
Q 13.53125 72.796875 20.84375 72.796875 
Q 27.59375 72.796875 32 67.984375 
Q 36.421875 63.1875 36.421875 53.859375 
Q 36.421875 44.78125 31.953125 39.875 
Q 27.484375 34.96875 20.953125 34.96875 
Q 14.453125 34.96875 10.125 39.796875 
Q 5.8125 44.625 5.8125 54.390625 
z
M 21.09375 66.75 
Q 17.828125 66.75 15.65625 63.90625 
Q 13.484375 61.078125 13.484375 53.515625 
Q 13.484375 46.625 15.671875 43.8125 
Q 17.875 41.015625 21.09375 41.015625 
Q 24.421875 41.015625 26.59375 43.84375 
Q 28.765625 46.6875 28.765625 54.203125 
Q 28.765625 61.140625 26.5625 63.9375 
Q 24.359375 66.75 21.09375 66.75 
z
M 21.140625 -2.640625 
L 60.296875 72.796875 
L 67.4375 72.796875 
L 28.421875 -2.640625 
z
M 52.09375 16.796875 
Q 52.09375 24.515625 55.953125 29.859375 
Q 59.8125 35.203125 67.1875 35.203125 
Q 73.921875 35.203125 78.34375 30.390625 
Q 82.765625 25.59375 82.765625 16.265625 
Q 82.765625 7.171875 78.296875 2.265625 
Q 73.828125 -2.640625 67.234375 -2.640625 
Q 60.75 -2.640625 56.421875 2.21875 
Q 52.09375 7.078125 52.09375 16.796875 
z
M 67.4375 29.15625 
Q 64.109375 29.15625 61.9375 26.3125 
Q 59.765625 23.484375 59.765625 15.921875 
Q 59.765625 9.078125 61.953125 6.25 
Q 64.15625 3.421875 67.390625 3.421875 
Q 70.75 3.421875 72.921875 6.25 
Q 75.09375 9.078125 75.09375 16.609375 
Q 75.09375 23.53125 72.890625 26.34375 
Q 70.703125 29.15625 67.4375 29.15625 
z
" id="ArialMT-37"/>
      </defs>
      <use xlink:href="#ArialMT-86"/>
      <use x="59.324219" xlink:href="#ArialMT-97"/>
      <use x="114.939453" xlink:href="#ArialMT-108"/>
      <use x="137.15625" xlink:href="#ArialMT-118"/>
      <use x="187.15625" xlink:href="#ArialMT-101"/>
      <use x="242.771484" xlink:href="#ArialMT-32"/>
      <use x="270.554688" xlink:href="#ArialMT-80"/>
      <use x="337.253906" xlink:href="#ArialMT-111"/>
      <use x="392.869141" xlink:href="#ArialMT-115"/>
      <use x="442.869141" xlink:href="#ArialMT-105"/>
      <use x="465.085938" xlink:href="#ArialMT-116"/>
      <use x="492.869141" xlink:href="#ArialMT-105"/>
      <use x="515.085938" xlink:href="#ArialMT-111"/>
      <use x="570.701172" xlink:href="#ArialMT-110"/>
      <use x="626.316406" xlink:href="#ArialMT-32"/>
      <use x="654.099609" xlink:href="#ArialMT-40"/>
      <use x="687.400391" xlink:href="#ArialMT-37"/>
      <use x="776.316406" xlink:href="#ArialMT-32"/>
      <use x="804.099609" xlink:href="#ArialMT-111"/>
      <use x="859.714844" xlink:href="#ArialMT-112"/>
      <use x="915.330078" xlink:href="#ArialMT-101"/>
      <use x="970.945312" xlink:href="#ArialMT-110"/>
      <use x="1026.560547" xlink:href="#ArialMT-41"/>
     </g>
    </g>
   </g>
   <g id="line2d_13">
    <path clip-path="url(#pb1a922a164)" d="M 74.059801 165.932969 
L 130.794028 165.932969 
L 142.653487 119.715846 
L 143.688348 117.916241 
L 144.308928 116.934639 
L 144.922771 117.916241 
L 145.335097 118.243442 
L 146.586268 120.206647 
L 147.000855 120.533848 
L 149.708482 124.78746 
L 150.124818 125.11466 
L 151.79533 127.568667 
L 152.00338 127.732267 
L 156.805619 135.094287 
L 157.221638 135.421488 
L 162.437363 143.60151 
L 165.148614 139.266098 
L 166.189433 137.384693 
L 167.437505 135.257887 
L 168.680383 133.049282 
L 169.928976 130.840676 
L 172.874794 126.014463 
L 174.554008 122.906055 
L 177.256318 118.488843 
L 177.889004 117.34364 
L 178.300054 117.34364 
L 178.505453 117.180039 
L 178.922887 117.834441 
L 179.580057 118.325242 
L 179.787932 118.652443 
L 180.201713 118.979644 
L 180.833777 119.961247 
L 181.455633 120.452048 
L 182.081555 121.433651 
L 182.499536 121.760852 
L 182.70961 122.088052 
L 183.13392 122.415253 
L 183.344081 122.742454 
L 183.763873 123.069655 
L 183.966678 123.069655 
L 184.598426 123.887657 
L 185.018931 123.887657 
L 185.432061 124.214858 
L 186.270147 125.523662 
L 186.891472 125.523662 
L 187.927649 126.996065 
L 188.340164 127.323266 
L 189.16579 128.468469 
L 189.581637 128.468469 
L 189.788662 128.63207 
L 191.68142 131.413277 
L 192.09461 131.740478 
L 193.335547 133.376482 
L 194.987933 135.994089 
L 195.607835 136.484891 
L 196.020413 137.139292 
L 196.228714 137.139292 
L 199.75801 142.538107 
L 200.176631 142.865308 
L 200.80345 142.865308 
L 201.43323 143.356109 
L 201.641746 143.028908 
L 202.056353 142.701707 
L 202.880359 141.556504 
L 203.304594 141.229303 
L 204.555702 139.102498 
L 209.316766 129.777273 
L 210.142368 128.304869 
L 212.621828 123.560456 
L 213.447022 122.088052 
L 216.131422 116.934639 
L 216.335869 116.607438 
L 216.748908 116.280237 
L 217.163129 115.625835 
L 234.380684 142.783507 
L 251.756261 115.298634 
L 266.837217 139.184298 
L 269.107085 142.783507 
L 286.296973 115.625835 
L 286.504476 115.625835 
L 295.603875 130.022673 
L 303.667867 142.783507 
L 320.80481 115.625835 
L 321.216437 115.953036 
L 324.314613 120.861049 
L 324.734074 121.18825 
L 328.230875 126.750665 
L 338.144149 142.456306 
L 355.058255 115.625835 
L 355.473042 115.953036 
L 357.940199 119.715846 
L 357.940199 119.715846 
" style="fill:none;stroke:#ff7f0e;stroke-linecap:round;stroke-width:1.5;"/>
   </g>
   <g id="patch_7">
    <path d="M 59.865781 165.932969 
L 59.865781 18.692578 
" style="fill:none;stroke:#262626;stroke-linecap:square;stroke-linejoin:miter;stroke-width:0.8;"/>
   </g>
   <g id="patch_8">
    <path d="M 372.134219 165.932969 
L 372.134219 18.692578 
" style="fill:none;stroke:#262626;stroke-linecap:square;stroke-linejoin:miter;stroke-width:0.8;"/>
   </g>
   <g id="patch_9">
    <path d="M 59.865781 165.932969 
L 372.134219 165.932969 
" style="fill:none;stroke:#262626;stroke-linecap:square;stroke-linejoin:miter;stroke-width:0.8;"/>
   </g>
   <g id="patch_10">
    <path d="M 59.865781 18.692578 
L 372.134219 18.692578 
" style="fill:none;stroke:#262626;stroke-linecap:square;stroke-linejoin:miter;stroke-width:0.8;"/>
   </g>
   <g id="text_23">
    <!-- Valve Position -->
    <g style="fill:#ff7f0e;" transform="translate(263.221541 107.036812)scale(0.13 -0.13)">
     <use xlink:href="#ArialMT-86"/>
     <use x="59.324219" xlink:href="#ArialMT-97"/>
     <use x="114.939453" xlink:href="#ArialMT-108"/>
     <use x="137.15625" xlink:href="#ArialMT-118"/>
     <use x="187.15625" xlink:href="#ArialMT-101"/>
     <use x="242.771484" xlink:href="#ArialMT-32"/>
     <use x="270.554688" xlink:href="#ArialMT-80"/>
     <use x="337.253906" xlink:href="#ArialMT-111"/>
     <use x="392.869141" xlink:href="#ArialMT-115"/>
     <use x="442.869141" xlink:href="#ArialMT-105"/>
     <use x="465.085938" xlink:href="#ArialMT-116"/>
     <use x="492.869141" xlink:href="#ArialMT-105"/>
     <use x="515.085938" xlink:href="#ArialMT-111"/>
     <use x="570.701172" xlink:href="#ArialMT-110"/>
    </g>
   </g>
  </g>
 </g>
 <defs>
  <clipPath id="pb1a922a164">
   <rect height="147.240391" width="312.268438" x="59.865781" y="18.692578"/>
  </clipPath>
 </defs>
</svg>
