<?xml version="1.0" encoding="utf-8" standalone="no"?>
<!DOCTYPE svg PUBLIC "-//W3C//DTD SVG 1.1//EN"
  "http://www.w3.org/Graphics/SVG/1.1/DTD/svg11.dtd">
<!-- Created with matplotlib (https://matplotlib.org/) -->
<svg height="216pt" version="1.1" viewBox="0 0 432 216" width="432pt" xmlns="http://www.w3.org/2000/svg" xmlns:xlink="http://www.w3.org/1999/xlink">
 <metadata>
  <rdf:RDF xmlns:cc="http://creativecommons.org/ns#" xmlns:dc="http://purl.org/dc/elements/1.1/" xmlns:rdf="http://www.w3.org/1999/02/22-rdf-syntax-ns#">
   <cc:Work>
    <dc:type rdf:resource="http://purl.org/dc/dcmitype/StillImage"/>
    <dc:date>2022-03-17T15:26:40.998201</dc:date>
    <dc:format>image/svg+xml</dc:format>
    <dc:creator>
     <cc:Agent>
      <dc:title>Matplotlib v3.3.4, https://matplotlib.org/</dc:title>
     </cc:Agent>
    </dc:creator>
   </cc:Work>
  </rdf:RDF>
 </metadata>
 <defs>
  <style type="text/css">*{stroke-linecap:butt;stroke-linejoin:round;}</style>
 </defs>
 <g id="figure_1">
  <g id="patch_1">
   <path d="M 0 216 
L 432 216 
L 432 0 
L 0 0 
z
" style="fill:#ffffff;"/>
  </g>
  <g id="axes_1">
   <g id="patch_2">
    <path d="M 59.865781 165.932969 
L 417.96 165.932969 
L 417.96 14.04 
L 59.865781 14.04 
z
" style="fill:#ffffff;"/>
   </g>
   <g id="matplotlib.axis_1">
    <g id="xtick_1">
     <g id="text_1">
      <!-- 0 -->
      <g style="fill:#262626;" transform="translate(86.832221 182.238125)scale(0.13 -0.13)">
       <defs>
        <path d="M 4.15625 35.296875 
Q 4.15625 48 6.765625 55.734375 
Q 9.375 63.484375 14.515625 67.671875 
Q 19.671875 71.875 27.484375 71.875 
Q 33.25 71.875 37.59375 69.546875 
Q 41.9375 67.234375 44.765625 62.859375 
Q 47.609375 58.5 49.21875 52.21875 
Q 50.828125 45.953125 50.828125 35.296875 
Q 50.828125 22.703125 48.234375 14.96875 
Q 45.65625 7.234375 40.5 3 
Q 35.359375 -1.21875 27.484375 -1.21875 
Q 17.140625 -1.21875 11.234375 6.203125 
Q 4.15625 15.140625 4.15625 35.296875 
z
M 13.1875 35.296875 
Q 13.1875 17.671875 17.3125 11.828125 
Q 21.4375 6 27.484375 6 
Q 33.546875 6 37.671875 11.859375 
Q 41.796875 17.71875 41.796875 35.296875 
Q 41.796875 52.984375 37.671875 58.78125 
Q 33.546875 64.59375 27.390625 64.59375 
Q 21.34375 64.59375 17.71875 59.46875 
Q 13.1875 52.9375 13.1875 35.296875 
z
" id="ArialMT-48"/>
       </defs>
       <use xlink:href="#ArialMT-48"/>
      </g>
     </g>
    </g>
    <g id="xtick_2">
     <g id="text_2">
      <!-- 5 -->
      <g style="fill:#262626;" transform="translate(137.340276 182.238125)scale(0.13 -0.13)">
       <defs>
        <path d="M 4.15625 18.75 
L 13.375 19.53125 
Q 14.40625 12.796875 18.140625 9.390625 
Q 21.875 6 27.15625 6 
Q 33.5 6 37.890625 10.78125 
Q 42.28125 15.578125 42.28125 23.484375 
Q 42.28125 31 38.0625 35.34375 
Q 33.84375 39.703125 27 39.703125 
Q 22.75 39.703125 19.328125 37.765625 
Q 15.921875 35.84375 13.96875 32.765625 
L 5.71875 33.84375 
L 12.640625 70.609375 
L 48.25 70.609375 
L 48.25 62.203125 
L 19.671875 62.203125 
L 15.828125 42.96875 
Q 22.265625 47.46875 29.34375 47.46875 
Q 38.71875 47.46875 45.15625 40.96875 
Q 51.609375 34.46875 51.609375 24.265625 
Q 51.609375 14.546875 45.953125 7.46875 
Q 39.0625 -1.21875 27.15625 -1.21875 
Q 17.390625 -1.21875 11.203125 4.25 
Q 5.03125 9.71875 4.15625 18.75 
z
" id="ArialMT-53"/>
       </defs>
       <use xlink:href="#ArialMT-53"/>
      </g>
     </g>
    </g>
    <g id="xtick_3">
     <g id="text_3">
      <!-- 10 -->
      <g style="fill:#262626;" transform="translate(184.233722 182.238125)scale(0.13 -0.13)">
       <defs>
        <path d="M 37.25 0 
L 28.46875 0 
L 28.46875 56 
Q 25.296875 52.984375 20.140625 49.953125 
Q 14.984375 46.921875 10.890625 45.40625 
L 10.890625 53.90625 
Q 18.265625 57.375 23.78125 62.296875 
Q 29.296875 67.234375 31.59375 71.875 
L 37.25 71.875 
z
" id="ArialMT-49"/>
       </defs>
       <use xlink:href="#ArialMT-49"/>
       <use x="55.615234" xlink:href="#ArialMT-48"/>
      </g>
     </g>
    </g>
    <g id="xtick_4">
     <g id="text_4">
      <!-- 15 -->
      <g style="fill:#262626;" transform="translate(234.741777 182.238125)scale(0.13 -0.13)">
       <use xlink:href="#ArialMT-49"/>
       <use x="55.615234" xlink:href="#ArialMT-53"/>
      </g>
     </g>
    </g>
    <g id="xtick_5">
     <g id="text_5">
      <!-- 20 -->
      <g style="fill:#262626;" transform="translate(285.249832 182.238125)scale(0.13 -0.13)">
       <defs>
        <path d="M 50.34375 8.453125 
L 50.34375 0 
L 3.03125 0 
Q 2.9375 3.171875 4.046875 6.109375 
Q 5.859375 10.9375 9.828125 15.625 
Q 13.8125 20.3125 21.34375 26.46875 
Q 33.015625 36.03125 37.109375 41.625 
Q 41.21875 47.21875 41.21875 52.203125 
Q 41.21875 57.421875 37.46875 61 
Q 33.734375 64.59375 27.734375 64.59375 
Q 21.390625 64.59375 17.578125 60.78125 
Q 13.765625 56.984375 13.71875 50.25 
L 4.6875 51.171875 
Q 5.609375 61.28125 11.65625 66.578125 
Q 17.71875 71.875 27.9375 71.875 
Q 38.234375 71.875 44.234375 66.15625 
Q 50.25 60.453125 50.25 52 
Q 50.25 47.703125 48.484375 43.546875 
Q 46.734375 39.40625 42.65625 34.8125 
Q 38.578125 30.21875 29.109375 22.21875 
Q 21.1875 15.578125 18.9375 13.203125 
Q 16.703125 10.84375 15.234375 8.453125 
z
" id="ArialMT-50"/>
       </defs>
       <use xlink:href="#ArialMT-50"/>
       <use x="55.615234" xlink:href="#ArialMT-48"/>
      </g>
     </g>
    </g>
    <g id="xtick_6">
     <g id="text_6">
      <!-- 25 -->
      <g style="fill:#262626;" transform="translate(335.757888 182.238125)scale(0.13 -0.13)">
       <use xlink:href="#ArialMT-50"/>
       <use x="55.615234" xlink:href="#ArialMT-53"/>
      </g>
     </g>
    </g>
    <g id="xtick_7">
     <g id="text_7">
      <!-- 30 -->
      <g style="fill:#262626;" transform="translate(386.265943 182.238125)scale(0.13 -0.13)">
       <defs>
        <path d="M 4.203125 18.890625 
L 12.984375 20.0625 
Q 14.5 12.59375 18.140625 9.296875 
Q 21.78125 6 27 6 
Q 33.203125 6 37.46875 10.296875 
Q 41.75 14.59375 41.75 20.953125 
Q 41.75 27 37.796875 30.921875 
Q 33.84375 34.859375 27.734375 34.859375 
Q 25.25 34.859375 21.53125 33.890625 
L 22.515625 41.609375 
Q 23.390625 41.5 23.921875 41.5 
Q 29.546875 41.5 34.03125 44.421875 
Q 38.53125 47.359375 38.53125 53.46875 
Q 38.53125 58.296875 35.25 61.46875 
Q 31.984375 64.65625 26.8125 64.65625 
Q 21.6875 64.65625 18.265625 61.421875 
Q 14.84375 58.203125 13.875 51.765625 
L 5.078125 53.328125 
Q 6.6875 62.15625 12.390625 67.015625 
Q 18.109375 71.875 26.609375 71.875 
Q 32.46875 71.875 37.390625 69.359375 
Q 42.328125 66.84375 44.9375 62.5 
Q 47.5625 58.15625 47.5625 53.265625 
Q 47.5625 48.640625 45.0625 44.828125 
Q 42.578125 41.015625 37.703125 38.765625 
Q 44.046875 37.3125 47.5625 32.6875 
Q 51.078125 28.078125 51.078125 21.140625 
Q 51.078125 11.765625 44.234375 5.25 
Q 37.40625 -1.265625 26.953125 -1.265625 
Q 17.53125 -1.265625 11.296875 4.34375 
Q 5.078125 9.96875 4.203125 18.890625 
z
" id="ArialMT-51"/>
       </defs>
       <use xlink:href="#ArialMT-51"/>
       <use x="55.615234" xlink:href="#ArialMT-48"/>
      </g>
     </g>
    </g>
    <g id="text_8">
     <!-- Supply Pressure (psig) -->
     <g style="fill:#262626;" transform="translate(168.110078 199.013438)scale(0.14 -0.14)">
      <defs>
       <path d="M 4.5 23 
L 13.421875 23.78125 
Q 14.0625 18.40625 16.375 14.96875 
Q 18.703125 11.53125 23.578125 9.40625 
Q 28.46875 7.28125 34.578125 7.28125 
Q 39.984375 7.28125 44.140625 8.890625 
Q 48.296875 10.5 50.3125 13.296875 
Q 52.34375 16.109375 52.34375 19.4375 
Q 52.34375 22.796875 50.390625 25.3125 
Q 48.4375 27.828125 43.953125 29.546875 
Q 41.0625 30.671875 31.203125 33.03125 
Q 21.34375 35.40625 17.390625 37.5 
Q 12.25 40.1875 9.734375 44.15625 
Q 7.234375 48.140625 7.234375 53.078125 
Q 7.234375 58.5 10.296875 63.203125 
Q 13.375 67.921875 19.28125 70.359375 
Q 25.203125 72.796875 32.421875 72.796875 
Q 40.375 72.796875 46.453125 70.234375 
Q 52.546875 67.671875 55.8125 62.6875 
Q 59.078125 57.71875 59.328125 51.421875 
L 50.25 50.734375 
Q 49.515625 57.515625 45.28125 60.984375 
Q 41.0625 64.453125 32.8125 64.453125 
Q 24.21875 64.453125 20.28125 61.296875 
Q 16.359375 58.15625 16.359375 53.71875 
Q 16.359375 49.859375 19.140625 47.359375 
Q 21.875 44.875 33.421875 42.265625 
Q 44.96875 39.65625 49.265625 37.703125 
Q 55.515625 34.8125 58.484375 30.390625 
Q 61.46875 25.984375 61.46875 20.21875 
Q 61.46875 14.5 58.203125 9.4375 
Q 54.9375 4.390625 48.796875 1.578125 
Q 42.671875 -1.21875 35.015625 -1.21875 
Q 25.296875 -1.21875 18.71875 1.609375 
Q 12.15625 4.4375 8.421875 10.125 
Q 4.6875 15.828125 4.5 23 
z
" id="ArialMT-83"/>
       <path d="M 40.578125 0 
L 40.578125 7.625 
Q 34.515625 -1.171875 24.125 -1.171875 
Q 19.53125 -1.171875 15.546875 0.578125 
Q 11.578125 2.34375 9.640625 5 
Q 7.71875 7.671875 6.9375 11.53125 
Q 6.390625 14.109375 6.390625 19.734375 
L 6.390625 51.859375 
L 15.1875 51.859375 
L 15.1875 23.09375 
Q 15.1875 16.21875 15.71875 13.8125 
Q 16.546875 10.359375 19.234375 8.375 
Q 21.921875 6.390625 25.875 6.390625 
Q 29.828125 6.390625 33.296875 8.421875 
Q 36.765625 10.453125 38.203125 13.9375 
Q 39.65625 17.4375 39.65625 24.078125 
L 39.65625 51.859375 
L 48.4375 51.859375 
L 48.4375 0 
z
" id="ArialMT-117"/>
       <path d="M 6.59375 -19.875 
L 6.59375 51.859375 
L 14.59375 51.859375 
L 14.59375 45.125 
Q 17.4375 49.078125 21 51.046875 
Q 24.5625 53.03125 29.640625 53.03125 
Q 36.28125 53.03125 41.359375 49.609375 
Q 46.4375 46.1875 49.015625 39.953125 
Q 51.609375 33.734375 51.609375 26.3125 
Q 51.609375 18.359375 48.75 11.984375 
Q 45.90625 5.609375 40.453125 2.21875 
Q 35.015625 -1.171875 29 -1.171875 
Q 24.609375 -1.171875 21.109375 0.6875 
Q 17.625 2.546875 15.375 5.375 
L 15.375 -19.875 
z
M 14.546875 25.640625 
Q 14.546875 15.625 18.59375 10.84375 
Q 22.65625 6.0625 28.421875 6.0625 
Q 34.28125 6.0625 38.453125 11.015625 
Q 42.625 15.96875 42.625 26.375 
Q 42.625 36.28125 38.546875 41.203125 
Q 34.46875 46.140625 28.8125 46.140625 
Q 23.1875 46.140625 18.859375 40.890625 
Q 14.546875 35.640625 14.546875 25.640625 
z
" id="ArialMT-112"/>
       <path d="M 6.390625 0 
L 6.390625 71.578125 
L 15.1875 71.578125 
L 15.1875 0 
z
" id="ArialMT-108"/>
       <path d="M 6.203125 -19.96875 
L 5.21875 -11.71875 
Q 8.109375 -12.5 10.25 -12.5 
Q 13.1875 -12.5 14.9375 -11.515625 
Q 16.703125 -10.546875 17.828125 -8.796875 
Q 18.65625 -7.46875 20.515625 -2.25 
Q 20.75 -1.515625 21.296875 -0.09375 
L 1.609375 51.859375 
L 11.078125 51.859375 
L 21.875 21.828125 
Q 23.96875 16.109375 25.640625 9.8125 
Q 27.15625 15.875 29.25 21.625 
L 40.328125 51.859375 
L 49.125 51.859375 
L 29.390625 -0.875 
Q 26.21875 -9.421875 24.46875 -12.640625 
Q 22.125 -17 19.09375 -19.015625 
Q 16.0625 -21.046875 11.859375 -21.046875 
Q 9.328125 -21.046875 6.203125 -19.96875 
z
" id="ArialMT-121"/>
       <path id="ArialMT-32"/>
       <path d="M 7.71875 0 
L 7.71875 71.578125 
L 34.71875 71.578125 
Q 41.84375 71.578125 45.609375 70.90625 
Q 50.875 70.015625 54.4375 67.546875 
Q 58.015625 65.09375 60.1875 60.640625 
Q 62.359375 56.203125 62.359375 50.875 
Q 62.359375 41.75 56.546875 35.421875 
Q 50.734375 29.109375 35.546875 29.109375 
L 17.1875 29.109375 
L 17.1875 0 
z
M 17.1875 37.546875 
L 35.6875 37.546875 
Q 44.875 37.546875 48.734375 40.96875 
Q 52.59375 44.390625 52.59375 50.59375 
Q 52.59375 55.078125 50.3125 58.265625 
Q 48.046875 61.46875 44.34375 62.5 
Q 41.9375 63.140625 35.5 63.140625 
L 17.1875 63.140625 
z
" id="ArialMT-80"/>
       <path d="M 6.5 0 
L 6.5 51.859375 
L 14.40625 51.859375 
L 14.40625 44 
Q 17.4375 49.515625 20 51.265625 
Q 22.5625 53.03125 25.640625 53.03125 
Q 30.078125 53.03125 34.671875 50.203125 
L 31.640625 42.046875 
Q 28.421875 43.953125 25.203125 43.953125 
Q 22.3125 43.953125 20.015625 42.21875 
Q 17.71875 40.484375 16.75 37.40625 
Q 15.28125 32.71875 15.28125 27.15625 
L 15.28125 0 
z
" id="ArialMT-114"/>
       <path d="M 42.09375 16.703125 
L 51.171875 15.578125 
Q 49.03125 7.625 43.21875 3.21875 
Q 37.40625 -1.171875 28.375 -1.171875 
Q 17 -1.171875 10.328125 5.828125 
Q 3.65625 12.84375 3.65625 25.484375 
Q 3.65625 38.578125 10.390625 45.796875 
Q 17.140625 53.03125 27.875 53.03125 
Q 38.28125 53.03125 44.875 45.953125 
Q 51.46875 38.875 51.46875 26.03125 
Q 51.46875 25.25 51.421875 23.6875 
L 12.75 23.6875 
Q 13.234375 15.140625 17.578125 10.59375 
Q 21.921875 6.0625 28.421875 6.0625 
Q 33.25 6.0625 36.671875 8.59375 
Q 40.09375 11.140625 42.09375 16.703125 
z
M 13.234375 30.90625 
L 42.1875 30.90625 
Q 41.609375 37.453125 38.875 40.71875 
Q 34.671875 45.796875 27.984375 45.796875 
Q 21.921875 45.796875 17.796875 41.75 
Q 13.671875 37.703125 13.234375 30.90625 
z
" id="ArialMT-101"/>
       <path d="M 3.078125 15.484375 
L 11.765625 16.84375 
Q 12.5 11.625 15.84375 8.84375 
Q 19.1875 6.0625 25.203125 6.0625 
Q 31.25 6.0625 34.171875 8.515625 
Q 37.109375 10.984375 37.109375 14.3125 
Q 37.109375 17.28125 34.515625 19 
Q 32.71875 20.171875 25.53125 21.96875 
Q 15.875 24.421875 12.140625 26.203125 
Q 8.40625 27.984375 6.46875 31.125 
Q 4.546875 34.28125 4.546875 38.09375 
Q 4.546875 41.546875 6.125 44.5 
Q 7.71875 47.46875 10.453125 49.421875 
Q 12.5 50.921875 16.03125 51.96875 
Q 19.578125 53.03125 23.640625 53.03125 
Q 29.734375 53.03125 34.34375 51.265625 
Q 38.96875 49.515625 41.15625 46.5 
Q 43.359375 43.5 44.1875 38.484375 
L 35.59375 37.3125 
Q 35.015625 41.3125 32.203125 43.546875 
Q 29.390625 45.796875 24.265625 45.796875 
Q 18.21875 45.796875 15.625 43.796875 
Q 13.03125 41.796875 13.03125 39.109375 
Q 13.03125 37.40625 14.109375 36.03125 
Q 15.1875 34.625 17.484375 33.6875 
Q 18.796875 33.203125 25.25 31.453125 
Q 34.578125 28.953125 38.25 27.359375 
Q 41.9375 25.78125 44.03125 22.75 
Q 46.140625 19.734375 46.140625 15.234375 
Q 46.140625 10.84375 43.578125 6.953125 
Q 41.015625 3.078125 36.171875 0.953125 
Q 31.34375 -1.171875 25.25 -1.171875 
Q 15.140625 -1.171875 9.84375 3.03125 
Q 4.546875 7.234375 3.078125 15.484375 
z
" id="ArialMT-115"/>
       <path d="M 23.390625 -21.046875 
Q 16.109375 -11.859375 11.078125 0.4375 
Q 6.0625 12.75 6.0625 25.921875 
Q 6.0625 37.546875 9.8125 48.1875 
Q 14.203125 60.546875 23.390625 72.796875 
L 29.6875 72.796875 
Q 23.78125 62.640625 21.875 58.296875 
Q 18.890625 51.5625 17.1875 44.234375 
Q 15.09375 35.109375 15.09375 25.875 
Q 15.09375 2.390625 29.6875 -21.046875 
z
" id="ArialMT-40"/>
       <path d="M 6.640625 61.46875 
L 6.640625 71.578125 
L 15.4375 71.578125 
L 15.4375 61.46875 
z
M 6.640625 0 
L 6.640625 51.859375 
L 15.4375 51.859375 
L 15.4375 0 
z
" id="ArialMT-105"/>
       <path d="M 4.984375 -4.296875 
L 13.53125 -5.5625 
Q 14.0625 -9.515625 16.5 -11.328125 
Q 19.78125 -13.765625 25.4375 -13.765625 
Q 31.546875 -13.765625 34.859375 -11.328125 
Q 38.1875 -8.890625 39.359375 -4.5 
Q 40.046875 -1.8125 39.984375 6.78125 
Q 34.234375 0 25.640625 0 
Q 14.9375 0 9.078125 7.71875 
Q 3.21875 15.4375 3.21875 26.21875 
Q 3.21875 33.640625 5.90625 39.90625 
Q 8.59375 46.1875 13.6875 49.609375 
Q 18.796875 53.03125 25.6875 53.03125 
Q 34.859375 53.03125 40.828125 45.609375 
L 40.828125 51.859375 
L 48.921875 51.859375 
L 48.921875 7.03125 
Q 48.921875 -5.078125 46.453125 -10.125 
Q 44 -15.1875 38.640625 -18.109375 
Q 33.296875 -21.046875 25.484375 -21.046875 
Q 16.21875 -21.046875 10.5 -16.875 
Q 4.78125 -12.703125 4.984375 -4.296875 
z
M 12.25 26.859375 
Q 12.25 16.65625 16.296875 11.96875 
Q 20.359375 7.28125 26.46875 7.28125 
Q 32.515625 7.28125 36.609375 11.9375 
Q 40.71875 16.609375 40.71875 26.5625 
Q 40.71875 36.078125 36.5 40.90625 
Q 32.28125 45.75 26.3125 45.75 
Q 20.453125 45.75 16.34375 40.984375 
Q 12.25 36.234375 12.25 26.859375 
z
" id="ArialMT-103"/>
       <path d="M 12.359375 -21.046875 
L 6.0625 -21.046875 
Q 20.65625 2.390625 20.65625 25.875 
Q 20.65625 35.0625 18.5625 44.09375 
Q 16.890625 51.421875 13.921875 58.15625 
Q 12.015625 62.546875 6.0625 72.796875 
L 12.359375 72.796875 
Q 21.53125 60.546875 25.921875 48.1875 
Q 29.6875 37.546875 29.6875 25.921875 
Q 29.6875 12.75 24.625 0.4375 
Q 19.578125 -11.859375 12.359375 -21.046875 
z
" id="ArialMT-41"/>
      </defs>
      <use xlink:href="#ArialMT-83"/>
      <use x="66.699219" xlink:href="#ArialMT-117"/>
      <use x="122.314453" xlink:href="#ArialMT-112"/>
      <use x="177.929688" xlink:href="#ArialMT-112"/>
      <use x="233.544922" xlink:href="#ArialMT-108"/>
      <use x="255.761719" xlink:href="#ArialMT-121"/>
      <use x="305.761719" xlink:href="#ArialMT-32"/>
      <use x="333.544922" xlink:href="#ArialMT-80"/>
      <use x="400.244141" xlink:href="#ArialMT-114"/>
      <use x="433.544922" xlink:href="#ArialMT-101"/>
      <use x="489.160156" xlink:href="#ArialMT-115"/>
      <use x="539.160156" xlink:href="#ArialMT-115"/>
      <use x="589.160156" xlink:href="#ArialMT-117"/>
      <use x="644.775391" xlink:href="#ArialMT-114"/>
      <use x="678.076172" xlink:href="#ArialMT-101"/>
      <use x="733.691406" xlink:href="#ArialMT-32"/>
      <use x="761.474609" xlink:href="#ArialMT-40"/>
      <use x="794.775391" xlink:href="#ArialMT-112"/>
      <use x="850.390625" xlink:href="#ArialMT-115"/>
      <use x="900.390625" xlink:href="#ArialMT-105"/>
      <use x="922.607422" xlink:href="#ArialMT-103"/>
      <use x="978.222656" xlink:href="#ArialMT-41"/>
     </g>
    </g>
   </g>
   <g id="matplotlib.axis_2">
    <g id="ytick_1">
     <g id="text_9">
      <!-- 0 -->
      <g style="fill:#262626;" transform="translate(45.636563 163.675924)scale(0.13 -0.13)">
       <use xlink:href="#ArialMT-48"/>
      </g>
     </g>
    </g>
    <g id="ytick_2">
     <g id="text_10">
      <!-- 50 -->
      <g style="fill:#262626;" transform="translate(38.407344 136.689425)scale(0.13 -0.13)">
       <use xlink:href="#ArialMT-53"/>
       <use x="55.615234" xlink:href="#ArialMT-48"/>
      </g>
     </g>
    </g>
    <g id="ytick_3">
     <g id="text_11">
      <!-- 100 -->
      <g style="fill:#262626;" transform="translate(31.178125 109.702926)scale(0.13 -0.13)">
       <use xlink:href="#ArialMT-49"/>
       <use x="55.615234" xlink:href="#ArialMT-48"/>
       <use x="111.230469" xlink:href="#ArialMT-48"/>
      </g>
     </g>
    </g>
    <g id="ytick_4">
     <g id="text_12">
      <!-- 150 -->
      <g style="fill:#262626;" transform="translate(31.178125 82.716427)scale(0.13 -0.13)">
       <use xlink:href="#ArialMT-49"/>
       <use x="55.615234" xlink:href="#ArialMT-53"/>
       <use x="111.230469" xlink:href="#ArialMT-48"/>
      </g>
     </g>
    </g>
    <g id="ytick_5">
     <g id="text_13">
      <!-- 200 -->
      <g style="fill:#262626;" transform="translate(31.178125 55.729929)scale(0.13 -0.13)">
       <use xlink:href="#ArialMT-50"/>
       <use x="55.615234" xlink:href="#ArialMT-48"/>
       <use x="111.230469" xlink:href="#ArialMT-48"/>
      </g>
     </g>
    </g>
    <g id="ytick_6">
     <g id="text_14">
      <!-- 250 -->
      <g style="fill:#262626;" transform="translate(31.178125 28.74343)scale(0.13 -0.13)">
       <use xlink:href="#ArialMT-50"/>
       <use x="55.615234" xlink:href="#ArialMT-53"/>
       <use x="111.230469" xlink:href="#ArialMT-48"/>
      </g>
     </g>
    </g>
    <g id="text_15">
     <!-- Mass Flow Rate (slm) -->
     <g style="fill:#262626;" transform="translate(24.231563 157.655703)rotate(-90)scale(0.14 -0.14)">
      <defs>
       <path d="M 7.421875 0 
L 7.421875 71.578125 
L 21.6875 71.578125 
L 38.625 20.90625 
Q 40.96875 13.8125 42.046875 10.296875 
Q 43.265625 14.203125 45.84375 21.78125 
L 62.984375 71.578125 
L 75.734375 71.578125 
L 75.734375 0 
L 66.609375 0 
L 66.609375 59.90625 
L 45.796875 0 
L 37.25 0 
L 16.546875 60.9375 
L 16.546875 0 
z
" id="ArialMT-77"/>
       <path d="M 40.4375 6.390625 
Q 35.546875 2.25 31.03125 0.53125 
Q 26.515625 -1.171875 21.34375 -1.171875 
Q 12.796875 -1.171875 8.203125 3 
Q 3.609375 7.171875 3.609375 13.671875 
Q 3.609375 17.484375 5.34375 20.625 
Q 7.078125 23.78125 9.890625 25.6875 
Q 12.703125 27.59375 16.21875 28.5625 
Q 18.796875 29.25 24.03125 29.890625 
Q 34.671875 31.15625 39.703125 32.90625 
Q 39.75 34.71875 39.75 35.203125 
Q 39.75 40.578125 37.25 42.78125 
Q 33.890625 45.75 27.25 45.75 
Q 21.046875 45.75 18.09375 43.578125 
Q 15.140625 41.40625 13.71875 35.890625 
L 5.125 37.0625 
Q 6.296875 42.578125 8.984375 45.96875 
Q 11.671875 49.359375 16.75 51.1875 
Q 21.828125 53.03125 28.515625 53.03125 
Q 35.15625 53.03125 39.296875 51.46875 
Q 43.453125 49.90625 45.40625 47.53125 
Q 47.359375 45.171875 48.140625 41.546875 
Q 48.578125 39.3125 48.578125 33.453125 
L 48.578125 21.734375 
Q 48.578125 9.46875 49.140625 6.21875 
Q 49.703125 2.984375 51.375 0 
L 42.1875 0 
Q 40.828125 2.734375 40.4375 6.390625 
z
M 39.703125 26.03125 
Q 34.90625 24.078125 25.34375 22.703125 
Q 19.921875 21.921875 17.671875 20.9375 
Q 15.4375 19.96875 14.203125 18.09375 
Q 12.984375 16.21875 12.984375 13.921875 
Q 12.984375 10.40625 15.640625 8.0625 
Q 18.3125 5.71875 23.4375 5.71875 
Q 28.515625 5.71875 32.46875 7.9375 
Q 36.421875 10.15625 38.28125 14.015625 
Q 39.703125 17 39.703125 22.796875 
z
" id="ArialMT-97"/>
       <path d="M 8.203125 0 
L 8.203125 71.578125 
L 56.5 71.578125 
L 56.5 63.140625 
L 17.671875 63.140625 
L 17.671875 40.96875 
L 51.265625 40.96875 
L 51.265625 32.515625 
L 17.671875 32.515625 
L 17.671875 0 
z
" id="ArialMT-70"/>
       <path d="M 3.328125 25.921875 
Q 3.328125 40.328125 11.328125 47.265625 
Q 18.015625 53.03125 27.640625 53.03125 
Q 38.328125 53.03125 45.109375 46.015625 
Q 51.90625 39.015625 51.90625 26.65625 
Q 51.90625 16.65625 48.90625 10.90625 
Q 45.90625 5.171875 40.15625 2 
Q 34.421875 -1.171875 27.640625 -1.171875 
Q 16.75 -1.171875 10.03125 5.8125 
Q 3.328125 12.796875 3.328125 25.921875 
z
M 12.359375 25.921875 
Q 12.359375 15.96875 16.703125 11.015625 
Q 21.046875 6.0625 27.640625 6.0625 
Q 34.1875 6.0625 38.53125 11.03125 
Q 42.875 16.015625 42.875 26.21875 
Q 42.875 35.84375 38.5 40.796875 
Q 34.125 45.75 27.640625 45.75 
Q 21.046875 45.75 16.703125 40.8125 
Q 12.359375 35.890625 12.359375 25.921875 
z
" id="ArialMT-111"/>
       <path d="M 16.15625 0 
L 0.296875 51.859375 
L 9.375 51.859375 
L 17.625 21.921875 
L 20.703125 10.796875 
Q 20.90625 11.625 23.390625 21.484375 
L 31.640625 51.859375 
L 40.671875 51.859375 
L 48.4375 21.78125 
L 51.03125 11.859375 
L 54 21.875 
L 62.890625 51.859375 
L 71.4375 51.859375 
L 55.21875 0 
L 46.09375 0 
L 37.84375 31.0625 
L 35.84375 39.890625 
L 25.34375 0 
z
" id="ArialMT-119"/>
       <path d="M 7.859375 0 
L 7.859375 71.578125 
L 39.59375 71.578125 
Q 49.171875 71.578125 54.140625 69.640625 
Q 59.125 67.71875 62.109375 62.828125 
Q 65.09375 57.953125 65.09375 52.046875 
Q 65.09375 44.4375 60.15625 39.203125 
Q 55.21875 33.984375 44.921875 32.5625 
Q 48.6875 30.765625 50.640625 29 
Q 54.78125 25.203125 58.5 19.484375 
L 70.953125 0 
L 59.03125 0 
L 49.5625 14.890625 
Q 45.40625 21.34375 42.71875 24.75 
Q 40.046875 28.171875 37.921875 29.53125 
Q 35.796875 30.90625 33.59375 31.453125 
Q 31.984375 31.78125 28.328125 31.78125 
L 17.328125 31.78125 
L 17.328125 0 
z
M 17.328125 39.984375 
L 37.703125 39.984375 
Q 44.1875 39.984375 47.84375 41.328125 
Q 51.515625 42.671875 53.421875 45.625 
Q 55.328125 48.578125 55.328125 52.046875 
Q 55.328125 57.125 51.640625 60.390625 
Q 47.953125 63.671875 39.984375 63.671875 
L 17.328125 63.671875 
z
" id="ArialMT-82"/>
       <path d="M 25.78125 7.859375 
L 27.046875 0.09375 
Q 23.34375 -0.6875 20.40625 -0.6875 
Q 15.625 -0.6875 12.984375 0.828125 
Q 10.359375 2.34375 9.28125 4.8125 
Q 8.203125 7.28125 8.203125 15.1875 
L 8.203125 45.015625 
L 1.765625 45.015625 
L 1.765625 51.859375 
L 8.203125 51.859375 
L 8.203125 64.703125 
L 16.9375 69.96875 
L 16.9375 51.859375 
L 25.78125 51.859375 
L 25.78125 45.015625 
L 16.9375 45.015625 
L 16.9375 14.703125 
Q 16.9375 10.9375 17.40625 9.859375 
Q 17.875 8.796875 18.921875 8.15625 
Q 19.96875 7.515625 21.921875 7.515625 
Q 23.390625 7.515625 25.78125 7.859375 
z
" id="ArialMT-116"/>
       <path d="M 6.59375 0 
L 6.59375 51.859375 
L 14.453125 51.859375 
L 14.453125 44.578125 
Q 16.890625 48.390625 20.9375 50.703125 
Q 25 53.03125 30.171875 53.03125 
Q 35.9375 53.03125 39.625 50.640625 
Q 43.3125 48.25 44.828125 43.953125 
Q 50.984375 53.03125 60.84375 53.03125 
Q 68.5625 53.03125 72.703125 48.75 
Q 76.859375 44.484375 76.859375 35.59375 
L 76.859375 0 
L 68.109375 0 
L 68.109375 32.671875 
Q 68.109375 37.9375 67.25 40.25 
Q 66.40625 42.578125 64.15625 43.984375 
Q 61.921875 45.40625 58.890625 45.40625 
Q 53.421875 45.40625 49.796875 41.765625 
Q 46.1875 38.140625 46.1875 30.125 
L 46.1875 0 
L 37.40625 0 
L 37.40625 33.6875 
Q 37.40625 39.546875 35.25 42.46875 
Q 33.109375 45.40625 28.21875 45.40625 
Q 24.515625 45.40625 21.359375 43.453125 
Q 18.21875 41.5 16.796875 37.734375 
Q 15.375 33.984375 15.375 26.90625 
L 15.375 0 
z
" id="ArialMT-109"/>
      </defs>
      <use xlink:href="#ArialMT-77"/>
      <use x="83.300781" xlink:href="#ArialMT-97"/>
      <use x="138.916016" xlink:href="#ArialMT-115"/>
      <use x="188.916016" xlink:href="#ArialMT-115"/>
      <use x="238.916016" xlink:href="#ArialMT-32"/>
      <use x="266.699219" xlink:href="#ArialMT-70"/>
      <use x="327.783203" xlink:href="#ArialMT-108"/>
      <use x="350" xlink:href="#ArialMT-111"/>
      <use x="405.615234" xlink:href="#ArialMT-119"/>
      <use x="477.832031" xlink:href="#ArialMT-32"/>
      <use x="505.615234" xlink:href="#ArialMT-82"/>
      <use x="577.832031" xlink:href="#ArialMT-97"/>
      <use x="633.447266" xlink:href="#ArialMT-116"/>
      <use x="661.230469" xlink:href="#ArialMT-101"/>
      <use x="716.845703" xlink:href="#ArialMT-32"/>
      <use x="744.628906" xlink:href="#ArialMT-40"/>
      <use x="777.929688" xlink:href="#ArialMT-115"/>
      <use x="827.929688" xlink:href="#ArialMT-108"/>
      <use x="850.146484" xlink:href="#ArialMT-109"/>
      <use x="933.447266" xlink:href="#ArialMT-41"/>
     </g>
    </g>
   </g>
   <g id="line2d_1">
    <path clip-path="url(#p47506021c2)" d="M 81.075218 159.017948 
L 76.142791 159.028743 
L 78.609005 158.9154 
L 78.609005 156.098009 
L 81.075218 154.284516 
L 81.075218 148.811654 
L 86.007646 142.782871 
L 90.940073 137.056336 
L 95.8725 134.093218 
L 95.8725 133.715407 
L 98.338714 133.785572 
L 95.8725 133.62905 
L 98.338714 133.402364 
L 98.338714 132.166382 
L 100.804927 132.160985 
L 100.804927 132.004463 
L 98.338714 131.680625 
L 98.338714 131.394568 
L 100.804927 131.572679 
L 100.804927 131.637447 
L 103.27114 131.367582 
L 100.804927 131.146292 
L 100.804927 130.968181 
L 100.804927 131.345992 
L 103.27114 131.238046 
L 103.27114 130.514808 
L 100.804927 130.757687 
L 103.27114 130.520206 
L 105.737354 130.547192 
L 103.27114 130.536397 
L 105.737354 130.19097 
L 103.27114 130.541795 
L 103.27114 129.867132 
L 105.737354 129.721405 
L 103.27114 129.699816 
L 103.27114 129.807762 
L 105.737354 130.163984 
L 105.737354 129.613459 
L 103.27114 129.618857 
L 105.737354 129.678227 
L 103.27114 129.224854 
L 105.737354 129.467732 
L 105.737354 129.645843 
L 105.737354 129.246443 
L 108.203568 129.089921 
L 105.737354 128.814659 
L 105.737354 129.154689 
L 105.737354 128.523205 
L 108.203568 128.323505 
L 108.203568 127.265634 
L 110.669782 127.465334 
L 108.203568 127.459937 
L 110.669782 127.584074 
L 110.669782 127.422156 
L 108.203568 127.298018 
L 110.669782 127.319607 
L 110.669782 127.308812 
L 108.203568 127.146893 
L 110.669782 126.95259 
L 108.203568 126.483025 
L 110.669782 126.898617 
L 113.135995 126.796069 
L 110.669782 126.720507 
L 110.669782 126.35349 
L 110.669782 126.661136 
L 113.135995 126.483025 
L 110.669782 126.364285 
L 113.135995 126.078228 
L 110.669782 126.304914 
L 113.135995 126.29412 
L 113.135995 125.641047 
L 113.135995 126.21316 
L 110.669782 125.786774 
L 113.135995 125.81376 
L 110.669782 125.802966 
L 115.602208 125.263236 
L 113.135995 125.322606 
L 115.602208 125.225455 
L 113.135995 124.378078 
L 113.135995 124.61556 
L 115.602208 124.459038 
L 115.602208 123.579278 
L 118.068423 123.287824 
L 118.068423 123.352591 
L 118.068423 122.462037 
L 120.534636 122.386475 
L 120.534636 120.821258 
L 123.00085 120.734901 
L 123.00085 120.950793 
L 123.00085 119.774182 
L 123.00085 120.044047 
L 125.467063 119.509714 
L 123.00085 119.714811 
L 123.00085 120.151993 
L 123.00085 119.41796 
L 123.00085 119.509714 
L 125.467063 119.142698 
L 123.00085 119.655441 
L 125.467063 119.347795 
L 125.467063 118.408665 
L 123.00085 118.683927 
L 125.467063 118.889025 
L 125.467063 118.300719 
L 127.933277 118.1388 
L 123.00085 117.982278 
L 127.933277 117.836551 
L 125.467063 117.712413 
L 120.534636 118.381678 
L 125.467063 117.955292 
L 127.933277 116.71931 
L 120.534636 117.043148 
L 127.933277 117.356191 
L 127.933277 116.57898 
L 127.933277 116.929805 
L 130.399491 116.514213 
L 130.399491 116.703118 
L 127.933277 116.422459 
L 130.399491 116.109415 
L 130.399491 116.184977 
L 130.399491 114.592774 
L 132.865704 115.208066 
L 132.865704 113.88033 
L 135.331917 113.842549 
L 135.331917 113.470136 
L 132.865704 113.194873 
L 135.331917 113.000571 
L 135.331917 113.189476 
L 135.331917 112.935803 
L 137.798132 113.135503 
L 135.331917 112.68213 
L 137.798132 112.692924 
L 137.798132 112.255743 
L 137.798132 112.660541 
L 140.264345 112.255743 
L 137.798132 112.293524 
L 137.798132 111.672835 
L 140.264345 111.494724 
L 140.264345 110.92261 
L 142.730559 110.733705 
L 142.730559 109.859342 
L 142.730559 110.52321 
L 145.196772 110.345099 
L 145.196772 109.465339 
L 142.730559 109.200872 
L 142.730559 109.260242 
L 142.730559 109.762191 
L 145.196772 109.335804 
L 145.196772 108.742101 
L 145.196772 109.011966 
L 147.662986 108.353495 
L 147.662986 107.722011 
L 147.662986 109.211666 
L 147.662986 107.792176 
L 150.1292 108.094425 
L 147.662986 107.700422 
L 150.1292 107.56549 
L 150.1292 107.236254 
L 152.595413 106.955595 
L 150.1292 106.815265 
L 152.595413 106.442851 
L 152.595413 105.687229 
L 152.595413 105.757394 
L 155.061627 106.210767 
L 155.061627 106.475235 
L 155.061627 105.341802 
L 152.595413 104.877634 
L 157.527841 105.341802 
L 157.527841 104.780483 
L 157.527841 105.028759 
L 159.994054 104.451248 
L 159.994054 103.528309 
L 162.460268 103.290828 
L 162.460268 102.119614 
L 159.994054 103.414966 
L 159.994054 102.502823 
L 162.460268 102.70792 
L 162.460268 101.450349 
L 164.926481 101.423363 
L 162.460268 101.984682 
L 164.926481 101.158895 
L 162.460268 101.067141 
L 164.926481 101.358595 
L 164.926481 99.879735 
L 167.392695 100.991579 
L 164.926481 101.272238 
L 164.926481 100.111819 
L 169.858909 100.473438 
L 167.392695 100.82966 
L 167.392695 99.982284 
L 167.392695 101.061743 
L 167.392695 100.160394 
L 162.460268 99.841954 
L 167.392695 99.966092 
L 167.392695 99.690829 
L 169.858909 99.480335 
L 169.858909 98.951399 
L 167.392695 98.400875 
L 169.858909 98.573588 
L 169.858909 99.307621 
L 169.858909 98.357696 
L 167.392695 97.521115 
L 172.325122 97.952899 
L 172.325122 98.309121 
L 172.325122 97.596677 
L 172.325122 97.623664 
L 174.791336 98.255148 
L 174.791336 98.39008 
L 172.325122 97.440155 
L 172.325122 97.542704 
L 172.325122 96.975988 
L 174.791336 96.824863 
L 174.791336 97.040755 
L 172.325122 97.472539 
L 174.791336 97.607472 
L 174.791336 96.587382 
L 174.791336 97.127112 
L 177.25755 96.209571 
L 174.791336 96.274339 
L 177.25755 95.238057 
L 177.25755 96.139406 
L 177.25755 95.378387 
L 179.723763 95.89113 
L 179.723763 95.518717 
L 177.25755 95.842555 
L 179.723763 95.270441 
L 179.723763 95.955898 
L 182.189977 95.410771 
L 179.723763 94.919616 
L 182.189977 95.043754 
L 179.723763 95.027562 
L 182.189977 94.250351 
L 179.723763 94.288132 
L 182.189977 94.045254 
L 182.189977 94.083035 
L 182.189977 93.505524 
L 182.189977 94.282735 
L 184.65619 94.180186 
L 184.65619 93.910321 
L 182.189977 93.915719 
L 184.65619 92.231761 
L 184.65619 94.304324 
L 184.65619 93.33281 
L 187.122405 92.215569 
L 187.122405 92.269542 
L 184.65619 92.480037 
L 187.122405 91.530112 
L 187.122405 92.507023 
L 189.588618 91.708223 
L 187.122405 92.015869 
L 189.588618 90.882436 
L 192.054831 90.796079 
L 187.122405 90.796079 
L 189.588618 90.909423 
L 189.588618 91.038958 
L 192.054831 89.716619 
L 192.054831 90.37509 
L 192.054831 90.056649 
L 194.521045 90.698928 
L 194.521045 89.149903 
L 192.054831 90.164595 
L 194.521045 89.209273 
L 194.521045 89.873141 
L 194.521045 89.074341 
L 196.987259 88.631762 
L 196.987259 88.637159 
L 196.987259 89.171492 
L 196.987259 87.843756 
L 199.453472 88.383486 
L 199.453472 86.424267 
L 199.453472 86.764296 
L 201.919686 87.034161 
L 199.453472 86.375691 
L 199.453472 86.435061 
L 201.919686 85.355601 
L 204.385899 86.246156 
L 201.919686 87.179889 
L 201.919686 85.841358 
L 204.385899 86.526815 
L 204.385899 84.999379 
L 206.852114 85.506726 
L 204.385899 85.344807 
L 204.385899 84.31932 
L 206.852114 84.988585 
L 206.852114 85.414971 
L 206.852114 84.346306 
L 209.318327 84.697131 
L 206.852114 83.957701 
L 204.385899 83.5583 
L 209.318327 84.713323 
L 211.78454 83.817371 
L 209.318327 84.589185 
L 209.318327 83.563698 
L 211.78454 84.11962 
L 209.318327 83.666246 
L 209.318327 84.475841 
L 211.78454 82.781089 
L 211.78454 83.763398 
L 214.250754 83.455752 
L 214.250754 81.350805 
L 214.250754 81.356202 
L 216.716968 80.713923 
L 214.250754 81.793383 
L 216.716968 80.821869 
L 216.716968 82.3601 
L 216.716968 80.552004 
L 219.183182 82.462649 
L 219.183182 78.916623 
L 219.183182 79.164898 
L 221.649395 80.535812 
L 221.649395 77.78319 
L 221.649395 79.656053 
L 224.115608 78.84106 
L 224.115608 78.635963 
L 224.115608 79.024569 
L 226.581823 78.878841 
L 224.115608 77.918122 
L 226.581823 77.691436 
L 226.581823 78.333714 
L 226.581823 76.617373 
L 226.581823 77.22187 
L 229.048036 77.98289 
L 226.581823 77.918122 
L 229.048036 76.800881 
L 229.048036 78.360701 
L 229.048036 75.818573 
L 231.514249 75.937313 
L 231.514249 75.052156 
L 226.581823 75.656654 
L 231.514249 75.651256 
L 231.514249 75.716024 
L 231.514249 77.259652 
L 233.980463 73.141512 
L 233.980463 75.22487 
L 233.980463 73.870147 
L 236.446677 75.035964 
L 236.446677 73.427569 
L 238.912891 73.772996 
L 238.912891 74.609577 
L 238.912891 73.011977 
L 241.379104 73.848558 
L 241.379104 71.684241 
L 241.379104 71.889338 
L 243.845317 73.638063 
L 241.379104 72.18619 
L 243.845317 71.44676 
L 243.845317 69.865351 
L 246.311532 70.475246 
L 243.845317 70.059654 
L 246.311532 70.421273 
L 243.845317 71.133716 
L 246.311532 71.198484 
L 243.845317 71.614076 
L 246.311532 69.028769 
L 246.311532 69.158305 
L 248.777745 70.043462 
L 248.777745 69.34721 
L 246.311532 68.192188 
L 248.777745 68.246161 
L 248.777745 67.636266 
L 248.777745 67.92772 
L 251.243959 68.650958 
L 248.777745 67.749609 
L 251.243959 67.312428 
L 251.243959 66.967001 
L 253.710172 67.220674 
L 253.710172 66.33012 
L 253.710172 66.778095 
L 256.176386 65.763403 
L 256.176386 66.907631 
L 253.710172 65.714827 
L 256.176386 66.610779 
L 256.176386 66.524422 
L 256.176386 67.425771 
L 256.176386 65.175097 
L 256.176386 65.574498 
L 258.6426 65.838965 
L 261.108813 64.532819 
L 261.108813 65.822773 
L 261.108813 64.495038 
L 261.108813 64.97 
L 263.575026 63.642264 
L 263.575026 65.31003 
L 263.575026 64.403284 
L 266.041241 63.145713 
L 263.575026 65.013178 
L 266.041241 62.762504 
L 266.041241 63.442564 
L 266.041241 62.104034 
L 268.507454 62.055458 
L 268.507454 64.996986 
L 268.507454 63.739416 
L 270.973668 63.242864 
L 270.973668 62.087842 
L 268.507454 62.444064 
L 270.973668 63.086342 
L 270.973668 61.909731 
L 273.439881 62.228172 
L 273.439881 60.765503 
L 273.439881 62.163404 
L 275.906095 60.571201 
L 275.906095 60.220376 
L 278.372309 60.285144 
L 280.838522 59.669852 
L 278.372309 59.664454 
L 278.372309 60.150211 
L 280.838522 58.746913 
L 283.304736 59.292041 
L 283.304736 58.012881 
L 285.77095 60.166403 
L 283.304736 58.763105 
L 285.77095 59.831771 
L 285.77095 58.417678 
L 288.237163 57.559507 
L 288.237163 60.824874 
L 288.237163 57.311232 
L 288.237163 58.795489 
L 290.703377 58.709132 
L 290.703377 55.449163 
L 293.16959 57.035969 
L 293.16959 55.227874 
L 293.16959 59.880346 
L 295.635804 57.581097 
L 295.635804 55.589493 
L 295.635804 57.872551 
L 298.102018 58.169402 
L 295.635804 57.316629 
L 298.102018 55.611082 
L 300.568231 56.739118 
L 300.568231 55.459958 
L 298.102018 58.250362 
L 300.568231 56.663556 
L 300.568231 59.286643 
L 300.568231 57.840167 
L 303.034445 58.49324 
L 303.034445 59.761606 
L 303.034445 57.721426 
L 305.500659 55.697439 
L 305.500659 58.854859 
L 305.500659 54.375101 
L 305.500659 55.125325 
L 307.966872 56.992791 
L 307.966872 56.53402 
L 310.433086 57.802386 
L 310.433086 55.357409 
L 312.899299 53.274051 
L 312.899299 55.184696 
L 315.365514 55.999688 
L 315.365514 51.309434 
L 315.365514 54.445265 
L 317.831727 53.014981 
L 317.831727 52.054262 
L 317.831727 54.429074 
L 320.29794 49.193693 
L 320.29794 48.794293 
L 320.29794 50.910034 
L 322.764154 48.573003 
L 322.764154 48.79969 
L 325.230368 48.184398 
L 325.230368 47.542119 
L 322.764154 47.212884 
L 325.230368 48.292344 
L 325.230368 47.52053 
L 327.696581 49.485147 
L 325.230368 48.945417 
L 325.230368 50.596991 
L 327.696581 43.796393 
L 330.162795 44.643769 
L 330.162795 48.99939 
L 330.162795 44.195793 
L 332.629008 49.047966 
L 335.095223 43.54272 
L 335.095223 46.403289 
L 337.561436 43.332225 
L 335.095223 43.353814 
L 337.561436 42.344519 
L 337.561436 43.893544 
L 337.561436 41.410787 
L 340.027649 44.88125 
L 340.027649 40.628178 
L 342.493863 45.582899 
L 342.493863 40.007489 
L 342.493863 41.874954 
L 344.960077 42.916633 
L 344.960077 37.951117 
L 344.960077 45.917532 
L 344.960077 43.013785 
L 347.426291 40.995194 
L 349.892504 38.54482 
L 349.892504 42.252765 
L 349.892504 36.553217 
L 352.358717 37.778404 
L 352.358717 35.533127 
L 354.824932 37.109139 
L 354.824932 35.435976 
L 357.291145 40.072256 
L 357.291145 38.453066 
L 359.757359 37.513936 
L 359.757359 39.170907 
L 362.223572 35.479154 
L 362.223572 38.291147 
L 362.223572 34.442873 
L 362.223572 34.502243 
L 364.689786 38.928029 
L 364.689786 33.579305 
L 362.223572 34.56701 
L 364.689786 40.271956 
L 364.689786 32.122034 
L 364.689786 33.541523 
L 367.156 33.352618 
L 367.156 35.214686 
L 367.156 32.03028 
L 367.156 33.201494 
L 369.622213 29.763414 
L 372.088426 32.408091 
L 372.088426 31.290849 
L 374.554641 29.887552 
L 374.554641 32.03028 
L 374.554641 30.886052 
L 377.020854 30.427282 
L 377.020854 27.71244 
L 377.020854 31.938525 
L 379.487068 27.858167 
L 379.487068 27.599096 
L 379.487068 33.832978 
L 379.487068 30.535228 
L 381.953281 30.832079 
L 379.487068 29.596097 
L 381.953281 28.656967 
L 384.419495 27.528932 
L 381.953281 26.611391 
L 384.419495 26.848872 
L 384.419495 26.784104 
L 386.885709 25.01379 
L 386.885709 31.328631 
L 386.885709 24.571211 
L 389.351922 27.685453 
L 391.818136 26.627582 
L 391.818136 25.828782 
L 389.351922 26.794899 
L 391.818136 26.541226 
L 391.818136 24.349922 
L 391.818136 26.616788 
L 394.28435 28.554419 
L 394.28435 24.13403 
L 396.750563 21.532532 
L 396.750563 25.904344 
L 396.750563 21.311242 
L 396.750563 21.629683 
L 399.216777 23.626684 
L 399.216777 22.682156 
L 401.68299 22.142426 
L 399.216777 24.851871 
L 399.216777 24.33373 
L 401.68299 22.007494 
L 401.68299 20.944226 
L 401.68299 22.57421 
L 399.216777 21.770013 
L 401.68299 22.244975 
L 401.68299 22.439278 
L 399.216777 23.270462 
L 401.68299 23.378408 
L 401.68299 22.142426 
L 401.68299 24.317538 
L 401.68299 22.423086 
L 399.216777 23.227284 
L 399.216777 22.752321 
L 399.216777 22.784705 
L 396.750563 22.110043 
L 396.750563 24.171811 
L 396.750563 24.042276 
L 394.28435 27.286053 
L 394.28435 27.615288 
L 394.28435 23.211092 
L 391.818136 24.754719 
L 389.351922 25.164914 
L 389.351922 29.482754 
L 389.351922 24.441676 
L 389.351922 24.841076 
L 386.885709 27.734029 
L 389.351922 30.044073 
L 386.885709 25.931331 
L 386.885709 28.65157 
L 384.419495 27.31304 
L 381.953281 29.423384 
L 384.419495 28.824284 
L 381.953281 29.822784 
L 381.953281 26.886653 
L 381.953281 27.588302 
L 379.487068 29.455768 
L 377.020854 30.540625 
L 377.020854 28.808092 
L 377.020854 29.023984 
L 374.554641 31.441974 
L 374.554641 28.862065 
L 372.088426 32.100444 
L 372.088426 33.687251 
L 372.088426 30.103444 
L 369.622213 35.268659 
L 369.622213 31.026382 
L 372.088426 29.887552 
L 369.622213 30.465063 
L 367.156 33.098945 
L 364.689786 34.264762 
L 367.156 32.796696 
L 364.689786 34.146021 
L 367.156 31.873758 
L 367.156 31.603893 
L 364.689786 32.316336 
L 364.689786 32.235377 
L 367.156 33.082753 
L 359.757359 31.997896 
L 364.689786 34.459064 
L 364.689786 32.219185 
L 364.689786 34.280954 
L 362.223572 33.050369 
L 357.291145 31.560714 
L 359.757359 35.182303 
L 362.223572 33.50914 
L 357.291145 33.90854 
L 357.291145 33.90854 
L 354.824932 36.32653 
L 354.824932 34.696546 
L 354.824932 36.531628 
L 357.291145 35.268659 
L 354.824932 33.385002 
L 352.358717 34.658765 
L 352.358717 34.534627 
L 352.358717 38.334326 
L 349.892504 36.644971 
L 352.358717 37.163112 
L 349.892504 35.274057 
L 352.358717 37.400593 
L 349.892504 35.86776 
L 349.892504 34.232378 
L 349.892504 37.68665 
L 347.426291 38.658164 
L 347.426291 37.281852 
L 344.960077 37.303441 
L 347.426291 37.80539 
L 344.960077 39.22488 
L 344.960077 36.364311 
L 344.960077 39.689048 
L 342.493863 39.840172 
L 340.027649 40.455464 
L 340.027649 41.426978 
L 340.027649 39.28425 
L 337.561436 40.077653 
L 337.561436 40.558013 
L 337.561436 39.28425 
L 335.095223 41.135524 
L 337.561436 41.788598 
L 335.095223 39.710637 
L 335.095223 42.171806 
L 332.629008 43.720831 
L 330.162795 45.064758 
L 330.162795 43.348417 
L 330.162795 43.747817 
L 327.696581 43.46176 
L 327.696581 44.611385 
L 327.696581 44.379301 
L 325.230368 46.36011 
L 325.230368 43.051566 
L 325.230368 44.465658 
L 322.764154 46.576002 
L 322.764154 44.68155 
L 322.764154 46.754113 
L 320.29794 45.976902 
L 325.230368 46.084848 
L 320.29794 46.322329 
L 322.764154 47.817381 
L 320.29794 45.836572 
L 320.29794 46.333124 
L 317.831727 48.45966 
L 320.29794 48.734922 
L 317.831727 48.713333 
L 317.831727 48.189795 
L 315.365514 48.189795 
L 315.365514 49.037171 
L 312.899299 48.125027 
L 312.899299 51.606286 
L 312.899299 50.532223 
L 310.433086 51.946316 
L 310.433086 49.382598 
L 307.966872 50.748115 
L 307.966872 55.470752 
L 307.966872 53.430573 
L 305.500659 52.782897 
L 305.500659 50.634772 
L 305.500659 53.414381 
L 305.500659 51.201488 
L 293.16959 52.561608 
L 305.500659 51.174502 
L 307.966872 55.799988 
L 303.034445 53.45756 
L 303.034445 55.098339 
L 303.034445 50.570004 
L 300.568231 56.652761 
L 300.568231 53.31723 
L 300.568231 55.853961 
L 298.102018 53.187695 
L 298.102018 56.793091 
L 295.635804 57.791591 
L 293.16959 57.019777 
L 293.16959 56.01588 
L 293.16959 59.394589 
L 290.703377 56.690542 
L 290.703377 56.47465 
L 290.703377 58.854859 
L 288.237163 58.002086 
L 288.237163 56.965804 
L 290.703377 58.1748 
L 290.703377 59.718427 
L 290.703377 58.250362 
L 288.237163 57.564905 
L 288.237163 58.477048 
L 285.77095 59.907333 
L 285.77095 61.13252 
L 285.77095 59.540316 
L 283.304736 59.329822 
L 285.77095 61.13252 
L 280.838522 62.136418 
L 283.304736 59.605084 
L 280.838522 61.105533 
L 280.838522 60.403884 
L 278.372309 60.528022 
L 278.372309 62.946013 
L 275.906095 62.028472 
L 273.439881 61.823374 
L 273.439881 63.340015 
L 273.439881 63.188891 
L 270.973668 62.417077 
L 270.973668 61.79099 
L 270.973668 65.175097 
L 270.973668 63.399386 
L 268.507454 64.273748 
L 270.973668 63.734018 
L 268.507454 62.017677 
L 266.041241 63.582894 
L 266.041241 63.053959 
L 266.041241 66.033268 
L 266.041241 64.208981 
L 263.575026 65.963103 
L 261.108813 65.358606 
L 263.575026 65.552908 
L 258.6426 64.705532 
L 258.6426 68.435066 
L 261.108813 66.259955 
L 258.6426 67.819774 
L 258.6426 69.973297 
L 256.176386 67.841363 
L 253.710172 67.431169 
L 256.176386 67.749609 
L 251.243959 70.156805 
L 251.243959 68.575396 
L 251.243959 69.012578 
L 248.777745 68.80748 
L 248.777745 69.239264 
L 243.845317 71.344211 
L 243.845317 72.310328 
L 241.379104 71.462952 
L 243.845317 73.292636 
L 241.379104 72.24556 
L 238.912891 73.001182 
L 236.446677 72.974196 
L 238.912891 72.50463 
L 236.446677 72.806879 
L 236.446677 74.415275 
L 236.446677 74.134615 
L 233.980463 74.636564 
L 231.514249 75.019772 
L 231.514249 75.370597 
L 231.514249 74.291137 
L 233.980463 74.14541 
L 231.514249 74.258753 
L 229.048036 73.907928 
L 229.048036 76.638962 
L 226.581823 78.139411 
L 226.581823 76.358302 
L 226.581823 77.98289 
L 224.115608 77.664449 
L 224.115608 78.927417 
L 221.649395 78.247357 
L 221.649395 77.815573 
L 219.183182 79.067747 
L 219.183182 77.718422 
L 219.183182 79.456353 
L 216.716968 78.355303 
L 216.716968 80.611375 
L 216.716968 80.573594 
L 214.250754 81.14031 
L 214.250754 81.712424 
L 211.78454 82.030865 
L 211.78454 81.232064 
L 211.78454 83.094133 
L 209.318327 83.088735 
L 209.318327 83.720219 
L 206.852114 84.950804 
L 204.385899 84.63776 
L 201.919686 85.37719 
L 201.919686 86.753502 
L 201.919686 86.688734 
L 199.453472 87.665645 
L 196.987259 87.633262 
L 196.987259 87.471343 
L 196.987259 88.885435 
L 192.054831 87.838359 
L 194.521045 89.117519 
L 194.521045 88.923216 
L 192.054831 89.743606 
L 192.054831 89.047354 
L 192.054831 91.038958 
L 189.588618 91.362796 
L 189.588618 91.330412 
L 189.588618 90.63416 
L 187.122405 91.821566 
L 187.122405 91.940307 
L 187.122405 91.508523 
L 184.65619 93.149302 
L 182.189977 93.521716 
L 184.65619 93.570291 
L 182.189977 94.277338 
L 182.189977 93.764594 
L 182.189977 94.655149 
L 179.723763 94.768492 
L 179.723763 95.718417 
L 179.723763 95.097727 
L 177.25755 95.410771 
L 179.723763 95.486333 
L 177.25755 96.409271 
L 177.25755 96.17179 
L 174.791336 96.603574 
L 177.25755 96.339106 
L 177.25755 96.51182 
L 174.791336 96.420066 
L 172.325122 97.666842 
L 172.325122 98.195777 
L 169.858909 98.514218 
L 172.325122 98.811069 
L 167.392695 99.787981 
L 167.392695 101.045552 
L 164.926481 100.424862 
L 164.926481 101.844352 
L 164.926481 101.22906 
L 162.460268 101.941503 
L 159.994054 102.017066 
L 162.460268 102.481233 
L 159.994054 103.382582 
L 159.994054 103.808969 
L 155.061627 103.285431 
L 157.527841 103.943902 
L 159.994054 103.522912 
L 157.527841 103.328609 
L 157.527841 104.742702 
L 159.994054 105.293226 
L 150.1292 106.647949 
L 150.1292 107.829957 
L 147.662986 107.705819 
L 147.662986 108.806869 
L 145.196772 108.677333 
L 145.196772 109.632655 
L 142.730559 109.616464 
L 145.196772 109.799972 
L 142.730559 110.674334 
L 142.730559 111.699821 
L 142.730559 111.570286 
L 140.264345 111.489327 
L 140.264345 112.746897 
L 137.798132 113.928906 
L 135.331917 113.594274 
L 135.331917 115.083928 
L 132.865704 115.612864 
L 132.865704 116.050045 
L 130.399491 116.99997 
L 130.399491 116.940599 
L 130.399491 117.329205 
L 127.933277 117.5397 
L 125.467063 118.840449 
L 125.467063 119.628455 
L 123.00085 119.979279 
L 125.467063 120.805066 
L 123.00085 121.015561 
L 123.00085 121.668634 
L 120.534636 121.749593 
L 123.00085 121.873731 
L 120.534636 122.300118 
L 118.068423 122.300118 
L 120.534636 122.078829 
L 120.534636 123.244645 
L 118.068423 123.050343 
L 118.068423 124.027254 
L 115.602208 124.723506 
L 115.602208 125.07433 
L 113.135995 125.446744 
L 113.135995 127.060536 
L 110.669782 127.001166 
L 110.669782 127.298018 
L 108.203568 127.643445 
L 108.203568 128.388272 
L 105.737354 128.879426 
L 105.737354 129.467732 
L 103.27114 130.207162 
L 103.27114 129.87253 
L 105.737354 130.217957 
L 105.737354 130.153189 
L 103.27114 130.315108 
L 103.27114 131.248841 
L 100.804927 131.756187 
L 100.804927 131.939695 
L 98.338714 132.344493 
L 98.338714 133.947491 
L 95.8725 134.233548 
L 95.8725 135.723203 
L 93.406286 136.349289 
L 93.406286 136.214357 
L 93.406286 136.937595 
L 90.940073 137.66623 
L 90.940073 139.76578 
L 86.007646 143.274025 
L 86.007646 144.893215 
L 83.541432 145.864729 
L 83.541432 146.787667 
L 81.075218 147.079121 
L 83.541432 147.429946 
L 81.075218 149.113903 
L 81.075218 152.130994 
L 78.609005 153.1187 
L 78.609005 153.566676 
L 81.075218 153.809554 
L 81.075218 154.495011 
L 78.609005 155.941487 
L 78.609005 158.445835 
L 81.075218 158.510602 
L 78.609005 158.548383 
" style="fill:none;stroke:#0072b2;stroke-linecap:round;stroke-width:1.5;"/>
   </g>
   <g id="patch_3">
    <path d="M 59.865781 165.932969 
L 59.865781 14.04 
" style="fill:none;stroke:#262626;stroke-linecap:square;stroke-linejoin:miter;stroke-width:0.8;"/>
   </g>
   <g id="patch_4">
    <path d="M 417.96 165.932969 
L 417.96 14.04 
" style="fill:none;stroke:#262626;stroke-linecap:square;stroke-linejoin:miter;stroke-width:0.8;"/>
   </g>
   <g id="patch_5">
    <path d="M 59.865781 165.932969 
L 417.96 165.932969 
" style="fill:none;stroke:#262626;stroke-linecap:square;stroke-linejoin:miter;stroke-width:0.8;"/>
   </g>
   <g id="patch_6">
    <path d="M 59.865781 14.04 
L 417.96 14.04 
" style="fill:none;stroke:#262626;stroke-linecap:square;stroke-linejoin:miter;stroke-width:0.8;"/>
   </g>
  </g>
 </g>
 <defs>
  <clipPath id="p47506021c2">
   <rect height="151.892969" width="358.094219" x="59.865781" y="14.04"/>
  </clipPath>
 </defs>
</svg>
