<?xml version="1.0" encoding="utf-8" standalone="no"?>
<!DOCTYPE svg PUBLIC "-//W3C//DTD SVG 1.1//EN"
  "http://www.w3.org/Graphics/SVG/1.1/DTD/svg11.dtd">
<!-- Created with matplotlib (https://matplotlib.org/) -->
<svg height="216pt" version="1.1" viewBox="0 0 432 216" width="432pt" xmlns="http://www.w3.org/2000/svg" xmlns:xlink="http://www.w3.org/1999/xlink">
 <metadata>
  <rdf:RDF xmlns:cc="http://creativecommons.org/ns#" xmlns:dc="http://purl.org/dc/elements/1.1/" xmlns:rdf="http://www.w3.org/1999/02/22-rdf-syntax-ns#">
   <cc:Work>
    <dc:type rdf:resource="http://purl.org/dc/dcmitype/StillImage"/>
    <dc:date>2022-03-16T10:53:25.978688</dc:date>
    <dc:format>image/svg+xml</dc:format>
    <dc:creator>
     <cc:Agent>
      <dc:title>Matplotlib v3.3.4, https://matplotlib.org/</dc:title>
     </cc:Agent>
    </dc:creator>
   </cc:Work>
  </rdf:RDF>
 </metadata>
 <defs>
  <style type="text/css">*{stroke-linecap:butt;stroke-linejoin:round;}</style>
 </defs>
 <g id="figure_1">
  <g id="patch_1">
   <path d="M 0 216 
L 432 216 
L 432 0 
L 0 0 
z
" style="fill:#ffffff;"/>
  </g>
  <g id="axes_1">
   <g id="patch_2">
    <path d="M 59.865781 165.932969 
L 417.96 165.932969 
L 417.96 14.04 
L 59.865781 14.04 
z
" style="fill:#ffffff;"/>
   </g>
   <g id="matplotlib.axis_1">
    <g id="xtick_1">
     <g id="text_1">
      <!-- 0 -->
      <g style="fill:#262626;" transform="translate(72.461872 182.238125)scale(0.13 -0.13)">
       <defs>
        <path d="M 4.15625 35.296875 
Q 4.15625 48 6.765625 55.734375 
Q 9.375 63.484375 14.515625 67.671875 
Q 19.671875 71.875 27.484375 71.875 
Q 33.25 71.875 37.59375 69.546875 
Q 41.9375 67.234375 44.765625 62.859375 
Q 47.609375 58.5 49.21875 52.21875 
Q 50.828125 45.953125 50.828125 35.296875 
Q 50.828125 22.703125 48.234375 14.96875 
Q 45.65625 7.234375 40.5 3 
Q 35.359375 -1.21875 27.484375 -1.21875 
Q 17.140625 -1.21875 11.234375 6.203125 
Q 4.15625 15.140625 4.15625 35.296875 
z
M 13.1875 35.296875 
Q 13.1875 17.671875 17.3125 11.828125 
Q 21.4375 6 27.484375 6 
Q 33.546875 6 37.671875 11.859375 
Q 41.796875 17.71875 41.796875 35.296875 
Q 41.796875 52.984375 37.671875 58.78125 
Q 33.546875 64.59375 27.390625 64.59375 
Q 21.34375 64.59375 17.71875 59.46875 
Q 13.1875 52.9375 13.1875 35.296875 
z
" id="ArialMT-48"/>
       </defs>
       <use xlink:href="#ArialMT-48"/>
      </g>
     </g>
    </g>
    <g id="xtick_2">
     <g id="text_2">
      <!-- 50 -->
      <g style="fill:#262626;" transform="translate(140.743238 182.238125)scale(0.13 -0.13)">
       <defs>
        <path d="M 4.15625 18.75 
L 13.375 19.53125 
Q 14.40625 12.796875 18.140625 9.390625 
Q 21.875 6 27.15625 6 
Q 33.5 6 37.890625 10.78125 
Q 42.28125 15.578125 42.28125 23.484375 
Q 42.28125 31 38.0625 35.34375 
Q 33.84375 39.703125 27 39.703125 
Q 22.75 39.703125 19.328125 37.765625 
Q 15.921875 35.84375 13.96875 32.765625 
L 5.71875 33.84375 
L 12.640625 70.609375 
L 48.25 70.609375 
L 48.25 62.203125 
L 19.671875 62.203125 
L 15.828125 42.96875 
Q 22.265625 47.46875 29.34375 47.46875 
Q 38.71875 47.46875 45.15625 40.96875 
Q 51.609375 34.46875 51.609375 24.265625 
Q 51.609375 14.546875 45.953125 7.46875 
Q 39.0625 -1.21875 27.15625 -1.21875 
Q 17.390625 -1.21875 11.203125 4.25 
Q 5.03125 9.71875 4.15625 18.75 
z
" id="ArialMT-53"/>
       </defs>
       <use xlink:href="#ArialMT-53"/>
       <use x="55.615234" xlink:href="#ArialMT-48"/>
      </g>
     </g>
    </g>
    <g id="xtick_3">
     <g id="text_3">
      <!-- 100 -->
      <g style="fill:#262626;" transform="translate(209.024604 182.238125)scale(0.13 -0.13)">
       <defs>
        <path d="M 37.25 0 
L 28.46875 0 
L 28.46875 56 
Q 25.296875 52.984375 20.140625 49.953125 
Q 14.984375 46.921875 10.890625 45.40625 
L 10.890625 53.90625 
Q 18.265625 57.375 23.78125 62.296875 
Q 29.296875 67.234375 31.59375 71.875 
L 37.25 71.875 
z
" id="ArialMT-49"/>
       </defs>
       <use xlink:href="#ArialMT-49"/>
       <use x="55.615234" xlink:href="#ArialMT-48"/>
       <use x="111.230469" xlink:href="#ArialMT-48"/>
      </g>
     </g>
    </g>
    <g id="xtick_4">
     <g id="text_4">
      <!-- 150 -->
      <g style="fill:#262626;" transform="translate(280.92058 182.238125)scale(0.13 -0.13)">
       <use xlink:href="#ArialMT-49"/>
       <use x="55.615234" xlink:href="#ArialMT-53"/>
       <use x="111.230469" xlink:href="#ArialMT-48"/>
      </g>
     </g>
    </g>
    <g id="xtick_5">
     <g id="text_5">
      <!-- 200 -->
      <g style="fill:#262626;" transform="translate(352.816555 182.238125)scale(0.13 -0.13)">
       <defs>
        <path d="M 50.34375 8.453125 
L 50.34375 0 
L 3.03125 0 
Q 2.9375 3.171875 4.046875 6.109375 
Q 5.859375 10.9375 9.828125 15.625 
Q 13.8125 20.3125 21.34375 26.46875 
Q 33.015625 36.03125 37.109375 41.625 
Q 41.21875 47.21875 41.21875 52.203125 
Q 41.21875 57.421875 37.46875 61 
Q 33.734375 64.59375 27.734375 64.59375 
Q 21.390625 64.59375 17.578125 60.78125 
Q 13.765625 56.984375 13.71875 50.25 
L 4.6875 51.171875 
Q 5.609375 61.28125 11.65625 66.578125 
Q 17.71875 71.875 27.9375 71.875 
Q 38.234375 71.875 44.234375 66.15625 
Q 50.25 60.453125 50.25 52 
Q 50.25 47.703125 48.484375 43.546875 
Q 46.734375 39.40625 42.65625 34.8125 
Q 38.578125 30.21875 29.109375 22.21875 
Q 21.1875 15.578125 18.9375 13.203125 
Q 16.703125 10.84375 15.234375 8.453125 
z
" id="ArialMT-50"/>
       </defs>
       <use xlink:href="#ArialMT-50"/>
       <use x="55.615234" xlink:href="#ArialMT-48"/>
       <use x="111.230469" xlink:href="#ArialMT-48"/>
      </g>
     </g>
    </g>
    <g id="text_6">
     <!-- Elapsed Time (s) -->
     <g style="fill:#262626;" transform="translate(186.397578 199.013438)scale(0.14 -0.14)">
      <defs>
       <path d="M 7.90625 0 
L 7.90625 71.578125 
L 59.671875 71.578125 
L 59.671875 63.140625 
L 17.390625 63.140625 
L 17.390625 41.21875 
L 56.984375 41.21875 
L 56.984375 32.8125 
L 17.390625 32.8125 
L 17.390625 8.453125 
L 61.328125 8.453125 
L 61.328125 0 
z
" id="ArialMT-69"/>
       <path d="M 6.390625 0 
L 6.390625 71.578125 
L 15.1875 71.578125 
L 15.1875 0 
z
" id="ArialMT-108"/>
       <path d="M 40.4375 6.390625 
Q 35.546875 2.25 31.03125 0.53125 
Q 26.515625 -1.171875 21.34375 -1.171875 
Q 12.796875 -1.171875 8.203125 3 
Q 3.609375 7.171875 3.609375 13.671875 
Q 3.609375 17.484375 5.34375 20.625 
Q 7.078125 23.78125 9.890625 25.6875 
Q 12.703125 27.59375 16.21875 28.5625 
Q 18.796875 29.25 24.03125 29.890625 
Q 34.671875 31.15625 39.703125 32.90625 
Q 39.75 34.71875 39.75 35.203125 
Q 39.75 40.578125 37.25 42.78125 
Q 33.890625 45.75 27.25 45.75 
Q 21.046875 45.75 18.09375 43.578125 
Q 15.140625 41.40625 13.71875 35.890625 
L 5.125 37.0625 
Q 6.296875 42.578125 8.984375 45.96875 
Q 11.671875 49.359375 16.75 51.1875 
Q 21.828125 53.03125 28.515625 53.03125 
Q 35.15625 53.03125 39.296875 51.46875 
Q 43.453125 49.90625 45.40625 47.53125 
Q 47.359375 45.171875 48.140625 41.546875 
Q 48.578125 39.3125 48.578125 33.453125 
L 48.578125 21.734375 
Q 48.578125 9.46875 49.140625 6.21875 
Q 49.703125 2.984375 51.375 0 
L 42.1875 0 
Q 40.828125 2.734375 40.4375 6.390625 
z
M 39.703125 26.03125 
Q 34.90625 24.078125 25.34375 22.703125 
Q 19.921875 21.921875 17.671875 20.9375 
Q 15.4375 19.96875 14.203125 18.09375 
Q 12.984375 16.21875 12.984375 13.921875 
Q 12.984375 10.40625 15.640625 8.0625 
Q 18.3125 5.71875 23.4375 5.71875 
Q 28.515625 5.71875 32.46875 7.9375 
Q 36.421875 10.15625 38.28125 14.015625 
Q 39.703125 17 39.703125 22.796875 
z
" id="ArialMT-97"/>
       <path d="M 6.59375 -19.875 
L 6.59375 51.859375 
L 14.59375 51.859375 
L 14.59375 45.125 
Q 17.4375 49.078125 21 51.046875 
Q 24.5625 53.03125 29.640625 53.03125 
Q 36.28125 53.03125 41.359375 49.609375 
Q 46.4375 46.1875 49.015625 39.953125 
Q 51.609375 33.734375 51.609375 26.3125 
Q 51.609375 18.359375 48.75 11.984375 
Q 45.90625 5.609375 40.453125 2.21875 
Q 35.015625 -1.171875 29 -1.171875 
Q 24.609375 -1.171875 21.109375 0.6875 
Q 17.625 2.546875 15.375 5.375 
L 15.375 -19.875 
z
M 14.546875 25.640625 
Q 14.546875 15.625 18.59375 10.84375 
Q 22.65625 6.0625 28.421875 6.0625 
Q 34.28125 6.0625 38.453125 11.015625 
Q 42.625 15.96875 42.625 26.375 
Q 42.625 36.28125 38.546875 41.203125 
Q 34.46875 46.140625 28.8125 46.140625 
Q 23.1875 46.140625 18.859375 40.890625 
Q 14.546875 35.640625 14.546875 25.640625 
z
" id="ArialMT-112"/>
       <path d="M 3.078125 15.484375 
L 11.765625 16.84375 
Q 12.5 11.625 15.84375 8.84375 
Q 19.1875 6.0625 25.203125 6.0625 
Q 31.25 6.0625 34.171875 8.515625 
Q 37.109375 10.984375 37.109375 14.3125 
Q 37.109375 17.28125 34.515625 19 
Q 32.71875 20.171875 25.53125 21.96875 
Q 15.875 24.421875 12.140625 26.203125 
Q 8.40625 27.984375 6.46875 31.125 
Q 4.546875 34.28125 4.546875 38.09375 
Q 4.546875 41.546875 6.125 44.5 
Q 7.71875 47.46875 10.453125 49.421875 
Q 12.5 50.921875 16.03125 51.96875 
Q 19.578125 53.03125 23.640625 53.03125 
Q 29.734375 53.03125 34.34375 51.265625 
Q 38.96875 49.515625 41.15625 46.5 
Q 43.359375 43.5 44.1875 38.484375 
L 35.59375 37.3125 
Q 35.015625 41.3125 32.203125 43.546875 
Q 29.390625 45.796875 24.265625 45.796875 
Q 18.21875 45.796875 15.625 43.796875 
Q 13.03125 41.796875 13.03125 39.109375 
Q 13.03125 37.40625 14.109375 36.03125 
Q 15.1875 34.625 17.484375 33.6875 
Q 18.796875 33.203125 25.25 31.453125 
Q 34.578125 28.953125 38.25 27.359375 
Q 41.9375 25.78125 44.03125 22.75 
Q 46.140625 19.734375 46.140625 15.234375 
Q 46.140625 10.84375 43.578125 6.953125 
Q 41.015625 3.078125 36.171875 0.953125 
Q 31.34375 -1.171875 25.25 -1.171875 
Q 15.140625 -1.171875 9.84375 3.03125 
Q 4.546875 7.234375 3.078125 15.484375 
z
" id="ArialMT-115"/>
       <path d="M 42.09375 16.703125 
L 51.171875 15.578125 
Q 49.03125 7.625 43.21875 3.21875 
Q 37.40625 -1.171875 28.375 -1.171875 
Q 17 -1.171875 10.328125 5.828125 
Q 3.65625 12.84375 3.65625 25.484375 
Q 3.65625 38.578125 10.390625 45.796875 
Q 17.140625 53.03125 27.875 53.03125 
Q 38.28125 53.03125 44.875 45.953125 
Q 51.46875 38.875 51.46875 26.03125 
Q 51.46875 25.25 51.421875 23.6875 
L 12.75 23.6875 
Q 13.234375 15.140625 17.578125 10.59375 
Q 21.921875 6.0625 28.421875 6.0625 
Q 33.25 6.0625 36.671875 8.59375 
Q 40.09375 11.140625 42.09375 16.703125 
z
M 13.234375 30.90625 
L 42.1875 30.90625 
Q 41.609375 37.453125 38.875 40.71875 
Q 34.671875 45.796875 27.984375 45.796875 
Q 21.921875 45.796875 17.796875 41.75 
Q 13.671875 37.703125 13.234375 30.90625 
z
" id="ArialMT-101"/>
       <path d="M 40.234375 0 
L 40.234375 6.546875 
Q 35.296875 -1.171875 25.734375 -1.171875 
Q 19.53125 -1.171875 14.328125 2.25 
Q 9.125 5.671875 6.265625 11.796875 
Q 3.421875 17.921875 3.421875 25.875 
Q 3.421875 33.640625 6 39.96875 
Q 8.59375 46.296875 13.765625 49.65625 
Q 18.953125 53.03125 25.34375 53.03125 
Q 30.03125 53.03125 33.6875 51.046875 
Q 37.359375 49.078125 39.65625 45.90625 
L 39.65625 71.578125 
L 48.390625 71.578125 
L 48.390625 0 
z
M 12.453125 25.875 
Q 12.453125 15.921875 16.640625 10.984375 
Q 20.84375 6.0625 26.5625 6.0625 
Q 32.328125 6.0625 36.34375 10.765625 
Q 40.375 15.484375 40.375 25.140625 
Q 40.375 35.796875 36.265625 40.765625 
Q 32.171875 45.75 26.171875 45.75 
Q 20.3125 45.75 16.375 40.96875 
Q 12.453125 36.1875 12.453125 25.875 
z
" id="ArialMT-100"/>
       <path id="ArialMT-32"/>
       <path d="M 25.921875 0 
L 25.921875 63.140625 
L 2.34375 63.140625 
L 2.34375 71.578125 
L 59.078125 71.578125 
L 59.078125 63.140625 
L 35.40625 63.140625 
L 35.40625 0 
z
" id="ArialMT-84"/>
       <path d="M 6.640625 61.46875 
L 6.640625 71.578125 
L 15.4375 71.578125 
L 15.4375 61.46875 
z
M 6.640625 0 
L 6.640625 51.859375 
L 15.4375 51.859375 
L 15.4375 0 
z
" id="ArialMT-105"/>
       <path d="M 6.59375 0 
L 6.59375 51.859375 
L 14.453125 51.859375 
L 14.453125 44.578125 
Q 16.890625 48.390625 20.9375 50.703125 
Q 25 53.03125 30.171875 53.03125 
Q 35.9375 53.03125 39.625 50.640625 
Q 43.3125 48.25 44.828125 43.953125 
Q 50.984375 53.03125 60.84375 53.03125 
Q 68.5625 53.03125 72.703125 48.75 
Q 76.859375 44.484375 76.859375 35.59375 
L 76.859375 0 
L 68.109375 0 
L 68.109375 32.671875 
Q 68.109375 37.9375 67.25 40.25 
Q 66.40625 42.578125 64.15625 43.984375 
Q 61.921875 45.40625 58.890625 45.40625 
Q 53.421875 45.40625 49.796875 41.765625 
Q 46.1875 38.140625 46.1875 30.125 
L 46.1875 0 
L 37.40625 0 
L 37.40625 33.6875 
Q 37.40625 39.546875 35.25 42.46875 
Q 33.109375 45.40625 28.21875 45.40625 
Q 24.515625 45.40625 21.359375 43.453125 
Q 18.21875 41.5 16.796875 37.734375 
Q 15.375 33.984375 15.375 26.90625 
L 15.375 0 
z
" id="ArialMT-109"/>
       <path d="M 23.390625 -21.046875 
Q 16.109375 -11.859375 11.078125 0.4375 
Q 6.0625 12.75 6.0625 25.921875 
Q 6.0625 37.546875 9.8125 48.1875 
Q 14.203125 60.546875 23.390625 72.796875 
L 29.6875 72.796875 
Q 23.78125 62.640625 21.875 58.296875 
Q 18.890625 51.5625 17.1875 44.234375 
Q 15.09375 35.109375 15.09375 25.875 
Q 15.09375 2.390625 29.6875 -21.046875 
z
" id="ArialMT-40"/>
       <path d="M 12.359375 -21.046875 
L 6.0625 -21.046875 
Q 20.65625 2.390625 20.65625 25.875 
Q 20.65625 35.0625 18.5625 44.09375 
Q 16.890625 51.421875 13.921875 58.15625 
Q 12.015625 62.546875 6.0625 72.796875 
L 12.359375 72.796875 
Q 21.53125 60.546875 25.921875 48.1875 
Q 29.6875 37.546875 29.6875 25.921875 
Q 29.6875 12.75 24.625 0.4375 
Q 19.578125 -11.859375 12.359375 -21.046875 
z
" id="ArialMT-41"/>
      </defs>
      <use xlink:href="#ArialMT-69"/>
      <use x="66.699219" xlink:href="#ArialMT-108"/>
      <use x="88.916016" xlink:href="#ArialMT-97"/>
      <use x="144.53125" xlink:href="#ArialMT-112"/>
      <use x="200.146484" xlink:href="#ArialMT-115"/>
      <use x="250.146484" xlink:href="#ArialMT-101"/>
      <use x="305.761719" xlink:href="#ArialMT-100"/>
      <use x="361.376953" xlink:href="#ArialMT-32"/>
      <use x="387.410156" xlink:href="#ArialMT-84"/>
      <use x="444.744141" xlink:href="#ArialMT-105"/>
      <use x="466.960938" xlink:href="#ArialMT-109"/>
      <use x="550.261719" xlink:href="#ArialMT-101"/>
      <use x="605.876953" xlink:href="#ArialMT-32"/>
      <use x="633.660156" xlink:href="#ArialMT-40"/>
      <use x="666.960938" xlink:href="#ArialMT-115"/>
      <use x="716.960938" xlink:href="#ArialMT-41"/>
     </g>
    </g>
   </g>
   <g id="matplotlib.axis_2">
    <g id="ytick_1">
     <g id="text_7">
      <!-- 0 -->
      <g style="fill:#262626;" transform="translate(45.636562 163.675924)scale(0.13 -0.13)">
       <use xlink:href="#ArialMT-48"/>
      </g>
     </g>
    </g>
    <g id="ytick_2">
     <g id="text_8">
      <!-- 100 -->
      <g style="fill:#262626;" transform="translate(31.178125 109.702926)scale(0.13 -0.13)">
       <use xlink:href="#ArialMT-49"/>
       <use x="55.615234" xlink:href="#ArialMT-48"/>
       <use x="111.230469" xlink:href="#ArialMT-48"/>
      </g>
     </g>
    </g>
    <g id="ytick_3">
     <g id="text_9">
      <!-- 200 -->
      <g style="fill:#262626;" transform="translate(31.178125 55.729929)scale(0.13 -0.13)">
       <use xlink:href="#ArialMT-50"/>
       <use x="55.615234" xlink:href="#ArialMT-48"/>
       <use x="111.230469" xlink:href="#ArialMT-48"/>
      </g>
     </g>
    </g>
    <g id="text_10">
     <!-- Mass Flow Rate (slm) -->
     <g style="fill:#262626;" transform="translate(24.231562 157.655703)rotate(-90)scale(0.14 -0.14)">
      <defs>
       <path d="M 7.421875 0 
L 7.421875 71.578125 
L 21.6875 71.578125 
L 38.625 20.90625 
Q 40.96875 13.8125 42.046875 10.296875 
Q 43.265625 14.203125 45.84375 21.78125 
L 62.984375 71.578125 
L 75.734375 71.578125 
L 75.734375 0 
L 66.609375 0 
L 66.609375 59.90625 
L 45.796875 0 
L 37.25 0 
L 16.546875 60.9375 
L 16.546875 0 
z
" id="ArialMT-77"/>
       <path d="M 8.203125 0 
L 8.203125 71.578125 
L 56.5 71.578125 
L 56.5 63.140625 
L 17.671875 63.140625 
L 17.671875 40.96875 
L 51.265625 40.96875 
L 51.265625 32.515625 
L 17.671875 32.515625 
L 17.671875 0 
z
" id="ArialMT-70"/>
       <path d="M 3.328125 25.921875 
Q 3.328125 40.328125 11.328125 47.265625 
Q 18.015625 53.03125 27.640625 53.03125 
Q 38.328125 53.03125 45.109375 46.015625 
Q 51.90625 39.015625 51.90625 26.65625 
Q 51.90625 16.65625 48.90625 10.90625 
Q 45.90625 5.171875 40.15625 2 
Q 34.421875 -1.171875 27.640625 -1.171875 
Q 16.75 -1.171875 10.03125 5.8125 
Q 3.328125 12.796875 3.328125 25.921875 
z
M 12.359375 25.921875 
Q 12.359375 15.96875 16.703125 11.015625 
Q 21.046875 6.0625 27.640625 6.0625 
Q 34.1875 6.0625 38.53125 11.03125 
Q 42.875 16.015625 42.875 26.21875 
Q 42.875 35.84375 38.5 40.796875 
Q 34.125 45.75 27.640625 45.75 
Q 21.046875 45.75 16.703125 40.8125 
Q 12.359375 35.890625 12.359375 25.921875 
z
" id="ArialMT-111"/>
       <path d="M 16.15625 0 
L 0.296875 51.859375 
L 9.375 51.859375 
L 17.625 21.921875 
L 20.703125 10.796875 
Q 20.90625 11.625 23.390625 21.484375 
L 31.640625 51.859375 
L 40.671875 51.859375 
L 48.4375 21.78125 
L 51.03125 11.859375 
L 54 21.875 
L 62.890625 51.859375 
L 71.4375 51.859375 
L 55.21875 0 
L 46.09375 0 
L 37.84375 31.0625 
L 35.84375 39.890625 
L 25.34375 0 
z
" id="ArialMT-119"/>
       <path d="M 7.859375 0 
L 7.859375 71.578125 
L 39.59375 71.578125 
Q 49.171875 71.578125 54.140625 69.640625 
Q 59.125 67.71875 62.109375 62.828125 
Q 65.09375 57.953125 65.09375 52.046875 
Q 65.09375 44.4375 60.15625 39.203125 
Q 55.21875 33.984375 44.921875 32.5625 
Q 48.6875 30.765625 50.640625 29 
Q 54.78125 25.203125 58.5 19.484375 
L 70.953125 0 
L 59.03125 0 
L 49.5625 14.890625 
Q 45.40625 21.34375 42.71875 24.75 
Q 40.046875 28.171875 37.921875 29.53125 
Q 35.796875 30.90625 33.59375 31.453125 
Q 31.984375 31.78125 28.328125 31.78125 
L 17.328125 31.78125 
L 17.328125 0 
z
M 17.328125 39.984375 
L 37.703125 39.984375 
Q 44.1875 39.984375 47.84375 41.328125 
Q 51.515625 42.671875 53.421875 45.625 
Q 55.328125 48.578125 55.328125 52.046875 
Q 55.328125 57.125 51.640625 60.390625 
Q 47.953125 63.671875 39.984375 63.671875 
L 17.328125 63.671875 
z
" id="ArialMT-82"/>
       <path d="M 25.78125 7.859375 
L 27.046875 0.09375 
Q 23.34375 -0.6875 20.40625 -0.6875 
Q 15.625 -0.6875 12.984375 0.828125 
Q 10.359375 2.34375 9.28125 4.8125 
Q 8.203125 7.28125 8.203125 15.1875 
L 8.203125 45.015625 
L 1.765625 45.015625 
L 1.765625 51.859375 
L 8.203125 51.859375 
L 8.203125 64.703125 
L 16.9375 69.96875 
L 16.9375 51.859375 
L 25.78125 51.859375 
L 25.78125 45.015625 
L 16.9375 45.015625 
L 16.9375 14.703125 
Q 16.9375 10.9375 17.40625 9.859375 
Q 17.875 8.796875 18.921875 8.15625 
Q 19.96875 7.515625 21.921875 7.515625 
Q 23.390625 7.515625 25.78125 7.859375 
z
" id="ArialMT-116"/>
      </defs>
      <use xlink:href="#ArialMT-77"/>
      <use x="83.300781" xlink:href="#ArialMT-97"/>
      <use x="138.916016" xlink:href="#ArialMT-115"/>
      <use x="188.916016" xlink:href="#ArialMT-115"/>
      <use x="238.916016" xlink:href="#ArialMT-32"/>
      <use x="266.699219" xlink:href="#ArialMT-70"/>
      <use x="327.783203" xlink:href="#ArialMT-108"/>
      <use x="350" xlink:href="#ArialMT-111"/>
      <use x="405.615234" xlink:href="#ArialMT-119"/>
      <use x="477.832031" xlink:href="#ArialMT-32"/>
      <use x="505.615234" xlink:href="#ArialMT-82"/>
      <use x="577.832031" xlink:href="#ArialMT-97"/>
      <use x="633.447266" xlink:href="#ArialMT-116"/>
      <use x="661.230469" xlink:href="#ArialMT-101"/>
      <use x="716.845703" xlink:href="#ArialMT-32"/>
      <use x="744.628906" xlink:href="#ArialMT-40"/>
      <use x="777.929688" xlink:href="#ArialMT-115"/>
      <use x="827.929688" xlink:href="#ArialMT-108"/>
      <use x="850.146484" xlink:href="#ArialMT-109"/>
      <use x="933.447266" xlink:href="#ArialMT-41"/>
     </g>
    </g>
   </g>
   <g id="line2d_1">
    <path clip-path="url(#p2f75bf911a)" d="M 76.142791 159.017948 
L 95.699422 158.9154 
L 96.011842 158.688713 
L 96.642621 157.209853 
L 97.112677 157.01555 
L 97.42343 156.098009 
L 97.580362 154.284516 
L 97.891736 148.811654 
L 98.046239 142.782871 
L 98.3598 137.056336 
L 98.673268 134.093218 
L 98.829282 133.742394 
L 99.614405 133.888121 
L 99.769171 133.720804 
L 100.083793 133.834148 
L 100.240196 133.715407 
L 100.555131 133.785572 
L 101.646394 132.587371 
L 102.120041 132.625152 
L 102.589724 132.258136 
L 103.374593 132.160985 
L 104.157142 131.394568 
L 104.314072 131.502514 
L 104.785564 131.637447 
L 105.568718 130.968181 
L 105.72472 131.345992 
L 106.038199 131.238046 
L 106.504999 130.514808 
L 106.659702 130.757687 
L 107.1321 130.520206 
L 107.602305 130.536397 
L 108.070275 130.19097 
L 108.383965 130.541795 
L 108.539835 130.185573 
L 109.013362 129.721405 
L 109.324562 129.699816 
L 109.636715 129.807762 
L 109.791604 130.163984 
L 110.104672 130.05064 
L 110.575851 129.65124 
L 111.045647 129.888721 
L 111.202979 129.613459 
L 111.672864 129.678227 
L 111.983614 129.224854 
L 112.138163 129.424554 
L 112.608728 129.581075 
L 112.92573 129.381375 
L 113.082941 129.645843 
L 113.866621 128.814659 
L 114.024366 128.971181 
L 114.64858 128.647343 
L 114.806212 129.154689 
L 115.118177 128.874029 
L 115.275963 128.895618 
L 115.586049 128.71211 
L 115.740663 128.847043 
L 116.05534 128.928002 
L 116.212201 128.631151 
L 117.464733 128.134599 
L 117.621876 127.891721 
L 118.87679 127.837748 
L 119.033266 127.265634 
L 119.501312 127.459937 
L 119.812261 127.584074 
L 120.28271 127.298018 
L 120.751538 127.308812 
L 121.533444 126.990372 
L 121.689492 126.95259 
L 122.003143 126.483025 
L 122.160312 126.898617 
L 122.631726 126.720507 
L 122.945271 126.35349 
L 123.101579 126.661136 
L 123.568403 126.364285 
L 123.880408 126.078228 
L 124.036437 126.304914 
L 124.348104 126.29412 
L 124.505659 125.927103 
L 124.818026 125.878528 
L 125.131736 125.641047 
L 125.757647 125.748993 
L 126.069883 126.21316 
L 126.225598 125.786774 
L 126.694806 125.802966 
L 127.007799 125.570882 
L 127.16626 125.263236 
L 127.481919 125.322606 
L 127.637819 125.225455 
L 127.948667 124.378078 
L 128.104565 124.61556 
L 128.419661 124.459038 
L 128.578443 124.092022 
L 128.890744 124.189173 
L 129.047631 123.730402 
L 129.360385 123.579278 
L 129.517334 123.287824 
L 129.830137 123.352591 
L 130.139382 123.152891 
L 130.2986 122.618559 
L 130.92549 122.386475 
L 131.238512 121.862937 
L 131.549784 122.11661 
L 132.019685 121.884526 
L 132.177268 121.987075 
L 132.489295 121.722607 
L 132.645246 121.215261 
L 132.959211 121.328604 
L 133.116997 121.031753 
L 133.586288 120.734901 
L 133.900647 120.950793 
L 134.374103 120.394871 
L 134.531737 120.389474 
L 134.846634 120.259939 
L 135.002048 119.973882 
L 135.317889 120.114212 
L 135.473555 119.774182 
L 135.787723 120.044047 
L 136.10465 119.509714 
L 136.260696 119.714811 
L 136.416026 120.151993 
L 136.728172 119.41796 
L 137.042092 119.509714 
L 137.19771 119.142698 
L 137.510046 119.655441 
L 137.666132 119.347795 
L 137.978332 119.148095 
L 138.132833 119.288425 
L 138.445163 118.408665 
L 138.601355 118.683927 
L 138.916666 118.889025 
L 139.07391 118.300719 
L 140.331886 117.712413 
L 140.487273 118.381678 
L 140.797834 117.955292 
L 141.110524 116.71931 
L 141.267383 117.043148 
L 141.582741 117.356191 
L 141.73856 117.091724 
L 141.893544 116.57898 
L 142.205405 116.929805 
L 142.519087 116.514213 
L 142.676862 116.703118 
L 142.991139 116.422459 
L 143.147352 116.109415 
L 143.617963 115.537301 
L 144.087296 116.184977 
L 144.399179 115.866537 
L 144.556184 115.175682 
L 145.021925 115.623658 
L 145.806761 114.592774 
L 145.964388 115.208066 
L 146.27626 114.333704 
L 146.433934 114.414663 
L 146.750763 114.112414 
L 147.064611 114.274333 
L 147.220474 113.88033 
L 147.688368 113.842549 
L 148.473222 113.000571 
L 148.629419 113.119311 
L 148.940399 113.189476 
L 149.0985 112.935803 
L 149.412668 113.135503 
L 149.56837 112.68213 
L 149.883339 112.692924 
L 150.041653 112.412265 
L 150.35891 112.255743 
L 150.515356 112.660541 
L 150.828815 112.255743 
L 151.296726 112.293524 
L 151.453768 111.672835 
L 151.768106 111.494724 
L 151.925782 111.181681 
L 152.23681 110.992775 
L 152.54976 111.413764 
L 152.706213 110.92261 
L 153.016879 110.733705 
L 153.171713 110.204769 
L 153.482123 109.859342 
L 153.6384 110.52321 
L 153.952046 110.345099 
L 154.108842 109.465339 
L 154.422789 109.200872 
L 154.577873 109.260242 
L 154.892914 109.762191 
L 155.050311 109.335804 
L 155.368008 109.055144 
L 155.519923 109.30342 
L 155.833637 109.125309 
L 155.992726 109.195474 
L 156.303488 109.038953 
L 156.460781 108.742101 
L 156.77712 109.087528 
L 156.933566 109.011966 
L 157.250219 108.369687 
L 157.406177 108.353495 
L 157.718191 107.991876 
L 158.03062 109.211666 
L 158.18802 107.82456 
L 158.662564 108.245549 
L 158.980879 107.722011 
L 159.139386 107.792176 
L 159.450481 108.094425 
L 159.607911 107.700422 
L 159.92703 107.56549 
L 160.079978 107.236254 
L 160.549182 106.955595 
L 160.863603 106.815265 
L 161.022291 106.442851 
L 161.490533 105.687229 
L 161.80412 105.757394 
L 161.96015 106.210767 
L 162.272473 105.600873 
L 162.428439 106.475235 
L 162.896686 104.877634 
L 163.208969 105.341802 
L 163.519389 105.055745 
L 163.992027 105.147499 
L 164.146975 104.856045 
L 164.465381 104.953197 
L 164.623779 104.780483 
L 164.937615 105.028759 
L 165.413672 103.528309 
L 165.568781 103.290828 
L 165.889438 102.119614 
L 166.046081 103.414966 
L 166.361471 102.502823 
L 166.519649 102.70792 
L 166.834124 102.50822 
L 166.989274 102.259944 
L 167.306493 102.411068 
L 167.464991 101.838955 
L 167.942382 101.423363 
L 168.255878 101.984682 
L 168.416922 101.158895 
L 168.729505 101.067141 
L 168.886548 101.358595 
L 169.206356 101.22906 
L 169.364448 99.879735 
L 169.835996 101.272238 
L 170.157682 100.111819 
L 170.317139 100.473438 
L 170.631316 100.82966 
L 170.788723 100.203573 
L 171.106503 101.061743 
L 171.264837 99.982284 
L 171.576068 100.473438 
L 171.888217 100.160394 
L 172.043934 99.841954 
L 172.513778 99.966092 
L 172.986426 99.577486 
L 173.298797 99.480335 
L 173.456983 99.232059 
L 173.772965 98.951399 
L 173.928436 98.400875 
L 174.242495 98.573588 
L 174.400628 99.097126 
L 174.715075 98.892029 
L 174.879851 99.307621 
L 175.347562 97.521115 
L 175.819523 98.309121 
L 176.133045 97.596677 
L 176.599399 97.623664 
L 176.757524 98.255148 
L 177.070196 98.39008 
L 177.382725 97.440155 
L 177.539296 97.542704 
L 178.010512 96.824863 
L 178.324072 97.040755 
L 178.48131 97.472539 
L 178.798637 97.607472 
L 178.955758 96.878836 
L 179.271617 97.332209 
L 179.426885 96.587382 
L 179.740148 97.127112 
L 179.895215 96.209571 
L 180.209595 96.274339 
L 180.525386 95.238057 
L 180.684685 95.718417 
L 180.996681 96.139406 
L 181.152473 95.378387 
L 181.465603 95.89113 
L 181.623401 95.518717 
L 181.935944 95.842555 
L 182.092444 95.270441 
L 182.411427 95.955898 
L 182.567609 95.410771 
L 182.880563 94.919616 
L 183.036489 95.043754 
L 183.351092 95.027562 
L 183.509295 94.250351 
L 183.821892 94.288132 
L 183.979512 94.045254 
L 184.292826 94.083035 
L 184.449467 93.791581 
L 184.765053 93.505524 
L 185.080287 94.282735 
L 185.709024 93.915719 
L 186.023649 92.231761 
L 186.493614 94.304324 
L 186.654209 92.981986 
L 186.969534 93.397578 
L 187.126032 93.33281 
L 187.444053 92.215569 
L 187.915068 92.480037 
L 188.071021 91.530112 
L 188.541844 92.404475 
L 188.857294 92.102226 
L 189.014817 92.507023 
L 189.328617 91.708223 
L 189.645055 92.015869 
L 189.800633 90.882436 
L 190.271048 90.796079 
L 190.741522 91.038958 
L 191.057709 89.716619 
L 191.214507 90.37509 
L 191.528017 90.056649 
L 191.683982 90.698928 
L 191.999382 89.149903 
L 192.155696 90.164595 
L 192.469267 89.209273 
L 192.784519 89.873141 
L 192.941229 89.500727 
L 193.255018 89.074341 
L 193.412366 88.631762 
L 193.724803 88.637159 
L 193.882769 89.171492 
L 194.19786 88.777489 
L 194.356332 88.108224 
L 194.6715 87.843756 
L 194.828937 88.383486 
L 195.145112 88.199978 
L 195.621318 86.424267 
L 196.092128 87.034161 
L 196.407685 86.375691 
L 196.564309 86.980188 
L 196.881044 86.435061 
L 197.038718 85.355601 
L 197.35413 86.246156 
L 197.509236 87.179889 
L 197.822057 85.841358 
L 198.136057 86.526815 
L 198.29603 85.814372 
L 198.610006 86.11662 
L 198.769431 84.999379 
L 199.084203 85.506726 
L 199.241205 85.344807 
L 199.555601 84.31932 
L 199.713777 84.988585 
L 200.02794 84.405676 
L 200.180798 85.069544 
L 200.49595 84.610774 
L 200.807331 85.414971 
L 200.967871 85.328615 
L 201.28119 84.346306 
L 201.437401 84.697131 
L 201.90714 83.5583 
L 202.221248 84.713323 
L 202.378331 83.817371 
L 202.690276 84.589185 
L 202.849916 83.865946 
L 203.162923 84.270744 
L 203.476251 83.563698 
L 203.634544 84.11962 
L 203.947279 83.666246 
L 204.104113 84.475841 
L 204.417639 82.781089 
L 204.574904 83.763398 
L 204.89087 83.455752 
L 205.047548 81.928316 
L 205.366661 81.350805 
L 205.678034 81.87974 
L 205.835284 81.356202 
L 206.149728 80.713923 
L 206.305217 81.793383 
L 206.620775 80.821869 
L 206.779276 82.3601 
L 207.250341 80.552004 
L 207.564111 82.462649 
L 207.721455 80.935213 
L 208.034172 79.526517 
L 208.190994 80.514223 
L 208.50707 80.886637 
L 208.978661 78.916623 
L 209.294446 79.164898 
L 209.449634 80.535812 
L 209.767796 78.268947 
L 209.926107 79.137912 
L 210.237471 79.94211 
L 210.394956 77.78319 
L 210.707225 79.656053 
L 210.864936 78.84106 
L 211.180721 78.635963 
L 211.496518 79.024569 
L 211.656119 78.878841 
L 212.129418 77.691436 
L 212.442524 78.333714 
L 212.599263 76.617373 
L 212.914202 77.22187 
L 213.069806 77.98289 
L 213.381007 77.918122 
L 213.694297 76.800881 
L 213.850608 78.360701 
L 214.321822 77.076143 
L 214.794049 78.306728 
L 215.10809 76.088437 
L 215.265136 75.818573 
L 215.576456 75.937313 
L 215.730676 75.42457 
L 216.044651 75.052156 
L 216.361078 75.656654 
L 216.830742 75.716024 
L 217.30006 77.259652 
L 217.458527 73.141512 
L 217.771594 74.053655 
L 217.928936 75.22487 
L 218.402257 74.075245 
L 218.719196 73.870147 
L 218.8791 75.035964 
L 219.196067 74.361302 
L 219.512253 74.226369 
L 219.66979 73.427569 
L 219.980772 73.772996 
L 220.13777 74.609577 
L 220.451439 74.053655 
L 220.609229 73.011977 
L 220.921259 73.848558 
L 221.078143 71.684241 
L 221.391946 73.772996 
L 221.548128 71.889338 
L 221.863191 73.638063 
L 222.649447 69.865351 
L 222.806387 70.475246 
L 223.119727 70.059654 
L 223.592163 71.133716 
L 223.748702 71.198484 
L 224.064112 71.614076 
L 224.378096 69.028769 
L 224.532495 69.158305 
L 224.84748 70.043462 
L 225.317788 68.192188 
L 225.474533 68.246161 
L 225.788705 67.636266 
L 226.262168 68.650958 
L 226.732678 67.312428 
L 227.049223 66.967001 
L 227.204952 67.220674 
L 227.521313 66.772698 
L 227.67636 66.33012 
L 227.988343 66.778095 
L 228.144443 65.763403 
L 228.456019 66.605382 
L 228.925078 66.907631 
L 229.237753 65.714827 
L 229.394801 66.610779 
L 229.709246 66.524422 
L 229.865919 67.425771 
L 230.648664 65.175097 
L 230.805113 65.574498 
L 231.436573 65.838965 
L 231.593063 64.532819 
L 231.905485 65.822773 
L 232.063843 65.628471 
L 232.377317 64.495038 
L 232.534927 64.97 
L 232.850251 63.642264 
L 233.164023 65.31003 
L 233.318633 64.581394 
L 233.63369 64.187392 
L 233.791197 64.360105 
L 234.106508 63.69084 
L 234.263692 64.403284 
L 234.579962 63.145713 
L 234.738044 65.013178 
L 235.054488 62.762504 
L 235.367683 63.442564 
L 235.525988 62.104034 
L 235.8391 62.055458 
L 236.308208 64.996986 
L 236.464766 63.739416 
L 236.778021 63.242864 
L 236.936606 62.087842 
L 237.250796 62.444064 
L 237.561465 63.086342 
L 237.718178 61.909731 
L 238.031434 62.228172 
L 238.18836 61.985293 
L 238.502437 62.001485 
L 238.662352 60.765503 
L 238.974765 62.163404 
L 239.445814 60.220376 
L 239.762177 60.285144 
L 239.920455 59.669852 
L 240.232494 59.664454 
L 240.391659 60.150211 
L 240.704494 58.746913 
L 240.859432 59.292041 
L 241.171931 59.049162 
L 241.327232 58.012881 
L 241.644758 60.166403 
L 241.957311 58.763105 
L 242.115621 59.831771 
L 242.590614 57.559507 
L 242.903754 59.383795 
L 243.061109 58.03447 
L 243.5397 57.311232 
L 243.853942 60.824874 
L 244.1675 60.441665 
L 244.327334 58.795489 
L 244.643058 58.709132 
L 244.80286 55.449163 
L 245.120089 57.035969 
L 245.2766 56.749912 
L 245.592347 55.227874 
L 245.750318 59.880346 
L 246.219256 55.778398 
L 246.531225 57.721426 
L 246.845764 55.589493 
L 247.002841 57.872551 
L 247.316375 58.169402 
L 247.789903 55.611082 
L 247.946827 56.739118 
L 248.260926 55.459958 
L 248.416047 58.250362 
L 248.730675 56.663556 
L 249.044565 59.286643 
L 249.202439 57.840167 
L 249.519707 58.49324 
L 249.678055 59.761606 
L 249.992399 57.721426 
L 250.150457 55.697439 
L 250.462515 58.854859 
L 250.938101 54.375101 
L 251.251021 58.169402 
L 251.407188 58.584994 
L 251.881125 55.125325 
L 252.195428 56.992791 
L 252.354507 56.53402 
L 252.667715 57.802386 
L 252.8244 55.53552 
L 253.135853 56.177799 
L 253.451503 55.837769 
L 253.607794 55.357409 
L 253.925036 53.274051 
L 254.081376 53.878549 
L 254.393385 54.412882 
L 254.549559 55.184696 
L 254.863508 55.999688 
L 255.021722 51.309434 
L 255.336093 54.445265 
L 255.493851 53.014981 
L 255.808448 52.054262 
L 256.122509 54.429074 
L 256.281035 49.193693 
L 256.596539 50.910034 
L 256.755673 48.794293 
L 257.070523 50.910034 
L 257.227987 48.573003 
L 257.542637 48.79969 
L 257.701892 48.184398 
L 258.013001 47.542119 
L 258.326083 47.212884 
L 258.482457 48.292344 
L 258.794251 47.52053 
L 258.952224 49.485147 
L 259.268857 48.945417 
L 259.426368 50.596991 
L 259.745523 43.796393 
L 259.900976 44.643769 
L 260.221545 45.766407 
L 260.380423 48.99939 
L 260.698261 44.195793 
L 261.015796 49.047966 
L 261.173781 43.54272 
L 261.490489 46.403289 
L 261.648097 43.332225 
L 261.963871 43.353814 
L 262.124924 42.344519 
L 262.43848 42.107038 
L 262.595371 43.893544 
L 262.911612 41.410787 
L 263.227973 44.88125 
L 263.547557 40.628178 
L 263.864329 45.582899 
L 264.181618 40.007489 
L 264.338569 41.874954 
L 264.660822 42.916633 
L 264.819515 37.951117 
L 265.131166 39.699843 
L 265.289666 45.917532 
L 266.071251 38.54482 
L 266.386465 37.540923 
L 266.547039 42.252765 
L 266.857441 36.553217 
L 267.01455 37.778404 
L 267.328695 35.533127 
L 267.486395 37.109139 
L 267.801007 35.435976 
L 267.958866 40.072256 
L 268.273723 38.453066 
L 268.587085 37.557115 
L 268.744006 37.513936 
L 269.059256 39.170907 
L 269.21605 35.479154 
L 269.68649 38.291147 
L 269.999453 34.442873 
L 270.155309 34.502243 
L 270.470416 38.928029 
L 270.786962 33.579305 
L 270.944224 34.56701 
L 271.25972 40.271956 
L 271.417483 32.122034 
L 271.733314 33.541523 
L 271.891763 33.352618 
L 272.208765 35.214686 
L 272.362658 32.03028 
L 272.679039 33.201494 
L 272.992819 29.763414 
L 273.15206 32.408091 
L 273.469147 31.960115 
L 273.629546 31.927731 
L 273.942556 31.290849 
L 274.099726 29.887552 
L 274.572987 32.03028 
L 275.043428 30.427282 
L 275.355933 27.71244 
L 275.671 31.938525 
L 275.827063 27.858167 
L 276.142173 27.599096 
L 276.299978 28.090251 
L 276.612766 33.832978 
L 276.769561 30.724133 
L 277.081952 32.310939 
L 277.238595 30.535228 
L 277.551394 30.832079 
L 278.336058 27.528932 
L 278.492493 26.611391 
L 278.802934 26.848872 
L 278.96147 26.784104 
L 279.2772 25.01379 
L 279.434276 31.328631 
L 279.746469 24.571211 
L 280.062911 27.685453 
L 280.2193 26.627582 
L 280.529871 25.828782 
L 280.685841 26.794899 
L 280.99913 26.541226 
L 281.155578 24.349922 
L 281.784108 28.554419 
L 281.941783 24.13403 
L 282.255865 21.532532 
L 282.421273 23.367613 
L 282.889248 25.904344 
L 283.20532 22.752321 
L 283.363737 24.625184 
L 283.676383 24.403895 
L 283.989742 21.311242 
L 284.145635 21.629683 
L 284.46161 23.626684 
L 284.619074 23.189503 
L 284.932169 22.682156 
L 285.08966 22.142426 
L 285.403119 24.851871 
L 285.559477 24.33373 
L 286.03277 20.944226 
L 286.347311 21.456969 
L 286.661377 22.57421 
L 286.818021 21.770013 
L 287.291023 22.439278 
L 287.760288 23.378408 
L 288.074245 22.504045 
L 288.389225 24.317538 
L 288.545867 22.142426 
L 288.858775 22.423086 
L 289.016565 23.227284 
L 289.33013 22.752321 
L 289.487356 22.784705 
L 289.802613 22.110043 
L 289.960107 24.171811 
L 290.275753 24.042276 
L 290.592115 27.286053 
L 290.749484 25.526533 
L 291.064246 27.615288 
L 291.221143 23.211092 
L 291.535456 24.716938 
L 291.691807 24.754719 
L 292.003832 25.164914 
L 292.160883 29.482754 
L 292.473644 25.445574 
L 292.632146 27.545123 
L 293.261489 25.774809 
L 293.420559 24.441676 
L 293.742519 26.163415 
L 293.891422 24.841076 
L 294.365658 30.044073 
L 294.680569 25.931331 
L 295.154736 28.65157 
L 295.469685 27.426383 
L 295.942164 27.31304 
L 296.099655 29.423384 
L 296.413791 28.824284 
L 296.573923 29.822784 
L 297.045563 26.886653 
L 297.360367 27.205094 
L 297.67526 27.048572 
L 297.830727 28.057867 
L 298.14382 27.696248 
L 298.30093 27.788002 
L 298.615174 27.242875 
L 298.76954 27.588302 
L 299.243013 30.540625 
L 299.555966 28.808092 
L 299.871852 29.023984 
L 300.029841 31.441974 
L 300.498951 28.862065 
L 300.97097 33.687251 
L 301.28417 30.103444 
L 301.439995 35.268659 
L 301.753345 31.026382 
L 302.066254 29.887552 
L 302.222193 30.465063 
L 302.696619 34.264762 
L 303.010623 32.796696 
L 303.1661 34.146021 
L 303.480924 31.873758 
L 303.640881 31.603893 
L 303.955355 32.316336 
L 304.270482 32.235377 
L 304.425182 33.082753 
L 304.736978 31.997896 
L 304.89335 34.459064 
L 305.204057 32.219185 
L 305.359849 33.190699 
L 305.674997 34.280954 
L 305.831801 33.050369 
L 306.147252 31.560714 
L 306.456521 35.182303 
L 306.614342 33.50914 
L 306.928783 33.90854 
L 307.085474 33.90854 
L 307.401367 36.32653 
L 307.559747 34.696546 
L 307.873188 36.531628 
L 308.34285 33.385002 
L 308.657263 34.658765 
L 308.8155 34.534627 
L 309.128348 38.334326 
L 309.287146 36.644971 
L 309.603452 37.163112 
L 309.762356 35.274057 
L 310.078394 37.400593 
L 310.236272 35.86776 
L 310.550753 34.232378 
L 310.864149 36.601792 
L 311.022819 35.700443 
L 311.49516 38.658164 
L 311.811304 37.281852 
L 311.967656 37.303441 
L 312.279584 37.80539 
L 312.436819 39.22488 
L 312.750936 36.364311 
L 313.064146 36.893247 
L 313.219236 39.689048 
L 313.533701 39.840172 
L 314.006803 41.426978 
L 314.16541 39.28425 
L 314.638589 40.509437 
L 314.952131 40.558013 
L 315.267588 39.96431 
L 315.426587 39.28425 
L 315.587155 41.135524 
L 315.902241 41.788598 
L 316.213496 39.710637 
L 316.369996 42.171806 
L 316.685366 43.720831 
L 316.841864 45.064758 
L 317.15517 43.348417 
L 317.31071 43.747817 
L 317.626223 43.46176 
L 317.939738 44.611385 
L 318.096628 44.379301 
L 318.412067 46.36011 
L 318.571546 43.051566 
L 318.887777 44.465658 
L 319.044557 46.576002 
L 319.355735 44.68155 
L 319.671272 46.754113 
L 319.827677 45.976902 
L 320.140064 46.084848 
L 320.296947 46.322329 
L 320.609902 47.817381 
L 320.763815 45.836572 
L 321.078 46.333124 
L 321.233066 48.45966 
L 321.547876 48.734922 
L 321.86136 48.713333 
L 322.018239 48.189795 
L 322.333282 48.189795 
L 322.489771 49.037171 
L 322.803093 48.125027 
L 322.958879 49.010185 
L 323.270981 51.606286 
L 323.428722 50.532223 
L 323.740665 51.946316 
L 324.055603 51.314832 
L 324.211736 49.382598 
L 324.525676 50.748115 
L 324.683464 55.470752 
L 324.996043 51.752013 
L 325.151611 51.649464 
L 325.469636 53.430573 
L 325.628819 52.782897 
L 325.942327 50.634772 
L 326.254961 53.414381 
L 326.41166 51.201488 
L 326.72398 52.561608 
L 326.878936 51.174502 
L 327.193569 55.799988 
L 327.349836 53.45756 
L 327.66168 52.183797 
L 327.975063 55.098339 
L 328.131882 52.880049 
L 328.446187 50.570004 
L 328.602796 56.652761 
L 328.914848 53.31723 
L 329.387212 55.853961 
L 329.543167 53.187695 
L 329.862575 53.900138 
L 330.020736 56.793091 
L 330.333477 57.791591 
L 330.646889 57.019777 
L 330.802635 56.01588 
L 331.11894 59.394589 
L 331.280526 56.690542 
L 331.590286 56.47465 
L 331.750624 58.854859 
L 332.064379 58.002086 
L 332.220459 56.965804 
L 332.845813 59.718427 
L 333.001295 59.464754 
L 333.474774 57.564905 
L 333.786368 58.477048 
L 333.943709 59.907333 
L 334.258014 61.13252 
L 334.415256 59.799387 
L 335.04367 59.329822 
L 335.203097 61.13252 
L 335.518503 62.136418 
L 335.672146 59.605084 
L 335.986505 61.105533 
L 336.141456 60.403884 
L 336.455861 60.528022 
L 336.613963 61.477947 
L 336.926232 60.889641 
L 337.238959 62.946013 
L 337.395582 62.028472 
L 337.707563 61.823374 
L 337.863789 63.340015 
L 338.178466 63.188891 
L 338.334681 62.417077 
L 338.652716 61.79099 
L 339.122657 62.805683 
L 339.43555 65.175097 
L 339.592659 63.399386 
L 339.908889 64.273748 
L 340.064182 63.734018 
L 340.375959 62.017677 
L 340.534439 63.582894 
L 340.846867 63.053959 
L 341.16404 66.033268 
L 341.322261 64.257556 
L 341.477662 64.208981 
L 341.792018 65.963103 
L 342.10758 65.358606 
L 342.263224 65.552908 
L 342.574712 64.705532 
L 342.734291 68.435066 
L 343.04941 66.259955 
L 343.519294 69.973297 
L 343.991526 67.431169 
L 344.305941 67.749609 
L 344.463938 70.156805 
L 344.774389 69.422772 
L 344.931128 68.640164 
L 345.243222 68.791288 
L 345.556978 68.575396 
L 345.712425 69.185291 
L 346.187153 68.80748 
L 346.498955 69.239264 
L 346.658061 71.344211 
L 346.974782 72.310328 
L 347.132345 71.462952 
L 347.44747 73.292636 
L 347.602445 72.24556 
L 347.915723 73.001182 
L 348.228472 72.974196 
L 348.385506 72.50463 
L 348.698405 72.806879 
L 348.855775 74.415275 
L 349.170377 74.134615 
L 349.328133 74.636564 
L 349.642541 75.019772 
L 349.79919 74.490837 
L 350.116416 75.370597 
L 350.271707 75.165499 
L 350.58787 74.291137 
L 350.902847 74.14541 
L 351.062054 74.258753 
L 351.379231 73.907928 
L 351.533054 76.325919 
L 351.848285 75.829367 
L 352.317775 78.139411 
L 352.476825 77.092335 
L 352.79108 76.358302 
L 352.947679 77.98289 
L 353.263149 77.664449 
L 353.575711 78.927417 
L 353.893423 77.815573 
L 354.21238 79.067747 
L 354.533626 77.718422 
L 354.691976 79.094733 
L 355.007739 79.456353 
L 355.164933 78.355303 
L 355.639659 80.611375 
L 355.956209 80.573594 
L 356.112063 81.14031 
L 356.586183 82.030865 
L 356.897582 81.323818 
L 357.212164 81.798781 
L 357.371113 82.926816 
L 357.690867 81.232064 
L 357.847736 82.851254 
L 358.637467 83.088735 
L 358.793539 83.493533 
L 359.110085 83.720219 
L 359.26627 84.923817 
L 359.579357 84.950804 
L 359.733793 84.63776 
L 360.519452 86.753502 
L 360.839328 86.688734 
L 360.994738 87.665645 
L 361.311132 87.633262 
L 361.469315 87.471343 
L 361.78409 88.885435 
L 361.942766 87.838359 
L 362.25348 89.117519 
L 362.409688 88.923216 
L 362.880994 90.180787 
L 363.19586 89.047354 
L 363.667296 91.038958 
L 363.980604 91.362796 
L 364.135575 91.330412 
L 364.448935 90.63416 
L 364.608643 91.762196 
L 365.078729 91.940307 
L 365.391088 91.508523 
L 365.547354 93.149302 
L 365.863089 93.521716 
L 366.173464 93.570291 
L 366.3322 94.277338 
L 366.645313 93.764594 
L 366.800535 94.169392 
L 367.274221 94.768492 
L 367.592773 95.718417 
L 367.750132 95.1517 
L 368.064073 95.097727 
L 368.221339 95.410771 
L 368.535238 95.486333 
L 368.691323 96.409271 
L 369.005448 96.17179 
L 369.160247 96.522614 
L 369.476884 96.603574 
L 369.635124 96.339106 
L 369.951215 96.51182 
L 370.105225 96.420066 
L 370.420556 97.666842 
L 370.732039 97.915118 
L 371.679822 99.787981 
L 371.838795 101.045552 
L 372.152956 100.424862 
L 372.315393 101.844352 
L 372.627747 101.191279 
L 372.783944 101.22906 
L 373.096228 101.941503 
L 373.25436 102.017066 
L 373.567301 102.481233 
L 373.723366 103.382582 
L 374.196623 103.808969 
L 374.509558 103.285431 
L 374.66833 103.943902 
L 374.980253 103.522912 
L 375.295598 103.328609 
L 375.451152 104.348699 
L 375.769616 104.742702 
L 376.397403 106.647949 
L 376.710459 107.160692 
L 376.870402 107.829957 
L 377.184198 107.705819 
L 377.342726 108.806869 
L 377.657533 108.677333 
L 377.81459 109.632655 
L 378.128589 109.616464 
L 378.283206 109.799972 
L 378.595113 110.674334 
L 378.754233 111.699821 
L 379.225155 111.489327 
L 379.539014 111.635054 
L 379.693918 112.207167 
L 380.007442 112.746897 
L 380.16516 113.928906 
L 380.477014 113.594274 
L 380.636099 114.581979 
L 380.95153 115.083928 
L 381.108135 115.612864 
L 381.425094 116.050045 
L 381.586467 116.99997 
L 381.897323 116.940599 
L 382.370405 117.5397 
L 382.843955 119.628455 
L 383.156946 119.979279 
L 383.314105 120.805066 
L 383.630578 121.015561 
L 383.789843 121.668634 
L 384.259437 121.873731 
L 384.576201 122.300118 
L 384.732631 122.300118 
L 385.044546 122.078829 
L 385.671571 123.244645 
L 385.987456 123.050343 
L 386.142232 123.940897 
L 386.454475 124.027254 
L 386.613122 124.723506 
L 386.927536 125.07433 
L 387.866637 127.060536 
L 388.021645 127.001166 
L 388.648831 127.643445 
L 388.806057 128.021256 
L 389.120435 128.388272 
L 389.278501 128.879426 
L 389.595204 129.467732 
L 389.753665 130.207162 
L 390.06865 129.87253 
L 390.225773 130.217957 
L 390.538628 130.153189 
L 391.480031 131.248841 
L 391.634899 131.756187 
L 391.946704 131.939695 
L 392.579021 133.380774 
L 393.361213 134.90821 
L 393.520151 135.339994 
L 393.832779 135.723203 
L 393.989079 136.349289 
L 394.302406 136.214357 
L 394.461811 136.414057 
L 394.777425 136.548989 
L 395.564202 138.572977 
L 396.1918 143.274025 
L 396.506641 143.997263 
L 396.665604 144.893215 
L 397.130696 146.372075 
L 397.914807 147.429946 
L 398.073199 149.113903 
L 398.385254 150.722299 
L 398.544014 152.130994 
L 399.012625 153.566676 
L 399.327867 153.809554 
L 399.63973 154.495011 
L 399.795507 155.941487 
L 400.26763 158.127394 
L 401.68299 158.548383 
L 401.68299 158.548383 
" style="fill:none;stroke:#1f77b4;stroke-linecap:round;stroke-width:1.5;"/>
   </g>
   <g id="patch_3">
    <path d="M 59.865781 165.932969 
L 59.865781 14.04 
" style="fill:none;stroke:#262626;stroke-linecap:square;stroke-linejoin:miter;stroke-width:0.8;"/>
   </g>
   <g id="patch_4">
    <path d="M 417.96 165.932969 
L 417.96 14.04 
" style="fill:none;stroke:#262626;stroke-linecap:square;stroke-linejoin:miter;stroke-width:0.8;"/>
   </g>
   <g id="patch_5">
    <path d="M 59.865781 165.932969 
L 417.96 165.932969 
" style="fill:none;stroke:#262626;stroke-linecap:square;stroke-linejoin:miter;stroke-width:0.8;"/>
   </g>
   <g id="patch_6">
    <path d="M 59.865781 14.04 
L 417.96 14.04 
" style="fill:none;stroke:#262626;stroke-linecap:square;stroke-linejoin:miter;stroke-width:0.8;"/>
   </g>
  </g>
 </g>
 <defs>
  <clipPath id="p2f75bf911a">
   <rect height="151.892969" width="358.094219" x="59.865781" y="14.04"/>
  </clipPath>
 </defs>
</svg>
