<?xml version="1.0" encoding="utf-8" standalone="no"?>
<!DOCTYPE svg PUBLIC "-//W3C//DTD SVG 1.1//EN"
  "http://www.w3.org/Graphics/SVG/1.1/DTD/svg11.dtd">
<!-- Created with matplotlib (https://matplotlib.org/) -->
<svg height="216pt" version="1.1" viewBox="0 0 432 216" width="432pt" xmlns="http://www.w3.org/2000/svg" xmlns:xlink="http://www.w3.org/1999/xlink">
 <metadata>
  <rdf:RDF xmlns:cc="http://creativecommons.org/ns#" xmlns:dc="http://purl.org/dc/elements/1.1/" xmlns:rdf="http://www.w3.org/1999/02/22-rdf-syntax-ns#">
   <cc:Work>
    <dc:type rdf:resource="http://purl.org/dc/dcmitype/StillImage"/>
    <dc:date>2022-03-11T21:23:00.715589</dc:date>
    <dc:format>image/svg+xml</dc:format>
    <dc:creator>
     <cc:Agent>
      <dc:title>Matplotlib v3.3.4, https://matplotlib.org/</dc:title>
     </cc:Agent>
    </dc:creator>
   </cc:Work>
  </rdf:RDF>
 </metadata>
 <defs>
  <style type="text/css">*{stroke-linecap:butt;stroke-linejoin:round;}</style>
 </defs>
 <g id="figure_1">
  <g id="patch_1">
   <path d="M 0 216 
L 432 216 
L 432 0 
L 0 0 
z
" style="fill:#ffffff;"/>
  </g>
  <g id="axes_1">
   <g id="patch_2">
    <path d="M 59.865781 165.932969 
L 372.134219 165.932969 
L 372.134219 15.703083 
L 59.865781 15.703083 
z
" style="fill:#ffffff;"/>
   </g>
   <g id="matplotlib.axis_1">
    <g id="xtick_1">
     <g id="text_1">
      <!-- 0 -->
      <g style="fill:#262626;" transform="translate(70.399505 182.238125)scale(0.13 -0.13)">
       <defs>
        <path d="M 4.15625 35.296875 
Q 4.15625 48 6.765625 55.734375 
Q 9.375 63.484375 14.515625 67.671875 
Q 19.671875 71.875 27.484375 71.875 
Q 33.25 71.875 37.59375 69.546875 
Q 41.9375 67.234375 44.765625 62.859375 
Q 47.609375 58.5 49.21875 52.21875 
Q 50.828125 45.953125 50.828125 35.296875 
Q 50.828125 22.703125 48.234375 14.96875 
Q 45.65625 7.234375 40.5 3 
Q 35.359375 -1.21875 27.484375 -1.21875 
Q 17.140625 -1.21875 11.234375 6.203125 
Q 4.15625 15.140625 4.15625 35.296875 
z
M 13.1875 35.296875 
Q 13.1875 17.671875 17.3125 11.828125 
Q 21.4375 6 27.484375 6 
Q 33.546875 6 37.671875 11.859375 
Q 41.796875 17.71875 41.796875 35.296875 
Q 41.796875 52.984375 37.671875 58.78125 
Q 33.546875 64.59375 27.390625 64.59375 
Q 21.34375 64.59375 17.71875 59.46875 
Q 13.1875 52.9375 13.1875 35.296875 
z
" id="ArialMT-48"/>
       </defs>
       <use xlink:href="#ArialMT-48"/>
      </g>
     </g>
    </g>
    <g id="xtick_2">
     <g id="text_2">
      <!-- 50 -->
      <g style="fill:#262626;" transform="translate(139.107375 182.238125)scale(0.13 -0.13)">
       <defs>
        <path d="M 4.15625 18.75 
L 13.375 19.53125 
Q 14.40625 12.796875 18.140625 9.390625 
Q 21.875 6 27.15625 6 
Q 33.5 6 37.890625 10.78125 
Q 42.28125 15.578125 42.28125 23.484375 
Q 42.28125 31 38.0625 35.34375 
Q 33.84375 39.703125 27 39.703125 
Q 22.75 39.703125 19.328125 37.765625 
Q 15.921875 35.84375 13.96875 32.765625 
L 5.71875 33.84375 
L 12.640625 70.609375 
L 48.25 70.609375 
L 48.25 62.203125 
L 19.671875 62.203125 
L 15.828125 42.96875 
Q 22.265625 47.46875 29.34375 47.46875 
Q 38.71875 47.46875 45.15625 40.96875 
Q 51.609375 34.46875 51.609375 24.265625 
Q 51.609375 14.546875 45.953125 7.46875 
Q 39.0625 -1.21875 27.15625 -1.21875 
Q 17.390625 -1.21875 11.203125 4.25 
Q 5.03125 9.71875 4.15625 18.75 
z
" id="ArialMT-53"/>
       </defs>
       <use xlink:href="#ArialMT-53"/>
       <use x="55.615234" xlink:href="#ArialMT-48"/>
      </g>
     </g>
    </g>
    <g id="xtick_3">
     <g id="text_3">
      <!-- 100 -->
      <g style="fill:#262626;" transform="translate(207.815245 182.238125)scale(0.13 -0.13)">
       <defs>
        <path d="M 37.25 0 
L 28.46875 0 
L 28.46875 56 
Q 25.296875 52.984375 20.140625 49.953125 
Q 14.984375 46.921875 10.890625 45.40625 
L 10.890625 53.90625 
Q 18.265625 57.375 23.78125 62.296875 
Q 29.296875 67.234375 31.59375 71.875 
L 37.25 71.875 
z
" id="ArialMT-49"/>
       </defs>
       <use xlink:href="#ArialMT-49"/>
       <use x="55.615234" xlink:href="#ArialMT-48"/>
       <use x="111.230469" xlink:href="#ArialMT-48"/>
      </g>
     </g>
    </g>
    <g id="xtick_4">
     <g id="text_4">
      <!-- 150 -->
      <g style="fill:#262626;" transform="translate(280.137725 182.238125)scale(0.13 -0.13)">
       <use xlink:href="#ArialMT-49"/>
       <use x="55.615234" xlink:href="#ArialMT-53"/>
       <use x="111.230469" xlink:href="#ArialMT-48"/>
      </g>
     </g>
    </g>
    <g id="xtick_5">
     <g id="text_5">
      <!-- 200 -->
      <g style="fill:#262626;" transform="translate(352.460204 182.238125)scale(0.13 -0.13)">
       <defs>
        <path d="M 50.34375 8.453125 
L 50.34375 0 
L 3.03125 0 
Q 2.9375 3.171875 4.046875 6.109375 
Q 5.859375 10.9375 9.828125 15.625 
Q 13.8125 20.3125 21.34375 26.46875 
Q 33.015625 36.03125 37.109375 41.625 
Q 41.21875 47.21875 41.21875 52.203125 
Q 41.21875 57.421875 37.46875 61 
Q 33.734375 64.59375 27.734375 64.59375 
Q 21.390625 64.59375 17.578125 60.78125 
Q 13.765625 56.984375 13.71875 50.25 
L 4.6875 51.171875 
Q 5.609375 61.28125 11.65625 66.578125 
Q 17.71875 71.875 27.9375 71.875 
Q 38.234375 71.875 44.234375 66.15625 
Q 50.25 60.453125 50.25 52 
Q 50.25 47.703125 48.484375 43.546875 
Q 46.734375 39.40625 42.65625 34.8125 
Q 38.578125 30.21875 29.109375 22.21875 
Q 21.1875 15.578125 18.9375 13.203125 
Q 16.703125 10.84375 15.234375 8.453125 
z
" id="ArialMT-50"/>
       </defs>
       <use xlink:href="#ArialMT-50"/>
       <use x="55.615234" xlink:href="#ArialMT-48"/>
       <use x="111.230469" xlink:href="#ArialMT-48"/>
      </g>
     </g>
    </g>
    <g id="text_6">
     <!-- Elapsed Time (s) -->
     <g style="fill:#262626;" transform="translate(163.484688 199.013438)scale(0.14 -0.14)">
      <defs>
       <path d="M 7.90625 0 
L 7.90625 71.578125 
L 59.671875 71.578125 
L 59.671875 63.140625 
L 17.390625 63.140625 
L 17.390625 41.21875 
L 56.984375 41.21875 
L 56.984375 32.8125 
L 17.390625 32.8125 
L 17.390625 8.453125 
L 61.328125 8.453125 
L 61.328125 0 
z
" id="ArialMT-69"/>
       <path d="M 6.390625 0 
L 6.390625 71.578125 
L 15.1875 71.578125 
L 15.1875 0 
z
" id="ArialMT-108"/>
       <path d="M 40.4375 6.390625 
Q 35.546875 2.25 31.03125 0.53125 
Q 26.515625 -1.171875 21.34375 -1.171875 
Q 12.796875 -1.171875 8.203125 3 
Q 3.609375 7.171875 3.609375 13.671875 
Q 3.609375 17.484375 5.34375 20.625 
Q 7.078125 23.78125 9.890625 25.6875 
Q 12.703125 27.59375 16.21875 28.5625 
Q 18.796875 29.25 24.03125 29.890625 
Q 34.671875 31.15625 39.703125 32.90625 
Q 39.75 34.71875 39.75 35.203125 
Q 39.75 40.578125 37.25 42.78125 
Q 33.890625 45.75 27.25 45.75 
Q 21.046875 45.75 18.09375 43.578125 
Q 15.140625 41.40625 13.71875 35.890625 
L 5.125 37.0625 
Q 6.296875 42.578125 8.984375 45.96875 
Q 11.671875 49.359375 16.75 51.1875 
Q 21.828125 53.03125 28.515625 53.03125 
Q 35.15625 53.03125 39.296875 51.46875 
Q 43.453125 49.90625 45.40625 47.53125 
Q 47.359375 45.171875 48.140625 41.546875 
Q 48.578125 39.3125 48.578125 33.453125 
L 48.578125 21.734375 
Q 48.578125 9.46875 49.140625 6.21875 
Q 49.703125 2.984375 51.375 0 
L 42.1875 0 
Q 40.828125 2.734375 40.4375 6.390625 
z
M 39.703125 26.03125 
Q 34.90625 24.078125 25.34375 22.703125 
Q 19.921875 21.921875 17.671875 20.9375 
Q 15.4375 19.96875 14.203125 18.09375 
Q 12.984375 16.21875 12.984375 13.921875 
Q 12.984375 10.40625 15.640625 8.0625 
Q 18.3125 5.71875 23.4375 5.71875 
Q 28.515625 5.71875 32.46875 7.9375 
Q 36.421875 10.15625 38.28125 14.015625 
Q 39.703125 17 39.703125 22.796875 
z
" id="ArialMT-97"/>
       <path d="M 6.59375 -19.875 
L 6.59375 51.859375 
L 14.59375 51.859375 
L 14.59375 45.125 
Q 17.4375 49.078125 21 51.046875 
Q 24.5625 53.03125 29.640625 53.03125 
Q 36.28125 53.03125 41.359375 49.609375 
Q 46.4375 46.1875 49.015625 39.953125 
Q 51.609375 33.734375 51.609375 26.3125 
Q 51.609375 18.359375 48.75 11.984375 
Q 45.90625 5.609375 40.453125 2.21875 
Q 35.015625 -1.171875 29 -1.171875 
Q 24.609375 -1.171875 21.109375 0.6875 
Q 17.625 2.546875 15.375 5.375 
L 15.375 -19.875 
z
M 14.546875 25.640625 
Q 14.546875 15.625 18.59375 10.84375 
Q 22.65625 6.0625 28.421875 6.0625 
Q 34.28125 6.0625 38.453125 11.015625 
Q 42.625 15.96875 42.625 26.375 
Q 42.625 36.28125 38.546875 41.203125 
Q 34.46875 46.140625 28.8125 46.140625 
Q 23.1875 46.140625 18.859375 40.890625 
Q 14.546875 35.640625 14.546875 25.640625 
z
" id="ArialMT-112"/>
       <path d="M 3.078125 15.484375 
L 11.765625 16.84375 
Q 12.5 11.625 15.84375 8.84375 
Q 19.1875 6.0625 25.203125 6.0625 
Q 31.25 6.0625 34.171875 8.515625 
Q 37.109375 10.984375 37.109375 14.3125 
Q 37.109375 17.28125 34.515625 19 
Q 32.71875 20.171875 25.53125 21.96875 
Q 15.875 24.421875 12.140625 26.203125 
Q 8.40625 27.984375 6.46875 31.125 
Q 4.546875 34.28125 4.546875 38.09375 
Q 4.546875 41.546875 6.125 44.5 
Q 7.71875 47.46875 10.453125 49.421875 
Q 12.5 50.921875 16.03125 51.96875 
Q 19.578125 53.03125 23.640625 53.03125 
Q 29.734375 53.03125 34.34375 51.265625 
Q 38.96875 49.515625 41.15625 46.5 
Q 43.359375 43.5 44.1875 38.484375 
L 35.59375 37.3125 
Q 35.015625 41.3125 32.203125 43.546875 
Q 29.390625 45.796875 24.265625 45.796875 
Q 18.21875 45.796875 15.625 43.796875 
Q 13.03125 41.796875 13.03125 39.109375 
Q 13.03125 37.40625 14.109375 36.03125 
Q 15.1875 34.625 17.484375 33.6875 
Q 18.796875 33.203125 25.25 31.453125 
Q 34.578125 28.953125 38.25 27.359375 
Q 41.9375 25.78125 44.03125 22.75 
Q 46.140625 19.734375 46.140625 15.234375 
Q 46.140625 10.84375 43.578125 6.953125 
Q 41.015625 3.078125 36.171875 0.953125 
Q 31.34375 -1.171875 25.25 -1.171875 
Q 15.140625 -1.171875 9.84375 3.03125 
Q 4.546875 7.234375 3.078125 15.484375 
z
" id="ArialMT-115"/>
       <path d="M 42.09375 16.703125 
L 51.171875 15.578125 
Q 49.03125 7.625 43.21875 3.21875 
Q 37.40625 -1.171875 28.375 -1.171875 
Q 17 -1.171875 10.328125 5.828125 
Q 3.65625 12.84375 3.65625 25.484375 
Q 3.65625 38.578125 10.390625 45.796875 
Q 17.140625 53.03125 27.875 53.03125 
Q 38.28125 53.03125 44.875 45.953125 
Q 51.46875 38.875 51.46875 26.03125 
Q 51.46875 25.25 51.421875 23.6875 
L 12.75 23.6875 
Q 13.234375 15.140625 17.578125 10.59375 
Q 21.921875 6.0625 28.421875 6.0625 
Q 33.25 6.0625 36.671875 8.59375 
Q 40.09375 11.140625 42.09375 16.703125 
z
M 13.234375 30.90625 
L 42.1875 30.90625 
Q 41.609375 37.453125 38.875 40.71875 
Q 34.671875 45.796875 27.984375 45.796875 
Q 21.921875 45.796875 17.796875 41.75 
Q 13.671875 37.703125 13.234375 30.90625 
z
" id="ArialMT-101"/>
       <path d="M 40.234375 0 
L 40.234375 6.546875 
Q 35.296875 -1.171875 25.734375 -1.171875 
Q 19.53125 -1.171875 14.328125 2.25 
Q 9.125 5.671875 6.265625 11.796875 
Q 3.421875 17.921875 3.421875 25.875 
Q 3.421875 33.640625 6 39.96875 
Q 8.59375 46.296875 13.765625 49.65625 
Q 18.953125 53.03125 25.34375 53.03125 
Q 30.03125 53.03125 33.6875 51.046875 
Q 37.359375 49.078125 39.65625 45.90625 
L 39.65625 71.578125 
L 48.390625 71.578125 
L 48.390625 0 
z
M 12.453125 25.875 
Q 12.453125 15.921875 16.640625 10.984375 
Q 20.84375 6.0625 26.5625 6.0625 
Q 32.328125 6.0625 36.34375 10.765625 
Q 40.375 15.484375 40.375 25.140625 
Q 40.375 35.796875 36.265625 40.765625 
Q 32.171875 45.75 26.171875 45.75 
Q 20.3125 45.75 16.375 40.96875 
Q 12.453125 36.1875 12.453125 25.875 
z
" id="ArialMT-100"/>
       <path id="ArialMT-32"/>
       <path d="M 25.921875 0 
L 25.921875 63.140625 
L 2.34375 63.140625 
L 2.34375 71.578125 
L 59.078125 71.578125 
L 59.078125 63.140625 
L 35.40625 63.140625 
L 35.40625 0 
z
" id="ArialMT-84"/>
       <path d="M 6.640625 61.46875 
L 6.640625 71.578125 
L 15.4375 71.578125 
L 15.4375 61.46875 
z
M 6.640625 0 
L 6.640625 51.859375 
L 15.4375 51.859375 
L 15.4375 0 
z
" id="ArialMT-105"/>
       <path d="M 6.59375 0 
L 6.59375 51.859375 
L 14.453125 51.859375 
L 14.453125 44.578125 
Q 16.890625 48.390625 20.9375 50.703125 
Q 25 53.03125 30.171875 53.03125 
Q 35.9375 53.03125 39.625 50.640625 
Q 43.3125 48.25 44.828125 43.953125 
Q 50.984375 53.03125 60.84375 53.03125 
Q 68.5625 53.03125 72.703125 48.75 
Q 76.859375 44.484375 76.859375 35.59375 
L 76.859375 0 
L 68.109375 0 
L 68.109375 32.671875 
Q 68.109375 37.9375 67.25 40.25 
Q 66.40625 42.578125 64.15625 43.984375 
Q 61.921875 45.40625 58.890625 45.40625 
Q 53.421875 45.40625 49.796875 41.765625 
Q 46.1875 38.140625 46.1875 30.125 
L 46.1875 0 
L 37.40625 0 
L 37.40625 33.6875 
Q 37.40625 39.546875 35.25 42.46875 
Q 33.109375 45.40625 28.21875 45.40625 
Q 24.515625 45.40625 21.359375 43.453125 
Q 18.21875 41.5 16.796875 37.734375 
Q 15.375 33.984375 15.375 26.90625 
L 15.375 0 
z
" id="ArialMT-109"/>
       <path d="M 23.390625 -21.046875 
Q 16.109375 -11.859375 11.078125 0.4375 
Q 6.0625 12.75 6.0625 25.921875 
Q 6.0625 37.546875 9.8125 48.1875 
Q 14.203125 60.546875 23.390625 72.796875 
L 29.6875 72.796875 
Q 23.78125 62.640625 21.875 58.296875 
Q 18.890625 51.5625 17.1875 44.234375 
Q 15.09375 35.109375 15.09375 25.875 
Q 15.09375 2.390625 29.6875 -21.046875 
z
" id="ArialMT-40"/>
       <path d="M 12.359375 -21.046875 
L 6.0625 -21.046875 
Q 20.65625 2.390625 20.65625 25.875 
Q 20.65625 35.0625 18.5625 44.09375 
Q 16.890625 51.421875 13.921875 58.15625 
Q 12.015625 62.546875 6.0625 72.796875 
L 12.359375 72.796875 
Q 21.53125 60.546875 25.921875 48.1875 
Q 29.6875 37.546875 29.6875 25.921875 
Q 29.6875 12.75 24.625 0.4375 
Q 19.578125 -11.859375 12.359375 -21.046875 
z
" id="ArialMT-41"/>
      </defs>
      <use xlink:href="#ArialMT-69"/>
      <use x="66.699219" xlink:href="#ArialMT-108"/>
      <use x="88.916016" xlink:href="#ArialMT-97"/>
      <use x="144.53125" xlink:href="#ArialMT-112"/>
      <use x="200.146484" xlink:href="#ArialMT-115"/>
      <use x="250.146484" xlink:href="#ArialMT-101"/>
      <use x="305.761719" xlink:href="#ArialMT-100"/>
      <use x="361.376953" xlink:href="#ArialMT-32"/>
      <use x="387.410156" xlink:href="#ArialMT-84"/>
      <use x="444.744141" xlink:href="#ArialMT-105"/>
      <use x="466.960938" xlink:href="#ArialMT-109"/>
      <use x="550.261719" xlink:href="#ArialMT-101"/>
      <use x="605.876953" xlink:href="#ArialMT-32"/>
      <use x="633.660156" xlink:href="#ArialMT-40"/>
      <use x="666.960938" xlink:href="#ArialMT-115"/>
      <use x="716.960938" xlink:href="#ArialMT-41"/>
     </g>
    </g>
   </g>
   <g id="matplotlib.axis_2">
    <g id="ytick_1">
     <g id="line2d_1">
      <defs>
       <path d="M 0 0 
L -3.5 0 
" id="m33b018c4d5" style="stroke:#262626;stroke-width:0.8;"/>
      </defs>
      <g>
       <use style="fill:#262626;stroke:#262626;stroke-width:0.8;" x="59.865781" xlink:href="#m33b018c4d5" y="158.963831"/>
      </g>
     </g>
     <g id="text_7">
      <!-- 0 -->
      <g style="fill:#262626;" transform="translate(45.636563 163.616409)scale(0.13 -0.13)">
       <use xlink:href="#ArialMT-48"/>
      </g>
     </g>
    </g>
    <g id="ytick_2">
     <g id="line2d_2">
      <g>
       <use style="fill:#262626;stroke:#262626;stroke-width:0.8;" x="59.865781" xlink:href="#m33b018c4d5" y="123.837127"/>
      </g>
     </g>
     <g id="text_8">
      <!-- 50 -->
      <g style="fill:#262626;" transform="translate(38.407344 128.489705)scale(0.13 -0.13)">
       <use xlink:href="#ArialMT-53"/>
       <use x="55.615234" xlink:href="#ArialMT-48"/>
      </g>
     </g>
    </g>
    <g id="ytick_3">
     <g id="line2d_3">
      <g>
       <use style="fill:#262626;stroke:#262626;stroke-width:0.8;" x="59.865781" xlink:href="#m33b018c4d5" y="88.710424"/>
      </g>
     </g>
     <g id="text_9">
      <!-- 100 -->
      <g style="fill:#262626;" transform="translate(31.178125 93.363002)scale(0.13 -0.13)">
       <use xlink:href="#ArialMT-49"/>
       <use x="55.615234" xlink:href="#ArialMT-48"/>
       <use x="111.230469" xlink:href="#ArialMT-48"/>
      </g>
     </g>
    </g>
    <g id="ytick_4">
     <g id="line2d_4">
      <g>
       <use style="fill:#262626;stroke:#262626;stroke-width:0.8;" x="59.865781" xlink:href="#m33b018c4d5" y="53.58372"/>
      </g>
     </g>
     <g id="text_10">
      <!-- 150 -->
      <g style="fill:#262626;" transform="translate(31.178125 58.236298)scale(0.13 -0.13)">
       <use xlink:href="#ArialMT-49"/>
       <use x="55.615234" xlink:href="#ArialMT-53"/>
       <use x="111.230469" xlink:href="#ArialMT-48"/>
      </g>
     </g>
    </g>
    <g id="ytick_5">
     <g id="line2d_5">
      <g>
       <use style="fill:#262626;stroke:#262626;stroke-width:0.8;" x="59.865781" xlink:href="#m33b018c4d5" y="18.457017"/>
      </g>
     </g>
     <g id="text_11">
      <!-- 200 -->
      <g style="fill:#262626;" transform="translate(31.178125 23.109595)scale(0.13 -0.13)">
       <use xlink:href="#ArialMT-50"/>
       <use x="55.615234" xlink:href="#ArialMT-48"/>
       <use x="111.230469" xlink:href="#ArialMT-48"/>
      </g>
     </g>
    </g>
    <g id="text_12">
     <!-- Mass Flow Rate (slm) -->
     <g style="fill:#262626;" transform="translate(24.231563 158.487245)rotate(-90)scale(0.14 -0.14)">
      <defs>
       <path d="M 7.421875 0 
L 7.421875 71.578125 
L 21.6875 71.578125 
L 38.625 20.90625 
Q 40.96875 13.8125 42.046875 10.296875 
Q 43.265625 14.203125 45.84375 21.78125 
L 62.984375 71.578125 
L 75.734375 71.578125 
L 75.734375 0 
L 66.609375 0 
L 66.609375 59.90625 
L 45.796875 0 
L 37.25 0 
L 16.546875 60.9375 
L 16.546875 0 
z
" id="ArialMT-77"/>
       <path d="M 8.203125 0 
L 8.203125 71.578125 
L 56.5 71.578125 
L 56.5 63.140625 
L 17.671875 63.140625 
L 17.671875 40.96875 
L 51.265625 40.96875 
L 51.265625 32.515625 
L 17.671875 32.515625 
L 17.671875 0 
z
" id="ArialMT-70"/>
       <path d="M 3.328125 25.921875 
Q 3.328125 40.328125 11.328125 47.265625 
Q 18.015625 53.03125 27.640625 53.03125 
Q 38.328125 53.03125 45.109375 46.015625 
Q 51.90625 39.015625 51.90625 26.65625 
Q 51.90625 16.65625 48.90625 10.90625 
Q 45.90625 5.171875 40.15625 2 
Q 34.421875 -1.171875 27.640625 -1.171875 
Q 16.75 -1.171875 10.03125 5.8125 
Q 3.328125 12.796875 3.328125 25.921875 
z
M 12.359375 25.921875 
Q 12.359375 15.96875 16.703125 11.015625 
Q 21.046875 6.0625 27.640625 6.0625 
Q 34.1875 6.0625 38.53125 11.03125 
Q 42.875 16.015625 42.875 26.21875 
Q 42.875 35.84375 38.5 40.796875 
Q 34.125 45.75 27.640625 45.75 
Q 21.046875 45.75 16.703125 40.8125 
Q 12.359375 35.890625 12.359375 25.921875 
z
" id="ArialMT-111"/>
       <path d="M 16.15625 0 
L 0.296875 51.859375 
L 9.375 51.859375 
L 17.625 21.921875 
L 20.703125 10.796875 
Q 20.90625 11.625 23.390625 21.484375 
L 31.640625 51.859375 
L 40.671875 51.859375 
L 48.4375 21.78125 
L 51.03125 11.859375 
L 54 21.875 
L 62.890625 51.859375 
L 71.4375 51.859375 
L 55.21875 0 
L 46.09375 0 
L 37.84375 31.0625 
L 35.84375 39.890625 
L 25.34375 0 
z
" id="ArialMT-119"/>
       <path d="M 7.859375 0 
L 7.859375 71.578125 
L 39.59375 71.578125 
Q 49.171875 71.578125 54.140625 69.640625 
Q 59.125 67.71875 62.109375 62.828125 
Q 65.09375 57.953125 65.09375 52.046875 
Q 65.09375 44.4375 60.15625 39.203125 
Q 55.21875 33.984375 44.921875 32.5625 
Q 48.6875 30.765625 50.640625 29 
Q 54.78125 25.203125 58.5 19.484375 
L 70.953125 0 
L 59.03125 0 
L 49.5625 14.890625 
Q 45.40625 21.34375 42.71875 24.75 
Q 40.046875 28.171875 37.921875 29.53125 
Q 35.796875 30.90625 33.59375 31.453125 
Q 31.984375 31.78125 28.328125 31.78125 
L 17.328125 31.78125 
L 17.328125 0 
z
M 17.328125 39.984375 
L 37.703125 39.984375 
Q 44.1875 39.984375 47.84375 41.328125 
Q 51.515625 42.671875 53.421875 45.625 
Q 55.328125 48.578125 55.328125 52.046875 
Q 55.328125 57.125 51.640625 60.390625 
Q 47.953125 63.671875 39.984375 63.671875 
L 17.328125 63.671875 
z
" id="ArialMT-82"/>
       <path d="M 25.78125 7.859375 
L 27.046875 0.09375 
Q 23.34375 -0.6875 20.40625 -0.6875 
Q 15.625 -0.6875 12.984375 0.828125 
Q 10.359375 2.34375 9.28125 4.8125 
Q 8.203125 7.28125 8.203125 15.1875 
L 8.203125 45.015625 
L 1.765625 45.015625 
L 1.765625 51.859375 
L 8.203125 51.859375 
L 8.203125 64.703125 
L 16.9375 69.96875 
L 16.9375 51.859375 
L 25.78125 51.859375 
L 25.78125 45.015625 
L 16.9375 45.015625 
L 16.9375 14.703125 
Q 16.9375 10.9375 17.40625 9.859375 
Q 17.875 8.796875 18.921875 8.15625 
Q 19.96875 7.515625 21.921875 7.515625 
Q 23.390625 7.515625 25.78125 7.859375 
z
" id="ArialMT-116"/>
      </defs>
      <use xlink:href="#ArialMT-77"/>
      <use x="83.300781" xlink:href="#ArialMT-97"/>
      <use x="138.916016" xlink:href="#ArialMT-115"/>
      <use x="188.916016" xlink:href="#ArialMT-115"/>
      <use x="238.916016" xlink:href="#ArialMT-32"/>
      <use x="266.699219" xlink:href="#ArialMT-70"/>
      <use x="327.783203" xlink:href="#ArialMT-108"/>
      <use x="350" xlink:href="#ArialMT-111"/>
      <use x="405.615234" xlink:href="#ArialMT-119"/>
      <use x="477.832031" xlink:href="#ArialMT-32"/>
      <use x="505.615234" xlink:href="#ArialMT-82"/>
      <use x="577.832031" xlink:href="#ArialMT-97"/>
      <use x="633.447266" xlink:href="#ArialMT-116"/>
      <use x="661.230469" xlink:href="#ArialMT-101"/>
      <use x="716.845703" xlink:href="#ArialMT-32"/>
      <use x="744.628906" xlink:href="#ArialMT-40"/>
      <use x="777.929688" xlink:href="#ArialMT-115"/>
      <use x="827.929688" xlink:href="#ArialMT-108"/>
      <use x="850.146484" xlink:href="#ArialMT-109"/>
      <use x="933.447266" xlink:href="#ArialMT-41"/>
     </g>
    </g>
   </g>
   <g id="line2d_6">
    <path clip-path="url(#p6424db3085)" d="M 74.059801 158.977881 
L 104.054738 158.970856 
L 104.373327 158.268322 
L 104.533396 155.865656 
L 105.330591 156.195847 
L 105.485373 155.015589 
L 105.965536 153.736977 
L 106.915923 153.540268 
L 107.714812 153.519192 
L 108.18412 147.969173 
L 108.340447 147.709235 
L 108.813946 147.519551 
L 109.128733 144.323021 
L 109.287476 132.604752 
L 109.605183 132.24646 
L 109.920201 132.211333 
L 110.568908 131.164558 
L 110.885612 131.382343 
L 111.042588 128.558156 
L 111.516977 109.350875 
L 111.831741 109.161191 
L 111.99085 109.617838 
L 112.301956 109.863725 
L 112.458802 109.069861 
L 112.771833 109.25252 
L 112.932225 109.800497 
L 113.246768 109.561635 
L 113.404492 108.493783 
L 113.880863 98.616154 
L 114.194383 98.194634 
L 114.354411 97.709885 
L 114.984009 97.281339 
L 115.142881 97.583429 
L 115.299236 95.482852 
L 115.614431 82.415718 
L 115.93201 81.755336 
L 116.091091 82.774011 
L 116.405996 81.748311 
L 116.562884 82.359516 
L 116.877179 82.099578 
L 117.032487 81.446221 
L 117.50165 82.535149 
L 117.818815 81.621855 
L 118.13117 78.390198 
L 118.290578 78.186463 
L 118.606777 78.109185 
L 118.762097 77.216966 
L 119.084855 76.057785 
L 119.235966 77.30127 
L 119.553026 76.451204 
L 119.71052 73.247649 
L 120.025246 73.317902 
L 120.182511 63.665084 
L 120.499978 58.178293 
L 120.656192 60.854948 
L 120.971905 61.206215 
L 121.288824 60.285895 
L 121.447223 59.218043 
L 121.919502 50.225607 
L 122.235566 52.368336 
L 122.393825 50.850863 
L 122.710732 48.897818 
L 122.872061 51.6096 
L 123.185728 50.274785 
L 123.343342 51.328586 
L 123.658787 52.565046 
L 123.974316 50.731432 
L 124.133644 48.286613 
L 124.448883 50.534722 
L 124.605852 50.485545 
L 124.922089 52.171627 
L 125.078792 46.986925 
L 125.394554 47.991549 
L 125.552744 50.380165 
L 125.865543 47.239838 
L 126.181445 47.310091 
L 126.338458 47.000976 
L 126.656448 47.436547 
L 126.813585 46.811292 
L 127.131464 43.565584 
L 127.288851 39.849179 
L 127.606967 42.3502 
L 127.76535 42.146466 
L 128.081241 40.7976 
L 128.237129 41.696844 
L 128.550625 44.19084 
L 128.709298 41.942731 
L 129.02513 41.795199 
L 129.339959 41.352602 
L 129.495988 42.469631 
L 129.80985 40.973234 
L 129.967511 43.080836 
L 130.280739 42.223744 
L 130.437817 39.589242 
L 130.754417 40.031838 
L 130.911754 40.931082 
L 131.226785 37.910185 
L 131.543418 36.076571 
L 131.701094 36.736953 
L 132.01505 35.922014 
L 132.171953 37.629172 
L 132.483268 36.708852 
L 132.640125 37.228727 
L 132.958239 36.57537 
L 133.116062 37.249803 
L 133.43252 35.23353 
L 133.750926 36.736953 
L 133.907952 35.605873 
L 134.221789 37.516766 
L 134.380454 35.23353 
L 134.854538 36.961764 
L 135.16892 38.142021 
L 135.485062 35.149226 
L 135.642642 36.385686 
L 135.957809 34.804985 
L 136.114846 33.055675 
L 136.431655 35.064922 
L 136.590588 34.959542 
L 136.906899 34.257008 
L 137.063813 33.36479 
L 137.378294 33.793335 
L 137.537273 31.587379 
L 137.852661 33.413967 
L 138.169118 32.908143 
L 138.327254 32.029975 
L 138.647288 34.580174 
L 138.804517 32.65523 
L 139.120119 34.868213 
L 139.276815 32.95732 
L 139.589289 32.922193 
L 140.062128 34.40454 
L 140.53263 33.48422 
L 140.849811 31.081554 
L 141.006738 33.055675 
L 141.325056 31.678708 
L 141.483858 33.666879 
L 141.801645 31.777063 
L 141.958464 32.521749 
L 142.429263 31.889468 
L 142.742754 32.093203 
L 143.055052 32.044026 
L 143.214156 30.898895 
L 143.527576 31.165858 
L 143.688884 32.156431 
L 143.995538 31.376618 
L 144.308222 32.332065 
L 144.623771 31.538201 
L 144.934942 30.357944 
L 145.25182 31.833265 
L 145.408595 30.231488 
L 145.725366 30.969149 
L 145.881607 31.980798 
L 146.196731 30.196361 
L 146.51218 31.011301 
L 146.668173 30.06288 
L 146.981602 31.636556 
L 147.139639 30.442248 
L 147.454284 29.788891 
L 147.611318 31.868392 
L 147.925145 29.788891 
L 148.235997 31.130731 
L 148.393141 29.739714 
L 148.706976 29.184712 
L 148.863003 31.460922 
L 149.338075 30.512501 
L 149.653661 28.264392 
L 149.81061 29.908322 
L 150.124545 29.683511 
L 150.440847 30.07693 
L 150.598655 29.107433 
L 150.914873 30.041804 
L 151.070756 31.390669 
L 151.390691 28.538381 
L 151.546929 30.645983 
L 151.863337 28.461102 
L 152.020247 29.4587 
L 152.337315 28.861546 
L 152.497466 29.163636 
L 152.811416 29.311168 
L 153.286408 27.28787 
L 153.600694 26.592361 
L 153.758677 29.269016 
L 154.071184 29.493827 
L 154.228544 29.767815 
L 154.544116 28.798318 
L 154.858714 29.121484 
L 155.016411 28.081733 
L 155.340454 28.580533 
L 155.499635 29.86617 
L 155.811497 26.599387 
L 155.969146 29.528954 
L 156.283156 30.308766 
L 156.442977 26.557235 
L 156.758235 28.095784 
L 157.072403 28.531355 
L 157.231028 29.86617 
L 157.699927 27.582934 
L 158.015418 27.049008 
L 158.171753 28.615659 
L 158.486782 29.311168 
L 158.958961 27.667238 
L 159.274788 28.819394 
L 159.431754 27.421351 
L 159.742575 28.959901 
L 159.901605 27.568884 
L 160.221072 27.983379 
L 160.377262 27.786669 
L 160.849273 29.198763 
L 161.640147 26.599387 
L 161.955136 27.386225 
L 162.113453 29.009078 
L 162.43112 27.779644 
L 162.594982 28.004455 
L 163.062867 25.826599 
L 163.534266 28.243316 
L 163.857143 31.018326 
L 164.167006 29.212813 
L 164.323733 26.592361 
L 164.637441 28.123886 
L 164.793536 27.168439 
L 165.107191 27.400275 
L 165.265828 28.82642 
L 165.578489 28.187114 
L 165.895367 26.929578 
L 166.052534 28.440026 
L 166.367599 30.231488 
L 166.526875 27.154389 
L 166.841752 27.702365 
L 166.998823 25.503433 
L 167.314245 28.236291 
L 167.471054 26.05141 
L 167.785963 26.810147 
L 168.10181 28.938825 
L 168.260325 27.020907 
L 168.574604 28.383823 
L 168.732526 27.372174 
L 169.047877 26.255145 
L 169.20516 28.369772 
L 169.522558 29.233889 
L 169.679638 26.36755 
L 169.995015 25.889827 
L 170.308254 27.505656 
L 170.465911 26.276221 
L 170.779916 27.196541 
L 170.93972 25.953055 
L 171.252216 25.672042 
L 171.409244 28.601609 
L 171.72444 29.845094 
L 172.195186 26.739893 
L 172.508598 26.831223 
L 172.665219 28.123886 
L 172.976558 27.372174 
L 173.135072 26.058435 
L 173.447665 25.74932 
L 173.919218 26.508057 
L 174.234266 25.868751 
L 174.390626 26.950654 
L 174.704449 27.58996 
L 174.862008 25.967106 
L 175.332811 27.512681 
L 175.64707 25.454256 
L 175.960611 25.440205 
L 176.11932 28.018505 
L 176.438866 24.955457 
L 176.594627 26.332424 
L 176.908614 27.056034 
L 177.065868 26.704767 
L 177.379608 24.772798 
L 177.537415 26.97173 
L 177.854674 26.662615 
L 178.170828 26.641539 
L 178.327705 26.992806 
L 178.642385 26.711792 
L 178.800479 25.552611 
L 179.113881 26.852299 
L 179.271321 25.608814 
L 179.586555 27.758568 
L 179.742924 24.19672 
L 180.057853 27.020907 
L 180.37328 27.934201 
L 180.52984 26.339449 
L 180.84917 25.046786 
L 181.001142 26.205968 
L 181.473155 26.760969 
L 181.790494 26.739893 
L 181.94597 24.590139 
L 182.259907 25.236471 
L 182.573846 24.042163 
L 182.732317 25.489383 
L 183.047485 26.15679 
L 183.205808 27.744517 
L 183.677894 25.73527 
L 184.14987 25.215394 
L 184.462309 31.046427 
L 184.776249 24.597165 
L 185.248572 27.098186 
L 185.407007 26.655589 
L 185.719591 28.067683 
L 185.878153 25.608814 
L 186.193296 26.191917 
L 186.352552 26.170841 
L 186.66783 25.594763 
L 187.138402 26.508057 
L 187.453778 23.761149 
L 187.611085 28.749141 
L 187.923981 26.620463 
L 188.081318 27.814771 
L 188.394525 25.826599 
L 188.715106 25.376977 
L 188.870343 26.739893 
L 189.341394 25.384003 
L 189.657469 27.863948 
L 189.816775 26.24812 
L 190.12933 27.807745 
L 190.287442 25.981157 
L 190.601372 27.779644 
L 190.914185 26.135714 
L 191.069435 25.924954 
L 191.386475 26.430778 
L 191.541952 27.681289 
L 191.858463 26.220018 
L 192.014263 28.229266 
L 192.331376 26.599387 
L 192.487113 27.013882 
L 192.800947 26.198942 
L 193.114897 27.322997 
L 193.275206 26.838248 
L 193.591864 24.871153 
L 193.747028 27.006856 
L 194.061206 27.147363 
L 194.219917 25.124065 
L 194.53559 25.826599 
L 194.850611 28.10281 
L 195.008169 26.26217 
L 195.32293 25.889827 
L 195.478892 26.430778 
L 195.794132 26.627488 
L 195.952664 26.859324 
L 196.274966 27.646162 
L 196.434769 25.419129 
L 196.755617 25.903878 
L 196.914871 24.934381 
L 197.233695 28.341671 
L 197.395698 28.10281 
L 197.710938 27.161414 
L 198.031368 26.732868 
L 198.190493 25.292673 
L 198.664068 28.594583 
L 198.984997 26.56426 
L 199.143194 27.119262 
L 199.456056 27.491605 
L 199.936497 23.599566 
L 200.097146 24.323176 
L 200.414069 27.294895 
L 200.729692 26.964704 
L 200.890255 24.927356 
L 201.207526 27.667238 
L 201.365682 25.608814 
L 201.679965 30.688135 
L 201.835855 24.281024 
L 202.310871 26.114638 
L 202.628528 28.650786 
L 203.099025 26.929578 
L 203.578774 25.362927 
L 204.048599 28.917749 
L 204.362799 24.51286 
L 204.521886 28.032556 
L 204.838933 26.128689 
L 205.156166 25.376977 
L 205.311835 28.461102 
L 205.624754 25.461281 
L 205.781572 25.475332 
L 206.101249 25.657991 
L 206.254496 25.524509 
L 206.572057 26.859324 
L 206.729826 25.053812 
L 207.044586 23.78925 
L 207.358737 24.000011 
L 207.51566 26.339449 
L 207.832295 25.088938 
L 207.991192 26.690716 
L 208.305002 26.409702 
L 208.459406 27.744517 
L 208.776269 26.873375 
L 208.934468 25.067862 
L 209.249837 26.402677 
L 209.565817 26.395652 
L 209.7225 25.166217 
L 210.039227 28.348696 
L 210.196188 28.250342 
L 210.511653 23.402857 
L 210.670563 24.70957 
L 210.985389 29.423574 
L 211.142833 26.26217 
L 211.458498 26.009258 
L 211.77501 28.369772 
L 211.931248 27.435402 
L 212.245298 28.173063 
L 212.403216 27.877999 
L 212.874349 25.672042 
L 213.190098 26.98578 
L 213.505449 25.482357 
L 213.662089 27.470529 
L 213.979143 26.170841 
L 214.135878 24.252923 
L 214.451515 25.088938 
L 214.610309 24.913305 
L 215.081333 26.915527 
L 215.397742 25.53856 
L 215.714047 25.868751 
L 215.870417 25.405079 
L 216.183999 23.992985 
L 216.341795 24.372354 
L 216.656824 24.428556 
L 216.8154 26.402677 
L 217.13362 24.632291 
L 217.292551 27.322997 
L 217.606842 23.824377 
L 217.921743 25.004634 
L 218.077585 23.487161 
L 218.391441 25.180268 
L 218.550035 28.62971 
L 218.86376 22.735449 
L 219.021183 28.749141 
L 219.334657 26.522108 
L 219.647161 25.11704 
L 219.804405 25.847675 
L 220.120018 25.73527 
L 220.276845 25.531535 
L 220.59351 27.196541 
L 220.749045 24.365328 
L 221.0636 27.856923 
L 221.220434 24.716595 
L 221.536907 26.915527 
L 221.698942 26.550209 
L 222.022962 26.852299 
L 222.346968 23.859504 
L 222.504578 28.130911 
L 222.82714 28.980977 
L 222.989187 24.843051 
L 223.306032 24.955457 
L 223.466538 23.98596 
L 223.782691 24.583114 
L 223.942158 23.89463 
L 224.256878 24.997609 
L 224.416086 24.105391 
L 224.730517 26.529133 
L 225.048439 24.660393 
L 225.203489 25.313749 
L 225.518578 28.84047 
L 225.676808 23.641718 
L 225.991797 22.559816 
L 226.150591 24.505835 
L 226.618851 24.562038 
L 226.935508 24.934381 
L 227.25006 28.784268 
L 227.406803 26.852299 
L 227.72216 25.728244 
L 227.878149 24.60419 
L 228.193195 23.508237 
L 228.35165 27.955277 
L 228.665663 25.257547 
L 228.824241 29.100408 
L 229.139252 23.522287 
L 229.295922 26.662615 
L 229.61054 25.264572 
L 229.926451 26.725843 
L 230.083558 25.074888 
L 230.400608 24.836026 
L 230.557852 24.014061 
L 230.875119 25.889827 
L 231.190865 22.861905 
L 231.349658 25.953055 
L 231.822695 25.426155 
L 232.134401 26.634513 
L 232.608233 24.49881 
L 232.766282 23.704946 
L 233.083881 23.06564 
L 233.396651 26.016283 
L 233.554838 25.215394 
L 233.874328 26.149765 
L 234.027205 23.57849 
L 234.498193 27.273819 
L 234.811991 22.531714 
L 234.970849 24.941406 
L 235.284294 27.547808 
L 235.597241 26.831223 
L 235.754214 23.697921 
L 236.068206 25.756346 
L 236.228052 23.149944 
L 236.700869 27.69534 
L 237.016404 23.192096 
L 237.174728 25.482357 
L 237.487733 27.927176 
L 237.805373 24.084315 
L 237.963043 26.964704 
L 238.281022 25.201344 
L 238.438213 28.032556 
L 238.753588 24.829001 
L 238.911616 25.622864 
L 239.226128 25.686092 
L 239.384362 27.561858 
L 240.014579 25.13109 
L 240.173259 24.140517 
L 240.486723 24.049188 
L 240.644689 26.648564 
L 240.960191 24.147543 
L 241.120321 25.173242 
L 241.434007 25.180268 
L 241.589441 24.014061 
L 242.217919 26.177866 
L 242.378486 26.065461 
L 242.693263 29.599207 
L 242.849919 24.000011 
L 243.322132 28.601609 
L 243.794569 23.831402 
L 244.109264 24.330202 
L 244.426175 23.17102 
L 244.584591 24.273999 
L 244.901743 23.68387 
L 245.059424 26.149765 
L 245.373692 24.885203 
L 245.846344 27.927176 
L 246.003073 25.194318 
L 246.319185 26.339449 
L 246.635054 25.974131 
L 246.79233 26.065461 
L 247.26696 23.107792 
L 247.579445 27.056034 
L 247.736016 27.365149 
L 248.051661 29.016104 
L 248.209045 26.093562 
L 248.525806 24.660393 
L 248.838399 24.463683 
L 248.994448 28.257367 
L 249.470624 23.88058 
L 249.941579 26.915527 
L 250.258682 25.587738 
L 250.573373 27.210591 
L 250.731197 24.316151 
L 251.049435 23.501211 
L 251.206468 29.269016 
L 251.524733 28.62971 
L 251.682328 29.55003 
L 251.994577 24.175644 
L 252.151479 26.297297 
L 252.467014 24.864127 
L 252.78136 24.737671 
L 252.940947 24.857102 
L 253.256557 26.093562 
L 253.726803 26.220018 
L 253.884102 25.278623 
L 254.198811 30.090981 
L 254.356357 26.936603 
L 254.673626 25.334825 
L 254.988331 25.138116 
L 255.146391 25.819574 
L 255.619943 26.789071 
L 256.09266 24.189695 
L 256.405126 27.758568 
L 256.562059 25.756346 
L 256.87627 26.697741 
L 257.191459 24.660393 
L 257.348545 25.777422 
L 257.660755 23.402857 
L 257.818581 25.264572 
L 258.135193 23.992985 
L 258.293452 24.836026 
L 258.607626 27.112236 
L 258.767097 26.999831 
L 259.085478 25.608814 
L 259.554144 26.789071 
L 259.86843 24.491784 
L 260.027962 25.62989 
L 260.343408 23.641718 
L 260.501133 24.463683 
L 260.815919 23.234248 
L 260.974323 23.332603 
L 261.290271 26.149765 
L 261.606976 24.119441 
L 261.765679 27.315971 
L 262.082329 24.435582 
L 262.240863 26.45888 
L 262.559575 24.653367 
L 262.714948 28.798318 
L 263.030971 23.690896 
L 263.189399 25.517484 
L 263.663078 28.41895 
L 263.97371 25.419129 
L 264.28886 25.960081 
L 264.445874 26.753944 
L 264.759751 26.901476 
L 264.916904 26.220018 
L 265.234041 30.709211 
L 265.392491 25.201344 
L 265.707305 25.299699 
L 266.021765 26.423753 
L 266.177841 24.007036 
L 266.491923 27.386225 
L 266.649806 26.98578 
L 266.967167 25.524509 
L 267.124021 25.875777 
L 267.437413 25.657991 
L 267.595936 27.512681 
L 267.908641 25.615839 
L 268.2241 26.423753 
L 268.380693 27.491605 
L 268.695145 26.198942 
L 268.856343 27.9061 
L 269.171233 27.259769 
L 269.329406 27.322997 
L 269.804288 26.311348 
L 270.120447 26.887426 
L 270.435468 25.496408 
L 270.592159 25.53856 
L 270.905228 27.034958 
L 271.063548 25.426155 
L 271.381754 26.093562 
L 271.538531 28.62971 
L 271.854531 25.686092 
L 272.0149 25.967106 
L 272.328697 25.088938 
L 272.642639 24.821975 
L 272.799586 25.826599 
L 273.114658 25.475332 
L 273.274992 25.11704 
L 274.058558 25.939005 
L 274.213761 25.208369 
L 274.530828 27.526732 
L 274.849193 26.241094 
L 275.006746 23.89463 
L 275.322406 24.843051 
L 275.480157 26.016283 
L 275.794367 25.805523 
L 275.953035 28.194139 
L 276.269832 26.824198 
L 276.428848 24.021087 
L 276.746328 24.035137 
L 277.060259 28.088759 
L 277.217775 25.924954 
L 277.533822 28.475153 
L 277.689333 25.074888 
L 278.005261 25.208369 
L 278.162661 29.276041 
L 278.476783 25.208369 
L 278.633644 28.264392 
L 278.94813 23.831402 
L 279.266188 25.376977 
L 279.424068 27.224642 
L 279.741394 28.447051 
L 279.898471 24.590139 
L 280.367941 30.238513 
L 280.684878 27.315971 
L 280.843726 28.812369 
L 281.161815 25.650966 
L 281.320317 27.203566 
L 281.950308 25.095964 
L 282.109808 28.187114 
L 282.424318 25.341851 
L 282.583466 26.98578 
L 282.89768 27.533757 
L 283.055759 26.339449 
L 283.373232 26.936603 
L 283.531156 31.236111 
L 283.845197 31.741936 
L 284.15797 26.950654 
L 284.316364 26.873375 
L 284.631807 26.992806 
L 284.79134 24.576088 
L 285.105754 28.250342 
L 285.263747 26.760969 
L 285.578807 29.016104 
L 285.736016 23.269375 
L 286.04983 26.297297 
L 286.365858 26.824198 
L 286.527859 26.058435 
L 286.84542 26.964704 
L 287.003861 25.693118 
L 287.320247 24.793874 
L 287.477426 25.285648 
L 287.792495 28.657811 
L 287.950008 28.053632 
L 288.26624 29.212813 
L 288.58478 25.22242 
L 288.739634 27.344073 
L 289.055019 25.686092 
L 289.214299 26.142739 
L 289.529491 27.779644 
L 289.687003 26.873375 
L 290.001501 30.175285 
L 290.15789 25.088938 
L 290.47426 28.088759 
L 290.786745 22.875956 
L 291.428292 28.62971 
L 291.748834 26.501032 
L 291.904914 24.400455 
L 292.227292 27.203566 
L 292.383756 26.571285 
L 292.70145 27.667238 
L 292.85982 26.732868 
L 293.181373 26.360525 
L 293.496939 25.060837 
L 293.659586 31.446872 
L 294.137298 25.686092 
L 294.452892 29.402498 
L 294.611657 27.575909 
L 294.930983 28.952876 
L 295.402401 26.817172 
L 295.560696 30.105032 
L 295.882581 27.892049 
L 296.19775 27.899075 
L 296.354786 28.82642 
L 296.6721 26.943628 
L 296.83419 28.819394 
L 297.151048 28.489203 
L 297.310012 27.772619 
L 297.625913 27.414326 
L 297.784061 29.479776 
L 298.105587 30.245538 
L 298.261943 26.831223 
L 298.578213 29.500852 
L 298.736678 24.273999 
L 299.056605 27.39325 
L 299.374723 27.322997 
L 299.53904 27.596985 
L 299.84866 30.364969 
L 300.005224 28.397874 
L 300.321702 28.650786 
L 300.478911 28.074708 
L 300.791549 28.348696 
L 300.952508 29.725663 
L 301.271992 29.641359 
L 301.586635 28.980977 
L 301.744718 32.14238 
L 302.216274 27.175465 
L 302.53116 28.334646 
L 302.690808 26.641539 
L 303.00659 26.613437 
L 303.164547 30.4844 
L 303.478331 28.517305 
L 303.794778 28.201164 
L 303.952711 29.212813 
L 304.266141 29.479776 
L 304.424805 32.114279 
L 304.900877 28.784268 
L 305.218968 31.109655 
L 305.376407 30.18231 
L 305.690701 30.322817 
L 306.162707 27.934201 
L 306.479512 27.330022 
L 306.63729 31.285289 
L 306.952547 28.938825 
L 307.111345 30.610856 
L 307.427342 32.570926 
L 307.582867 32.001874 
L 307.900051 31.727885 
L 308.212687 30.990225 
L 308.372412 28.587558 
L 308.689348 31.432821 
L 308.846447 31.791113 
L 309.161311 28.173063 
L 309.31952 28.62971 
L 309.63647 30.624907 
L 309.794385 26.515083 
L 310.111241 29.388447 
L 310.424963 30.161234 
L 310.584188 31.741936 
L 310.900077 28.587558 
L 311.059327 30.371995 
L 311.374553 30.133133 
L 311.533085 30.245538 
L 311.84658 31.636556 
L 312.003755 31.439846 
L 312.317562 32.592002 
L 312.633651 28.433001 
L 312.791422 30.814591 
L 313.107798 29.774841 
L 313.265998 30.948072 
L 313.73992 29.908322 
L 314.210317 30.765414 
L 314.528 32.065102 
L 314.843227 31.5101 
L 315.000033 31.840291 
L 315.318538 32.008899 
L 315.472256 28.819394 
L 315.789984 32.23371 
L 315.949382 32.711433 
L 316.264785 30.231488 
L 316.424506 32.542825 
L 316.742403 30.596805 
L 316.899475 32.029975 
L 317.214462 30.821616 
L 317.530793 32.971371 
L 317.689031 30.547628 
L 318.0062 32.795737 
L 318.163317 29.824018 
L 318.477958 33.301562 
L 318.635857 30.990225 
L 318.952143 33.104852 
L 319.106932 32.325039 
L 319.421088 32.395293 
L 319.578348 31.959722 
L 319.890262 32.788712 
L 320.207786 33.231308 
L 320.366395 34.530996 
L 320.681488 35.317834 
L 321.155574 33.89169 
L 321.315483 35.458341 
L 321.629039 34.580174 
L 321.944716 33.006497 
L 322.418271 34.355363 
L 322.575747 33.385866 
L 322.89169 33.933842 
L 323.050007 34.481819 
L 323.36716 33.589601 
L 323.525005 37.910185 
L 323.837602 37.221702 
L 324.154573 37.29898 
L 324.312326 36.891511 
L 324.627615 38.11392 
L 324.792348 37.727526 
L 325.102523 39.385507 
L 325.261402 37.748602 
L 325.576946 38.971012 
L 325.733332 38.872657 
L 326.047863 37.615121 
L 326.362766 37.544867 
L 326.521775 40.2707 
L 326.836998 39.104493 
L 326.995457 39.842154 
L 327.308538 40.333928 
L 327.466715 38.486263 
L 327.7821 37.474614 
L 327.940108 40.383105 
L 328.257055 38.605694 
L 328.575124 37.818856 
L 328.731557 38.542466 
L 329.20418 39.540064 
L 329.523734 46.424898 
L 329.680954 44.724766 
L 329.99168 44.373499 
L 330.466341 48.132056 
L 330.781506 49.101553 
L 330.941425 48.658956 
L 331.256941 50.380165 
L 331.415147 50.380165 
L 331.730631 49.340414 
L 331.88906 49.600352 
L 332.204386 49.607377 
L 332.363502 49.24206 
L 332.678943 51.700929 
L 332.837406 49.501997 
L 333.153821 51.019471 
L 333.469968 48.750286 
L 333.942319 59.091587 
L 334.100776 57.70057 
L 334.41295 59.983806 
L 334.571277 56.983985 
L 334.885437 57.546012 
L 335.043687 60.756593 
L 335.518329 74.174994 
L 335.832279 74.72297 
L 336.14882 73.971259 
L 336.305958 74.238222 
L 336.621327 74.034487 
L 336.780215 74.413855 
L 337.252477 73.514612 
L 337.567452 74.568413 
L 338.039814 73.549739 
L 338.195233 74.132842 
L 338.667492 73.627017 
L 338.982878 77.28722 
L 339.299496 92.75702 
L 339.456859 92.848349 
L 339.77171 94.021581 
L 339.928512 93.227718 
L 340.246962 92.672716 
L 340.879148 99.15008 
L 341.352542 101.20148 
L 341.82777 109.238469 
L 342.143114 109.596762 
L 342.301292 110.573284 
L 342.615274 110.826196 
L 342.774843 110.80512 
L 343.088765 110.362524 
L 343.247448 110.959678 
L 343.563623 109.919927 
L 343.724578 114.219436 
L 344.038883 116.910141 
L 344.511381 116.305962 
L 344.828362 117.029572 
L 344.986974 117.07875 
L 345.305962 115.982796 
L 345.463884 130.223162 
L 345.936244 136.538943 
L 346.724208 137.079894 
L 346.883289 136.988565 
L 347.197958 136.98154 
L 347.354327 137.107996 
L 347.671438 137.100971 
L 347.828681 150.421016 
L 348.147354 151.264057 
L 348.303635 151.341336 
L 348.620307 152.093048 
L 350.513508 152.374061 
L 350.828713 153.245203 
L 350.986737 158.289398 
L 351.300834 157.636041 
L 351.458836 157.572813 
L 351.933191 157.593889 
L 352.405487 159.034084 
L 353.668677 159.027059 
L 354.931158 158.970856 
L 357.309393 158.970856 
L 357.940199 158.963831 
L 357.940199 158.963831 
" style="fill:none;stroke:#1f77b4;stroke-linecap:round;stroke-width:1.5;"/>
   </g>
   <g id="patch_3">
    <path d="M 59.865781 165.932969 
L 59.865781 15.703083 
" style="fill:none;stroke:#262626;stroke-linecap:square;stroke-linejoin:miter;stroke-width:0.8;"/>
   </g>
   <g id="patch_4">
    <path d="M 372.134219 165.932969 
L 372.134219 15.703083 
" style="fill:none;stroke:#262626;stroke-linecap:square;stroke-linejoin:miter;stroke-width:0.8;"/>
   </g>
   <g id="patch_5">
    <path d="M 59.865781 165.932969 
L 372.134219 165.932969 
" style="fill:none;stroke:#262626;stroke-linecap:square;stroke-linejoin:miter;stroke-width:0.8;"/>
   </g>
   <g id="patch_6">
    <path d="M 59.865781 15.703083 
L 372.134219 15.703083 
" style="fill:none;stroke:#262626;stroke-linecap:square;stroke-linejoin:miter;stroke-width:0.8;"/>
   </g>
   <g id="text_13">
    <!-- Mass Flow -->
    <g style="fill:#1f77b4;" transform="translate(74.014114 28.995028)scale(0.13 -0.13)">
     <use xlink:href="#ArialMT-77"/>
     <use x="83.300781" xlink:href="#ArialMT-97"/>
     <use x="138.916016" xlink:href="#ArialMT-115"/>
     <use x="188.916016" xlink:href="#ArialMT-115"/>
     <use x="238.916016" xlink:href="#ArialMT-32"/>
     <use x="266.699219" xlink:href="#ArialMT-70"/>
     <use x="327.783203" xlink:href="#ArialMT-108"/>
     <use x="350" xlink:href="#ArialMT-111"/>
     <use x="405.615234" xlink:href="#ArialMT-119"/>
    </g>
   </g>
  </g>
  <g id="axes_2">
   <g id="matplotlib.axis_3">
    <g id="ytick_6">
     <g id="line2d_7">
      <defs>
       <path d="M 0 0 
L 3.5 0 
" id="m69425a98a4" style="stroke:#262626;stroke-width:0.8;"/>
      </defs>
      <g>
       <use style="fill:#262626;stroke:#262626;stroke-width:0.8;" x="372.134219" xlink:href="#m69425a98a4" y="159.256254"/>
      </g>
     </g>
     <g id="text_14">
      <!-- 0 -->
      <g style="fill:#262626;" transform="translate(379.134219 163.908832)scale(0.13 -0.13)">
       <use xlink:href="#ArialMT-48"/>
      </g>
     </g>
    </g>
    <g id="ytick_7">
     <g id="line2d_8">
      <g>
       <use style="fill:#262626;stroke:#262626;stroke-width:0.8;" x="372.134219" xlink:href="#m69425a98a4" y="125.075119"/>
      </g>
     </g>
     <g id="text_15">
      <!-- 25 -->
      <g style="fill:#262626;" transform="translate(379.134219 129.727697)scale(0.13 -0.13)">
       <use xlink:href="#ArialMT-50"/>
       <use x="55.615234" xlink:href="#ArialMT-53"/>
      </g>
     </g>
    </g>
    <g id="ytick_8">
     <g id="line2d_9">
      <g>
       <use style="fill:#262626;stroke:#262626;stroke-width:0.8;" x="372.134219" xlink:href="#m69425a98a4" y="90.893984"/>
      </g>
     </g>
     <g id="text_16">
      <!-- 50 -->
      <g style="fill:#262626;" transform="translate(379.134219 95.546562)scale(0.13 -0.13)">
       <use xlink:href="#ArialMT-53"/>
       <use x="55.615234" xlink:href="#ArialMT-48"/>
      </g>
     </g>
    </g>
    <g id="ytick_9">
     <g id="line2d_10">
      <g>
       <use style="fill:#262626;stroke:#262626;stroke-width:0.8;" x="372.134219" xlink:href="#m69425a98a4" y="56.712849"/>
      </g>
     </g>
     <g id="text_17">
      <!-- 75 -->
      <g style="fill:#262626;" transform="translate(379.134219 61.365427)scale(0.13 -0.13)">
       <defs>
        <path d="M 4.734375 62.203125 
L 4.734375 70.65625 
L 51.078125 70.65625 
L 51.078125 63.8125 
Q 44.234375 56.546875 37.515625 44.484375 
Q 30.8125 32.421875 27.15625 19.671875 
Q 24.515625 10.6875 23.78125 0 
L 14.75 0 
Q 14.890625 8.453125 18.0625 20.40625 
Q 21.234375 32.375 27.171875 43.484375 
Q 33.109375 54.59375 39.796875 62.203125 
z
" id="ArialMT-55"/>
       </defs>
       <use xlink:href="#ArialMT-55"/>
       <use x="55.615234" xlink:href="#ArialMT-53"/>
      </g>
     </g>
    </g>
    <g id="ytick_10">
     <g id="line2d_11">
      <g>
       <use style="fill:#262626;stroke:#262626;stroke-width:0.8;" x="372.134219" xlink:href="#m69425a98a4" y="22.531714"/>
      </g>
     </g>
     <g id="text_18">
      <!-- 100 -->
      <g style="fill:#262626;" transform="translate(379.134219 27.184292)scale(0.13 -0.13)">
       <use xlink:href="#ArialMT-49"/>
       <use x="55.615234" xlink:href="#ArialMT-48"/>
       <use x="111.230469" xlink:href="#ArialMT-48"/>
      </g>
     </g>
    </g>
    <g id="text_19">
     <!-- Valve Position (% open) -->
     <g style="fill:#262626;" transform="translate(415.013438 165.004901)rotate(-90)scale(0.14 -0.14)">
      <defs>
       <path d="M 28.171875 0 
L 0.4375 71.578125 
L 10.6875 71.578125 
L 29.296875 19.578125 
Q 31.546875 13.328125 33.0625 7.859375 
Q 34.71875 13.71875 36.921875 19.578125 
L 56.25 71.578125 
L 65.921875 71.578125 
L 37.890625 0 
z
" id="ArialMT-86"/>
       <path d="M 21 0 
L 1.265625 51.859375 
L 10.546875 51.859375 
L 21.6875 20.796875 
Q 23.484375 15.765625 25 10.359375 
Q 26.171875 14.453125 28.265625 20.21875 
L 39.796875 51.859375 
L 48.828125 51.859375 
L 29.203125 0 
z
" id="ArialMT-118"/>
       <path d="M 7.71875 0 
L 7.71875 71.578125 
L 34.71875 71.578125 
Q 41.84375 71.578125 45.609375 70.90625 
Q 50.875 70.015625 54.4375 67.546875 
Q 58.015625 65.09375 60.1875 60.640625 
Q 62.359375 56.203125 62.359375 50.875 
Q 62.359375 41.75 56.546875 35.421875 
Q 50.734375 29.109375 35.546875 29.109375 
L 17.1875 29.109375 
L 17.1875 0 
z
M 17.1875 37.546875 
L 35.6875 37.546875 
Q 44.875 37.546875 48.734375 40.96875 
Q 52.59375 44.390625 52.59375 50.59375 
Q 52.59375 55.078125 50.3125 58.265625 
Q 48.046875 61.46875 44.34375 62.5 
Q 41.9375 63.140625 35.5 63.140625 
L 17.1875 63.140625 
z
" id="ArialMT-80"/>
       <path d="M 6.59375 0 
L 6.59375 51.859375 
L 14.5 51.859375 
L 14.5 44.484375 
Q 20.21875 53.03125 31 53.03125 
Q 35.6875 53.03125 39.625 51.34375 
Q 43.5625 49.65625 45.515625 46.921875 
Q 47.46875 44.1875 48.25 40.4375 
Q 48.734375 37.984375 48.734375 31.890625 
L 48.734375 0 
L 39.9375 0 
L 39.9375 31.546875 
Q 39.9375 36.921875 38.90625 39.578125 
Q 37.890625 42.234375 35.28125 43.8125 
Q 32.671875 45.40625 29.15625 45.40625 
Q 23.53125 45.40625 19.453125 41.84375 
Q 15.375 38.28125 15.375 28.328125 
L 15.375 0 
z
" id="ArialMT-110"/>
       <path d="M 5.8125 54.390625 
Q 5.8125 62.0625 9.671875 67.421875 
Q 13.53125 72.796875 20.84375 72.796875 
Q 27.59375 72.796875 32 67.984375 
Q 36.421875 63.1875 36.421875 53.859375 
Q 36.421875 44.78125 31.953125 39.875 
Q 27.484375 34.96875 20.953125 34.96875 
Q 14.453125 34.96875 10.125 39.796875 
Q 5.8125 44.625 5.8125 54.390625 
z
M 21.09375 66.75 
Q 17.828125 66.75 15.65625 63.90625 
Q 13.484375 61.078125 13.484375 53.515625 
Q 13.484375 46.625 15.671875 43.8125 
Q 17.875 41.015625 21.09375 41.015625 
Q 24.421875 41.015625 26.59375 43.84375 
Q 28.765625 46.6875 28.765625 54.203125 
Q 28.765625 61.140625 26.5625 63.9375 
Q 24.359375 66.75 21.09375 66.75 
z
M 21.140625 -2.640625 
L 60.296875 72.796875 
L 67.4375 72.796875 
L 28.421875 -2.640625 
z
M 52.09375 16.796875 
Q 52.09375 24.515625 55.953125 29.859375 
Q 59.8125 35.203125 67.1875 35.203125 
Q 73.921875 35.203125 78.34375 30.390625 
Q 82.765625 25.59375 82.765625 16.265625 
Q 82.765625 7.171875 78.296875 2.265625 
Q 73.828125 -2.640625 67.234375 -2.640625 
Q 60.75 -2.640625 56.421875 2.21875 
Q 52.09375 7.078125 52.09375 16.796875 
z
M 67.4375 29.15625 
Q 64.109375 29.15625 61.9375 26.3125 
Q 59.765625 23.484375 59.765625 15.921875 
Q 59.765625 9.078125 61.953125 6.25 
Q 64.15625 3.421875 67.390625 3.421875 
Q 70.75 3.421875 72.921875 6.25 
Q 75.09375 9.078125 75.09375 16.609375 
Q 75.09375 23.53125 72.890625 26.34375 
Q 70.703125 29.15625 67.4375 29.15625 
z
" id="ArialMT-37"/>
      </defs>
      <use xlink:href="#ArialMT-86"/>
      <use x="59.324219" xlink:href="#ArialMT-97"/>
      <use x="114.939453" xlink:href="#ArialMT-108"/>
      <use x="137.15625" xlink:href="#ArialMT-118"/>
      <use x="187.15625" xlink:href="#ArialMT-101"/>
      <use x="242.771484" xlink:href="#ArialMT-32"/>
      <use x="270.554688" xlink:href="#ArialMT-80"/>
      <use x="337.253906" xlink:href="#ArialMT-111"/>
      <use x="392.869141" xlink:href="#ArialMT-115"/>
      <use x="442.869141" xlink:href="#ArialMT-105"/>
      <use x="465.085938" xlink:href="#ArialMT-116"/>
      <use x="492.869141" xlink:href="#ArialMT-105"/>
      <use x="515.085938" xlink:href="#ArialMT-111"/>
      <use x="570.701172" xlink:href="#ArialMT-110"/>
      <use x="626.316406" xlink:href="#ArialMT-32"/>
      <use x="654.099609" xlink:href="#ArialMT-40"/>
      <use x="687.400391" xlink:href="#ArialMT-37"/>
      <use x="776.316406" xlink:href="#ArialMT-32"/>
      <use x="804.099609" xlink:href="#ArialMT-111"/>
      <use x="859.714844" xlink:href="#ArialMT-112"/>
      <use x="915.330078" xlink:href="#ArialMT-101"/>
      <use x="970.945312" xlink:href="#ArialMT-110"/>
      <use x="1026.560547" xlink:href="#ArialMT-41"/>
     </g>
    </g>
   </g>
   <g id="line2d_12">
    <path clip-path="url(#p6424db3085)" d="M 74.059801 159.104338 
L 109.287476 125.227035 
L 133.907952 101.528115 
L 176.11932 60.814585 
L 186.66783 50.636203 
L 198.984997 38.786743 
L 215.870417 22.531714 
L 216.341795 22.835547 
L 296.83419 100.312786 
L 342.301292 144.064638 
L 357.940199 159.104338 
L 357.940199 159.104338 
" style="fill:none;stroke:#ff7f0e;stroke-linecap:round;stroke-width:1.5;"/>
   </g>
   <g id="patch_7">
    <path d="M 59.865781 165.932969 
L 59.865781 15.703083 
" style="fill:none;stroke:#262626;stroke-linecap:square;stroke-linejoin:miter;stroke-width:0.8;"/>
   </g>
   <g id="patch_8">
    <path d="M 372.134219 165.932969 
L 372.134219 15.703083 
" style="fill:none;stroke:#262626;stroke-linecap:square;stroke-linejoin:miter;stroke-width:0.8;"/>
   </g>
   <g id="patch_9">
    <path d="M 59.865781 165.932969 
L 372.134219 165.932969 
" style="fill:none;stroke:#262626;stroke-linecap:square;stroke-linejoin:miter;stroke-width:0.8;"/>
   </g>
   <g id="patch_10">
    <path d="M 59.865781 15.703083 
L 372.134219 15.703083 
" style="fill:none;stroke:#262626;stroke-linecap:square;stroke-linejoin:miter;stroke-width:0.8;"/>
   </g>
   <g id="text_20">
    <!-- Valve Position -->
    <g style="fill:#ff7f0e;" transform="translate(146.336594 104.566438)scale(0.13 -0.13)">
     <use xlink:href="#ArialMT-86"/>
     <use x="59.324219" xlink:href="#ArialMT-97"/>
     <use x="114.939453" xlink:href="#ArialMT-108"/>
     <use x="137.15625" xlink:href="#ArialMT-118"/>
     <use x="187.15625" xlink:href="#ArialMT-101"/>
     <use x="242.771484" xlink:href="#ArialMT-32"/>
     <use x="270.554688" xlink:href="#ArialMT-80"/>
     <use x="337.253906" xlink:href="#ArialMT-111"/>
     <use x="392.869141" xlink:href="#ArialMT-115"/>
     <use x="442.869141" xlink:href="#ArialMT-105"/>
     <use x="465.085938" xlink:href="#ArialMT-116"/>
     <use x="492.869141" xlink:href="#ArialMT-105"/>
     <use x="515.085938" xlink:href="#ArialMT-111"/>
     <use x="570.701172" xlink:href="#ArialMT-110"/>
    </g>
   </g>
  </g>
 </g>
 <defs>
  <clipPath id="p6424db3085">
   <rect height="150.229886" width="312.268438" x="59.865781" y="15.703083"/>
  </clipPath>
 </defs>
</svg>
