<?xml version="1.0" encoding="utf-8" standalone="no"?>
<!DOCTYPE svg PUBLIC "-//W3C//DTD SVG 1.1//EN"
  "http://www.w3.org/Graphics/SVG/1.1/DTD/svg11.dtd">
<!-- Created with matplotlib (https://matplotlib.org/) -->
<svg height="216pt" version="1.1" viewBox="0 0 432 216" width="432pt" xmlns="http://www.w3.org/2000/svg" xmlns:xlink="http://www.w3.org/1999/xlink">
 <metadata>
  <rdf:RDF xmlns:cc="http://creativecommons.org/ns#" xmlns:dc="http://purl.org/dc/elements/1.1/" xmlns:rdf="http://www.w3.org/1999/02/22-rdf-syntax-ns#">
   <cc:Work>
    <dc:type rdf:resource="http://purl.org/dc/dcmitype/StillImage"/>
    <dc:date>2022-03-11T21:32:33.033806</dc:date>
    <dc:format>image/svg+xml</dc:format>
    <dc:creator>
     <cc:Agent>
      <dc:title>Matplotlib v3.3.4, https://matplotlib.org/</dc:title>
     </cc:Agent>
    </dc:creator>
   </cc:Work>
  </rdf:RDF>
 </metadata>
 <defs>
  <style type="text/css">*{stroke-linecap:butt;stroke-linejoin:round;}</style>
 </defs>
 <g id="figure_1">
  <g id="patch_1">
   <path d="M 0 216 
L 432 216 
L 432 0 
L 0 0 
z
" style="fill:#ffffff;"/>
  </g>
  <g id="axes_1">
   <g id="patch_2">
    <path d="M 59.865781 165.932969 
L 417.96 165.932969 
L 417.96 15.703083 
L 59.865781 15.703083 
z
" style="fill:#ffffff;"/>
   </g>
   <g id="matplotlib.axis_1">
    <g id="xtick_1">
     <g id="text_1">
      <!-- 0 -->
      <g style="fill:#262626;" transform="translate(72.166068 182.238125)scale(0.13 -0.13)">
       <defs>
        <path d="M 4.15625 35.296875 
Q 4.15625 48 6.765625 55.734375 
Q 9.375 63.484375 14.515625 67.671875 
Q 19.671875 71.875 27.484375 71.875 
Q 33.25 71.875 37.59375 69.546875 
Q 41.9375 67.234375 44.765625 62.859375 
Q 47.609375 58.5 49.21875 52.21875 
Q 50.828125 45.953125 50.828125 35.296875 
Q 50.828125 22.703125 48.234375 14.96875 
Q 45.65625 7.234375 40.5 3 
Q 35.359375 -1.21875 27.484375 -1.21875 
Q 17.140625 -1.21875 11.234375 6.203125 
Q 4.15625 15.140625 4.15625 35.296875 
z
M 13.1875 35.296875 
Q 13.1875 17.671875 17.3125 11.828125 
Q 21.4375 6 27.484375 6 
Q 33.546875 6 37.671875 11.859375 
Q 41.796875 17.71875 41.796875 35.296875 
Q 41.796875 52.984375 37.671875 58.78125 
Q 33.546875 64.59375 27.390625 64.59375 
Q 21.34375 64.59375 17.71875 59.46875 
Q 13.1875 52.9375 13.1875 35.296875 
z
" id="ArialMT-48"/>
       </defs>
       <use xlink:href="#ArialMT-48"/>
      </g>
     </g>
    </g>
    <g id="xtick_2">
     <g id="text_2">
      <!-- 20 -->
      <g style="fill:#262626;" transform="translate(133.731921 182.238125)scale(0.13 -0.13)">
       <defs>
        <path d="M 50.34375 8.453125 
L 50.34375 0 
L 3.03125 0 
Q 2.9375 3.171875 4.046875 6.109375 
Q 5.859375 10.9375 9.828125 15.625 
Q 13.8125 20.3125 21.34375 26.46875 
Q 33.015625 36.03125 37.109375 41.625 
Q 41.21875 47.21875 41.21875 52.203125 
Q 41.21875 57.421875 37.46875 61 
Q 33.734375 64.59375 27.734375 64.59375 
Q 21.390625 64.59375 17.578125 60.78125 
Q 13.765625 56.984375 13.71875 50.25 
L 4.6875 51.171875 
Q 5.609375 61.28125 11.65625 66.578125 
Q 17.71875 71.875 27.9375 71.875 
Q 38.234375 71.875 44.234375 66.15625 
Q 50.25 60.453125 50.25 52 
Q 50.25 47.703125 48.484375 43.546875 
Q 46.734375 39.40625 42.65625 34.8125 
Q 38.578125 30.21875 29.109375 22.21875 
Q 21.1875 15.578125 18.9375 13.203125 
Q 16.703125 10.84375 15.234375 8.453125 
z
" id="ArialMT-50"/>
       </defs>
       <use xlink:href="#ArialMT-50"/>
       <use x="55.615234" xlink:href="#ArialMT-48"/>
      </g>
     </g>
    </g>
    <g id="xtick_3">
     <g id="text_3">
      <!-- 40 -->
      <g style="fill:#262626;" transform="translate(198.912384 182.238125)scale(0.13 -0.13)">
       <defs>
        <path d="M 32.328125 0 
L 32.328125 17.140625 
L 1.265625 17.140625 
L 1.265625 25.203125 
L 33.9375 71.578125 
L 41.109375 71.578125 
L 41.109375 25.203125 
L 50.78125 25.203125 
L 50.78125 17.140625 
L 41.109375 17.140625 
L 41.109375 0 
z
M 32.328125 25.203125 
L 32.328125 57.46875 
L 9.90625 25.203125 
z
" id="ArialMT-52"/>
       </defs>
       <use xlink:href="#ArialMT-52"/>
       <use x="55.615234" xlink:href="#ArialMT-48"/>
      </g>
     </g>
    </g>
    <g id="xtick_4">
     <g id="text_4">
      <!-- 60 -->
      <g style="fill:#262626;" transform="translate(264.092846 182.238125)scale(0.13 -0.13)">
       <defs>
        <path d="M 49.75 54.046875 
L 41.015625 53.375 
Q 39.84375 58.546875 37.703125 60.890625 
Q 34.125 64.65625 28.90625 64.65625 
Q 24.703125 64.65625 21.53125 62.3125 
Q 17.390625 59.28125 14.984375 53.46875 
Q 12.59375 47.65625 12.5 36.921875 
Q 15.671875 41.75 20.265625 44.09375 
Q 24.859375 46.4375 29.890625 46.4375 
Q 38.671875 46.4375 44.84375 39.96875 
Q 51.03125 33.5 51.03125 23.25 
Q 51.03125 16.5 48.125 10.71875 
Q 45.21875 4.9375 40.140625 1.859375 
Q 35.0625 -1.21875 28.609375 -1.21875 
Q 17.625 -1.21875 10.6875 6.859375 
Q 3.765625 14.9375 3.765625 33.5 
Q 3.765625 54.25 11.421875 63.671875 
Q 18.109375 71.875 29.4375 71.875 
Q 37.890625 71.875 43.28125 67.140625 
Q 48.6875 62.40625 49.75 54.046875 
z
M 13.875 23.1875 
Q 13.875 18.65625 15.796875 14.5 
Q 17.71875 10.359375 21.1875 8.171875 
Q 24.65625 6 28.46875 6 
Q 34.03125 6 38.03125 10.484375 
Q 42.046875 14.984375 42.046875 22.703125 
Q 42.046875 30.125 38.078125 34.390625 
Q 34.125 38.671875 28.125 38.671875 
Q 22.171875 38.671875 18.015625 34.390625 
Q 13.875 30.125 13.875 23.1875 
z
" id="ArialMT-54"/>
       </defs>
       <use xlink:href="#ArialMT-54"/>
       <use x="55.615234" xlink:href="#ArialMT-48"/>
      </g>
     </g>
    </g>
    <g id="xtick_5">
     <g id="text_5">
      <!-- 80 -->
      <g style="fill:#262626;" transform="translate(329.273309 182.238125)scale(0.13 -0.13)">
       <defs>
        <path d="M 17.671875 38.8125 
Q 12.203125 40.828125 9.5625 44.53125 
Q 6.9375 48.25 6.9375 53.421875 
Q 6.9375 61.234375 12.546875 66.546875 
Q 18.171875 71.875 27.484375 71.875 
Q 36.859375 71.875 42.578125 66.421875 
Q 48.296875 60.984375 48.296875 53.171875 
Q 48.296875 48.1875 45.671875 44.5 
Q 43.0625 40.828125 37.75 38.8125 
Q 44.34375 36.671875 47.78125 31.875 
Q 51.21875 27.09375 51.21875 20.453125 
Q 51.21875 11.28125 44.71875 5.03125 
Q 38.234375 -1.21875 27.640625 -1.21875 
Q 17.046875 -1.21875 10.546875 5.046875 
Q 4.046875 11.328125 4.046875 20.703125 
Q 4.046875 27.6875 7.59375 32.390625 
Q 11.140625 37.109375 17.671875 38.8125 
z
M 15.921875 53.71875 
Q 15.921875 48.640625 19.1875 45.40625 
Q 22.46875 42.1875 27.6875 42.1875 
Q 32.765625 42.1875 36.015625 45.375 
Q 39.265625 48.578125 39.265625 53.21875 
Q 39.265625 58.0625 35.90625 61.359375 
Q 32.5625 64.65625 27.59375 64.65625 
Q 22.5625 64.65625 19.234375 61.421875 
Q 15.921875 58.203125 15.921875 53.71875 
z
M 13.09375 20.65625 
Q 13.09375 16.890625 14.875 13.375 
Q 16.65625 9.859375 20.171875 7.921875 
Q 23.6875 6 27.734375 6 
Q 34.03125 6 38.125 10.046875 
Q 42.234375 14.109375 42.234375 20.359375 
Q 42.234375 26.703125 38.015625 30.859375 
Q 33.796875 35.015625 27.4375 35.015625 
Q 21.234375 35.015625 17.15625 30.90625 
Q 13.09375 26.8125 13.09375 20.65625 
z
" id="ArialMT-56"/>
       </defs>
       <use xlink:href="#ArialMT-56"/>
       <use x="55.615234" xlink:href="#ArialMT-48"/>
      </g>
     </g>
    </g>
    <g id="xtick_6">
     <g id="text_6">
      <!-- 100 -->
      <g style="fill:#262626;" transform="translate(390.839162 182.238125)scale(0.13 -0.13)">
       <defs>
        <path d="M 37.25 0 
L 28.46875 0 
L 28.46875 56 
Q 25.296875 52.984375 20.140625 49.953125 
Q 14.984375 46.921875 10.890625 45.40625 
L 10.890625 53.90625 
Q 18.265625 57.375 23.78125 62.296875 
Q 29.296875 67.234375 31.59375 71.875 
L 37.25 71.875 
z
" id="ArialMT-49"/>
       </defs>
       <use xlink:href="#ArialMT-49"/>
       <use x="55.615234" xlink:href="#ArialMT-48"/>
       <use x="111.230469" xlink:href="#ArialMT-48"/>
      </g>
     </g>
    </g>
    <g id="text_7">
     <!-- Valve Position (% open) -->
     <g style="fill:#262626;" transform="translate(164.726016 199.013438)scale(0.14 -0.14)">
      <defs>
       <path d="M 28.171875 0 
L 0.4375 71.578125 
L 10.6875 71.578125 
L 29.296875 19.578125 
Q 31.546875 13.328125 33.0625 7.859375 
Q 34.71875 13.71875 36.921875 19.578125 
L 56.25 71.578125 
L 65.921875 71.578125 
L 37.890625 0 
z
" id="ArialMT-86"/>
       <path d="M 40.4375 6.390625 
Q 35.546875 2.25 31.03125 0.53125 
Q 26.515625 -1.171875 21.34375 -1.171875 
Q 12.796875 -1.171875 8.203125 3 
Q 3.609375 7.171875 3.609375 13.671875 
Q 3.609375 17.484375 5.34375 20.625 
Q 7.078125 23.78125 9.890625 25.6875 
Q 12.703125 27.59375 16.21875 28.5625 
Q 18.796875 29.25 24.03125 29.890625 
Q 34.671875 31.15625 39.703125 32.90625 
Q 39.75 34.71875 39.75 35.203125 
Q 39.75 40.578125 37.25 42.78125 
Q 33.890625 45.75 27.25 45.75 
Q 21.046875 45.75 18.09375 43.578125 
Q 15.140625 41.40625 13.71875 35.890625 
L 5.125 37.0625 
Q 6.296875 42.578125 8.984375 45.96875 
Q 11.671875 49.359375 16.75 51.1875 
Q 21.828125 53.03125 28.515625 53.03125 
Q 35.15625 53.03125 39.296875 51.46875 
Q 43.453125 49.90625 45.40625 47.53125 
Q 47.359375 45.171875 48.140625 41.546875 
Q 48.578125 39.3125 48.578125 33.453125 
L 48.578125 21.734375 
Q 48.578125 9.46875 49.140625 6.21875 
Q 49.703125 2.984375 51.375 0 
L 42.1875 0 
Q 40.828125 2.734375 40.4375 6.390625 
z
M 39.703125 26.03125 
Q 34.90625 24.078125 25.34375 22.703125 
Q 19.921875 21.921875 17.671875 20.9375 
Q 15.4375 19.96875 14.203125 18.09375 
Q 12.984375 16.21875 12.984375 13.921875 
Q 12.984375 10.40625 15.640625 8.0625 
Q 18.3125 5.71875 23.4375 5.71875 
Q 28.515625 5.71875 32.46875 7.9375 
Q 36.421875 10.15625 38.28125 14.015625 
Q 39.703125 17 39.703125 22.796875 
z
" id="ArialMT-97"/>
       <path d="M 6.390625 0 
L 6.390625 71.578125 
L 15.1875 71.578125 
L 15.1875 0 
z
" id="ArialMT-108"/>
       <path d="M 21 0 
L 1.265625 51.859375 
L 10.546875 51.859375 
L 21.6875 20.796875 
Q 23.484375 15.765625 25 10.359375 
Q 26.171875 14.453125 28.265625 20.21875 
L 39.796875 51.859375 
L 48.828125 51.859375 
L 29.203125 0 
z
" id="ArialMT-118"/>
       <path d="M 42.09375 16.703125 
L 51.171875 15.578125 
Q 49.03125 7.625 43.21875 3.21875 
Q 37.40625 -1.171875 28.375 -1.171875 
Q 17 -1.171875 10.328125 5.828125 
Q 3.65625 12.84375 3.65625 25.484375 
Q 3.65625 38.578125 10.390625 45.796875 
Q 17.140625 53.03125 27.875 53.03125 
Q 38.28125 53.03125 44.875 45.953125 
Q 51.46875 38.875 51.46875 26.03125 
Q 51.46875 25.25 51.421875 23.6875 
L 12.75 23.6875 
Q 13.234375 15.140625 17.578125 10.59375 
Q 21.921875 6.0625 28.421875 6.0625 
Q 33.25 6.0625 36.671875 8.59375 
Q 40.09375 11.140625 42.09375 16.703125 
z
M 13.234375 30.90625 
L 42.1875 30.90625 
Q 41.609375 37.453125 38.875 40.71875 
Q 34.671875 45.796875 27.984375 45.796875 
Q 21.921875 45.796875 17.796875 41.75 
Q 13.671875 37.703125 13.234375 30.90625 
z
" id="ArialMT-101"/>
       <path id="ArialMT-32"/>
       <path d="M 7.71875 0 
L 7.71875 71.578125 
L 34.71875 71.578125 
Q 41.84375 71.578125 45.609375 70.90625 
Q 50.875 70.015625 54.4375 67.546875 
Q 58.015625 65.09375 60.1875 60.640625 
Q 62.359375 56.203125 62.359375 50.875 
Q 62.359375 41.75 56.546875 35.421875 
Q 50.734375 29.109375 35.546875 29.109375 
L 17.1875 29.109375 
L 17.1875 0 
z
M 17.1875 37.546875 
L 35.6875 37.546875 
Q 44.875 37.546875 48.734375 40.96875 
Q 52.59375 44.390625 52.59375 50.59375 
Q 52.59375 55.078125 50.3125 58.265625 
Q 48.046875 61.46875 44.34375 62.5 
Q 41.9375 63.140625 35.5 63.140625 
L 17.1875 63.140625 
z
" id="ArialMT-80"/>
       <path d="M 3.328125 25.921875 
Q 3.328125 40.328125 11.328125 47.265625 
Q 18.015625 53.03125 27.640625 53.03125 
Q 38.328125 53.03125 45.109375 46.015625 
Q 51.90625 39.015625 51.90625 26.65625 
Q 51.90625 16.65625 48.90625 10.90625 
Q 45.90625 5.171875 40.15625 2 
Q 34.421875 -1.171875 27.640625 -1.171875 
Q 16.75 -1.171875 10.03125 5.8125 
Q 3.328125 12.796875 3.328125 25.921875 
z
M 12.359375 25.921875 
Q 12.359375 15.96875 16.703125 11.015625 
Q 21.046875 6.0625 27.640625 6.0625 
Q 34.1875 6.0625 38.53125 11.03125 
Q 42.875 16.015625 42.875 26.21875 
Q 42.875 35.84375 38.5 40.796875 
Q 34.125 45.75 27.640625 45.75 
Q 21.046875 45.75 16.703125 40.8125 
Q 12.359375 35.890625 12.359375 25.921875 
z
" id="ArialMT-111"/>
       <path d="M 3.078125 15.484375 
L 11.765625 16.84375 
Q 12.5 11.625 15.84375 8.84375 
Q 19.1875 6.0625 25.203125 6.0625 
Q 31.25 6.0625 34.171875 8.515625 
Q 37.109375 10.984375 37.109375 14.3125 
Q 37.109375 17.28125 34.515625 19 
Q 32.71875 20.171875 25.53125 21.96875 
Q 15.875 24.421875 12.140625 26.203125 
Q 8.40625 27.984375 6.46875 31.125 
Q 4.546875 34.28125 4.546875 38.09375 
Q 4.546875 41.546875 6.125 44.5 
Q 7.71875 47.46875 10.453125 49.421875 
Q 12.5 50.921875 16.03125 51.96875 
Q 19.578125 53.03125 23.640625 53.03125 
Q 29.734375 53.03125 34.34375 51.265625 
Q 38.96875 49.515625 41.15625 46.5 
Q 43.359375 43.5 44.1875 38.484375 
L 35.59375 37.3125 
Q 35.015625 41.3125 32.203125 43.546875 
Q 29.390625 45.796875 24.265625 45.796875 
Q 18.21875 45.796875 15.625 43.796875 
Q 13.03125 41.796875 13.03125 39.109375 
Q 13.03125 37.40625 14.109375 36.03125 
Q 15.1875 34.625 17.484375 33.6875 
Q 18.796875 33.203125 25.25 31.453125 
Q 34.578125 28.953125 38.25 27.359375 
Q 41.9375 25.78125 44.03125 22.75 
Q 46.140625 19.734375 46.140625 15.234375 
Q 46.140625 10.84375 43.578125 6.953125 
Q 41.015625 3.078125 36.171875 0.953125 
Q 31.34375 -1.171875 25.25 -1.171875 
Q 15.140625 -1.171875 9.84375 3.03125 
Q 4.546875 7.234375 3.078125 15.484375 
z
" id="ArialMT-115"/>
       <path d="M 6.640625 61.46875 
L 6.640625 71.578125 
L 15.4375 71.578125 
L 15.4375 61.46875 
z
M 6.640625 0 
L 6.640625 51.859375 
L 15.4375 51.859375 
L 15.4375 0 
z
" id="ArialMT-105"/>
       <path d="M 25.78125 7.859375 
L 27.046875 0.09375 
Q 23.34375 -0.6875 20.40625 -0.6875 
Q 15.625 -0.6875 12.984375 0.828125 
Q 10.359375 2.34375 9.28125 4.8125 
Q 8.203125 7.28125 8.203125 15.1875 
L 8.203125 45.015625 
L 1.765625 45.015625 
L 1.765625 51.859375 
L 8.203125 51.859375 
L 8.203125 64.703125 
L 16.9375 69.96875 
L 16.9375 51.859375 
L 25.78125 51.859375 
L 25.78125 45.015625 
L 16.9375 45.015625 
L 16.9375 14.703125 
Q 16.9375 10.9375 17.40625 9.859375 
Q 17.875 8.796875 18.921875 8.15625 
Q 19.96875 7.515625 21.921875 7.515625 
Q 23.390625 7.515625 25.78125 7.859375 
z
" id="ArialMT-116"/>
       <path d="M 6.59375 0 
L 6.59375 51.859375 
L 14.5 51.859375 
L 14.5 44.484375 
Q 20.21875 53.03125 31 53.03125 
Q 35.6875 53.03125 39.625 51.34375 
Q 43.5625 49.65625 45.515625 46.921875 
Q 47.46875 44.1875 48.25 40.4375 
Q 48.734375 37.984375 48.734375 31.890625 
L 48.734375 0 
L 39.9375 0 
L 39.9375 31.546875 
Q 39.9375 36.921875 38.90625 39.578125 
Q 37.890625 42.234375 35.28125 43.8125 
Q 32.671875 45.40625 29.15625 45.40625 
Q 23.53125 45.40625 19.453125 41.84375 
Q 15.375 38.28125 15.375 28.328125 
L 15.375 0 
z
" id="ArialMT-110"/>
       <path d="M 23.390625 -21.046875 
Q 16.109375 -11.859375 11.078125 0.4375 
Q 6.0625 12.75 6.0625 25.921875 
Q 6.0625 37.546875 9.8125 48.1875 
Q 14.203125 60.546875 23.390625 72.796875 
L 29.6875 72.796875 
Q 23.78125 62.640625 21.875 58.296875 
Q 18.890625 51.5625 17.1875 44.234375 
Q 15.09375 35.109375 15.09375 25.875 
Q 15.09375 2.390625 29.6875 -21.046875 
z
" id="ArialMT-40"/>
       <path d="M 5.8125 54.390625 
Q 5.8125 62.0625 9.671875 67.421875 
Q 13.53125 72.796875 20.84375 72.796875 
Q 27.59375 72.796875 32 67.984375 
Q 36.421875 63.1875 36.421875 53.859375 
Q 36.421875 44.78125 31.953125 39.875 
Q 27.484375 34.96875 20.953125 34.96875 
Q 14.453125 34.96875 10.125 39.796875 
Q 5.8125 44.625 5.8125 54.390625 
z
M 21.09375 66.75 
Q 17.828125 66.75 15.65625 63.90625 
Q 13.484375 61.078125 13.484375 53.515625 
Q 13.484375 46.625 15.671875 43.8125 
Q 17.875 41.015625 21.09375 41.015625 
Q 24.421875 41.015625 26.59375 43.84375 
Q 28.765625 46.6875 28.765625 54.203125 
Q 28.765625 61.140625 26.5625 63.9375 
Q 24.359375 66.75 21.09375 66.75 
z
M 21.140625 -2.640625 
L 60.296875 72.796875 
L 67.4375 72.796875 
L 28.421875 -2.640625 
z
M 52.09375 16.796875 
Q 52.09375 24.515625 55.953125 29.859375 
Q 59.8125 35.203125 67.1875 35.203125 
Q 73.921875 35.203125 78.34375 30.390625 
Q 82.765625 25.59375 82.765625 16.265625 
Q 82.765625 7.171875 78.296875 2.265625 
Q 73.828125 -2.640625 67.234375 -2.640625 
Q 60.75 -2.640625 56.421875 2.21875 
Q 52.09375 7.078125 52.09375 16.796875 
z
M 67.4375 29.15625 
Q 64.109375 29.15625 61.9375 26.3125 
Q 59.765625 23.484375 59.765625 15.921875 
Q 59.765625 9.078125 61.953125 6.25 
Q 64.15625 3.421875 67.390625 3.421875 
Q 70.75 3.421875 72.921875 6.25 
Q 75.09375 9.078125 75.09375 16.609375 
Q 75.09375 23.53125 72.890625 26.34375 
Q 70.703125 29.15625 67.4375 29.15625 
z
" id="ArialMT-37"/>
       <path d="M 6.59375 -19.875 
L 6.59375 51.859375 
L 14.59375 51.859375 
L 14.59375 45.125 
Q 17.4375 49.078125 21 51.046875 
Q 24.5625 53.03125 29.640625 53.03125 
Q 36.28125 53.03125 41.359375 49.609375 
Q 46.4375 46.1875 49.015625 39.953125 
Q 51.609375 33.734375 51.609375 26.3125 
Q 51.609375 18.359375 48.75 11.984375 
Q 45.90625 5.609375 40.453125 2.21875 
Q 35.015625 -1.171875 29 -1.171875 
Q 24.609375 -1.171875 21.109375 0.6875 
Q 17.625 2.546875 15.375 5.375 
L 15.375 -19.875 
z
M 14.546875 25.640625 
Q 14.546875 15.625 18.59375 10.84375 
Q 22.65625 6.0625 28.421875 6.0625 
Q 34.28125 6.0625 38.453125 11.015625 
Q 42.625 15.96875 42.625 26.375 
Q 42.625 36.28125 38.546875 41.203125 
Q 34.46875 46.140625 28.8125 46.140625 
Q 23.1875 46.140625 18.859375 40.890625 
Q 14.546875 35.640625 14.546875 25.640625 
z
" id="ArialMT-112"/>
       <path d="M 12.359375 -21.046875 
L 6.0625 -21.046875 
Q 20.65625 2.390625 20.65625 25.875 
Q 20.65625 35.0625 18.5625 44.09375 
Q 16.890625 51.421875 13.921875 58.15625 
Q 12.015625 62.546875 6.0625 72.796875 
L 12.359375 72.796875 
Q 21.53125 60.546875 25.921875 48.1875 
Q 29.6875 37.546875 29.6875 25.921875 
Q 29.6875 12.75 24.625 0.4375 
Q 19.578125 -11.859375 12.359375 -21.046875 
z
" id="ArialMT-41"/>
      </defs>
      <use xlink:href="#ArialMT-86"/>
      <use x="59.324219" xlink:href="#ArialMT-97"/>
      <use x="114.939453" xlink:href="#ArialMT-108"/>
      <use x="137.15625" xlink:href="#ArialMT-118"/>
      <use x="187.15625" xlink:href="#ArialMT-101"/>
      <use x="242.771484" xlink:href="#ArialMT-32"/>
      <use x="270.554688" xlink:href="#ArialMT-80"/>
      <use x="337.253906" xlink:href="#ArialMT-111"/>
      <use x="392.869141" xlink:href="#ArialMT-115"/>
      <use x="442.869141" xlink:href="#ArialMT-105"/>
      <use x="465.085938" xlink:href="#ArialMT-116"/>
      <use x="492.869141" xlink:href="#ArialMT-105"/>
      <use x="515.085938" xlink:href="#ArialMT-111"/>
      <use x="570.701172" xlink:href="#ArialMT-110"/>
      <use x="626.316406" xlink:href="#ArialMT-32"/>
      <use x="654.099609" xlink:href="#ArialMT-40"/>
      <use x="687.400391" xlink:href="#ArialMT-37"/>
      <use x="776.316406" xlink:href="#ArialMT-32"/>
      <use x="804.099609" xlink:href="#ArialMT-111"/>
      <use x="859.714844" xlink:href="#ArialMT-112"/>
      <use x="915.330078" xlink:href="#ArialMT-101"/>
      <use x="970.945312" xlink:href="#ArialMT-110"/>
      <use x="1026.560547" xlink:href="#ArialMT-41"/>
     </g>
    </g>
   </g>
   <g id="matplotlib.axis_2">
    <g id="ytick_1">
     <g id="text_8">
      <!-- 0 -->
      <g style="fill:#262626;" transform="translate(45.636563 163.616409)scale(0.13 -0.13)">
       <use xlink:href="#ArialMT-48"/>
      </g>
     </g>
    </g>
    <g id="ytick_2">
     <g id="text_9">
      <!-- 50 -->
      <g style="fill:#262626;" transform="translate(38.407344 128.489705)scale(0.13 -0.13)">
       <defs>
        <path d="M 4.15625 18.75 
L 13.375 19.53125 
Q 14.40625 12.796875 18.140625 9.390625 
Q 21.875 6 27.15625 6 
Q 33.5 6 37.890625 10.78125 
Q 42.28125 15.578125 42.28125 23.484375 
Q 42.28125 31 38.0625 35.34375 
Q 33.84375 39.703125 27 39.703125 
Q 22.75 39.703125 19.328125 37.765625 
Q 15.921875 35.84375 13.96875 32.765625 
L 5.71875 33.84375 
L 12.640625 70.609375 
L 48.25 70.609375 
L 48.25 62.203125 
L 19.671875 62.203125 
L 15.828125 42.96875 
Q 22.265625 47.46875 29.34375 47.46875 
Q 38.71875 47.46875 45.15625 40.96875 
Q 51.609375 34.46875 51.609375 24.265625 
Q 51.609375 14.546875 45.953125 7.46875 
Q 39.0625 -1.21875 27.15625 -1.21875 
Q 17.390625 -1.21875 11.203125 4.25 
Q 5.03125 9.71875 4.15625 18.75 
z
" id="ArialMT-53"/>
       </defs>
       <use xlink:href="#ArialMT-53"/>
       <use x="55.615234" xlink:href="#ArialMT-48"/>
      </g>
     </g>
    </g>
    <g id="ytick_3">
     <g id="text_10">
      <!-- 100 -->
      <g style="fill:#262626;" transform="translate(31.178125 93.363002)scale(0.13 -0.13)">
       <use xlink:href="#ArialMT-49"/>
       <use x="55.615234" xlink:href="#ArialMT-48"/>
       <use x="111.230469" xlink:href="#ArialMT-48"/>
      </g>
     </g>
    </g>
    <g id="ytick_4">
     <g id="text_11">
      <!-- 150 -->
      <g style="fill:#262626;" transform="translate(31.178125 58.236298)scale(0.13 -0.13)">
       <use xlink:href="#ArialMT-49"/>
       <use x="55.615234" xlink:href="#ArialMT-53"/>
       <use x="111.230469" xlink:href="#ArialMT-48"/>
      </g>
     </g>
    </g>
    <g id="ytick_5">
     <g id="text_12">
      <!-- 200 -->
      <g style="fill:#262626;" transform="translate(31.178125 23.109595)scale(0.13 -0.13)">
       <use xlink:href="#ArialMT-50"/>
       <use x="55.615234" xlink:href="#ArialMT-48"/>
       <use x="111.230469" xlink:href="#ArialMT-48"/>
      </g>
     </g>
    </g>
    <g id="text_13">
     <!-- Mass Flow Rate (slm) -->
     <g style="fill:#262626;" transform="translate(24.231563 158.487245)rotate(-90)scale(0.14 -0.14)">
      <defs>
       <path d="M 7.421875 0 
L 7.421875 71.578125 
L 21.6875 71.578125 
L 38.625 20.90625 
Q 40.96875 13.8125 42.046875 10.296875 
Q 43.265625 14.203125 45.84375 21.78125 
L 62.984375 71.578125 
L 75.734375 71.578125 
L 75.734375 0 
L 66.609375 0 
L 66.609375 59.90625 
L 45.796875 0 
L 37.25 0 
L 16.546875 60.9375 
L 16.546875 0 
z
" id="ArialMT-77"/>
       <path d="M 8.203125 0 
L 8.203125 71.578125 
L 56.5 71.578125 
L 56.5 63.140625 
L 17.671875 63.140625 
L 17.671875 40.96875 
L 51.265625 40.96875 
L 51.265625 32.515625 
L 17.671875 32.515625 
L 17.671875 0 
z
" id="ArialMT-70"/>
       <path d="M 16.15625 0 
L 0.296875 51.859375 
L 9.375 51.859375 
L 17.625 21.921875 
L 20.703125 10.796875 
Q 20.90625 11.625 23.390625 21.484375 
L 31.640625 51.859375 
L 40.671875 51.859375 
L 48.4375 21.78125 
L 51.03125 11.859375 
L 54 21.875 
L 62.890625 51.859375 
L 71.4375 51.859375 
L 55.21875 0 
L 46.09375 0 
L 37.84375 31.0625 
L 35.84375 39.890625 
L 25.34375 0 
z
" id="ArialMT-119"/>
       <path d="M 7.859375 0 
L 7.859375 71.578125 
L 39.59375 71.578125 
Q 49.171875 71.578125 54.140625 69.640625 
Q 59.125 67.71875 62.109375 62.828125 
Q 65.09375 57.953125 65.09375 52.046875 
Q 65.09375 44.4375 60.15625 39.203125 
Q 55.21875 33.984375 44.921875 32.5625 
Q 48.6875 30.765625 50.640625 29 
Q 54.78125 25.203125 58.5 19.484375 
L 70.953125 0 
L 59.03125 0 
L 49.5625 14.890625 
Q 45.40625 21.34375 42.71875 24.75 
Q 40.046875 28.171875 37.921875 29.53125 
Q 35.796875 30.90625 33.59375 31.453125 
Q 31.984375 31.78125 28.328125 31.78125 
L 17.328125 31.78125 
L 17.328125 0 
z
M 17.328125 39.984375 
L 37.703125 39.984375 
Q 44.1875 39.984375 47.84375 41.328125 
Q 51.515625 42.671875 53.421875 45.625 
Q 55.328125 48.578125 55.328125 52.046875 
Q 55.328125 57.125 51.640625 60.390625 
Q 47.953125 63.671875 39.984375 63.671875 
L 17.328125 63.671875 
z
" id="ArialMT-82"/>
       <path d="M 6.59375 0 
L 6.59375 51.859375 
L 14.453125 51.859375 
L 14.453125 44.578125 
Q 16.890625 48.390625 20.9375 50.703125 
Q 25 53.03125 30.171875 53.03125 
Q 35.9375 53.03125 39.625 50.640625 
Q 43.3125 48.25 44.828125 43.953125 
Q 50.984375 53.03125 60.84375 53.03125 
Q 68.5625 53.03125 72.703125 48.75 
Q 76.859375 44.484375 76.859375 35.59375 
L 76.859375 0 
L 68.109375 0 
L 68.109375 32.671875 
Q 68.109375 37.9375 67.25 40.25 
Q 66.40625 42.578125 64.15625 43.984375 
Q 61.921875 45.40625 58.890625 45.40625 
Q 53.421875 45.40625 49.796875 41.765625 
Q 46.1875 38.140625 46.1875 30.125 
L 46.1875 0 
L 37.40625 0 
L 37.40625 33.6875 
Q 37.40625 39.546875 35.25 42.46875 
Q 33.109375 45.40625 28.21875 45.40625 
Q 24.515625 45.40625 21.359375 43.453125 
Q 18.21875 41.5 16.796875 37.734375 
Q 15.375 33.984375 15.375 26.90625 
L 15.375 0 
z
" id="ArialMT-109"/>
      </defs>
      <use xlink:href="#ArialMT-77"/>
      <use x="83.300781" xlink:href="#ArialMT-97"/>
      <use x="138.916016" xlink:href="#ArialMT-115"/>
      <use x="188.916016" xlink:href="#ArialMT-115"/>
      <use x="238.916016" xlink:href="#ArialMT-32"/>
      <use x="266.699219" xlink:href="#ArialMT-70"/>
      <use x="327.783203" xlink:href="#ArialMT-108"/>
      <use x="350" xlink:href="#ArialMT-111"/>
      <use x="405.615234" xlink:href="#ArialMT-119"/>
      <use x="477.832031" xlink:href="#ArialMT-32"/>
      <use x="505.615234" xlink:href="#ArialMT-82"/>
      <use x="577.832031" xlink:href="#ArialMT-97"/>
      <use x="633.447266" xlink:href="#ArialMT-116"/>
      <use x="661.230469" xlink:href="#ArialMT-101"/>
      <use x="716.845703" xlink:href="#ArialMT-32"/>
      <use x="744.628906" xlink:href="#ArialMT-40"/>
      <use x="777.929688" xlink:href="#ArialMT-115"/>
      <use x="827.929688" xlink:href="#ArialMT-108"/>
      <use x="850.146484" xlink:href="#ArialMT-109"/>
      <use x="933.447266" xlink:href="#ArialMT-41"/>
     </g>
    </g>
   </g>
   <g id="patch_3">
    <path clip-path="url(#pf046cd07a5)" d="M 211.591611 62.386607 
L 217.515385 67.791835 
L 211.023578 67.665888 
L 181.692369 137.919295 
L 178.446466 137.856322 
L 207.777674 67.602915 
L 201.285866 67.476968 
z
" style="fill:#1f77b4;stroke:#ffffff;stroke-linejoin:miter;"/>
   </g>
   <g id="patch_4">
    <path clip-path="url(#pf046cd07a5)" d="M 83.366762 129.084922 
L 77.442988 123.679693 
L 83.934795 123.80564 
L 113.266003 53.552233 
L 116.511907 53.615207 
L 87.180699 123.868614 
L 93.672506 123.994561 
z
" style="fill:#1f77b4;stroke:#ffffff;stroke-linejoin:miter;"/>
   </g>
   <g id="line2d_1">
    <path clip-path="url(#pf046cd07a5)" d="M 76.142791 158.977881 
L 144.944391 158.970856 
L 145.668618 158.268322 
L 146.030732 155.865656 
L 147.8413 156.195847 
L 148.203414 155.015589 
L 149.289755 153.736977 
L 151.462437 153.540268 
L 153.273005 153.519192 
L 154.359346 147.969173 
L 154.72146 147.709235 
L 155.807801 147.519551 
L 156.532028 144.323021 
L 156.894142 132.604752 
L 157.618369 132.24646 
L 158.342597 132.211333 
L 159.066824 131.536901 
L 159.791051 131.164558 
L 160.515279 131.382343 
L 160.877392 128.558156 
L 161.60162 112.329619 
L 161.963733 109.350875 
L 162.687961 109.161191 
L 163.050075 109.617838 
L 163.774302 109.863725 
L 164.136416 109.069861 
L 164.860643 109.25252 
L 165.222757 109.800497 
L 165.946984 109.561635 
L 166.309098 108.493783 
L 167.033325 100.611351 
L 167.395439 98.616154 
L 168.119666 98.194634 
L 168.48178 97.709885 
L 169.930234 97.281339 
L 170.292348 97.583429 
L 170.654462 95.482852 
L 171.378689 82.415718 
L 172.102917 81.755336 
L 172.46503 82.774011 
L 173.189258 81.748311 
L 173.551371 82.359516 
L 174.275599 82.099578 
L 174.637712 81.446221 
L 175.724053 82.535149 
L 176.448281 81.621855 
L 177.172508 78.390198 
L 177.534622 78.186463 
L 178.258849 78.109185 
L 178.620963 77.216966 
L 179.34519 76.057785 
L 179.707304 77.30127 
L 180.431531 76.451204 
L 180.793645 73.247649 
L 181.517872 73.317902 
L 181.879986 63.665084 
L 182.604213 58.178293 
L 182.966327 60.854948 
L 183.690554 61.206215 
L 184.414782 60.285895 
L 184.776895 59.218043 
L 185.863236 50.225607 
L 186.587464 52.368336 
L 186.949577 50.850863 
L 187.673805 48.897818 
L 188.035919 51.6096 
L 188.760146 50.274785 
L 189.12226 51.328586 
L 189.846487 52.565046 
L 190.570714 50.731432 
L 190.932828 48.286613 
L 191.657055 50.534722 
L 192.019169 50.485545 
L 192.743396 52.171627 
L 193.10551 46.986925 
L 193.829737 47.991549 
L 194.191851 50.380165 
L 194.916078 47.239838 
L 195.640306 47.310091 
L 196.002419 47.000976 
L 196.726647 47.436547 
L 197.088761 46.811292 
L 197.812988 43.565584 
L 198.175102 39.849179 
L 198.899329 42.3502 
L 199.261443 42.146466 
L 199.98567 40.7976 
L 200.347784 41.696844 
L 201.072011 44.19084 
L 201.434125 41.942731 
L 202.158352 41.795199 
L 202.882579 41.352602 
L 203.244693 42.469631 
L 203.96892 40.973234 
L 204.331034 43.080836 
L 205.055261 42.223744 
L 205.417375 39.589242 
L 206.141603 40.031838 
L 206.503716 40.931082 
L 207.227944 37.910185 
L 207.952171 36.076571 
L 208.314285 36.736953 
L 209.038512 35.922014 
L 209.400626 37.629172 
L 210.124853 36.708852 
L 210.486967 37.228727 
L 211.211194 36.57537 
L 211.573308 37.249803 
L 212.297535 35.23353 
L 213.021762 36.736953 
L 213.383876 35.605873 
L 214.108104 37.516766 
L 214.470217 35.23353 
L 215.194445 36.603472 
L 215.556558 36.961764 
L 216.280786 38.142021 
L 217.005013 35.149226 
L 217.367127 36.385686 
L 218.091354 34.804985 
L 218.453468 33.055675 
L 219.177695 35.064922 
L 219.539809 34.959542 
L 220.264036 34.257008 
L 220.62615 33.36479 
L 221.350377 33.793335 
L 221.712491 31.587379 
L 222.436718 33.413967 
L 223.160946 32.908143 
L 223.523059 32.029975 
L 224.247287 34.580174 
L 224.6094 32.65523 
L 225.333628 34.868213 
L 225.695741 32.95732 
L 226.419969 32.922193 
L 226.782082 33.505297 
L 227.50631 34.40454 
L 228.592651 33.48422 
L 229.316878 31.081554 
L 229.678992 33.055675 
L 230.403219 31.678708 
L 230.765333 33.666879 
L 231.48956 31.777063 
L 231.851674 32.521749 
L 232.938015 31.889468 
L 233.662242 32.093203 
L 234.38647 32.044026 
L 234.748583 30.898895 
L 235.472811 31.165858 
L 235.834924 32.156431 
L 236.559152 31.376618 
L 237.283379 32.332065 
L 238.007606 31.538201 
L 238.731834 30.357944 
L 239.456061 31.833265 
L 239.818175 30.231488 
L 240.542402 30.969149 
L 240.904516 31.980798 
L 241.628743 30.196361 
L 242.352971 31.011301 
L 242.715084 30.06288 
L 243.439312 31.636556 
L 243.801425 30.442248 
L 244.525653 29.788891 
L 244.887766 31.868392 
L 245.611994 29.788891 
L 246.336221 31.130731 
L 246.698335 29.739714 
L 247.422562 29.184712 
L 247.784676 31.460922 
L 248.871017 30.512501 
L 249.595244 28.264392 
L 249.957358 29.908322 
L 250.681585 29.683511 
L 251.405813 30.07693 
L 251.767926 29.107433 
L 252.492154 30.041804 
L 252.854267 31.390669 
L 253.578495 28.538381 
L 253.940608 30.645983 
L 254.664836 28.461102 
L 255.026949 29.4587 
L 255.751177 28.861546 
L 256.11329 29.163636 
L 256.837518 29.311168 
L 257.561745 27.744517 
L 257.923859 27.28787 
L 258.648086 26.592361 
L 259.0102 29.269016 
L 259.734427 29.493827 
L 260.096541 29.767815 
L 260.820768 28.798318 
L 261.544996 29.121484 
L 261.907109 28.081733 
L 262.631337 28.580533 
L 262.99345 29.86617 
L 263.717678 26.599387 
L 264.079791 29.528954 
L 264.804019 30.308766 
L 265.166132 26.557235 
L 265.89036 28.095784 
L 266.614587 28.531355 
L 266.976701 29.86617 
L 268.063042 27.582934 
L 268.787269 27.049008 
L 269.149383 28.615659 
L 269.87361 29.311168 
L 270.959951 27.667238 
L 271.684179 28.819394 
L 272.046292 27.421351 
L 272.77052 28.959901 
L 273.132633 27.568884 
L 273.856861 27.983379 
L 274.218974 27.786669 
L 274.943202 28.868572 
L 275.305316 29.198763 
L 277.115884 26.599387 
L 277.840111 27.386225 
L 278.202225 29.009078 
L 278.926452 27.779644 
L 279.288566 28.004455 
L 280.374907 25.826599 
L 281.461248 28.243316 
L 282.185475 31.018326 
L 282.909703 29.212813 
L 283.271816 26.592361 
L 283.996044 28.123886 
L 284.358158 27.168439 
L 285.082385 27.400275 
L 285.444499 28.82642 
L 286.168726 28.187114 
L 286.892953 26.929578 
L 287.255067 28.440026 
L 287.979294 30.231488 
L 288.341408 27.154389 
L 289.065635 27.702365 
L 289.427749 25.503433 
L 290.151976 28.236291 
L 290.51409 26.05141 
L 291.238317 26.810147 
L 291.962545 28.938825 
L 292.324659 27.020907 
L 293.048886 28.383823 
L 293.411 27.372174 
L 294.135227 26.255145 
L 294.497341 28.369772 
L 295.221568 29.233889 
L 295.583682 26.36755 
L 296.307909 25.889827 
L 297.032136 27.505656 
L 297.39425 26.276221 
L 298.118477 27.196541 
L 298.480591 25.953055 
L 299.204818 25.672042 
L 299.566932 28.601609 
L 300.291159 29.845094 
L 301.377501 26.739893 
L 302.101728 26.831223 
L 302.463842 28.123886 
L 303.188069 27.372174 
L 303.550183 26.058435 
L 304.27441 25.74932 
L 305.360751 26.508057 
L 306.084978 25.868751 
L 306.447092 26.950654 
L 307.171319 27.58996 
L 307.533433 25.967106 
L 308.25766 26.824198 
L 308.619774 27.512681 
L 309.344002 25.454256 
L 310.068229 25.440205 
L 310.430343 28.018505 
L 311.15457 24.955457 
L 311.516684 26.332424 
L 312.240911 27.056034 
L 312.603025 26.704767 
L 313.327252 24.772798 
L 313.689366 26.97173 
L 314.413593 26.662615 
L 315.13782 26.641539 
L 315.499934 26.992806 
L 316.224161 26.711792 
L 316.586275 25.552611 
L 317.310502 26.852299 
L 317.672616 25.608814 
L 318.396844 27.758568 
L 318.758957 24.19672 
L 319.483185 27.020907 
L 320.207412 27.934201 
L 320.569526 26.339449 
L 321.293753 25.046786 
L 321.655867 26.205968 
L 322.742208 26.760969 
L 323.466435 26.739893 
L 323.828549 24.590139 
L 324.552776 25.236471 
L 325.277003 24.042163 
L 325.639117 25.489383 
L 326.363344 26.15679 
L 326.725458 27.744517 
L 327.449686 26.037359 
L 327.811799 25.73527 
L 328.89814 25.215394 
L 329.622368 31.046427 
L 330.346595 24.597165 
L 331.432936 27.098186 
L 331.79505 26.655589 
L 332.519277 28.067683 
L 332.881391 25.608814 
L 333.605618 26.191917 
L 333.967732 26.170841 
L 334.691959 25.594763 
L 335.416187 26.107613 
L 335.7783 26.508057 
L 336.502528 23.761149 
L 336.864641 28.749141 
L 337.588869 26.620463 
L 337.950982 27.814771 
L 338.67521 25.826599 
L 339.399437 25.376977 
L 339.761551 26.739893 
L 340.847892 25.384003 
L 341.572119 27.863948 
L 341.934233 26.24812 
L 342.65846 27.807745 
L 343.020574 25.981157 
L 343.744801 27.779644 
L 344.469029 26.135714 
L 344.831142 25.924954 
L 345.55537 26.430778 
L 345.917483 27.681289 
L 346.641711 26.220018 
L 347.003824 28.229266 
L 347.728052 26.599387 
L 348.090165 27.013882 
L 348.814393 26.198942 
L 349.53862 27.322997 
L 349.900734 26.838248 
L 350.624961 24.871153 
L 350.987075 27.006856 
L 351.711302 27.147363 
L 352.073416 25.124065 
L 352.797643 25.826599 
L 353.521871 28.10281 
L 353.883984 26.26217 
L 354.608212 25.889827 
L 354.970325 26.430778 
L 355.694553 26.627488 
L 356.056666 26.859324 
L 356.780894 27.646162 
L 357.143007 25.419129 
L 357.867235 25.903878 
L 358.229348 24.934381 
L 358.953576 28.341671 
L 359.315689 28.10281 
L 360.039917 27.161414 
L 360.764144 26.732868 
L 361.126258 25.292673 
L 361.850485 27.765593 
L 362.212599 28.594583 
L 362.936826 26.56426 
L 363.29894 27.119262 
L 364.023167 27.491605 
L 365.109508 23.599566 
L 365.471622 24.323176 
L 366.195849 27.294895 
L 366.920077 26.964704 
L 367.28219 24.927356 
L 368.006418 27.667238 
L 368.368531 25.608814 
L 369.092759 30.688135 
L 369.454872 24.281024 
L 370.1791 25.791472 
L 370.541214 26.114638 
L 371.265441 28.650786 
L 371.989668 27.224642 
L 372.351782 26.929578 
L 373.438123 25.362927 
L 374.16235 28.404899 
L 374.524464 28.917749 
L 375.248691 24.51286 
L 375.610805 28.032556 
L 376.335032 26.128689 
L 377.05926 25.376977 
L 377.421373 28.461102 
L 378.145601 25.461281 
L 378.507714 25.475332 
L 379.231942 25.657991 
L 379.594056 25.524509 
L 380.318283 26.859324 
L 380.680397 25.053812 
L 381.404624 23.78925 
L 382.128851 24.000011 
L 382.490965 26.339449 
L 383.215192 25.088938 
L 383.577306 26.690716 
L 384.301533 26.409702 
L 384.663647 27.744517 
L 385.387874 26.873375 
L 385.749988 25.067862 
L 386.474215 26.402677 
L 387.198443 26.395652 
L 387.560557 25.166217 
L 388.284784 28.348696 
L 388.646898 28.250342 
L 389.371125 23.402857 
L 389.733239 24.70957 
L 390.457466 29.423574 
L 390.81958 26.26217 
L 391.543807 26.009258 
L 392.268034 28.369772 
L 392.630148 27.435402 
L 393.354375 28.173063 
L 393.716489 27.877999 
L 394.80283 25.672042 
L 395.527057 26.98578 
L 396.251285 25.482357 
L 396.613399 27.470529 
L 397.337626 26.170841 
L 397.69974 24.252923 
L 398.423967 25.088938 
L 398.786081 24.913305 
L 399.510308 26.508057 
L 399.872422 26.915527 
L 400.596649 25.53856 
L 401.320876 25.868751 
L 401.68299 25.405079 
L 401.320876 23.992985 
L 400.958763 24.372354 
L 400.234535 24.428556 
L 399.872422 26.402677 
L 399.148194 24.632291 
L 398.786081 27.322997 
L 398.061853 23.824377 
L 397.337626 25.004634 
L 396.975512 23.487161 
L 396.251285 25.180268 
L 395.889171 28.62971 
L 395.164944 22.735449 
L 394.80283 28.749141 
L 394.078603 26.522108 
L 393.354375 25.11704 
L 392.992262 25.847675 
L 392.268034 25.73527 
L 391.905921 25.531535 
L 391.181693 27.196541 
L 390.81958 24.365328 
L 390.095352 27.856923 
L 389.733239 24.716595 
L 389.009011 26.915527 
L 388.646898 26.550209 
L 387.92267 26.852299 
L 387.198443 23.859504 
L 386.836329 28.130911 
L 386.112102 28.980977 
L 385.749988 24.843051 
L 385.025761 24.955457 
L 384.663647 23.98596 
L 383.93942 24.583114 
L 383.577306 23.89463 
L 382.853079 24.997609 
L 382.490965 24.105391 
L 381.766738 26.529133 
L 381.04251 24.660393 
L 380.680397 25.313749 
L 379.956169 28.84047 
L 379.594056 23.641718 
L 378.869828 22.559816 
L 378.507714 24.505835 
L 377.421373 24.562038 
L 376.697146 24.934381 
L 375.972919 28.784268 
L 375.610805 26.852299 
L 374.886578 25.728244 
L 374.524464 24.60419 
L 373.800237 23.508237 
L 373.438123 27.955277 
L 372.713896 25.257547 
L 372.351782 29.100408 
L 371.627555 23.522287 
L 371.265441 26.662615 
L 370.541214 25.264572 
L 369.816986 26.725843 
L 369.454872 25.074888 
L 368.730645 24.836026 
L 368.368531 24.014061 
L 367.644304 25.889827 
L 366.920077 22.861905 
L 366.557963 25.953055 
L 365.471622 25.426155 
L 364.747395 26.634513 
L 364.385281 26.023309 
L 363.29894 23.704946 
L 362.574713 23.06564 
L 361.850485 26.016283 
L 361.488372 25.215394 
L 360.764144 26.149765 
L 360.40203 23.57849 
L 359.315689 27.273819 
L 358.591462 22.531714 
L 358.229348 24.941406 
L 357.505121 27.547808 
L 356.780894 26.831223 
L 356.41878 23.697921 
L 355.694553 25.756346 
L 355.332439 23.149944 
L 354.608212 25.693118 
L 354.246098 27.69534 
L 353.521871 23.192096 
L 353.159757 25.482357 
L 352.435529 27.927176 
L 351.711302 24.084315 
L 351.349188 26.964704 
L 350.624961 25.201344 
L 350.262847 28.032556 
L 349.53862 24.829001 
L 349.176506 25.622864 
L 348.452279 25.686092 
L 348.090165 27.561858 
L 346.641711 25.13109 
L 346.279597 24.140517 
L 345.55537 24.049188 
L 345.193256 26.648564 
L 344.469029 24.147543 
L 344.106915 25.173242 
L 343.382687 25.180268 
L 343.020574 24.014061 
L 341.572119 26.177866 
L 341.210005 26.065461 
L 340.485778 29.599207 
L 340.123664 24.000011 
L 339.399437 27.547808 
L 339.037323 28.601609 
L 337.950982 23.831402 
L 337.226755 24.330202 
L 336.502528 23.17102 
L 336.140414 24.273999 
L 335.416187 23.68387 
L 335.054073 26.149765 
L 334.329845 24.885203 
L 333.967732 26.198942 
L 333.243504 27.927176 
L 332.881391 25.194318 
L 332.157163 26.339449 
L 331.432936 25.974131 
L 331.070822 26.065461 
L 330.346595 23.690896 
L 329.984481 23.107792 
L 329.260254 27.056034 
L 328.89814 27.365149 
L 328.173913 29.016104 
L 327.811799 26.093562 
L 327.087572 24.660393 
L 326.363344 24.463683 
L 326.001231 28.257367 
L 324.91489 23.88058 
L 323.828549 26.915527 
L 323.104321 25.587738 
L 322.380094 27.210591 
L 322.01798 24.316151 
L 321.293753 23.501211 
L 320.931639 29.269016 
L 320.207412 28.62971 
L 319.845298 29.55003 
L 319.121071 24.175644 
L 318.758957 26.297297 
L 318.03473 24.864127 
L 317.310502 24.737671 
L 316.948389 24.857102 
L 316.224161 26.093562 
L 315.13782 26.220018 
L 314.775707 25.278623 
L 314.051479 30.090981 
L 313.689366 26.936603 
L 312.965138 25.334825 
L 312.240911 25.138116 
L 311.878797 25.819574 
L 310.792456 26.789071 
L 309.706115 24.189695 
L 308.981888 27.758568 
L 308.619774 25.756346 
L 307.895547 26.697741 
L 307.171319 24.660393 
L 306.809206 25.777422 
L 306.084978 23.402857 
L 305.722865 25.264572 
L 304.998637 23.992985 
L 304.636524 24.836026 
L 303.912296 27.112236 
L 303.550183 26.999831 
L 302.825955 25.608814 
L 301.739614 26.789071 
L 301.015387 24.491784 
L 300.653273 25.62989 
L 299.929046 23.641718 
L 299.566932 24.463683 
L 298.842705 23.234248 
L 298.480591 23.332603 
L 297.756364 26.149765 
L 297.032136 24.119441 
L 296.670023 27.315971 
L 295.945795 24.435582 
L 295.583682 26.45888 
L 294.859454 24.653367 
L 294.497341 28.798318 
L 293.773113 23.690896 
L 293.411 25.517484 
L 292.324659 28.41895 
L 291.600431 25.419129 
L 290.876204 25.960081 
L 290.51409 26.753944 
L 289.789863 26.901476 
L 289.427749 26.220018 
L 288.703522 30.709211 
L 288.341408 25.201344 
L 287.617181 25.299699 
L 286.892953 26.423753 
L 286.53084 24.007036 
L 285.806612 27.386225 
L 285.444499 26.98578 
L 284.720271 25.524509 
L 284.358158 25.875777 
L 283.63393 25.657991 
L 283.271816 27.512681 
L 282.547589 25.615839 
L 281.823362 26.423753 
L 281.461248 27.491605 
L 280.737021 26.198942 
L 280.374907 27.9061 
L 279.65068 27.259769 
L 279.288566 27.322997 
L 278.202225 26.311348 
L 277.477998 26.887426 
L 276.75377 25.496408 
L 276.391657 25.53856 
L 275.667429 27.034958 
L 275.305316 25.426155 
L 274.581088 26.093562 
L 274.218974 28.62971 
L 273.494747 25.686092 
L 273.132633 25.967106 
L 272.408406 25.088938 
L 271.684179 24.821975 
L 271.322065 25.826599 
L 270.597838 25.475332 
L 270.235724 25.11704 
L 268.425156 25.939005 
L 268.063042 25.208369 
L 267.338815 27.526732 
L 266.614587 26.241094 
L 266.252474 23.89463 
L 265.528246 24.843051 
L 265.166132 26.016283 
L 264.441905 25.805523 
L 264.079791 28.194139 
L 263.355564 26.824198 
L 262.99345 24.021087 
L 262.269223 24.035137 
L 261.544996 28.088759 
L 261.182882 25.924954 
L 260.458655 28.475153 
L 260.096541 25.074888 
L 259.372314 25.208369 
L 259.0102 29.276041 
L 258.285973 25.208369 
L 257.923859 28.264392 
L 257.199631 23.831402 
L 256.475404 25.376977 
L 256.11329 27.224642 
L 255.389063 28.447051 
L 255.026949 24.590139 
L 254.302722 27.744517 
L 253.940608 30.238513 
L 253.216381 27.315971 
L 252.854267 28.812369 
L 252.13004 25.650966 
L 251.767926 27.203566 
L 250.319472 25.095964 
L 249.957358 28.187114 
L 249.233131 25.341851 
L 248.871017 26.98578 
L 248.146789 27.533757 
L 247.784676 26.339449 
L 247.060448 26.936603 
L 246.698335 31.236111 
L 245.974107 31.741936 
L 245.24988 26.950654 
L 244.887766 26.873375 
L 244.163539 26.992806 
L 243.801425 24.576088 
L 243.077198 28.250342 
L 242.715084 26.760969 
L 241.990857 29.016104 
L 241.628743 23.269375 
L 240.904516 26.297297 
L 240.180289 26.824198 
L 239.818175 26.058435 
L 239.093947 26.964704 
L 238.731834 25.693118 
L 238.007606 24.793874 
L 237.645493 25.285648 
L 236.921265 28.657811 
L 236.559152 28.053632 
L 235.834924 29.212813 
L 235.110697 25.22242 
L 234.748583 27.344073 
L 234.024356 25.686092 
L 233.662242 26.142739 
L 232.938015 27.779644 
L 232.575901 26.873375 
L 231.851674 30.175285 
L 231.48956 25.088938 
L 230.765333 28.088759 
L 230.041105 22.875956 
L 228.954764 27.786669 
L 228.592651 28.62971 
L 227.868423 26.501032 
L 227.50631 24.400455 
L 226.782082 27.203566 
L 226.419969 26.571285 
L 225.695741 27.667238 
L 225.333628 26.732868 
L 224.6094 26.360525 
L 223.885173 25.060837 
L 223.523059 31.446872 
L 222.798832 26.704767 
L 222.436718 25.686092 
L 221.712491 29.402498 
L 221.350377 27.575909 
L 220.62615 28.952876 
L 220.264036 28.320595 
L 219.539809 26.817172 
L 219.177695 30.105032 
L 218.453468 27.892049 
L 217.72924 27.899075 
L 217.367127 28.82642 
L 216.642899 26.943628 
L 216.280786 28.819394 
L 215.556558 28.489203 
L 215.194445 27.772619 
L 214.470217 27.414326 
L 214.108104 29.479776 
L 213.383876 30.245538 
L 213.021762 26.831223 
L 212.297535 29.500852 
L 211.935421 24.273999 
L 211.211194 27.39325 
L 210.486967 27.322997 
L 210.124853 27.596985 
L 209.400626 30.364969 
L 209.038512 28.397874 
L 208.314285 28.650786 
L 207.952171 28.074708 
L 207.227944 28.348696 
L 206.86583 29.725663 
L 206.141603 29.641359 
L 205.417375 28.980977 
L 205.055261 32.14238 
L 203.96892 27.175465 
L 203.244693 28.334646 
L 202.882579 26.641539 
L 202.158352 26.613437 
L 201.796238 30.4844 
L 201.072011 28.517305 
L 200.347784 28.201164 
L 199.98567 29.212813 
L 199.261443 29.479776 
L 198.899329 32.114279 
L 197.812988 28.784268 
L 197.088761 31.109655 
L 196.726647 30.18231 
L 196.002419 30.322817 
L 194.916078 27.934201 
L 194.191851 27.330022 
L 193.829737 31.285289 
L 193.10551 28.938825 
L 192.743396 30.610856 
L 192.019169 32.570926 
L 191.657055 32.001874 
L 190.932828 31.727885 
L 190.208601 30.990225 
L 189.846487 28.587558 
L 189.12226 31.432821 
L 188.760146 31.791113 
L 188.035919 28.173063 
L 187.673805 28.62971 
L 186.949577 30.624907 
L 186.587464 26.515083 
L 185.863236 29.388447 
L 185.139009 30.161234 
L 184.776895 31.741936 
L 184.052668 28.587558 
L 183.690554 30.371995 
L 182.966327 30.133133 
L 182.604213 30.245538 
L 181.879986 31.636556 
L 181.517872 31.439846 
L 180.793645 32.592002 
L 180.069418 28.433001 
L 179.707304 30.814591 
L 178.983076 29.774841 
L 178.620963 30.948072 
L 177.534622 29.908322 
L 176.810394 30.58978 
L 176.448281 30.765414 
L 175.724053 32.065102 
L 174.999826 31.5101 
L 174.637712 31.840291 
L 173.913485 32.008899 
L 173.551371 28.819394 
L 172.827144 32.23371 
L 172.46503 32.711433 
L 171.740803 30.231488 
L 171.378689 32.542825 
L 170.654462 30.596805 
L 170.292348 32.029975 
L 169.568121 30.821616 
L 168.843893 32.971371 
L 168.48178 30.547628 
L 167.757552 32.795737 
L 167.395439 29.824018 
L 166.671211 33.301562 
L 166.309098 30.990225 
L 165.58487 33.104852 
L 165.222757 32.325039 
L 164.498529 32.395293 
L 164.136416 31.959722 
L 163.412188 32.788712 
L 162.687961 33.231308 
L 162.325847 34.530996 
L 161.60162 35.317834 
L 161.239506 34.769858 
L 160.515279 33.89169 
L 160.153165 35.458341 
L 159.428938 34.580174 
L 158.70471 33.006497 
L 157.618369 34.355363 
L 157.256256 33.385866 
L 156.532028 33.933842 
L 156.169915 34.481819 
L 155.445687 33.589601 
L 155.083574 37.910185 
L 154.359346 37.221702 
L 153.635119 37.29898 
L 153.273005 36.891511 
L 152.548778 38.11392 
L 152.186664 37.727526 
L 151.462437 39.385507 
L 151.100323 37.748602 
L 150.376096 38.971012 
L 150.013982 38.872657 
L 149.289755 37.615121 
L 148.565527 37.544867 
L 148.203414 40.2707 
L 147.479186 39.104493 
L 147.117073 39.842154 
L 146.392845 40.333928 
L 146.030732 38.486263 
L 145.306504 37.474614 
L 144.944391 40.383105 
L 144.220163 38.605694 
L 143.495936 37.818856 
L 143.133822 38.542466 
L 142.409595 39.329304 
L 142.047481 39.540064 
L 141.323254 46.424898 
L 140.96114 44.724766 
L 140.236913 44.373499 
L 139.874799 45.778567 
L 139.150572 48.132056 
L 138.426344 49.101553 
L 138.064231 48.658956 
L 137.340003 50.380165 
L 136.97789 50.380165 
L 136.253662 49.340414 
L 135.891548 49.600352 
L 135.167321 49.607377 
L 134.805207 49.24206 
L 134.08098 51.700929 
L 133.718866 49.501997 
L 132.994639 51.019471 
L 132.270412 48.750286 
L 131.908298 51.72903 
L 131.184071 59.091587 
L 130.821957 57.70057 
L 130.09773 59.983806 
L 129.735616 56.983985 
L 129.011389 57.546012 
L 128.649275 60.756593 
L 127.925048 71.343782 
L 127.562934 74.174994 
L 126.838706 74.72297 
L 126.114479 73.971259 
L 125.752365 74.238222 
L 125.028138 74.034487 
L 124.666024 74.413855 
L 123.579683 73.514612 
L 122.855456 74.568413 
L 121.769115 73.549739 
L 121.407001 74.132842 
L 120.32066 73.627017 
L 119.596433 77.28722 
L 118.872206 92.75702 
L 118.510092 92.848349 
L 117.785864 94.021581 
L 117.423751 93.227718 
L 116.699523 92.672716 
L 115.613182 97.787164 
L 115.251069 99.15008 
L 114.526841 100.871289 
L 114.164728 101.20148 
L 113.078387 109.238469 
L 112.354159 109.596762 
L 111.992046 110.573284 
L 111.267818 110.826196 
L 110.905705 110.80512 
L 110.181477 110.362524 
L 109.819363 110.959678 
L 109.095136 109.919927 
L 108.733022 114.219436 
L 108.008795 116.910141 
L 106.922454 116.305962 
L 106.198227 117.029572 
L 105.836113 117.07875 
L 105.111886 115.982796 
L 104.749772 130.223162 
L 104.025545 135.000394 
L 103.663431 136.538943 
L 101.852863 137.079894 
L 101.490749 136.988565 
L 100.766521 136.98154 
L 100.404408 137.107996 
L 99.68018 137.100971 
L 99.318067 150.421016 
L 98.593839 151.264057 
L 98.231726 151.341336 
L 97.507498 152.093048 
L 93.162134 152.374061 
L 92.437907 153.245203 
L 92.075793 158.289398 
L 91.351566 157.636041 
L 90.989452 157.572813 
L 89.903111 157.593889 
L 89.178884 158.415854 
L 88.81677 159.034084 
L 85.919861 159.027059 
L 83.747178 158.970856 
L 76.142791 158.963831 
L 76.142791 158.963831 
" style="fill:none;stroke:#1f77b4;stroke-linecap:round;stroke-width:1.5;"/>
   </g>
   <g id="patch_5">
    <path d="M 59.865781 165.932969 
L 59.865781 15.703083 
" style="fill:none;stroke:#262626;stroke-linecap:square;stroke-linejoin:miter;stroke-width:0.8;"/>
   </g>
   <g id="patch_6">
    <path d="M 417.96 165.932969 
L 417.96 15.703083 
" style="fill:none;stroke:#262626;stroke-linecap:square;stroke-linejoin:miter;stroke-width:0.8;"/>
   </g>
   <g id="patch_7">
    <path d="M 59.865781 165.932969 
L 417.96 165.932969 
" style="fill:none;stroke:#262626;stroke-linecap:square;stroke-linejoin:miter;stroke-width:0.8;"/>
   </g>
   <g id="patch_8">
    <path d="M 59.865781 15.703083 
L 417.96 15.703083 
" style="fill:none;stroke:#262626;stroke-linecap:square;stroke-linejoin:miter;stroke-width:0.8;"/>
   </g>
  </g>
 </g>
 <defs>
  <clipPath id="pf046cd07a5">
   <rect height="150.229886" width="358.094219" x="59.865781" y="15.703083"/>
  </clipPath>
 </defs>
</svg>
