<?xml version="1.0" encoding="utf-8" standalone="no"?>
<!DOCTYPE svg PUBLIC "-//W3C//DTD SVG 1.1//EN"
  "http://www.w3.org/Graphics/SVG/1.1/DTD/svg11.dtd">
<!-- Created with matplotlib (https://matplotlib.org/) -->
<svg height="288pt" version="1.1" viewBox="0 0 576 288" width="576pt" xmlns="http://www.w3.org/2000/svg" xmlns:xlink="http://www.w3.org/1999/xlink">
 <metadata>
  <rdf:RDF xmlns:cc="http://creativecommons.org/ns#" xmlns:dc="http://purl.org/dc/elements/1.1/" xmlns:rdf="http://www.w3.org/1999/02/22-rdf-syntax-ns#">
   <cc:Work>
    <dc:type rdf:resource="http://purl.org/dc/dcmitype/StillImage"/>
    <dc:date>2022-03-11T20:51:23.450415</dc:date>
    <dc:format>image/svg+xml</dc:format>
    <dc:creator>
     <cc:Agent>
      <dc:title>Matplotlib v3.3.4, https://matplotlib.org/</dc:title>
     </cc:Agent>
    </dc:creator>
   </cc:Work>
  </rdf:RDF>
 </metadata>
 <defs>
  <style type="text/css">*{stroke-linecap:butt;stroke-linejoin:round;}</style>
 </defs>
 <g id="figure_1">
  <g id="patch_1">
   <path d="M 0 288 
L 576 288 
L 576 0 
L 0 0 
z
" style="fill:#ffffff;"/>
  </g>
  <g id="axes_1">
   <g id="patch_2">
    <path d="M 74.707531 237.932969 
L 508.340563 237.932969 
L 508.340563 14.706585 
L 74.707531 14.706585 
z
" style="fill:#eaeaf2;"/>
   </g>
   <g id="matplotlib.axis_1">
    <g id="xtick_1">
     <g id="line2d_1">
      <path clip-path="url(#p33f82801a2)" d="M 94.35468 237.932969 
L 94.35468 14.706585 
" style="fill:none;stroke:#ffffff;stroke-linecap:round;stroke-width:0.8;"/>
     </g>
     <g id="text_1">
      <!-- 0 -->
      <g style="fill:#262626;" transform="translate(90.740071 254.238125)scale(0.13 -0.13)">
       <defs>
        <path d="M 4.15625 35.296875 
Q 4.15625 48 6.765625 55.734375 
Q 9.375 63.484375 14.515625 67.671875 
Q 19.671875 71.875 27.484375 71.875 
Q 33.25 71.875 37.59375 69.546875 
Q 41.9375 67.234375 44.765625 62.859375 
Q 47.609375 58.5 49.21875 52.21875 
Q 50.828125 45.953125 50.828125 35.296875 
Q 50.828125 22.703125 48.234375 14.96875 
Q 45.65625 7.234375 40.5 3 
Q 35.359375 -1.21875 27.484375 -1.21875 
Q 17.140625 -1.21875 11.234375 6.203125 
Q 4.15625 15.140625 4.15625 35.296875 
z
M 13.1875 35.296875 
Q 13.1875 17.671875 17.3125 11.828125 
Q 21.4375 6 27.484375 6 
Q 33.546875 6 37.671875 11.859375 
Q 41.796875 17.71875 41.796875 35.296875 
Q 41.796875 52.984375 37.671875 58.78125 
Q 33.546875 64.59375 27.390625 64.59375 
Q 21.34375 64.59375 17.71875 59.46875 
Q 13.1875 52.9375 13.1875 35.296875 
z
" id="ArialMT-48"/>
       </defs>
       <use xlink:href="#ArialMT-48"/>
      </g>
     </g>
    </g>
    <g id="xtick_2">
     <g id="line2d_2">
      <path clip-path="url(#p33f82801a2)" d="M 144.570156 237.932969 
L 144.570156 14.706585 
" style="fill:none;stroke:#ffffff;stroke-linecap:round;stroke-width:0.8;"/>
     </g>
     <g id="text_2">
      <!-- 25 -->
      <g style="fill:#262626;" transform="translate(137.340937 254.238125)scale(0.13 -0.13)">
       <defs>
        <path d="M 50.34375 8.453125 
L 50.34375 0 
L 3.03125 0 
Q 2.9375 3.171875 4.046875 6.109375 
Q 5.859375 10.9375 9.828125 15.625 
Q 13.8125 20.3125 21.34375 26.46875 
Q 33.015625 36.03125 37.109375 41.625 
Q 41.21875 47.21875 41.21875 52.203125 
Q 41.21875 57.421875 37.46875 61 
Q 33.734375 64.59375 27.734375 64.59375 
Q 21.390625 64.59375 17.578125 60.78125 
Q 13.765625 56.984375 13.71875 50.25 
L 4.6875 51.171875 
Q 5.609375 61.28125 11.65625 66.578125 
Q 17.71875 71.875 27.9375 71.875 
Q 38.234375 71.875 44.234375 66.15625 
Q 50.25 60.453125 50.25 52 
Q 50.25 47.703125 48.484375 43.546875 
Q 46.734375 39.40625 42.65625 34.8125 
Q 38.578125 30.21875 29.109375 22.21875 
Q 21.1875 15.578125 18.9375 13.203125 
Q 16.703125 10.84375 15.234375 8.453125 
z
" id="ArialMT-50"/>
        <path d="M 4.15625 18.75 
L 13.375 19.53125 
Q 14.40625 12.796875 18.140625 9.390625 
Q 21.875 6 27.15625 6 
Q 33.5 6 37.890625 10.78125 
Q 42.28125 15.578125 42.28125 23.484375 
Q 42.28125 31 38.0625 35.34375 
Q 33.84375 39.703125 27 39.703125 
Q 22.75 39.703125 19.328125 37.765625 
Q 15.921875 35.84375 13.96875 32.765625 
L 5.71875 33.84375 
L 12.640625 70.609375 
L 48.25 70.609375 
L 48.25 62.203125 
L 19.671875 62.203125 
L 15.828125 42.96875 
Q 22.265625 47.46875 29.34375 47.46875 
Q 38.71875 47.46875 45.15625 40.96875 
Q 51.609375 34.46875 51.609375 24.265625 
Q 51.609375 14.546875 45.953125 7.46875 
Q 39.0625 -1.21875 27.15625 -1.21875 
Q 17.390625 -1.21875 11.203125 4.25 
Q 5.03125 9.71875 4.15625 18.75 
z
" id="ArialMT-53"/>
       </defs>
       <use xlink:href="#ArialMT-50"/>
       <use x="55.615234" xlink:href="#ArialMT-53"/>
      </g>
     </g>
    </g>
    <g id="xtick_3">
     <g id="line2d_3">
      <path clip-path="url(#p33f82801a2)" d="M 194.785631 237.932969 
L 194.785631 14.706585 
" style="fill:none;stroke:#ffffff;stroke-linecap:round;stroke-width:0.8;"/>
     </g>
     <g id="text_3">
      <!-- 50 -->
      <g style="fill:#262626;" transform="translate(187.556412 254.238125)scale(0.13 -0.13)">
       <use xlink:href="#ArialMT-53"/>
       <use x="55.615234" xlink:href="#ArialMT-48"/>
      </g>
     </g>
    </g>
    <g id="xtick_4">
     <g id="line2d_4">
      <path clip-path="url(#p33f82801a2)" d="M 245.001106 237.932969 
L 245.001106 14.706585 
" style="fill:none;stroke:#ffffff;stroke-linecap:round;stroke-width:0.8;"/>
     </g>
     <g id="text_4">
      <!-- 75 -->
      <g style="fill:#262626;" transform="translate(237.771887 254.238125)scale(0.13 -0.13)">
       <defs>
        <path d="M 4.734375 62.203125 
L 4.734375 70.65625 
L 51.078125 70.65625 
L 51.078125 63.8125 
Q 44.234375 56.546875 37.515625 44.484375 
Q 30.8125 32.421875 27.15625 19.671875 
Q 24.515625 10.6875 23.78125 0 
L 14.75 0 
Q 14.890625 8.453125 18.0625 20.40625 
Q 21.234375 32.375 27.171875 43.484375 
Q 33.109375 54.59375 39.796875 62.203125 
z
" id="ArialMT-55"/>
       </defs>
       <use xlink:href="#ArialMT-55"/>
       <use x="55.615234" xlink:href="#ArialMT-53"/>
      </g>
     </g>
    </g>
    <g id="xtick_5">
     <g id="line2d_5">
      <path clip-path="url(#p33f82801a2)" d="M 295.216581 237.932969 
L 295.216581 14.706585 
" style="fill:none;stroke:#ffffff;stroke-linecap:round;stroke-width:0.8;"/>
     </g>
     <g id="text_5">
      <!-- 100 -->
      <g style="fill:#262626;" transform="translate(284.372753 254.238125)scale(0.13 -0.13)">
       <defs>
        <path d="M 37.25 0 
L 28.46875 0 
L 28.46875 56 
Q 25.296875 52.984375 20.140625 49.953125 
Q 14.984375 46.921875 10.890625 45.40625 
L 10.890625 53.90625 
Q 18.265625 57.375 23.78125 62.296875 
Q 29.296875 67.234375 31.59375 71.875 
L 37.25 71.875 
z
" id="ArialMT-49"/>
       </defs>
       <use xlink:href="#ArialMT-49"/>
       <use x="55.615234" xlink:href="#ArialMT-48"/>
       <use x="111.230469" xlink:href="#ArialMT-48"/>
      </g>
     </g>
    </g>
    <g id="xtick_6">
     <g id="line2d_6">
      <path clip-path="url(#p33f82801a2)" d="M 345.432057 237.932969 
L 345.432057 14.706585 
" style="fill:none;stroke:#ffffff;stroke-linecap:round;stroke-width:0.8;"/>
     </g>
     <g id="text_6">
      <!-- 125 -->
      <g style="fill:#262626;" transform="translate(334.588229 254.238125)scale(0.13 -0.13)">
       <use xlink:href="#ArialMT-49"/>
       <use x="55.615234" xlink:href="#ArialMT-50"/>
       <use x="111.230469" xlink:href="#ArialMT-53"/>
      </g>
     </g>
    </g>
    <g id="xtick_7">
     <g id="line2d_7">
      <path clip-path="url(#p33f82801a2)" d="M 395.647532 237.932969 
L 395.647532 14.706585 
" style="fill:none;stroke:#ffffff;stroke-linecap:round;stroke-width:0.8;"/>
     </g>
     <g id="text_7">
      <!-- 150 -->
      <g style="fill:#262626;" transform="translate(384.803704 254.238125)scale(0.13 -0.13)">
       <use xlink:href="#ArialMT-49"/>
       <use x="55.615234" xlink:href="#ArialMT-53"/>
       <use x="111.230469" xlink:href="#ArialMT-48"/>
      </g>
     </g>
    </g>
    <g id="xtick_8">
     <g id="line2d_8">
      <path clip-path="url(#p33f82801a2)" d="M 445.863007 237.932969 
L 445.863007 14.706585 
" style="fill:none;stroke:#ffffff;stroke-linecap:round;stroke-width:0.8;"/>
     </g>
     <g id="text_8">
      <!-- 175 -->
      <g style="fill:#262626;" transform="translate(435.019179 254.238125)scale(0.13 -0.13)">
       <use xlink:href="#ArialMT-49"/>
       <use x="55.615234" xlink:href="#ArialMT-55"/>
       <use x="111.230469" xlink:href="#ArialMT-53"/>
      </g>
     </g>
    </g>
    <g id="xtick_9">
     <g id="line2d_9">
      <path clip-path="url(#p33f82801a2)" d="M 496.078482 237.932969 
L 496.078482 14.706585 
" style="fill:none;stroke:#ffffff;stroke-linecap:round;stroke-width:0.8;"/>
     </g>
     <g id="text_9">
      <!-- 200 -->
      <g style="fill:#262626;" transform="translate(485.234654 254.238125)scale(0.13 -0.13)">
       <use xlink:href="#ArialMT-50"/>
       <use x="55.615234" xlink:href="#ArialMT-48"/>
       <use x="111.230469" xlink:href="#ArialMT-48"/>
      </g>
     </g>
    </g>
    <g id="text_10">
     <!-- Elapsed Time (s) -->
     <g style="fill:#262626;" transform="translate(239.008734 271.013438)scale(0.14 -0.14)">
      <defs>
       <path d="M 7.90625 0 
L 7.90625 71.578125 
L 59.671875 71.578125 
L 59.671875 63.140625 
L 17.390625 63.140625 
L 17.390625 41.21875 
L 56.984375 41.21875 
L 56.984375 32.8125 
L 17.390625 32.8125 
L 17.390625 8.453125 
L 61.328125 8.453125 
L 61.328125 0 
z
" id="ArialMT-69"/>
       <path d="M 6.390625 0 
L 6.390625 71.578125 
L 15.1875 71.578125 
L 15.1875 0 
z
" id="ArialMT-108"/>
       <path d="M 40.4375 6.390625 
Q 35.546875 2.25 31.03125 0.53125 
Q 26.515625 -1.171875 21.34375 -1.171875 
Q 12.796875 -1.171875 8.203125 3 
Q 3.609375 7.171875 3.609375 13.671875 
Q 3.609375 17.484375 5.34375 20.625 
Q 7.078125 23.78125 9.890625 25.6875 
Q 12.703125 27.59375 16.21875 28.5625 
Q 18.796875 29.25 24.03125 29.890625 
Q 34.671875 31.15625 39.703125 32.90625 
Q 39.75 34.71875 39.75 35.203125 
Q 39.75 40.578125 37.25 42.78125 
Q 33.890625 45.75 27.25 45.75 
Q 21.046875 45.75 18.09375 43.578125 
Q 15.140625 41.40625 13.71875 35.890625 
L 5.125 37.0625 
Q 6.296875 42.578125 8.984375 45.96875 
Q 11.671875 49.359375 16.75 51.1875 
Q 21.828125 53.03125 28.515625 53.03125 
Q 35.15625 53.03125 39.296875 51.46875 
Q 43.453125 49.90625 45.40625 47.53125 
Q 47.359375 45.171875 48.140625 41.546875 
Q 48.578125 39.3125 48.578125 33.453125 
L 48.578125 21.734375 
Q 48.578125 9.46875 49.140625 6.21875 
Q 49.703125 2.984375 51.375 0 
L 42.1875 0 
Q 40.828125 2.734375 40.4375 6.390625 
z
M 39.703125 26.03125 
Q 34.90625 24.078125 25.34375 22.703125 
Q 19.921875 21.921875 17.671875 20.9375 
Q 15.4375 19.96875 14.203125 18.09375 
Q 12.984375 16.21875 12.984375 13.921875 
Q 12.984375 10.40625 15.640625 8.0625 
Q 18.3125 5.71875 23.4375 5.71875 
Q 28.515625 5.71875 32.46875 7.9375 
Q 36.421875 10.15625 38.28125 14.015625 
Q 39.703125 17 39.703125 22.796875 
z
" id="ArialMT-97"/>
       <path d="M 6.59375 -19.875 
L 6.59375 51.859375 
L 14.59375 51.859375 
L 14.59375 45.125 
Q 17.4375 49.078125 21 51.046875 
Q 24.5625 53.03125 29.640625 53.03125 
Q 36.28125 53.03125 41.359375 49.609375 
Q 46.4375 46.1875 49.015625 39.953125 
Q 51.609375 33.734375 51.609375 26.3125 
Q 51.609375 18.359375 48.75 11.984375 
Q 45.90625 5.609375 40.453125 2.21875 
Q 35.015625 -1.171875 29 -1.171875 
Q 24.609375 -1.171875 21.109375 0.6875 
Q 17.625 2.546875 15.375 5.375 
L 15.375 -19.875 
z
M 14.546875 25.640625 
Q 14.546875 15.625 18.59375 10.84375 
Q 22.65625 6.0625 28.421875 6.0625 
Q 34.28125 6.0625 38.453125 11.015625 
Q 42.625 15.96875 42.625 26.375 
Q 42.625 36.28125 38.546875 41.203125 
Q 34.46875 46.140625 28.8125 46.140625 
Q 23.1875 46.140625 18.859375 40.890625 
Q 14.546875 35.640625 14.546875 25.640625 
z
" id="ArialMT-112"/>
       <path d="M 3.078125 15.484375 
L 11.765625 16.84375 
Q 12.5 11.625 15.84375 8.84375 
Q 19.1875 6.0625 25.203125 6.0625 
Q 31.25 6.0625 34.171875 8.515625 
Q 37.109375 10.984375 37.109375 14.3125 
Q 37.109375 17.28125 34.515625 19 
Q 32.71875 20.171875 25.53125 21.96875 
Q 15.875 24.421875 12.140625 26.203125 
Q 8.40625 27.984375 6.46875 31.125 
Q 4.546875 34.28125 4.546875 38.09375 
Q 4.546875 41.546875 6.125 44.5 
Q 7.71875 47.46875 10.453125 49.421875 
Q 12.5 50.921875 16.03125 51.96875 
Q 19.578125 53.03125 23.640625 53.03125 
Q 29.734375 53.03125 34.34375 51.265625 
Q 38.96875 49.515625 41.15625 46.5 
Q 43.359375 43.5 44.1875 38.484375 
L 35.59375 37.3125 
Q 35.015625 41.3125 32.203125 43.546875 
Q 29.390625 45.796875 24.265625 45.796875 
Q 18.21875 45.796875 15.625 43.796875 
Q 13.03125 41.796875 13.03125 39.109375 
Q 13.03125 37.40625 14.109375 36.03125 
Q 15.1875 34.625 17.484375 33.6875 
Q 18.796875 33.203125 25.25 31.453125 
Q 34.578125 28.953125 38.25 27.359375 
Q 41.9375 25.78125 44.03125 22.75 
Q 46.140625 19.734375 46.140625 15.234375 
Q 46.140625 10.84375 43.578125 6.953125 
Q 41.015625 3.078125 36.171875 0.953125 
Q 31.34375 -1.171875 25.25 -1.171875 
Q 15.140625 -1.171875 9.84375 3.03125 
Q 4.546875 7.234375 3.078125 15.484375 
z
" id="ArialMT-115"/>
       <path d="M 42.09375 16.703125 
L 51.171875 15.578125 
Q 49.03125 7.625 43.21875 3.21875 
Q 37.40625 -1.171875 28.375 -1.171875 
Q 17 -1.171875 10.328125 5.828125 
Q 3.65625 12.84375 3.65625 25.484375 
Q 3.65625 38.578125 10.390625 45.796875 
Q 17.140625 53.03125 27.875 53.03125 
Q 38.28125 53.03125 44.875 45.953125 
Q 51.46875 38.875 51.46875 26.03125 
Q 51.46875 25.25 51.421875 23.6875 
L 12.75 23.6875 
Q 13.234375 15.140625 17.578125 10.59375 
Q 21.921875 6.0625 28.421875 6.0625 
Q 33.25 6.0625 36.671875 8.59375 
Q 40.09375 11.140625 42.09375 16.703125 
z
M 13.234375 30.90625 
L 42.1875 30.90625 
Q 41.609375 37.453125 38.875 40.71875 
Q 34.671875 45.796875 27.984375 45.796875 
Q 21.921875 45.796875 17.796875 41.75 
Q 13.671875 37.703125 13.234375 30.90625 
z
" id="ArialMT-101"/>
       <path d="M 40.234375 0 
L 40.234375 6.546875 
Q 35.296875 -1.171875 25.734375 -1.171875 
Q 19.53125 -1.171875 14.328125 2.25 
Q 9.125 5.671875 6.265625 11.796875 
Q 3.421875 17.921875 3.421875 25.875 
Q 3.421875 33.640625 6 39.96875 
Q 8.59375 46.296875 13.765625 49.65625 
Q 18.953125 53.03125 25.34375 53.03125 
Q 30.03125 53.03125 33.6875 51.046875 
Q 37.359375 49.078125 39.65625 45.90625 
L 39.65625 71.578125 
L 48.390625 71.578125 
L 48.390625 0 
z
M 12.453125 25.875 
Q 12.453125 15.921875 16.640625 10.984375 
Q 20.84375 6.0625 26.5625 6.0625 
Q 32.328125 6.0625 36.34375 10.765625 
Q 40.375 15.484375 40.375 25.140625 
Q 40.375 35.796875 36.265625 40.765625 
Q 32.171875 45.75 26.171875 45.75 
Q 20.3125 45.75 16.375 40.96875 
Q 12.453125 36.1875 12.453125 25.875 
z
" id="ArialMT-100"/>
       <path id="ArialMT-32"/>
       <path d="M 25.921875 0 
L 25.921875 63.140625 
L 2.34375 63.140625 
L 2.34375 71.578125 
L 59.078125 71.578125 
L 59.078125 63.140625 
L 35.40625 63.140625 
L 35.40625 0 
z
" id="ArialMT-84"/>
       <path d="M 6.640625 61.46875 
L 6.640625 71.578125 
L 15.4375 71.578125 
L 15.4375 61.46875 
z
M 6.640625 0 
L 6.640625 51.859375 
L 15.4375 51.859375 
L 15.4375 0 
z
" id="ArialMT-105"/>
       <path d="M 6.59375 0 
L 6.59375 51.859375 
L 14.453125 51.859375 
L 14.453125 44.578125 
Q 16.890625 48.390625 20.9375 50.703125 
Q 25 53.03125 30.171875 53.03125 
Q 35.9375 53.03125 39.625 50.640625 
Q 43.3125 48.25 44.828125 43.953125 
Q 50.984375 53.03125 60.84375 53.03125 
Q 68.5625 53.03125 72.703125 48.75 
Q 76.859375 44.484375 76.859375 35.59375 
L 76.859375 0 
L 68.109375 0 
L 68.109375 32.671875 
Q 68.109375 37.9375 67.25 40.25 
Q 66.40625 42.578125 64.15625 43.984375 
Q 61.921875 45.40625 58.890625 45.40625 
Q 53.421875 45.40625 49.796875 41.765625 
Q 46.1875 38.140625 46.1875 30.125 
L 46.1875 0 
L 37.40625 0 
L 37.40625 33.6875 
Q 37.40625 39.546875 35.25 42.46875 
Q 33.109375 45.40625 28.21875 45.40625 
Q 24.515625 45.40625 21.359375 43.453125 
Q 18.21875 41.5 16.796875 37.734375 
Q 15.375 33.984375 15.375 26.90625 
L 15.375 0 
z
" id="ArialMT-109"/>
       <path d="M 23.390625 -21.046875 
Q 16.109375 -11.859375 11.078125 0.4375 
Q 6.0625 12.75 6.0625 25.921875 
Q 6.0625 37.546875 9.8125 48.1875 
Q 14.203125 60.546875 23.390625 72.796875 
L 29.6875 72.796875 
Q 23.78125 62.640625 21.875 58.296875 
Q 18.890625 51.5625 17.1875 44.234375 
Q 15.09375 35.109375 15.09375 25.875 
Q 15.09375 2.390625 29.6875 -21.046875 
z
" id="ArialMT-40"/>
       <path d="M 12.359375 -21.046875 
L 6.0625 -21.046875 
Q 20.65625 2.390625 20.65625 25.875 
Q 20.65625 35.0625 18.5625 44.09375 
Q 16.890625 51.421875 13.921875 58.15625 
Q 12.015625 62.546875 6.0625 72.796875 
L 12.359375 72.796875 
Q 21.53125 60.546875 25.921875 48.1875 
Q 29.6875 37.546875 29.6875 25.921875 
Q 29.6875 12.75 24.625 0.4375 
Q 19.578125 -11.859375 12.359375 -21.046875 
z
" id="ArialMT-41"/>
      </defs>
      <use xlink:href="#ArialMT-69"/>
      <use x="66.699219" xlink:href="#ArialMT-108"/>
      <use x="88.916016" xlink:href="#ArialMT-97"/>
      <use x="144.53125" xlink:href="#ArialMT-112"/>
      <use x="200.146484" xlink:href="#ArialMT-115"/>
      <use x="250.146484" xlink:href="#ArialMT-101"/>
      <use x="305.761719" xlink:href="#ArialMT-100"/>
      <use x="361.376953" xlink:href="#ArialMT-32"/>
      <use x="387.410156" xlink:href="#ArialMT-84"/>
      <use x="444.744141" xlink:href="#ArialMT-105"/>
      <use x="466.960938" xlink:href="#ArialMT-109"/>
      <use x="550.261719" xlink:href="#ArialMT-101"/>
      <use x="605.876953" xlink:href="#ArialMT-32"/>
      <use x="633.660156" xlink:href="#ArialMT-40"/>
      <use x="666.960938" xlink:href="#ArialMT-115"/>
      <use x="716.960938" xlink:href="#ArialMT-41"/>
     </g>
    </g>
   </g>
   <g id="matplotlib.axis_2">
    <g id="ytick_1">
     <g id="line2d_10">
      <path clip-path="url(#p33f82801a2)" d="M 74.707531 227.577536 
L 508.340563 227.577536 
" style="fill:none;stroke:#ffffff;stroke-linecap:round;stroke-width:0.8;"/>
     </g>
     <g id="line2d_11">
      <defs>
       <path d="M 0 0 
L -3.5 0 
" id="me16903dde6" style="stroke:#262626;stroke-width:0.8;"/>
      </defs>
      <g>
       <use style="fill:#262626;stroke:#262626;stroke-width:0.8;" x="74.707531" xlink:href="#me16903dde6" y="227.577536"/>
      </g>
     </g>
     <g id="text_11">
      <!-- 0 -->
      <g style="fill:#262626;" transform="translate(60.478313 232.230114)scale(0.13 -0.13)">
       <use xlink:href="#ArialMT-48"/>
      </g>
     </g>
    </g>
    <g id="ytick_2">
     <g id="line2d_12">
      <path clip-path="url(#p33f82801a2)" d="M 74.707531 175.382815 
L 508.340563 175.382815 
" style="fill:none;stroke:#ffffff;stroke-linecap:round;stroke-width:0.8;"/>
     </g>
     <g id="line2d_13">
      <g>
       <use style="fill:#262626;stroke:#262626;stroke-width:0.8;" x="74.707531" xlink:href="#me16903dde6" y="175.382815"/>
      </g>
     </g>
     <g id="text_12">
      <!-- 50 -->
      <g style="fill:#262626;" transform="translate(53.249094 180.035393)scale(0.13 -0.13)">
       <use xlink:href="#ArialMT-53"/>
       <use x="55.615234" xlink:href="#ArialMT-48"/>
      </g>
     </g>
    </g>
    <g id="ytick_3">
     <g id="line2d_14">
      <path clip-path="url(#p33f82801a2)" d="M 74.707531 123.188094 
L 508.340563 123.188094 
" style="fill:none;stroke:#ffffff;stroke-linecap:round;stroke-width:0.8;"/>
     </g>
     <g id="line2d_15">
      <g>
       <use style="fill:#262626;stroke:#262626;stroke-width:0.8;" x="74.707531" xlink:href="#me16903dde6" y="123.188094"/>
      </g>
     </g>
     <g id="text_13">
      <!-- 100 -->
      <g style="fill:#262626;" transform="translate(46.019875 127.840672)scale(0.13 -0.13)">
       <use xlink:href="#ArialMT-49"/>
       <use x="55.615234" xlink:href="#ArialMT-48"/>
       <use x="111.230469" xlink:href="#ArialMT-48"/>
      </g>
     </g>
    </g>
    <g id="ytick_4">
     <g id="line2d_16">
      <path clip-path="url(#p33f82801a2)" d="M 74.707531 70.993372 
L 508.340563 70.993372 
" style="fill:none;stroke:#ffffff;stroke-linecap:round;stroke-width:0.8;"/>
     </g>
     <g id="line2d_17">
      <g>
       <use style="fill:#262626;stroke:#262626;stroke-width:0.8;" x="74.707531" xlink:href="#me16903dde6" y="70.993372"/>
      </g>
     </g>
     <g id="text_14">
      <!-- 150 -->
      <g style="fill:#262626;" transform="translate(46.019875 75.64595)scale(0.13 -0.13)">
       <use xlink:href="#ArialMT-49"/>
       <use x="55.615234" xlink:href="#ArialMT-53"/>
       <use x="111.230469" xlink:href="#ArialMT-48"/>
      </g>
     </g>
    </g>
    <g id="ytick_5">
     <g id="line2d_18">
      <path clip-path="url(#p33f82801a2)" d="M 74.707531 18.798651 
L 508.340563 18.798651 
" style="fill:none;stroke:#ffffff;stroke-linecap:round;stroke-width:0.8;"/>
     </g>
     <g id="line2d_19">
      <g>
       <use style="fill:#262626;stroke:#262626;stroke-width:0.8;" x="74.707531" xlink:href="#me16903dde6" y="18.798651"/>
      </g>
     </g>
     <g id="text_15">
      <!-- 200 -->
      <g style="fill:#262626;" transform="translate(46.019875 23.451229)scale(0.13 -0.13)">
       <use xlink:href="#ArialMT-50"/>
       <use x="55.615234" xlink:href="#ArialMT-48"/>
       <use x="111.230469" xlink:href="#ArialMT-48"/>
      </g>
     </g>
    </g>
    <g id="text_16">
     <!-- Mass Flow Rate -->
     <g style="fill:#262626;" transform="translate(24.060938 176.496652)rotate(-90)scale(0.14 -0.14)">
      <defs>
       <path d="M 7.421875 0 
L 7.421875 71.578125 
L 21.6875 71.578125 
L 38.625 20.90625 
Q 40.96875 13.8125 42.046875 10.296875 
Q 43.265625 14.203125 45.84375 21.78125 
L 62.984375 71.578125 
L 75.734375 71.578125 
L 75.734375 0 
L 66.609375 0 
L 66.609375 59.90625 
L 45.796875 0 
L 37.25 0 
L 16.546875 60.9375 
L 16.546875 0 
z
" id="ArialMT-77"/>
       <path d="M 8.203125 0 
L 8.203125 71.578125 
L 56.5 71.578125 
L 56.5 63.140625 
L 17.671875 63.140625 
L 17.671875 40.96875 
L 51.265625 40.96875 
L 51.265625 32.515625 
L 17.671875 32.515625 
L 17.671875 0 
z
" id="ArialMT-70"/>
       <path d="M 3.328125 25.921875 
Q 3.328125 40.328125 11.328125 47.265625 
Q 18.015625 53.03125 27.640625 53.03125 
Q 38.328125 53.03125 45.109375 46.015625 
Q 51.90625 39.015625 51.90625 26.65625 
Q 51.90625 16.65625 48.90625 10.90625 
Q 45.90625 5.171875 40.15625 2 
Q 34.421875 -1.171875 27.640625 -1.171875 
Q 16.75 -1.171875 10.03125 5.8125 
Q 3.328125 12.796875 3.328125 25.921875 
z
M 12.359375 25.921875 
Q 12.359375 15.96875 16.703125 11.015625 
Q 21.046875 6.0625 27.640625 6.0625 
Q 34.1875 6.0625 38.53125 11.03125 
Q 42.875 16.015625 42.875 26.21875 
Q 42.875 35.84375 38.5 40.796875 
Q 34.125 45.75 27.640625 45.75 
Q 21.046875 45.75 16.703125 40.8125 
Q 12.359375 35.890625 12.359375 25.921875 
z
" id="ArialMT-111"/>
       <path d="M 16.15625 0 
L 0.296875 51.859375 
L 9.375 51.859375 
L 17.625 21.921875 
L 20.703125 10.796875 
Q 20.90625 11.625 23.390625 21.484375 
L 31.640625 51.859375 
L 40.671875 51.859375 
L 48.4375 21.78125 
L 51.03125 11.859375 
L 54 21.875 
L 62.890625 51.859375 
L 71.4375 51.859375 
L 55.21875 0 
L 46.09375 0 
L 37.84375 31.0625 
L 35.84375 39.890625 
L 25.34375 0 
z
" id="ArialMT-119"/>
       <path d="M 7.859375 0 
L 7.859375 71.578125 
L 39.59375 71.578125 
Q 49.171875 71.578125 54.140625 69.640625 
Q 59.125 67.71875 62.109375 62.828125 
Q 65.09375 57.953125 65.09375 52.046875 
Q 65.09375 44.4375 60.15625 39.203125 
Q 55.21875 33.984375 44.921875 32.5625 
Q 48.6875 30.765625 50.640625 29 
Q 54.78125 25.203125 58.5 19.484375 
L 70.953125 0 
L 59.03125 0 
L 49.5625 14.890625 
Q 45.40625 21.34375 42.71875 24.75 
Q 40.046875 28.171875 37.921875 29.53125 
Q 35.796875 30.90625 33.59375 31.453125 
Q 31.984375 31.78125 28.328125 31.78125 
L 17.328125 31.78125 
L 17.328125 0 
z
M 17.328125 39.984375 
L 37.703125 39.984375 
Q 44.1875 39.984375 47.84375 41.328125 
Q 51.515625 42.671875 53.421875 45.625 
Q 55.328125 48.578125 55.328125 52.046875 
Q 55.328125 57.125 51.640625 60.390625 
Q 47.953125 63.671875 39.984375 63.671875 
L 17.328125 63.671875 
z
" id="ArialMT-82"/>
       <path d="M 25.78125 7.859375 
L 27.046875 0.09375 
Q 23.34375 -0.6875 20.40625 -0.6875 
Q 15.625 -0.6875 12.984375 0.828125 
Q 10.359375 2.34375 9.28125 4.8125 
Q 8.203125 7.28125 8.203125 15.1875 
L 8.203125 45.015625 
L 1.765625 45.015625 
L 1.765625 51.859375 
L 8.203125 51.859375 
L 8.203125 64.703125 
L 16.9375 69.96875 
L 16.9375 51.859375 
L 25.78125 51.859375 
L 25.78125 45.015625 
L 16.9375 45.015625 
L 16.9375 14.703125 
Q 16.9375 10.9375 17.40625 9.859375 
Q 17.875 8.796875 18.921875 8.15625 
Q 19.96875 7.515625 21.921875 7.515625 
Q 23.390625 7.515625 25.78125 7.859375 
z
" id="ArialMT-116"/>
      </defs>
      <use xlink:href="#ArialMT-77"/>
      <use x="83.300781" xlink:href="#ArialMT-97"/>
      <use x="138.916016" xlink:href="#ArialMT-115"/>
      <use x="188.916016" xlink:href="#ArialMT-115"/>
      <use x="238.916016" xlink:href="#ArialMT-32"/>
      <use x="266.699219" xlink:href="#ArialMT-70"/>
      <use x="327.783203" xlink:href="#ArialMT-108"/>
      <use x="350" xlink:href="#ArialMT-111"/>
      <use x="405.615234" xlink:href="#ArialMT-119"/>
      <use x="477.832031" xlink:href="#ArialMT-32"/>
      <use x="505.615234" xlink:href="#ArialMT-82"/>
      <use x="577.832031" xlink:href="#ArialMT-97"/>
      <use x="633.447266" xlink:href="#ArialMT-116"/>
      <use x="661.230469" xlink:href="#ArialMT-101"/>
     </g>
     <!-- (slm) -->
     <g style="fill:#262626;" transform="translate(39.073313 141.867433)rotate(-90)scale(0.14 -0.14)">
      <use xlink:href="#ArialMT-40"/>
      <use x="33.300781" xlink:href="#ArialMT-115"/>
      <use x="83.300781" xlink:href="#ArialMT-108"/>
      <use x="105.517578" xlink:href="#ArialMT-109"/>
      <use x="188.818359" xlink:href="#ArialMT-41"/>
     </g>
    </g>
   </g>
   <g id="line2d_20">
    <path clip-path="url(#p33f82801a2)" d="M 94.418124 227.598414 
L 136.070733 227.587975 
L 136.513143 226.544081 
L 136.735424 222.973962 
L 137.842452 223.464592 
L 138.057391 221.710849 
L 138.724172 219.810962 
L 140.043932 219.518671 
L 141.153312 219.487354 
L 141.805019 211.240588 
L 142.022104 210.854347 
L 142.679631 210.572496 
L 143.11676 205.822776 
L 143.337199 188.410617 
L 143.778385 187.878231 
L 144.215837 187.826036 
L 145.116666 186.270634 
L 145.556459 186.594241 
L 145.774444 182.397785 
L 146.214186 158.283824 
L 146.433207 153.857712 
L 146.870305 153.57586 
L 147.091252 154.254392 
L 147.523271 154.619755 
L 147.741076 153.440154 
L 148.175769 153.711567 
L 148.398497 154.525804 
L 148.835289 154.17088 
L 149.054313 152.584161 
L 149.493156 140.871665 
L 149.715828 137.907005 
L 150.1512 137.280668 
L 150.373423 136.560381 
L 150.809011 136.163701 
L 151.247716 135.923606 
L 151.468335 136.37248 
L 151.685458 133.251236 
L 152.123156 113.834799 
L 152.564163 112.853539 
L 152.785072 114.367186 
L 153.222365 112.8431 
L 153.440229 113.751288 
L 153.876676 113.365047 
L 154.092346 112.394225 
L 154.743851 114.012262 
L 155.184284 112.655199 
L 155.618037 107.853284 
L 155.839399 107.550555 
L 156.27849 107.435727 
L 156.494177 106.109981 
L 156.942375 104.387555 
L 157.152216 106.235248 
L 157.592504 104.972136 
L 157.811209 100.211977 
L 158.248255 100.316367 
L 158.466641 85.973257 
L 158.907493 77.820442 
L 159.12442 81.79768 
L 159.562837 82.319627 
L 160.002927 80.952125 
L 160.22289 79.365406 
L 160.878721 66.003557 
L 161.317625 69.187435 
L 161.537393 66.932623 
L 161.977467 64.030596 
L 162.201498 68.060029 
L 162.637073 66.07663 
L 162.855944 67.642471 
L 163.293988 69.479725 
L 163.732148 66.755161 
L 163.9534 63.122408 
L 164.391158 66.46287 
L 164.609134 66.389798 
L 165.048278 68.895144 
L 165.265884 61.191204 
L 165.704369 62.683973 
L 165.92404 66.233214 
L 166.358411 61.567006 
L 166.797089 61.671395 
L 167.015126 61.212082 
L 167.456704 61.859296 
L 167.674913 60.93023 
L 168.116338 56.107438 
L 168.334894 50.585236 
L 168.776647 54.3015 
L 168.996586 53.998771 
L 169.435249 51.994494 
L 169.651725 53.330679 
L 170.087062 57.036504 
L 170.307404 53.696042 
L 170.745985 53.476824 
L 171.183174 52.81917 
L 171.399844 54.478962 
L 171.835691 52.255467 
L 172.054627 55.387151 
L 172.489593 54.113599 
L 172.70772 50.198995 
L 173.147368 50.856649 
L 173.365854 52.192834 
L 173.803324 47.704088 
L 174.243017 44.979523 
L 174.461976 45.960784 
L 174.897952 44.749866 
L 175.115836 47.28653 
L 175.548145 45.919028 
L 175.765965 46.69151 
L 176.207716 45.720688 
L 176.426878 46.722827 
L 176.866328 43.72685 
L 177.308484 45.960784 
L 177.526539 44.280114 
L 177.962351 47.119507 
L 178.182682 43.72685 
L 178.84102 46.29483 
L 179.277588 48.048573 
L 179.7166 43.601583 
L 179.935424 45.438837 
L 180.373082 43.090074 
L 180.591153 40.490777 
L 181.031092 43.476315 
L 181.251795 43.319731 
L 181.691041 42.275837 
L 181.90894 40.950091 
L 182.345646 41.586866 
L 182.566412 38.309038 
L 183.004378 41.023163 
L 183.443827 40.271559 
L 183.663424 38.966691 
L 184.107841 42.756028 
L 184.326178 39.895757 
L 184.764439 43.184025 
L 184.982037 40.344632 
L 185.415954 40.292437 
L 186.072564 42.495054 
L 186.725929 41.127553 
L 187.166384 37.557434 
L 187.384301 40.490777 
L 187.826336 38.444744 
L 188.046856 41.398965 
L 188.488153 38.590889 
L 188.705921 39.697417 
L 189.359698 38.757912 
L 189.795028 39.060642 
L 190.228703 38.987569 
L 190.449643 37.286021 
L 190.884875 37.682701 
L 191.108876 39.154592 
L 191.534713 37.995869 
L 191.968922 39.415566 
L 192.407112 38.235965 
L 192.83922 36.482223 
L 193.279255 38.674401 
L 193.496962 36.294322 
L 193.936847 37.390411 
L 194.153812 38.893619 
L 194.59141 36.242127 
L 195.029459 37.453044 
L 195.24608 36.043787 
L 195.681324 38.38211 
L 195.900784 36.60749 
L 196.337716 35.636668 
L 196.555782 38.726596 
L 196.99158 35.636668 
L 197.423246 37.630506 
L 197.641465 35.563595 
L 198.077273 34.738919 
L 198.293941 38.121137 
L 198.953651 36.711879 
L 199.391892 33.371417 
L 199.609839 35.81413 
L 200.045786 35.480084 
L 200.485021 36.064665 
L 200.704162 34.62409 
L 201.143279 36.01247 
L 201.359748 38.016747 
L 201.804027 33.778536 
L 202.020987 36.910219 
L 202.460369 33.663708 
L 202.678263 35.146038 
L 203.118561 34.258727 
L 203.340955 34.707602 
L 203.776923 34.92682 
L 204.436523 31.920404 
L 204.872958 30.886948 
L 205.092342 34.864186 
L 205.526306 35.198232 
L 205.744824 35.605351 
L 206.183046 34.164777 
L 206.619913 34.644968 
L 206.838899 33.100005 
L 207.288884 33.84117 
L 207.509931 35.751496 
L 207.942999 30.897387 
L 208.16192 35.250427 
L 208.597972 36.40915 
L 208.819907 30.834754 
L 209.257692 33.120883 
L 209.693962 33.768097 
L 209.914239 35.751496 
L 210.565376 32.35884 
L 211.003485 31.56548 
L 211.220581 33.893364 
L 211.658046 34.92682 
L 212.31374 32.484107 
L 212.752315 34.196094 
L 212.970286 32.118744 
L 213.40191 34.404873 
L 213.622748 32.337962 
L 214.066377 32.953859 
L 214.28327 32.661569 
L 214.93873 34.759797 
L 216.036982 30.897387 
L 216.474393 32.066549 
L 216.69424 34.477945 
L 217.13537 32.65113 
L 217.362918 32.985176 
L 218.012649 29.749104 
L 218.66726 33.3401 
L 219.115624 37.463483 
L 219.545917 34.780675 
L 219.763557 30.886948 
L 220.199188 33.162638 
L 220.415951 31.742942 
L 220.851509 32.087427 
L 221.071801 34.206533 
L 221.505979 33.256589 
L 221.946013 31.388018 
L 222.164264 33.632391 
L 222.60178 36.294322 
L 222.82296 31.722064 
L 223.260215 32.536302 
L 223.478332 29.268912 
L 223.916345 33.329661 
L 224.134099 30.08315 
L 224.571399 31.210556 
L 225.010001 34.373556 
L 225.230124 31.523724 
L 225.666549 33.548879 
L 225.885847 32.045671 
L 226.323761 30.385879 
L 226.542173 33.528001 
L 226.982929 34.811991 
L 227.201059 30.552902 
L 227.639009 29.843054 
L 228.07399 32.244011 
L 228.292921 30.417196 
L 228.728965 31.784698 
L 228.950878 29.937005 
L 229.384826 29.519447 
L 229.602884 33.872487 
L 230.040582 35.72018 
L 230.694286 31.106166 
L 231.129507 31.241873 
L 231.347001 33.162638 
L 231.779342 32.045671 
L 231.999463 30.093589 
L 232.433547 29.634275 
L 233.088371 30.761681 
L 233.525865 29.811737 
L 233.742994 31.419335 
L 234.178786 32.369279 
L 234.397581 29.957882 
L 234.833581 31.231434 
L 235.051363 32.25445 
L 235.487762 29.195839 
L 235.923162 29.174962 
L 236.143553 33.006054 
L 236.587293 28.454674 
L 236.803591 30.500708 
L 237.23961 31.575919 
L 237.457982 31.053972 
L 237.893658 28.183262 
L 238.112798 31.450651 
L 238.553361 30.991338 
L 238.99239 30.960021 
L 239.210238 31.481968 
L 239.64722 31.064411 
L 239.866758 29.341985 
L 240.301964 31.273189 
L 240.520594 29.425496 
L 240.958346 32.619813 
L 241.175488 27.327268 
L 241.612815 31.523724 
L 242.050834 32.880787 
L 242.268243 30.511146 
L 242.711682 28.590381 
L 242.922718 30.312807 
L 243.578181 31.137483 
L 244.018856 31.106166 
L 244.234758 27.911849 
L 244.670708 28.872232 
L 245.106661 27.097612 
L 245.326722 29.248034 
L 245.764383 30.239734 
L 245.984239 32.598935 
L 246.420506 30.062272 
L 246.639803 29.613397 
L 247.295214 28.840915 
L 247.729084 37.505239 
L 248.165038 27.922288 
L 248.820932 31.638552 
L 249.040944 30.980899 
L 249.475015 33.079127 
L 249.695202 29.425496 
L 250.132828 30.291929 
L 250.353979 30.260612 
L 250.791791 29.404618 
L 251.445253 30.761681 
L 251.883202 26.680054 
L 252.101647 34.091704 
L 252.536152 30.928704 
L 252.754638 32.703325 
L 253.189574 29.749104 
L 253.634751 29.081011 
L 253.850321 31.106166 
L 254.504448 29.09145 
L 254.943368 32.776397 
L 255.164588 30.37544 
L 255.598619 32.692886 
L 255.818182 29.97876 
L 256.254123 32.65113 
L 256.688513 30.208417 
L 256.904101 29.895249 
L 257.34436 30.646853 
L 257.560263 32.504985 
L 257.999789 30.333684 
L 258.216141 33.319222 
L 258.656502 30.897387 
L 258.872765 31.513285 
L 259.308572 30.302368 
L 259.744541 31.972599 
L 259.967155 31.252311 
L 260.406884 28.329407 
L 260.622354 31.502846 
L 261.058638 31.711625 
L 261.279032 28.705209 
L 261.717393 29.749104 
L 262.154848 33.131321 
L 262.373643 30.396318 
L 262.810737 29.843054 
L 263.027314 30.646853 
L 263.465074 30.939143 
L 263.68522 31.283628 
L 264.132785 32.45279 
L 264.354698 29.143645 
L 264.800245 29.863932 
L 265.021394 28.423358 
L 265.46413 33.486246 
L 265.689096 33.131321 
L 266.126855 31.732503 
L 266.571822 31.095727 
L 266.792791 28.955744 
L 267.450423 33.862048 
L 267.896083 30.845193 
L 268.115764 31.669869 
L 268.550221 32.223133 
L 269.217388 26.439958 
L 269.440474 27.515169 
L 269.880571 31.930843 
L 270.318861 31.440212 
L 270.541829 28.412919 
L 270.982408 32.484107 
L 271.202033 29.425496 
L 271.638463 36.972853 
L 271.854941 27.452536 
L 272.296728 29.696909 
L 272.514574 30.1771 
L 272.955689 33.945559 
L 273.393156 31.826453 
L 273.609048 31.388018 
L 274.275252 29.060133 
L 274.709633 33.580196 
L 274.927678 34.342239 
L 275.363993 27.797021 
L 275.58491 33.026932 
L 276.025179 30.197978 
L 276.465705 29.081011 
L 276.681877 33.663708 
L 277.116413 29.206278 
L 277.334179 29.227156 
L 277.7781 29.498569 
L 277.990908 29.300229 
L 278.43189 31.283628 
L 278.650976 28.60082 
L 279.08807 26.72181 
L 279.524316 27.034978 
L 279.742228 30.511146 
L 280.181926 28.653014 
L 280.402579 31.033094 
L 280.838351 30.615536 
L 281.052766 32.598935 
L 281.492778 31.304506 
L 281.712463 28.621698 
L 282.150402 30.605097 
L 282.589188 30.594658 
L 282.806767 28.767843 
L 283.246592 33.496685 
L 283.464557 33.350539 
L 283.902628 26.147668 
L 284.123299 28.089311 
L 284.560484 35.093843 
L 284.779119 30.396318 
L 285.217468 30.020516 
L 285.656994 33.528001 
L 285.873955 32.139622 
L 286.310063 33.235711 
L 286.529356 32.797275 
L 287.183598 29.519447 
L 287.622064 31.471529 
L 288.059976 29.237595 
L 288.277495 32.191816 
L 288.717774 30.260612 
L 288.935426 27.41078 
L 289.373736 28.653014 
L 289.594246 28.392041 
L 290.248336 31.36714 
L 290.687718 29.321107 
L 291.126957 29.811737 
L 291.344101 29.122767 
L 291.779558 27.024539 
L 291.998682 27.588242 
L 292.436149 27.671754 
L 292.656355 30.605097 
L 293.098253 27.974483 
L 293.318954 31.972599 
L 293.755395 26.774004 
L 294.192684 28.527747 
L 294.409095 26.272935 
L 294.844932 28.788721 
L 295.065165 33.914242 
L 295.500821 25.155968 
L 295.719427 34.091704 
L 296.154733 30.782559 
L 296.588693 28.69477 
L 296.807051 29.78042 
L 297.24533 29.613397 
L 297.463108 29.310668 
L 297.902846 31.784698 
L 298.11883 27.577803 
L 298.555639 32.765958 
L 298.773427 28.09975 
L 299.212899 31.36714 
L 299.43791 30.824315 
L 299.887862 31.273189 
L 300.337793 26.826199 
L 300.55666 33.173077 
L 301.004587 34.436189 
L 301.229614 28.287651 
L 301.669603 28.454674 
L 301.89249 27.0141 
L 302.331517 27.90141 
L 302.552962 26.878394 
L 302.989999 28.517308 
L 303.211084 27.191562 
L 303.64772 30.792998 
L 304.089204 28.016239 
L 304.304516 28.987061 
L 304.742066 34.227411 
L 304.961791 26.502592 
L 305.399203 24.894994 
L 305.619712 27.786582 
L 306.053914 27.755265 
L 306.269964 27.870094 
L 306.709692 28.423358 
L 307.146496 34.143899 
L 307.364157 31.273189 
L 307.80208 29.602958 
L 308.018694 27.932727 
L 308.456184 26.304252 
L 308.676224 32.912104 
L 309.112279 28.903549 
L 309.33249 34.613652 
L 309.769931 26.32513 
L 309.987491 30.991338 
L 310.424387 28.913988 
L 310.863078 31.085288 
L 311.081245 28.632136 
L 311.521519 28.277212 
L 311.739876 27.055856 
L 312.180451 29.843054 
L 312.618912 25.343869 
L 312.839422 29.937005 
L 313.059119 29.728226 
L 313.496306 29.154084 
L 313.929159 30.949582 
L 314.587148 27.776143 
L 314.806623 26.596542 
L 315.247658 25.646598 
L 315.681988 30.030955 
L 315.901655 28.840915 
L 316.345316 30.229295 
L 316.55761 26.408641 
L 317.211649 31.899526 
L 317.647406 24.853239 
L 317.868005 28.433797 
L 318.303272 32.306645 
L 318.737847 31.241873 
L 318.955829 26.586103 
L 319.391855 29.644714 
L 319.613826 25.771866 
L 320.049227 29.550764 
L 320.270405 32.525863 
L 320.708574 25.834499 
L 320.928433 29.237595 
L 321.363088 32.870348 
L 321.804181 27.160245 
L 322.023129 31.440212 
L 322.464692 28.820037 
L 322.682977 33.026932 
L 323.120923 28.266773 
L 323.34037 29.446374 
L 323.777118 29.540325 
L 323.996852 32.327523 
L 324.872005 28.715648 
L 325.092356 27.243757 
L 325.52765 27.108051 
L 325.747011 30.97046 
L 326.185134 27.254196 
L 326.407499 28.778282 
L 326.8431 28.788721 
L 327.058945 27.055856 
L 327.931684 30.271051 
L 328.154656 30.104028 
L 328.591772 35.354817 
L 328.809312 27.034978 
L 329.465054 33.872487 
L 330.121106 26.784443 
L 330.558108 27.525608 
L 330.998189 25.803183 
L 331.218173 27.442097 
L 331.658588 26.565226 
L 331.877552 30.229295 
L 332.313962 28.350285 
L 332.532462 30.302368 
L 332.970312 32.870348 
L 333.187955 28.809599 
L 333.626925 30.511146 
L 334.065559 29.968321 
L 334.28396 30.104028 
L 334.943058 25.709232 
L 335.376991 31.575919 
L 335.594415 32.035232 
L 336.032736 34.488384 
L 336.251289 30.145783 
L 336.69116 28.016239 
L 337.125244 27.723948 
L 337.341943 33.360978 
L 338.003187 26.857516 
L 338.65718 31.36714 
L 339.097526 29.394179 
L 339.534524 31.805576 
L 339.753687 27.504731 
L 340.195609 26.293813 
L 340.413674 34.864186 
L 340.855634 33.914242 
L 341.074479 35.281744 
L 341.508085 27.295952 
L 341.725968 30.448513 
L 342.164137 28.318968 
L 342.600655 28.131067 
L 342.822267 28.308529 
L 343.26054 30.145783 
L 343.478388 30.156222 
L 343.913549 30.333684 
L 344.131983 28.934866 
L 344.569005 36.085543 
L 344.787782 31.398457 
L 345.228359 29.018377 
L 345.665376 28.726087 
L 345.884866 29.738665 
L 346.542467 31.179239 
L 347.198907 27.31683 
L 347.632815 32.619813 
L 347.850741 29.644714 
L 348.287071 31.043533 
L 348.72476 28.016239 
L 348.942898 29.676031 
L 349.37645 26.147668 
L 349.595615 28.913988 
L 350.035281 27.024539 
L 350.255048 28.277212 
L 350.691326 31.65943 
L 350.912777 31.492407 
L 351.354898 29.425496 
L 352.005714 31.179239 
L 352.442148 27.765704 
L 352.663684 29.456813 
L 353.101728 26.502592 
L 353.320754 27.723948 
L 353.757884 25.897133 
L 353.977852 26.043278 
L 354.416594 30.229295 
L 354.856389 27.21244 
L 355.076772 31.96216 
L 355.516489 27.682193 
L 355.736638 30.688609 
L 356.179219 28.0058 
L 356.394978 34.164777 
L 356.833826 26.575664 
L 357.053827 29.28979 
L 357.711604 33.601074 
L 358.142964 29.143645 
L 358.580599 29.947443 
L 358.798637 31.127044 
L 359.234504 31.346262 
L 359.452735 30.333684 
L 359.893129 37.00417 
L 360.113161 28.820037 
L 360.550329 28.966183 
L 360.987006 30.636414 
L 361.203742 27.045417 
L 361.639892 32.066549 
L 361.859138 31.471529 
L 362.299843 29.300229 
L 362.517659 29.822176 
L 362.952852 29.498569 
L 363.172985 32.25445 
L 363.607225 29.435935 
L 364.045288 30.636414 
L 364.262742 32.223133 
L 364.699407 30.302368 
L 364.923255 32.839031 
L 365.360528 31.878648 
L 365.580176 31.972599 
L 366.239624 30.469391 
L 366.67866 31.325384 
L 367.116114 29.258473 
L 367.333704 29.321107 
L 367.76845 31.544602 
L 367.988301 29.154084 
L 368.430179 30.145783 
L 368.647889 33.914242 
L 369.086703 29.540325 
L 369.3094 29.957882 
L 369.745156 28.653014 
L 370.181114 28.256334 
L 370.399058 29.749104 
L 370.836585 29.227156 
L 371.059234 28.69477 
L 372.147335 29.916127 
L 372.36286 28.830476 
L 372.803156 32.275328 
L 373.245255 30.365001 
L 373.464042 26.878394 
L 373.902384 28.287651 
L 374.121446 30.030955 
L 374.557775 29.717787 
L 374.77811 33.267028 
L 375.218032 31.231434 
L 375.43885 27.066295 
L 375.87972 27.087173 
L 376.315662 33.110444 
L 376.534397 29.895249 
L 376.973278 33.684586 
L 377.189228 28.632136 
L 377.627943 28.830476 
L 377.846517 34.874625 
L 378.282725 28.830476 
L 378.50055 33.371417 
L 378.937263 26.784443 
L 379.378936 29.081011 
L 379.598176 31.826453 
L 380.038833 33.64283 
L 380.256958 27.911849 
L 380.693232 32.598935 
L 380.90889 36.304761 
L 381.349006 31.96216 
L 381.569591 34.185655 
L 382.011307 29.48813 
L 382.231411 31.795137 
L 383.106252 28.663453 
L 383.327742 33.256589 
L 383.764488 29.028816 
L 383.985489 31.471529 
L 384.421824 32.285767 
L 384.641341 30.511146 
L 385.082202 31.398457 
L 385.301503 37.787091 
L 385.737599 38.538695 
L 386.171932 31.419335 
L 386.391886 31.304506 
L 386.829928 31.481968 
L 387.051463 27.890971 
L 387.488076 33.350539 
L 387.707475 31.137483 
L 388.144984 34.488384 
L 388.363293 25.949328 
L 388.799071 30.448513 
L 389.237925 31.231434 
L 389.462889 30.093589 
L 389.903872 31.440212 
L 390.123891 29.550764 
L 390.563243 28.214579 
L 390.78151 28.945305 
L 391.219031 33.955998 
L 391.437763 33.058249 
L 391.8769 34.780675 
L 392.319242 28.851354 
L 392.534281 32.003915 
L 392.972242 29.540325 
L 393.193426 30.218856 
L 393.631119 32.65113 
L 393.84985 31.304506 
L 394.286579 36.21081 
L 394.503748 28.653014 
L 394.943077 33.110444 
L 395.377011 25.364747 
L 396.046989 32.661569 
L 396.267898 33.914242 
L 396.71302 30.751242 
L 396.929762 27.629998 
L 397.377434 31.795137 
L 397.594708 30.855632 
L 398.035876 32.484107 
L 398.255796 31.095727 
L 398.702323 30.542463 
L 399.140534 28.611259 
L 399.366395 38.100259 
L 399.80465 31.053972 
L 400.029773 29.540325 
L 400.468023 35.062526 
L 400.688494 32.348401 
L 401.131927 34.394434 
L 401.786563 31.220995 
L 402.00638 36.106421 
L 402.453367 32.818153 
L 402.891028 32.828592 
L 403.109097 34.206533 
L 403.549738 31.408896 
L 403.774824 34.196094 
L 404.21483 33.705463 
L 404.435577 32.640691 
L 404.874253 32.108305 
L 405.093867 35.177355 
L 405.540355 36.315199 
L 405.75748 31.241873 
L 406.196669 35.208671 
L 406.416724 27.442097 
L 406.860991 32.076988 
L 407.302748 31.972599 
L 407.530927 32.379717 
L 407.960882 36.492662 
L 408.178295 33.569757 
L 408.617774 33.945559 
L 408.836084 33.089566 
L 409.270229 33.496685 
L 409.493745 35.542718 
L 409.937399 35.41745 
L 410.374329 34.436189 
L 410.593852 39.133714 
L 411.24868 31.753381 
L 411.685948 33.475807 
L 411.907644 30.960021 
L 412.346156 30.918265 
L 412.565504 36.670124 
L 413.001242 33.747219 
L 413.440678 33.277467 
L 413.659992 34.780675 
L 414.095238 35.177355 
L 414.315567 39.091959 
L 414.976667 34.143899 
L 415.418385 37.59919 
L 415.637014 36.221249 
L 416.073459 36.430028 
L 416.728913 32.880787 
L 417.168846 31.983038 
L 417.387945 37.860163 
L 417.825728 34.373556 
L 418.046243 36.858025 
L 418.485054 39.77049 
L 418.701026 38.924936 
L 419.141485 38.517817 
L 419.575628 37.421728 
L 419.797431 33.851609 
L 420.237545 38.079381 
L 420.455701 38.611767 
L 420.892938 33.235711 
L 421.112637 33.914242 
L 421.552771 36.878902 
L 421.77206 30.77212 
L 422.212063 35.041648 
L 422.647715 36.189932 
L 422.868823 38.538695 
L 423.307484 33.851609 
L 423.528627 36.5031 
L 423.966367 36.148176 
L 424.186514 36.315199 
L 424.621851 38.38211 
L 424.840111 38.08982 
L 425.275881 39.801807 
L 425.714819 33.621952 
L 425.93391 37.160754 
L 426.373247 35.61579 
L 426.592932 37.359094 
L 427.251046 35.81413 
L 427.904264 37.087681 
L 428.345417 39.018886 
L 428.783158 38.194209 
L 429.000908 38.68484 
L 429.443201 38.935374 
L 429.656662 34.196094 
L 430.097876 39.269421 
L 430.319225 39.979269 
L 430.757212 36.294322 
L 430.979008 39.728734 
L 431.420457 36.837147 
L 431.638576 38.966691 
L 432.075985 37.171193 
L 432.515258 40.36551 
L 432.734998 36.764074 
L 433.175436 40.104536 
L 433.393617 35.688863 
L 433.830544 40.85614 
L 434.049812 37.421728 
L 434.489024 40.56385 
L 434.703972 39.405127 
L 435.140226 39.509516 
L 435.358606 38.862302 
L 435.791747 40.094097 
L 436.232677 40.751751 
L 436.45293 42.682955 
L 436.890486 43.852117 
L 437.548828 41.733012 
L 437.770887 44.060896 
L 438.206308 42.756028 
L 438.644674 40.417705 
L 439.302278 42.421982 
L 439.520959 40.981408 
L 439.959693 41.795645 
L 440.179542 42.609883 
L 440.619957 41.284137 
L 440.839149 47.704088 
L 441.273239 46.681071 
L 441.713402 46.795899 
L 441.932467 46.190441 
L 442.370294 48.006817 
L 442.599051 47.432675 
L 443.029777 49.896266 
L 443.250405 47.463992 
L 443.688588 49.280368 
L 443.905753 49.134223 
L 444.342528 47.265652 
L 444.779819 47.161263 
L 445.000628 51.211573 
L 445.438365 49.478708 
L 445.65841 50.574797 
L 446.09317 51.305523 
L 446.312824 48.560081 
L 446.750785 47.056873 
L 446.970203 51.378596 
L 447.410333 48.737543 
L 447.852021 47.568381 
L 448.069253 48.643593 
L 448.725563 50.125923 
L 449.169313 60.356088 
L 449.387637 57.829864 
L 449.819128 57.307916 
L 450.478268 62.892752 
L 450.915924 64.333326 
L 451.137995 63.675672 
L 451.57614 66.233214 
L 451.795833 66.233214 
L 452.233931 64.68825 
L 452.453934 65.074491 
L 452.891813 65.08493 
L 453.11277 64.542105 
L 453.550809 68.195735 
L 453.770858 64.928346 
L 454.210251 67.183158 
L 454.64927 63.811379 
L 455.305201 79.177505 
L 455.525243 77.110594 
L 455.958745 80.50325 
L 456.178607 76.045821 
L 456.614866 76.880937 
L 456.834621 81.651534 
L 457.493735 101.589918 
L 457.929704 102.404156 
L 458.369269 101.287188 
L 458.587479 101.683868 
L 459.025419 101.381139 
L 459.24606 101.944842 
L 459.901868 100.608657 
L 460.33926 102.174499 
L 460.995207 100.660852 
L 461.21103 101.527284 
L 461.866836 100.77568 
L 462.304797 106.21437 
L 462.744471 129.200925 
L 462.962993 129.336632 
L 463.400213 131.079935 
L 463.617956 129.900335 
L 464.060174 129.075658 
L 464.938062 138.700365 
L 465.377988 141.257906 
L 465.595442 141.748536 
L 466.25537 153.690689 
L 466.693274 154.223075 
L 466.912928 155.674088 
L 467.348942 156.04989 
L 467.570528 156.018573 
L 468.006457 155.36092 
L 468.226812 156.24823 
L 468.665871 154.703266 
L 468.889382 161.0919 
L 469.325842 165.090016 
L 469.98198 164.192267 
L 470.422156 165.267478 
L 470.642414 165.34055 
L 471.085377 163.712075 
L 471.304677 184.871815 
L 471.960622 194.256426 
L 473.054832 195.060225 
L 473.275741 194.924518 
L 473.712707 194.914079 
L 473.92985 195.10198 
L 474.370208 195.091542 
L 474.588563 214.88378 
L 475.03109 216.136453 
L 475.24811 216.251282 
L 475.687859 217.368249 
L 477.881128 217.764928 
L 478.316861 217.785806 
L 478.754572 219.080235 
L 478.974013 226.575397 
L 479.410185 225.604576 
L 479.629595 225.510625 
L 480.288311 225.541942 
L 480.944166 227.681925 
L 482.257944 227.723681 
L 484.011302 227.587975 
L 488.62997 227.577536 
L 488.62997 227.577536 
" style="fill:none;stroke:#6dc4bc;stroke-linecap:round;stroke-width:1.5;"/>
   </g>
   <g id="patch_3">
    <path d="M 74.707531 237.932969 
L 74.707531 14.706585 
" style="fill:none;stroke:#ffffff;stroke-linecap:square;stroke-linejoin:miter;stroke-width:0.8;"/>
   </g>
   <g id="patch_4">
    <path d="M 508.340563 237.932969 
L 508.340563 14.706585 
" style="fill:none;stroke:#ffffff;stroke-linecap:square;stroke-linejoin:miter;stroke-width:0.8;"/>
   </g>
   <g id="patch_5">
    <path d="M 74.707531 237.932969 
L 508.340563 237.932969 
" style="fill:none;stroke:#ffffff;stroke-linecap:square;stroke-linejoin:miter;stroke-width:0.8;"/>
   </g>
   <g id="patch_6">
    <path d="M 74.707531 14.706585 
L 508.340563 14.706585 
" style="fill:none;stroke:#ffffff;stroke-linecap:square;stroke-linejoin:miter;stroke-width:0.8;"/>
   </g>
  </g>
  <g id="axes_2">
   <g id="matplotlib.axis_3">
    <g id="ytick_6">
     <g id="line2d_21">
      <path clip-path="url(#p33f82801a2)" d="M 74.707531 228.012047 
L 508.340563 228.012047 
" style="fill:none;stroke:#ffffff;stroke-linecap:round;stroke-width:0.8;"/>
     </g>
     <g id="line2d_22">
      <defs>
       <path d="M 0 0 
L 3.5 0 
" id="m5b3a8c5ea8" style="stroke:#262626;stroke-width:0.8;"/>
      </defs>
      <g>
       <use style="fill:#262626;stroke:#262626;stroke-width:0.8;" x="508.340563" xlink:href="#m5b3a8c5ea8" y="228.012047"/>
      </g>
     </g>
     <g id="text_17">
      <!-- 0 -->
      <g style="fill:#262626;" transform="translate(515.340563 232.664625)scale(0.13 -0.13)">
       <use xlink:href="#ArialMT-48"/>
      </g>
     </g>
    </g>
    <g id="ytick_7">
     <g id="line2d_23">
      <path clip-path="url(#p33f82801a2)" d="M 74.707531 205.438846 
L 508.340563 205.438846 
" style="fill:none;stroke:#ffffff;stroke-linecap:round;stroke-width:0.8;"/>
     </g>
     <g id="line2d_24">
      <g>
       <use style="fill:#262626;stroke:#262626;stroke-width:0.8;" x="508.340563" xlink:href="#m5b3a8c5ea8" y="205.438846"/>
      </g>
     </g>
     <g id="text_18">
      <!-- 10 -->
      <g style="fill:#262626;" transform="translate(515.340563 210.091424)scale(0.13 -0.13)">
       <use xlink:href="#ArialMT-49"/>
       <use x="55.615234" xlink:href="#ArialMT-48"/>
      </g>
     </g>
    </g>
    <g id="ytick_8">
     <g id="line2d_25">
      <path clip-path="url(#p33f82801a2)" d="M 74.707531 182.865645 
L 508.340563 182.865645 
" style="fill:none;stroke:#ffffff;stroke-linecap:round;stroke-width:0.8;"/>
     </g>
     <g id="line2d_26">
      <g>
       <use style="fill:#262626;stroke:#262626;stroke-width:0.8;" x="508.340563" xlink:href="#m5b3a8c5ea8" y="182.865645"/>
      </g>
     </g>
     <g id="text_19">
      <!-- 20 -->
      <g style="fill:#262626;" transform="translate(515.340563 187.518223)scale(0.13 -0.13)">
       <use xlink:href="#ArialMT-50"/>
       <use x="55.615234" xlink:href="#ArialMT-48"/>
      </g>
     </g>
    </g>
    <g id="ytick_9">
     <g id="line2d_27">
      <path clip-path="url(#p33f82801a2)" d="M 74.707531 160.292444 
L 508.340563 160.292444 
" style="fill:none;stroke:#ffffff;stroke-linecap:round;stroke-width:0.8;"/>
     </g>
     <g id="line2d_28">
      <g>
       <use style="fill:#262626;stroke:#262626;stroke-width:0.8;" x="508.340563" xlink:href="#m5b3a8c5ea8" y="160.292444"/>
      </g>
     </g>
     <g id="text_20">
      <!-- 30 -->
      <g style="fill:#262626;" transform="translate(515.340563 164.945022)scale(0.13 -0.13)">
       <defs>
        <path d="M 4.203125 18.890625 
L 12.984375 20.0625 
Q 14.5 12.59375 18.140625 9.296875 
Q 21.78125 6 27 6 
Q 33.203125 6 37.46875 10.296875 
Q 41.75 14.59375 41.75 20.953125 
Q 41.75 27 37.796875 30.921875 
Q 33.84375 34.859375 27.734375 34.859375 
Q 25.25 34.859375 21.53125 33.890625 
L 22.515625 41.609375 
Q 23.390625 41.5 23.921875 41.5 
Q 29.546875 41.5 34.03125 44.421875 
Q 38.53125 47.359375 38.53125 53.46875 
Q 38.53125 58.296875 35.25 61.46875 
Q 31.984375 64.65625 26.8125 64.65625 
Q 21.6875 64.65625 18.265625 61.421875 
Q 14.84375 58.203125 13.875 51.765625 
L 5.078125 53.328125 
Q 6.6875 62.15625 12.390625 67.015625 
Q 18.109375 71.875 26.609375 71.875 
Q 32.46875 71.875 37.390625 69.359375 
Q 42.328125 66.84375 44.9375 62.5 
Q 47.5625 58.15625 47.5625 53.265625 
Q 47.5625 48.640625 45.0625 44.828125 
Q 42.578125 41.015625 37.703125 38.765625 
Q 44.046875 37.3125 47.5625 32.6875 
Q 51.078125 28.078125 51.078125 21.140625 
Q 51.078125 11.765625 44.234375 5.25 
Q 37.40625 -1.265625 26.953125 -1.265625 
Q 17.53125 -1.265625 11.296875 4.34375 
Q 5.078125 9.96875 4.203125 18.890625 
z
" id="ArialMT-51"/>
       </defs>
       <use xlink:href="#ArialMT-51"/>
       <use x="55.615234" xlink:href="#ArialMT-48"/>
      </g>
     </g>
    </g>
    <g id="ytick_10">
     <g id="line2d_29">
      <path clip-path="url(#p33f82801a2)" d="M 74.707531 137.719243 
L 508.340563 137.719243 
" style="fill:none;stroke:#ffffff;stroke-linecap:round;stroke-width:0.8;"/>
     </g>
     <g id="line2d_30">
      <g>
       <use style="fill:#262626;stroke:#262626;stroke-width:0.8;" x="508.340563" xlink:href="#m5b3a8c5ea8" y="137.719243"/>
      </g>
     </g>
     <g id="text_21">
      <!-- 40 -->
      <g style="fill:#262626;" transform="translate(515.340563 142.371821)scale(0.13 -0.13)">
       <defs>
        <path d="M 32.328125 0 
L 32.328125 17.140625 
L 1.265625 17.140625 
L 1.265625 25.203125 
L 33.9375 71.578125 
L 41.109375 71.578125 
L 41.109375 25.203125 
L 50.78125 25.203125 
L 50.78125 17.140625 
L 41.109375 17.140625 
L 41.109375 0 
z
M 32.328125 25.203125 
L 32.328125 57.46875 
L 9.90625 25.203125 
z
" id="ArialMT-52"/>
       </defs>
       <use xlink:href="#ArialMT-52"/>
       <use x="55.615234" xlink:href="#ArialMT-48"/>
      </g>
     </g>
    </g>
    <g id="ytick_11">
     <g id="line2d_31">
      <path clip-path="url(#p33f82801a2)" d="M 74.707531 115.146042 
L 508.340563 115.146042 
" style="fill:none;stroke:#ffffff;stroke-linecap:round;stroke-width:0.8;"/>
     </g>
     <g id="line2d_32">
      <g>
       <use style="fill:#262626;stroke:#262626;stroke-width:0.8;" x="508.340563" xlink:href="#m5b3a8c5ea8" y="115.146042"/>
      </g>
     </g>
     <g id="text_22">
      <!-- 50 -->
      <g style="fill:#262626;" transform="translate(515.340563 119.79862)scale(0.13 -0.13)">
       <use xlink:href="#ArialMT-53"/>
       <use x="55.615234" xlink:href="#ArialMT-48"/>
      </g>
     </g>
    </g>
    <g id="ytick_12">
     <g id="line2d_33">
      <path clip-path="url(#p33f82801a2)" d="M 74.707531 92.572841 
L 508.340563 92.572841 
" style="fill:none;stroke:#ffffff;stroke-linecap:round;stroke-width:0.8;"/>
     </g>
     <g id="line2d_34">
      <g>
       <use style="fill:#262626;stroke:#262626;stroke-width:0.8;" x="508.340563" xlink:href="#m5b3a8c5ea8" y="92.572841"/>
      </g>
     </g>
     <g id="text_23">
      <!-- 60 -->
      <g style="fill:#262626;" transform="translate(515.340563 97.22542)scale(0.13 -0.13)">
       <defs>
        <path d="M 49.75 54.046875 
L 41.015625 53.375 
Q 39.84375 58.546875 37.703125 60.890625 
Q 34.125 64.65625 28.90625 64.65625 
Q 24.703125 64.65625 21.53125 62.3125 
Q 17.390625 59.28125 14.984375 53.46875 
Q 12.59375 47.65625 12.5 36.921875 
Q 15.671875 41.75 20.265625 44.09375 
Q 24.859375 46.4375 29.890625 46.4375 
Q 38.671875 46.4375 44.84375 39.96875 
Q 51.03125 33.5 51.03125 23.25 
Q 51.03125 16.5 48.125 10.71875 
Q 45.21875 4.9375 40.140625 1.859375 
Q 35.0625 -1.21875 28.609375 -1.21875 
Q 17.625 -1.21875 10.6875 6.859375 
Q 3.765625 14.9375 3.765625 33.5 
Q 3.765625 54.25 11.421875 63.671875 
Q 18.109375 71.875 29.4375 71.875 
Q 37.890625 71.875 43.28125 67.140625 
Q 48.6875 62.40625 49.75 54.046875 
z
M 13.875 23.1875 
Q 13.875 18.65625 15.796875 14.5 
Q 17.71875 10.359375 21.1875 8.171875 
Q 24.65625 6 28.46875 6 
Q 34.03125 6 38.03125 10.484375 
Q 42.046875 14.984375 42.046875 22.703125 
Q 42.046875 30.125 38.078125 34.390625 
Q 34.125 38.671875 28.125 38.671875 
Q 22.171875 38.671875 18.015625 34.390625 
Q 13.875 30.125 13.875 23.1875 
z
" id="ArialMT-54"/>
       </defs>
       <use xlink:href="#ArialMT-54"/>
       <use x="55.615234" xlink:href="#ArialMT-48"/>
      </g>
     </g>
    </g>
    <g id="ytick_13">
     <g id="line2d_35">
      <path clip-path="url(#p33f82801a2)" d="M 74.707531 69.999641 
L 508.340563 69.999641 
" style="fill:none;stroke:#ffffff;stroke-linecap:round;stroke-width:0.8;"/>
     </g>
     <g id="line2d_36">
      <g>
       <use style="fill:#262626;stroke:#262626;stroke-width:0.8;" x="508.340563" xlink:href="#m5b3a8c5ea8" y="69.999641"/>
      </g>
     </g>
     <g id="text_24">
      <!-- 70 -->
      <g style="fill:#262626;" transform="translate(515.340563 74.652219)scale(0.13 -0.13)">
       <use xlink:href="#ArialMT-55"/>
       <use x="55.615234" xlink:href="#ArialMT-48"/>
      </g>
     </g>
    </g>
    <g id="ytick_14">
     <g id="line2d_37">
      <path clip-path="url(#p33f82801a2)" d="M 74.707531 47.42644 
L 508.340563 47.42644 
" style="fill:none;stroke:#ffffff;stroke-linecap:round;stroke-width:0.8;"/>
     </g>
     <g id="line2d_38">
      <g>
       <use style="fill:#262626;stroke:#262626;stroke-width:0.8;" x="508.340563" xlink:href="#m5b3a8c5ea8" y="47.42644"/>
      </g>
     </g>
     <g id="text_25">
      <!-- 80 -->
      <g style="fill:#262626;" transform="translate(515.340563 52.079018)scale(0.13 -0.13)">
       <defs>
        <path d="M 17.671875 38.8125 
Q 12.203125 40.828125 9.5625 44.53125 
Q 6.9375 48.25 6.9375 53.421875 
Q 6.9375 61.234375 12.546875 66.546875 
Q 18.171875 71.875 27.484375 71.875 
Q 36.859375 71.875 42.578125 66.421875 
Q 48.296875 60.984375 48.296875 53.171875 
Q 48.296875 48.1875 45.671875 44.5 
Q 43.0625 40.828125 37.75 38.8125 
Q 44.34375 36.671875 47.78125 31.875 
Q 51.21875 27.09375 51.21875 20.453125 
Q 51.21875 11.28125 44.71875 5.03125 
Q 38.234375 -1.21875 27.640625 -1.21875 
Q 17.046875 -1.21875 10.546875 5.046875 
Q 4.046875 11.328125 4.046875 20.703125 
Q 4.046875 27.6875 7.59375 32.390625 
Q 11.140625 37.109375 17.671875 38.8125 
z
M 15.921875 53.71875 
Q 15.921875 48.640625 19.1875 45.40625 
Q 22.46875 42.1875 27.6875 42.1875 
Q 32.765625 42.1875 36.015625 45.375 
Q 39.265625 48.578125 39.265625 53.21875 
Q 39.265625 58.0625 35.90625 61.359375 
Q 32.5625 64.65625 27.59375 64.65625 
Q 22.5625 64.65625 19.234375 61.421875 
Q 15.921875 58.203125 15.921875 53.71875 
z
M 13.09375 20.65625 
Q 13.09375 16.890625 14.875 13.375 
Q 16.65625 9.859375 20.171875 7.921875 
Q 23.6875 6 27.734375 6 
Q 34.03125 6 38.125 10.046875 
Q 42.234375 14.109375 42.234375 20.359375 
Q 42.234375 26.703125 38.015625 30.859375 
Q 33.796875 35.015625 27.4375 35.015625 
Q 21.234375 35.015625 17.15625 30.90625 
Q 13.09375 26.8125 13.09375 20.65625 
z
" id="ArialMT-56"/>
       </defs>
       <use xlink:href="#ArialMT-56"/>
       <use x="55.615234" xlink:href="#ArialMT-48"/>
      </g>
     </g>
    </g>
    <g id="ytick_15">
     <g id="line2d_39">
      <path clip-path="url(#p33f82801a2)" d="M 74.707531 24.853239 
L 508.340563 24.853239 
" style="fill:none;stroke:#ffffff;stroke-linecap:round;stroke-width:0.8;"/>
     </g>
     <g id="line2d_40">
      <g>
       <use style="fill:#262626;stroke:#262626;stroke-width:0.8;" x="508.340563" xlink:href="#m5b3a8c5ea8" y="24.853239"/>
      </g>
     </g>
     <g id="text_26">
      <!-- 90 -->
      <g style="fill:#262626;" transform="translate(515.340563 29.505817)scale(0.13 -0.13)">
       <defs>
        <path d="M 5.46875 16.546875 
L 13.921875 17.328125 
Q 14.984375 11.375 18.015625 8.6875 
Q 21.046875 6 25.78125 6 
Q 29.828125 6 32.875 7.859375 
Q 35.9375 9.71875 37.890625 12.8125 
Q 39.84375 15.921875 41.15625 21.1875 
Q 42.484375 26.46875 42.484375 31.9375 
Q 42.484375 32.515625 42.4375 33.6875 
Q 39.796875 29.5 35.234375 26.875 
Q 30.671875 24.265625 25.34375 24.265625 
Q 16.453125 24.265625 10.296875 30.703125 
Q 4.15625 37.15625 4.15625 47.703125 
Q 4.15625 58.59375 10.578125 65.234375 
Q 17 71.875 26.65625 71.875 
Q 33.640625 71.875 39.421875 68.109375 
Q 45.21875 64.359375 48.21875 57.390625 
Q 51.21875 50.4375 51.21875 37.25 
Q 51.21875 23.53125 48.234375 15.40625 
Q 45.265625 7.28125 39.375 3.03125 
Q 33.5 -1.21875 25.59375 -1.21875 
Q 17.1875 -1.21875 11.859375 3.4375 
Q 6.546875 8.109375 5.46875 16.546875 
z
M 41.453125 48.140625 
Q 41.453125 55.71875 37.421875 60.15625 
Q 33.40625 64.59375 27.734375 64.59375 
Q 21.875 64.59375 17.53125 59.8125 
Q 13.1875 55.03125 13.1875 47.40625 
Q 13.1875 40.578125 17.3125 36.296875 
Q 21.4375 32.03125 27.484375 32.03125 
Q 33.59375 32.03125 37.515625 36.296875 
Q 41.453125 40.578125 41.453125 48.140625 
z
" id="ArialMT-57"/>
       </defs>
       <use xlink:href="#ArialMT-57"/>
       <use x="55.615234" xlink:href="#ArialMT-48"/>
      </g>
     </g>
    </g>
    <g id="text_27">
     <!-- Valve Position (degrees) -->
     <g style="fill:#262626;" transform="translate(543.990563 202.060871)rotate(-90)scale(0.14 -0.14)">
      <defs>
       <path d="M 28.171875 0 
L 0.4375 71.578125 
L 10.6875 71.578125 
L 29.296875 19.578125 
Q 31.546875 13.328125 33.0625 7.859375 
Q 34.71875 13.71875 36.921875 19.578125 
L 56.25 71.578125 
L 65.921875 71.578125 
L 37.890625 0 
z
" id="ArialMT-86"/>
       <path d="M 21 0 
L 1.265625 51.859375 
L 10.546875 51.859375 
L 21.6875 20.796875 
Q 23.484375 15.765625 25 10.359375 
Q 26.171875 14.453125 28.265625 20.21875 
L 39.796875 51.859375 
L 48.828125 51.859375 
L 29.203125 0 
z
" id="ArialMT-118"/>
       <path d="M 7.71875 0 
L 7.71875 71.578125 
L 34.71875 71.578125 
Q 41.84375 71.578125 45.609375 70.90625 
Q 50.875 70.015625 54.4375 67.546875 
Q 58.015625 65.09375 60.1875 60.640625 
Q 62.359375 56.203125 62.359375 50.875 
Q 62.359375 41.75 56.546875 35.421875 
Q 50.734375 29.109375 35.546875 29.109375 
L 17.1875 29.109375 
L 17.1875 0 
z
M 17.1875 37.546875 
L 35.6875 37.546875 
Q 44.875 37.546875 48.734375 40.96875 
Q 52.59375 44.390625 52.59375 50.59375 
Q 52.59375 55.078125 50.3125 58.265625 
Q 48.046875 61.46875 44.34375 62.5 
Q 41.9375 63.140625 35.5 63.140625 
L 17.1875 63.140625 
z
" id="ArialMT-80"/>
       <path d="M 6.59375 0 
L 6.59375 51.859375 
L 14.5 51.859375 
L 14.5 44.484375 
Q 20.21875 53.03125 31 53.03125 
Q 35.6875 53.03125 39.625 51.34375 
Q 43.5625 49.65625 45.515625 46.921875 
Q 47.46875 44.1875 48.25 40.4375 
Q 48.734375 37.984375 48.734375 31.890625 
L 48.734375 0 
L 39.9375 0 
L 39.9375 31.546875 
Q 39.9375 36.921875 38.90625 39.578125 
Q 37.890625 42.234375 35.28125 43.8125 
Q 32.671875 45.40625 29.15625 45.40625 
Q 23.53125 45.40625 19.453125 41.84375 
Q 15.375 38.28125 15.375 28.328125 
L 15.375 0 
z
" id="ArialMT-110"/>
       <path d="M 4.984375 -4.296875 
L 13.53125 -5.5625 
Q 14.0625 -9.515625 16.5 -11.328125 
Q 19.78125 -13.765625 25.4375 -13.765625 
Q 31.546875 -13.765625 34.859375 -11.328125 
Q 38.1875 -8.890625 39.359375 -4.5 
Q 40.046875 -1.8125 39.984375 6.78125 
Q 34.234375 0 25.640625 0 
Q 14.9375 0 9.078125 7.71875 
Q 3.21875 15.4375 3.21875 26.21875 
Q 3.21875 33.640625 5.90625 39.90625 
Q 8.59375 46.1875 13.6875 49.609375 
Q 18.796875 53.03125 25.6875 53.03125 
Q 34.859375 53.03125 40.828125 45.609375 
L 40.828125 51.859375 
L 48.921875 51.859375 
L 48.921875 7.03125 
Q 48.921875 -5.078125 46.453125 -10.125 
Q 44 -15.1875 38.640625 -18.109375 
Q 33.296875 -21.046875 25.484375 -21.046875 
Q 16.21875 -21.046875 10.5 -16.875 
Q 4.78125 -12.703125 4.984375 -4.296875 
z
M 12.25 26.859375 
Q 12.25 16.65625 16.296875 11.96875 
Q 20.359375 7.28125 26.46875 7.28125 
Q 32.515625 7.28125 36.609375 11.9375 
Q 40.71875 16.609375 40.71875 26.5625 
Q 40.71875 36.078125 36.5 40.90625 
Q 32.28125 45.75 26.3125 45.75 
Q 20.453125 45.75 16.34375 40.984375 
Q 12.25 36.234375 12.25 26.859375 
z
" id="ArialMT-103"/>
       <path d="M 6.5 0 
L 6.5 51.859375 
L 14.40625 51.859375 
L 14.40625 44 
Q 17.4375 49.515625 20 51.265625 
Q 22.5625 53.03125 25.640625 53.03125 
Q 30.078125 53.03125 34.671875 50.203125 
L 31.640625 42.046875 
Q 28.421875 43.953125 25.203125 43.953125 
Q 22.3125 43.953125 20.015625 42.21875 
Q 17.71875 40.484375 16.75 37.40625 
Q 15.28125 32.71875 15.28125 27.15625 
L 15.28125 0 
z
" id="ArialMT-114"/>
      </defs>
      <use xlink:href="#ArialMT-86"/>
      <use x="59.324219" xlink:href="#ArialMT-97"/>
      <use x="114.939453" xlink:href="#ArialMT-108"/>
      <use x="137.15625" xlink:href="#ArialMT-118"/>
      <use x="187.15625" xlink:href="#ArialMT-101"/>
      <use x="242.771484" xlink:href="#ArialMT-32"/>
      <use x="270.554688" xlink:href="#ArialMT-80"/>
      <use x="337.253906" xlink:href="#ArialMT-111"/>
      <use x="392.869141" xlink:href="#ArialMT-115"/>
      <use x="442.869141" xlink:href="#ArialMT-105"/>
      <use x="465.085938" xlink:href="#ArialMT-116"/>
      <use x="492.869141" xlink:href="#ArialMT-105"/>
      <use x="515.085938" xlink:href="#ArialMT-111"/>
      <use x="570.701172" xlink:href="#ArialMT-110"/>
      <use x="626.316406" xlink:href="#ArialMT-32"/>
      <use x="654.099609" xlink:href="#ArialMT-40"/>
      <use x="687.400391" xlink:href="#ArialMT-100"/>
      <use x="743.015625" xlink:href="#ArialMT-101"/>
      <use x="798.630859" xlink:href="#ArialMT-103"/>
      <use x="854.246094" xlink:href="#ArialMT-114"/>
      <use x="887.546875" xlink:href="#ArialMT-101"/>
      <use x="943.162109" xlink:href="#ArialMT-101"/>
      <use x="998.777344" xlink:href="#ArialMT-115"/>
      <use x="1048.777344" xlink:href="#ArialMT-41"/>
     </g>
     <!-- 0 = Closed    90 = Open -->
     <g style="fill:#262626;" transform="translate(559.1775 200.643371)rotate(-90)scale(0.14 -0.14)">
      <defs>
       <path d="M 52.828125 42.09375 
L 5.5625 42.09375 
L 5.5625 50.296875 
L 52.828125 50.296875 
z
M 52.828125 20.359375 
L 5.5625 20.359375 
L 5.5625 28.5625 
L 52.828125 28.5625 
z
" id="ArialMT-61"/>
       <path d="M 58.796875 25.09375 
L 68.265625 22.703125 
Q 65.28125 11.03125 57.546875 4.90625 
Q 49.8125 -1.21875 38.625 -1.21875 
Q 27.046875 -1.21875 19.796875 3.484375 
Q 12.546875 8.203125 8.765625 17.140625 
Q 4.984375 26.078125 4.984375 36.328125 
Q 4.984375 47.515625 9.25 55.828125 
Q 13.53125 64.15625 21.40625 68.46875 
Q 29.296875 72.796875 38.765625 72.796875 
Q 49.515625 72.796875 56.828125 67.328125 
Q 64.15625 61.859375 67.046875 51.953125 
L 57.71875 49.75 
Q 55.21875 57.5625 50.484375 61.125 
Q 45.75 64.703125 38.578125 64.703125 
Q 30.328125 64.703125 24.78125 60.734375 
Q 19.234375 56.78125 16.984375 50.109375 
Q 14.75 43.453125 14.75 36.375 
Q 14.75 27.25 17.40625 20.4375 
Q 20.0625 13.625 25.671875 10.25 
Q 31.296875 6.890625 37.84375 6.890625 
Q 45.796875 6.890625 51.3125 11.46875 
Q 56.84375 16.0625 58.796875 25.09375 
z
" id="ArialMT-67"/>
       <path d="M 4.828125 34.859375 
Q 4.828125 52.6875 14.390625 62.765625 
Q 23.96875 72.859375 39.109375 72.859375 
Q 49.03125 72.859375 56.984375 68.109375 
Q 64.9375 63.375 69.109375 54.90625 
Q 73.296875 46.4375 73.296875 35.6875 
Q 73.296875 24.8125 68.890625 16.21875 
Q 64.5 7.625 56.4375 3.203125 
Q 48.390625 -1.21875 39.0625 -1.21875 
Q 28.953125 -1.21875 20.984375 3.65625 
Q 13.03125 8.546875 8.921875 16.984375 
Q 4.828125 25.4375 4.828125 34.859375 
z
M 14.59375 34.71875 
Q 14.59375 21.78125 21.546875 14.328125 
Q 28.515625 6.890625 39.015625 6.890625 
Q 49.703125 6.890625 56.609375 14.40625 
Q 63.53125 21.921875 63.53125 35.75 
Q 63.53125 44.484375 60.578125 51 
Q 57.625 57.515625 51.921875 61.109375 
Q 46.234375 64.703125 39.15625 64.703125 
Q 29.109375 64.703125 21.84375 57.78125 
Q 14.59375 50.875 14.59375 34.71875 
z
" id="ArialMT-79"/>
      </defs>
      <use xlink:href="#ArialMT-48"/>
      <use x="55.615234" xlink:href="#ArialMT-32"/>
      <use x="83.398438" xlink:href="#ArialMT-61"/>
      <use x="141.796875" xlink:href="#ArialMT-32"/>
      <use x="169.580078" xlink:href="#ArialMT-67"/>
      <use x="241.796875" xlink:href="#ArialMT-108"/>
      <use x="264.013672" xlink:href="#ArialMT-111"/>
      <use x="319.628906" xlink:href="#ArialMT-115"/>
      <use x="369.628906" xlink:href="#ArialMT-101"/>
      <use x="425.244141" xlink:href="#ArialMT-100"/>
      <use x="480.859375" xlink:href="#ArialMT-32"/>
      <use x="508.642578" xlink:href="#ArialMT-32"/>
      <use x="536.425781" xlink:href="#ArialMT-32"/>
      <use x="564.208984" xlink:href="#ArialMT-32"/>
      <use x="591.992188" xlink:href="#ArialMT-57"/>
      <use x="647.607422" xlink:href="#ArialMT-48"/>
      <use x="703.222656" xlink:href="#ArialMT-32"/>
      <use x="731.005859" xlink:href="#ArialMT-61"/>
      <use x="789.404297" xlink:href="#ArialMT-32"/>
      <use x="817.1875" xlink:href="#ArialMT-79"/>
      <use x="894.970703" xlink:href="#ArialMT-112"/>
      <use x="950.585938" xlink:href="#ArialMT-101"/>
      <use x="1006.201172" xlink:href="#ArialMT-110"/>
     </g>
    </g>
   </g>
   <g id="line2d_41">
    <path clip-path="url(#p33f82801a2)" d="M 94.418124 227.786315 
L 135.408028 185.574429 
L 156.27849 164.129888 
L 165.704369 154.423412 
L 205.092342 113.79165 
L 222.60178 95.73309 
L 234.833581 83.092097 
L 266.126855 50.81242 
L 278.43189 38.171427 
L 291.344101 24.853239 
L 291.998682 25.304703 
L 396.267898 132.753139 
L 411.24868 148.102916 
L 473.92985 212.66227 
L 488.62997 227.786315 
L 488.62997 227.786315 
" style="fill:none;stroke:#f26a3f;stroke-linecap:round;stroke-width:1.5;"/>
   </g>
   <g id="patch_7">
    <path d="M 74.707531 237.932969 
L 74.707531 14.706585 
" style="fill:none;stroke:#ffffff;stroke-linecap:square;stroke-linejoin:miter;stroke-width:0.8;"/>
   </g>
   <g id="patch_8">
    <path d="M 508.340563 237.932969 
L 508.340563 14.706585 
" style="fill:none;stroke:#ffffff;stroke-linecap:square;stroke-linejoin:miter;stroke-width:0.8;"/>
   </g>
   <g id="patch_9">
    <path d="M 74.707531 237.932969 
L 508.340563 237.932969 
" style="fill:none;stroke:#ffffff;stroke-linecap:square;stroke-linejoin:miter;stroke-width:0.8;"/>
   </g>
   <g id="patch_10">
    <path d="M 74.707531 14.706585 
L 508.340563 14.706585 
" style="fill:none;stroke:#ffffff;stroke-linecap:square;stroke-linejoin:miter;stroke-width:0.8;"/>
   </g>
  </g>
 </g>
 <defs>
  <clipPath id="p33f82801a2">
   <rect height="223.226384" width="433.633031" x="74.707531" y="14.706585"/>
  </clipPath>
 </defs>
</svg>
